<svg id="グループ_321" data-name="グループ 321" xmlns="http://www.w3.org/2000/svg" width="580" height="46.366" viewBox="0 0 580 46.366">
  <path id="パス_102" data-name="パス 102" d="M580,0H0L11.976,23.183,0,46.366H580L568.024,23.183Z" fill="#ff878a"/>
  <path id="パス_683" data-name="パス 683" d="M18.3-21.48a17.418,17.418,0,0,0-7.83-1.71c-5.07,0-8.19,2.37-8.19,6.18A5.586,5.586,0,0,0,4.2-12.39c1.2.99,2.73,1.56,5.7,2.19,4.59.96,6.15,2.1,6.15,4.59,0,2.61-2.31,4.32-5.88,4.32-2.58,0-4.83-1.23-6.96-3.84L1.56-2.07A16.88,16.88,0,0,0,9.99,0c6.03,0,9.66-2.43,9.66-6.51a6.016,6.016,0,0,0-2.79-5.43c-1.32-.84-2.91-1.38-6.03-1.98-3.84-.75-5.4-1.95-5.4-4.17,0-2.25,2.13-3.93,4.98-3.93a7.91,7.91,0,0,1,6.27,3.39ZM42-.36v-22.5H40.56V-6.78L27.72-22.86H23.58V-.36h1.41V-20.1L40.68-.36ZM62.7-21.48a17.418,17.418,0,0,0-7.83-1.71c-5.07,0-8.19,2.37-8.19,6.18a5.586,5.586,0,0,0,1.92,4.62c1.2.99,2.73,1.56,5.7,2.19,4.59.96,6.15,2.1,6.15,4.59,0,2.61-2.31,4.32-5.88,4.32-2.58,0-4.83-1.23-6.96-3.84L45.96-2.07A16.88,16.88,0,0,0,54.39,0c6.03,0,9.66-2.43,9.66-6.51a6.016,6.016,0,0,0-2.79-5.43c-1.32-.84-2.91-1.38-6.03-1.98-3.84-.75-5.4-1.95-5.4-4.17,0-2.25,2.13-3.93,4.98-3.93a7.91,7.91,0,0,1,6.27,3.39Zm20.1,1.32h7.44a12.648,12.648,0,0,1,1.8.12v-1.44a12.938,12.938,0,0,1-1.8.12H81.51l.21-.15c.81-.54,1.89-1.32,2.73-1.98l.96-.66-3.96-.93-.24.84a28.294,28.294,0,0,1-1.2,2.88H74.1c.84-.9,1.17-1.29,1.86-2.1l.87-.87-4.02-.84-.42,1.08a31.8,31.8,0,0,1-5.34,7.65l-.63.45.72.75.6-.48a33.207,33.207,0,0,0,2.79-2.19v5.7a13.215,13.215,0,0,1-.15,2.4c.81-.06,1.08-.09,1.86-.09h6.57v2.4H69.24a12.938,12.938,0,0,1-1.8-.12v1.44c.87-.09.93-.09,1.56-.12h7.47A24.942,24.942,0,0,1,68.01.42L66.96.78l.45,1.02,1.05-.36A28.091,28.091,0,0,0,78.81-4.23V.27a9.4,9.4,0,0,1-.12,1.5l-.03.3h3.66a12.449,12.449,0,0,1-.15-1.8v-5.7A22.622,22.622,0,0,0,90.81.93l1.08.57,2.13-3.36-1.44-.18A24.076,24.076,0,0,1,83.1-6.3h8.82a12.649,12.649,0,0,1,1.8.12V-7.62a12.938,12.938,0,0,1-1.8.12H82.17V-9.9h8.64a12.649,12.649,0,0,1,1.8.12v-1.44a12.938,12.938,0,0,1-1.8.12H82.8v-2.31h5.94a12.649,12.649,0,0,1,1.8.12v-1.44a12.938,12.938,0,0,1-1.8.12H82.8V-16.8h5.97a12.648,12.648,0,0,1,1.8.12v-1.44a12.938,12.938,0,0,1-1.8.12H82.8Zm-3.3,6.75v2.31H73.86v-2.31Zm0-1.2H73.86V-16.8H79.5ZM73.86-18v-2.16H79.5V-18ZM119.94-6.24l1.02.27,1.14.39,1.59-3.33L122.28-9a40.1,40.1,0,0,1-9.3-2.13,23.737,23.737,0,0,0,5.79-5.1v-.93a29.044,29.044,0,0,1-3.48.09h-6.06c.3-.3.45-.48.84-.9l.96-.9-3.93-1.11-.48,1.08a25.244,25.244,0,0,1-6.57,6.75l-1.02.42.78,1.08.78-.54a32.308,32.308,0,0,0,5.25-3.09,19.323,19.323,0,0,0,2.79,2.85A46.225,46.225,0,0,1,98.1-6.66l-1.17.18.48,1.14,1.02-.3c1.83-.39,2.37-.51,3.51-.84a8.93,8.93,0,0,1,.15,1.8V-.87a11.476,11.476,0,0,1-.15,2.25c.81-.06,1.08-.09,1.86-.09h13.92a17.049,17.049,0,0,1,1.77.09,11.853,11.853,0,0,1-.15-2.25V-4.29a10.357,10.357,0,0,1,.12-2.07Zm-15.75-.21c-.93,0-1.56-.03-2.07-.06a42.745,42.745,0,0,0,8.7-3.36,30.342,30.342,0,0,0,8.19,3.36,13.416,13.416,0,0,1-1.77.06Zm11.61,1.2V.09H105.6V-5.25Zm-5.82-7.38a18.657,18.657,0,0,1-3.15-2.4c.18-.12.48-.36,1.05-.84h6a22.171,22.171,0,0,1-3.69,3.36Zm9.81-7.56v2.55a9.4,9.4,0,0,1-.12,1.5l-.03.3h3.75a12.449,12.449,0,0,1-.15-1.8v-1.41a13.783,13.783,0,0,1,.15-2.43,16.442,16.442,0,0,1-2.25.09h-8.82V-23.1a11.859,11.859,0,0,1,.15-1.8h-3.96a9.367,9.367,0,0,1,.15,1.8v1.71h-8.64a20.454,20.454,0,0,1-2.25-.09,13.578,13.578,0,0,1,.15,2.43v1.41a9.4,9.4,0,0,1-.12,1.5l-.03.3h3.75a12.449,12.449,0,0,1-.15-1.8v-2.55Zm27.15,1.5V-2.55H131.85a8.763,8.763,0,0,1-1.5-.15v1.5a6.366,6.366,0,0,1,1.5-.15h18.6V-19.89h-18.6a8.763,8.763,0,0,1-1.5-.15v1.5a6.366,6.366,0,0,1,1.5-.15Zm23.43,2.73a9.84,9.84,0,0,0-.78-.66,3.189,3.189,0,0,0-.33-.27,33.738,33.738,0,0,0-6.75-4.05l-.54-.27a4.31,4.31,0,0,1-.51-.24c-.15-.06-.27-.15-.6-.33l-1.05,1.41.39.18c.18.09.36.21.51.3a24.367,24.367,0,0,1,7.32,6.84ZM162.03.27a7.649,7.649,0,0,1,.84-.24c10.65-1.89,16.44-6.66,18.93-15.6a6.282,6.282,0,0,1,.63-1.68l-1.17-.54a17.974,17.974,0,0,1-5.97,9.36c-3.3,2.82-9.63,5.16-14.28,5.28Zm31.2-16.5h-4.38a8.763,8.763,0,0,1-1.5-.15v1.5a6.366,6.366,0,0,1,1.5-.15h4.38v5.55a6.366,6.366,0,0,1-.15,1.5h3.48a8.764,8.764,0,0,1-.15-1.5v-5.55h8.49v3.51c0,3.9-1.08,6.57-3.48,8.64-1.68,1.5-4.56,2.85-5.91,2.79l.45,1.23A5.636,5.636,0,0,1,197.1.72c7.5-1.89,11.04-5.88,10.98-12.36v-3.39h4.23a6.526,6.526,0,0,1,1.5.15v-1.5a9.068,9.068,0,0,1-1.5.15h-4.23v-5.13a9.068,9.068,0,0,1,.15-1.5h-3.48a6.526,6.526,0,0,1,.15,1.5v5.13h-8.49v-5.13a9.068,9.068,0,0,1,.15-1.5h-3.48a6.526,6.526,0,0,1,.15,1.5ZM216.84.48a3.663,3.663,0,0,1,.87-.69c5.37-3.15,7.23-6.51,7.23-12.9v-6.36a9.068,9.068,0,0,1,.15-1.5h-3.33a6.526,6.526,0,0,1,.15,1.5v6.36a18.657,18.657,0,0,1-1.26,7.56c-.9,2.19-3.09,4.56-4.59,4.98Zm12.18-.57c7.29-1.29,11.76-5.22,14.25-12.39a7.011,7.011,0,0,1,.75-1.83l-1.14-.54c-.93,4.8-5.67,9.54-10.86,10.92V-20.85a9.068,9.068,0,0,1,.15-1.5h-3.3a6.526,6.526,0,0,1,.15,1.5Zm27.33-18.96-6.57.12a8.428,8.428,0,0,1-1.47-.15v1.5a6.119,6.119,0,0,1,1.47-.15l6.57-.12v3.81c-5.34,1.05-8.52,4.2-8.52,8.49,0,3.9,2.94,6.57,7.2,6.57,2.97,0,4.5-1.11,4.5-3.24V-13.38c.3-.03.6-.03.87-.03,5.22,0,8.01,2.37,8.01,6.78a7.027,7.027,0,0,1-1.92,5.28A6.945,6.945,0,0,1,262.14.33a2.281,2.281,0,0,1-.42-.03l.18,1.2a1.727,1.727,0,0,1,.3-.06l.93-.15c2.82-.51,4.17-.96,5.55-1.89a6.679,6.679,0,0,0,3.03-6c0-5.04-3.99-7.83-11.22-7.83h-.96v-3.48l6.12-.09h.15c.45.03.75.06,1.35.15v-1.5a9.068,9.068,0,0,1-1.5.15l-6.12.09v-3.18a9.068,9.068,0,0,1,.15-1.5H256.2a6.524,6.524,0,0,1,.15,1.5Zm0,16.77c0,1.5-.42,2.04-1.56,2.04-2.52,0-4.17-2.13-4.17-5.34a6.777,6.777,0,0,1,1.59-4.65,8.31,8.31,0,0,1,4.14-2.61Zm17.4-15.69a21.785,21.785,0,0,0-5.4-4.62,9.007,9.007,0,0,1-1.23-.84l-1.05,1.2c1.62.87,4.17,3.84,5.61,6.45ZM291.69-7.59h7.8l.42.03c.15,0,.27.03.57.06V-8.88a14.248,14.248,0,0,1-1.8.09h-6.99v-2.28a11.859,11.859,0,0,1,.15-1.8H288a9.366,9.366,0,0,1,.15,1.8v2.28h-6.87a10.366,10.366,0,0,1-1.8-.09V-7.5a11.521,11.521,0,0,1,1.5-.09h7.17V.3a9.4,9.4,0,0,1-.12,1.5l-.03.3h3.84a12.449,12.449,0,0,1-.15-1.8Zm.78-10.14-4.11-1.02-.45.9c-2.37,3.21-5.88,5.82-10.77,7.98l-.96.18.66,1.11.81-.33a33.534,33.534,0,0,0,12.9-6.99,28.055,28.055,0,0,0,10.38,6.54l1.23.6,1.77-3.21-1.32-.18a35.955,35.955,0,0,1-11.19-4.62Zm4.29-2.43h5.28l.42.03c.15,0,.27.03.57.06v-1.38a14.248,14.248,0,0,1-1.8.09h-4.47V-23.1a11.859,11.859,0,0,1,.15-1.8h-3.75a9.368,9.368,0,0,1,.15,1.8v1.74H286.5V-23.1a11.856,11.856,0,0,1,.15-1.8h-3.72a9.368,9.368,0,0,1,.15,1.8v1.74h-4.35a10.366,10.366,0,0,1-1.8-.09v1.38a11.521,11.521,0,0,1,1.5-.09h4.65v1.47a9.4,9.4,0,0,1-.12,1.5l-.03.3h3.72a12.446,12.446,0,0,1-.15-1.8v-1.47h6.81v1.47a9.4,9.4,0,0,1-.12,1.5l-.03.3h3.75a12.449,12.449,0,0,1-.15-1.8ZM282.78-6.48l-.57,1.02a25.883,25.883,0,0,1-4.56,5.04l-.9.6.78.96.96-.57a28.5,28.5,0,0,0,6.87-4.32l.99-.72Zm12.09.03-.9.96.9.66a44.826,44.826,0,0,1,4.41,4.71l.72.96,2.97-2.94-1.08-.51a53.607,53.607,0,0,0-6.12-3.33ZM321.96-24l-4.11-1.26-.36,1.14c-1.74,3.93-5.7,8.01-10.2,10.56l-1.08.42.69,1.11.96-.51c.36-.15.48-.21.72-.33l.15-.06.27-.12c5.4-2.43,8.76-4.92,11.43-8.55,2.1,3.75,5.07,6.39,10.38,9.21l1.11.72,2.01-3.63-1.23-.27c-4.86-1.71-9.06-4.29-11.55-7.11Zm8.37,15.72h.63a4.978,4.978,0,0,1,.72.06l.39.03V-9.57a9.656,9.656,0,0,1-1.29.09H309.3a9.469,9.469,0,0,1-1.74-.09v1.38a12.462,12.462,0,0,1,1.47-.09h6.6c-.48,1.47-1.77,4.68-2.58,6.48H310.8l-2.37-.15.96,3.78,1.62-.27c3.84-.45,9.6-1.32,16.2-2.43.39.69.75,1.32,1.11,2.04l.42,1.02,3.45-2.37-.93-.87c-1.98-1.95-3.99-3.78-5.64-5.1l-.63-.57-1.29.93.6.6a32.052,32.052,0,0,1,2.16,3.12l-1.23.03c-2.67.09-5.58.18-7.32.18l-2.7.03.27-.36a56.789,56.789,0,0,0,4.59-6.09Zm-3.75-4.89v-1.38a9.656,9.656,0,0,1-1.29.09H314.16a9.468,9.468,0,0,1-1.74-.09v1.38a12.461,12.461,0,0,1,1.47-.09h11.58a4.977,4.977,0,0,1,.72.06Z" transform="translate(123 33.92)" fill="#fff"/>
</svg>
