<svg id="グループ_321" data-name="グループ 321" xmlns="http://www.w3.org/2000/svg" width="580" height="46.366" viewBox="0 0 580 46.366">
  <path id="パス_102" data-name="パス 102" d="M580,0H0L11.976,23.183,0,46.366H580L568.024,23.183Z" fill="#ff878a"/>
  <path id="パス_684" data-name="パス 684" d="M18.51-19.32A24.406,24.406,0,0,1,8.16-3.48,15.957,15.957,0,0,1,2.46-.81L3.06.36A4.725,4.725,0,0,1,4.53-.27c5.22-1.59,9.03-3.87,12.03-7.26l.06-.09s.24-.27.27-.3a6.651,6.651,0,0,0,.54-.66A30.634,30.634,0,0,1,25.11.63l2.7-2.79c-1.2-1.74-6.09-5.7-9.45-7.65a28.649,28.649,0,0,0,4.35-10.71H6.78a8.763,8.763,0,0,1-1.5-.15v1.5a6.366,6.366,0,0,1,1.5-.15ZM32.67-9.27a1.386,1.386,0,0,1,.21-.21c.12-.06.45-.27.96-.57a28.585,28.585,0,0,0,4.86-3.42,31.417,31.417,0,0,1,7.41,7.29C43.08-2.97,37.92-.15,34.8-.03l.45,1.23A6.651,6.651,0,0,1,36.84.72C48.09-1.8,53.91-8.1,55.59-19.62H43.08a18.168,18.168,0,0,0,.78-1.89,4.613,4.613,0,0,1,.6-1.38l-3.42-.99a24.231,24.231,0,0,1-3,7.74c-1.35,2.25-4.77,5.55-6.09,5.85ZM51.9-18.42a25.971,25.971,0,0,1-3.81,9.9,35.924,35.924,0,0,0-8.37-5.91,19.535,19.535,0,0,0,2.79-3.99Zm21.36,5.7c-.12,4.59-1.05,7.32-3.21,9.45C68.58-1.74,65.13.06,63.93-.09l.51,1.2A4.465,4.465,0,0,1,65.61.66c7.83-2.1,11.01-5.88,11.22-13.38h8.34a7.039,7.039,0,0,1,1.5.15v-1.5a9.391,9.391,0,0,1-1.5.15H63.03a8.763,8.763,0,0,1-1.5-.15v1.5a6.366,6.366,0,0,1,1.5-.15Zm9.21-13.14v3.72h1.68v-3.72Zm3.45,0v3.72H87.6v-3.72Zm-1.98,4.32a8.475,8.475,0,0,1-1.5.15H65.73a8.763,8.763,0,0,1-1.5-.15v1.5a6.366,6.366,0,0,1,1.5-.15H82.44a9.068,9.068,0,0,1,1.5.15ZM94.83-6.72a3.93,3.93,0,0,1,1.29-.36,28.847,28.847,0,0,0,7.26-2.34V-.51a5.374,5.374,0,0,1-.15,1.26h2.91a5.181,5.181,0,0,1-.15-1.26v-10.2a26.291,26.291,0,0,0,4.14-3.42l.33-.3a8.887,8.887,0,0,1,.9-.78l-2.28-2.19a4.407,4.407,0,0,1-.42.63c-.12.18-.21.27-.24.33-2.85,4.05-9.33,8.1-13.98,8.67Zm50.58-10.2a11.573,11.573,0,0,1,1.74.12v-1.44a11.573,11.573,0,0,1-1.74.12H132.45a1.834,1.834,0,0,1,.15-.36c.48-1.23.75-2.04,1.44-3.96l.66-1.47-3.87-.93-.27,1.47c-.51,1.65-1.11,3.39-1.8,5.25h-5.97a9.889,9.889,0,0,1-1.74-.12v1.44a6.916,6.916,0,0,1,1.47-.12h5.79c-.99,2.58-2.19,5.46-3.33,8.01l-.06.12-.3.63a25.018,25.018,0,0,1,8.73,2.73c-2.19,2.16-5.58,3.99-10.11,5.37l-1.32.21.69,1.35,1.08-.39c5.88-1.38,9.45-2.88,12.21-5.04A44.437,44.437,0,0,1,142.56.72l.81.99,2.88-3.39-1.41-.69A68.867,68.867,0,0,0,137.88-6a23.563,23.563,0,0,0,4.53-10.92Zm-6.63,0a25.9,25.9,0,0,1-3.81,9.51,1.723,1.723,0,0,0-.12.21,37.232,37.232,0,0,0-6.24-1.56c1.17-2.7,1.44-3.36,2.28-5.46l1.11-2.7Zm27.33,5.13v-3.9a64.611,64.611,0,0,0,8.25-6.27v-.93a29.419,29.419,0,0,1-3.96.09H156.27a12.938,12.938,0,0,1-1.8-.12v1.44c.87-.09.93-.09,1.56-.12h12.6a35.463,35.463,0,0,1-3.42,5.22h-2.97a14.908,14.908,0,0,1,.15,2.25v2.34h-9.66a12.938,12.938,0,0,1-1.8-.12v1.44c.87-.09.93-.09,1.56-.12h9.9v9.48c0,.54-.24.75-.87.75a32.622,32.622,0,0,1-5.34-.45L156.33.6l1.29.18,1.11.21a35.513,35.513,0,0,0,5.67.87A1.609,1.609,0,0,0,166.11.09V-10.59h9.45a12.649,12.649,0,0,1,1.8.12v-1.44a12.938,12.938,0,0,1-1.8.12Zm26.58,5.85a8.5,8.5,0,0,0,.45-.87,2.635,2.635,0,0,0,.15-.3l6.87-13.29c.06-.12.15-.3.27-.51l.42-.81a2,2,0,0,0,.18-.36l-4.53-1.86-.24.96-.12.39L192.18-7.86c-.27,1.02-.3,1.14-.42,1.56Zm-2.22,1.86a2.7,2.7,0,0,0-2.64,2.64,2.651,2.651,0,0,0,2.61,2.61,2.657,2.657,0,0,0,2.64-2.61A2.7,2.7,0,0,0,190.47-4.08Zm29.07-13.5v-2.7h4.2l.42.03c.15,0,.27.03.57.06v-1.38a14.249,14.249,0,0,1-1.8.09h-3.39V-23.1a11.859,11.859,0,0,1,.15-1.8h-3.42a9.367,9.367,0,0,1,.15,1.8v1.62h-3.54a10.367,10.367,0,0,1-1.8-.09v1.38a11.521,11.521,0,0,1,1.5-.09h3.84v2.7h-2.46a20.455,20.455,0,0,1-2.25-.09,9.923,9.923,0,0,1,.15,1.86v5.79a11.477,11.477,0,0,1-.15,2.25c.81-.06,1.08-.09,1.86-.09h2.85v3.12h-3.84a10.366,10.366,0,0,1-1.8-.09v1.38a11.521,11.521,0,0,1,1.5-.09h4.14V.3a9.4,9.4,0,0,1-.12,1.5l-.03.3h3.42a12.449,12.449,0,0,1-.15-1.8V-3.54h4.08l.42.03c.15,0,.27.03.57.06V-4.83a14.248,14.248,0,0,1-1.8.09h-3.27V-7.86h2.94a17.048,17.048,0,0,1,1.77.09,11.854,11.854,0,0,1-.15-2.25v-5.22a13.783,13.783,0,0,1,.15-2.43c-.78.06-1.62.09-2.25.09Zm1.62,1.2v3H214.8v-3Zm0,4.2v3.12H214.8v-3.12Zm4.92.99c.03,5.85-.72,9.06-2.67,11.76l-.84.69.93.84.78-.78a14.311,14.311,0,0,0,4.83-9.87h4.62v7.47c0,.63-.15.78-.75.78-.75,0-2.58-.09-3.78-.21l.18,1.2,1.8.3a17.125,17.125,0,0,0,4.08.93c1.11,0,1.59-.66,1.59-2.25V-21.36a11.664,11.664,0,0,1,.15-2.25,16.442,16.442,0,0,1-2.25.09h-6.57c-.63,0-1.29-.03-2.25-.09a13.578,13.578,0,0,1,.15,2.43Zm3.12-4.35h4.53v5.79h-4.56c.03-.3.03-.93.03-1.29Zm0-1.2v-5.58h4.53v5.58ZM259.35-9v-5.49h7.02l.42.03c.15,0,.27.03.57.06v-1.41a12.938,12.938,0,0,1-1.8.12h-6.21v-5.07a47.786,47.786,0,0,0,5.31-.87l1.17-.21-2.04-3.18-1.02.51a53.6,53.6,0,0,1-12.33,3.15l-1.32.12.39,1.23,1.29-.15c2.04-.06,3.69-.15,5.22-.27v4.74h-6a12.938,12.938,0,0,1-1.8-.12v1.41a11.521,11.521,0,0,1,1.5-.09h6.3V-9h-3.69a20.455,20.455,0,0,1-2.25-.09,9.922,9.922,0,0,1,.15,1.86v6.09a11.476,11.476,0,0,1-.15,2.25c.81-.06,1.08-.09,1.86-.09h11.82a17.048,17.048,0,0,1,1.77.09,11.854,11.854,0,0,1-.15-2.25v-5.7a11.664,11.664,0,0,1,.15-2.25,16.442,16.442,0,0,1-2.25.09Zm2.76,1.2V-.18H253.5V-7.8ZM242.43-24.18l-.78,1.11.66.42a37.066,37.066,0,0,1,3.06,3.36l.51.72,2.16-3-.81-.36c-2.19-1.08-3-1.44-4.23-1.92Zm5.31,13.53-.21.6a55.071,55.071,0,0,1-6.15,8.85l-.72.57,3.39,2.22.39-.84a87.841,87.841,0,0,0,4.17-10.26l.27-.57Zm-6.69-6.3-.75,1.17.69.42a40.692,40.692,0,0,1,3.48,3.21l.51.75,2.1-3.21-.9-.33a41.757,41.757,0,0,0-4.47-1.71Z" transform="translate(156 33.92)" fill="#fff"/>
</svg>
