<svg xmlns="http://www.w3.org/2000/svg" width="580" height="46.366" viewBox="0 0 580 46.366">
  <g id="グループ_321" data-name="グループ 321" transform="translate(0 -131)">
    <path id="パス_102" data-name="パス 102" d="M580,0H0L11.976,23.183,0,46.366H580L568.024,23.183Z" transform="translate(0 131)" fill="#ff878a"/>
    <path id="パス_685" data-name="パス 685" d="M18.3-21.48a17.418,17.418,0,0,0-7.83-1.71c-5.07,0-8.19,2.37-8.19,6.18A5.586,5.586,0,0,0,4.2-12.39c1.2.99,2.73,1.56,5.7,2.19,4.59.96,6.15,2.1,6.15,4.59,0,2.61-2.31,4.32-5.88,4.32-2.58,0-4.83-1.23-6.96-3.84L1.56-2.07A16.88,16.88,0,0,0,9.99,0c6.03,0,9.66-2.43,9.66-6.51a6.016,6.016,0,0,0-2.79-5.43c-1.32-.84-2.91-1.38-6.03-1.98-3.84-.75-5.4-1.95-5.4-4.17,0-2.25,2.13-3.93,4.98-3.93a7.91,7.91,0,0,1,6.27,3.39Zm8.79,4.62H23.46V-.36h3.63V-11.07c0-2.43,1.95-4.86,3.93-4.86,2.1,0,3.27,1.74,3.27,4.89V-.36h3.6V-11.1a7.656,7.656,0,0,1,.84-2.79,3.688,3.688,0,0,1,3.06-2.04,3.181,3.181,0,0,1,3.03,2.61,11.171,11.171,0,0,1,.27,2.43V-.36h3.6V-10.95c0-3.9-2.19-6.12-6.06-6.12a6.059,6.059,0,0,0-5.31,3.06c-1.05-2.1-2.76-3.06-5.4-3.06a5.742,5.742,0,0,0-4.83,2.37ZM63.93-.36h3.3v-9.99a9.766,9.766,0,0,0-.54-3.69c-.93-2.1-3.18-3.18-6.72-3.18a15.572,15.572,0,0,0-7.14,1.95l.84,1.92a8.616,8.616,0,0,1,5.88-2.73c2.7,0,3.99,1.53,4.05,4.83-.84.18-2.49.45-4.2.66-5.22.69-7.62,2.55-7.62,5.94,0,2.76,2.25,4.47,5.88,4.47A10.478,10.478,0,0,0,63.93-2.7Zm-.3-3.24a8.673,8.673,0,0,1-4.47,1.5,3.328,3.328,0,0,1-3.63-3.21,3.857,3.857,0,0,1,2.61-3.66,9.26,9.26,0,0,1,2.61-.6c1.74-.3,2.07-.36,2.88-.54ZM75.66-.36v-8.7c0-3.03,2.22-4.89,5.82-4.89a3.665,3.665,0,0,1,.96.09l.24.09h.06l.45-3.12a5.127,5.127,0,0,0-1.38-.15c-2.91,0-5.07,1.83-6.15,5.19v-5.01H72.09V-.36Zm15.45-15.3h4.17v-1.2H91.11v-6.06H87.54v6.06h-3.3v1.2h3.3V-4.59a4.912,4.912,0,0,0,.51,2.67C88.8-.75,90.39-.18,92.91-.18a9.355,9.355,0,0,0,2.37-.24V-1.5a14.3,14.3,0,0,1-1.83.12c-1.26,0-2.01-.51-2.22-1.44a5.668,5.668,0,0,1-.12-1.65V-15.66Zm16.29-7.2V-.36h8.37a26.545,26.545,0,0,0,4.65-.36c3.21-.72,5.04-2.73,5.04-5.58,0-3.42-2.16-5.28-6.72-5.85a8.734,8.734,0,0,0,2.79-.93,4.452,4.452,0,0,0,2.25-4.17,5.374,5.374,0,0,0-3.81-5.04,14.274,14.274,0,0,0-4.11-.57Zm3.9,10.2v-9h4.23c2.64,0,4.26,1.71,4.26,4.44,0,3.09-1.47,4.56-4.56,4.56Zm0,11.1v-9.93h3.96c3.96,0,6.12,1.83,6.12,5.19,0,3.33-1.74,4.74-5.88,4.74Zm20.34-7.59h12.81a7.607,7.607,0,0,0-2.01-5.49,8.469,8.469,0,0,0-6.27-2.49c-4.92,0-8.19,3.39-8.19,8.49,0,5.52,3,8.46,8.61,8.46a8.923,8.923,0,0,0,7.29-3.15l-.81-.84a7.785,7.785,0,0,1-5.76,2.58c-3.3,0-5.67-2.97-5.67-7.11Zm.09-1.2c.51-3.51,2.13-5.55,4.35-5.55,2.43,0,4.14,2.25,4.23,5.55ZM158.97-.36h3.3v-9.99a9.766,9.766,0,0,0-.54-3.69c-.93-2.1-3.18-3.18-6.72-3.18a15.572,15.572,0,0,0-7.14,1.95l.84,1.92a8.616,8.616,0,0,1,5.88-2.73c2.7,0,3.99,1.53,4.05,4.83-.84.18-2.49.45-4.2.66-5.22.69-7.62,2.55-7.62,5.94,0,2.76,2.25,4.47,5.88,4.47a10.478,10.478,0,0,0,6.27-2.52Zm-.3-3.24a8.673,8.673,0,0,1-4.47,1.5,3.328,3.328,0,0,1-3.63-3.21,3.857,3.857,0,0,1,2.61-3.66,9.26,9.26,0,0,1,2.61-.6c1.74-.3,2.07-.36,2.88-.54ZM181.62-.36v-16.5h-3.63V-6.15a6.149,6.149,0,0,1-.93,2.85,3.838,3.838,0,0,1-3.21,2.01,3.593,3.593,0,0,1-3.66-2.46,7.88,7.88,0,0,1-.3-2.43V-16.86h-3.6V-6.12c0,3.84,2.4,5.97,6.72,5.97a5.419,5.419,0,0,0,4.98-2.37V-.36Zm9.51-15.3h4.17v-1.2h-4.17v-6.06h-3.57v6.06h-3.3v1.2h3.3V-4.59a4.912,4.912,0,0,0,.51,2.67c.75,1.17,2.34,1.74,4.86,1.74a9.355,9.355,0,0,0,2.37-.24V-1.5a14.3,14.3,0,0,1-1.83.12c-1.26,0-2.01-.51-2.22-1.44a5.669,5.669,0,0,1-.12-1.65V-15.66ZM204.06,0l-.09.21c-.93,2.19-2.19,3.09-4.32,3.09a20.643,20.643,0,0,1-2.25-.12l.3,1.68c.27.03,1.26.06,1.77.06,2.61,0,3.96-.81,5.25-3.12a2.718,2.718,0,0,0,.18-.33l.15-.33a2.747,2.747,0,0,0,.21-.39l8.16-17.61h-1.77a2.494,2.494,0,0,1-.27,1.08L206.01-4.2l-5.25-12.66h-3.99ZM242.1-.36v-1.2H228.99v-9.93H240v-1.2H228.99v-8.97h12.15v-1.2H225.12V-.36Zm20.79-22.5h-1.86a2.308,2.308,0,0,1-.45.84l-5.7,7.47-5.73-8.31h-4.68l7.86,11.61L243.99-.36h1.98a2.313,2.313,0,0,1,.51-.96l6.66-8.73,6.54,9.69h4.98l-8.97-13.02Zm4.74,0V-.36h3.87V-10.53h5.1c5.76,0,9.03-2.28,9.03-6.24,0-3.39-2.22-5.34-6.75-6a12.3,12.3,0,0,0-1.95-.09h-9.3Zm3.87,11.13v-9.93h4.17a8.888,8.888,0,0,1,2.46.24,4.634,4.634,0,0,1,3.42,4.77,4.613,4.613,0,0,1-2.25,4.26,6.779,6.779,0,0,1-3.45.66Zm28.92-11.46c-7.2,0-11.97,4.56-11.97,11.49,0,7.29,4.5,11.7,11.97,11.7s11.85-4.29,11.85-11.64C312.27-18.72,307.68-23.19,300.42-23.19Zm-.03,1.26c4.41,0,7.53,4.23,7.53,10.23,0,6.42-2.88,10.41-7.53,10.41-4.59,0-7.59-4.08-7.59-10.35C292.8-17.58,296.01-21.93,300.39-21.93Z" transform="translate(133 164.92)" fill="#fff"/>
  </g>
</svg>
