<svg id="academy__appearance" data-name="academy_ appearance" xmlns="http://www.w3.org/2000/svg" width="693.951" height="55.475" viewBox="0 0 693.951 55.475">
  <g id="グループ_321" data-name="グループ 321">
    <path id="パス_102" data-name="パス 102" d="M693.951,0H0L14.329,27.738,0,55.475H693.951L679.621,27.738Z" fill="#ff878a"/>
  </g>
  <g id="グループ_322" data-name="グループ 322" transform="translate(58.289 9.109)">
    <path id="パス_107" data-name="パス 107" d="M183.853,40.707a13.79,13.79,0,0,0,4.811-.921,12.014,12.014,0,0,0,7.881-11.668,11.632,11.632,0,0,0-4.3-9.416,11.755,11.755,0,0,0-7.267-2.559c-.307,7.983-1.331,13.2-3.48,17.707-1.945,3.889-4.3,6.039-6.858,6.039-3.378,0-6.141-4.708-6.141-10.235A15.6,15.6,0,0,1,184.16,14.3c8.8,0,15.148,5.732,15.148,13.818,0,4.708-1.74,8.5-5.118,11.054a19.078,19.078,0,0,1-7.676,3.275c-.716.2-1.126.307-1.842.512Zm-8.086-21.392a13.618,13.618,0,0,0-4.708,10.235c0,3.889,1.842,8.086,3.685,8.086,1.535,0,3.685-2.559,5.118-6.346a36.875,36.875,0,0,0,2.354-10.849c.1-1.228.2-3.48.2-4.2A12.539,12.539,0,0,0,175.767,19.315Z" transform="translate(-54.325 -8.773)" fill="#fff"/>
    <path id="パス_108" data-name="パス 108" d="M210.549,17.054a21.107,21.107,0,0,0-2.149.2V14.7a18.751,18.751,0,0,0,2.149.2h27.533c-.819,9.416-5.322,14.227-14.841,15.865-.717,5.322-4.3,8.9-11.361,11.566a4.279,4.279,0,0,0-1.535.716L209.321,40.7c1.331,0,2.764-.512,5.425-2.047,3.992-2.456,6.039-5.629,6.039-9.621V23.3a18.741,18.741,0,0,0-.2-2.149h3.071a15.285,15.285,0,0,0-.2,2.149v5.527q10.44-2,11.668-11.668H210.549Z" transform="translate(-53.386 -8.764)" fill="#fff"/>
    <path id="パス_109" data-name="パス 109" d="M258.678,14.449a7.274,7.274,0,0,0-.307-2.149h3.173a16.836,16.836,0,0,0-.2,2.149v5.015h14.227c0,13.2-.1,16.581-.512,18.935-.307,2.252-1.433,3.378-3.275,3.378a25.155,25.155,0,0,1-6.346-1.638,6.215,6.215,0,0,0-1.74-.409.767.767,0,0,1-.512-.1l.717-2.149a17.521,17.521,0,0,0,6.858,1.842c1.023,0,1.331-.409,1.535-1.945.307-2.456.409-6.141.409-15.865H261.339c-.1,9.519-3.685,15.558-11.771,19.856a4.677,4.677,0,0,0-1.638,1.126L246.6,40.447c2.968-.819,6.858-3.992,9.109-7.574,1.74-2.866,2.661-6.551,2.866-11.361h-9.519a7.274,7.274,0,0,0-2.149.307V19.158a7.274,7.274,0,0,0,2.149.307h9.519V14.449Z" transform="translate(-52.488 -8.82)" fill="#fff"/>
    <path id="パス_110" data-name="パス 110" d="M287.949,26.914a21.113,21.113,0,0,0-2.149.2V24.56a13.934,13.934,0,0,0,2.149.2h27.635a7.313,7.313,0,0,0,2.149-.2v2.559a18.75,18.75,0,0,0-2.149-.2H304.428c-.409,9.007-3.992,13.408-13,16.069a5.882,5.882,0,0,0-1.74.716l-.921-2.149A15.79,15.79,0,0,0,299,36.023c1.74-2.149,2.559-5.118,2.764-9.109Zm26.2-9.314A16.848,16.848,0,0,0,312,17.4H291.327a18.756,18.756,0,0,0-2.15.2V15.144a13.936,13.936,0,0,0,2.15.2H312a13.928,13.928,0,0,0,2.149-.2Zm1.535-8.7v5.425H313.64V8.9Zm4.094,0v5.425h-2.047V8.9Z" transform="translate(-51.566 -8.9)" fill="#fff"/>
    <path id="パス_111" data-name="パス 111" d="M350.753,43.368c-4.913-2.661-15.148-5.629-21.7-6.141h-.1a17.35,17.35,0,0,0-2.252-.1l.614-2.456a7.023,7.023,0,0,0,1.945.409,90.139,90.139,0,0,1,20.368,4.708,14.492,14.492,0,0,0,2.252.716Zm-1.638-23.132a6.493,6.493,0,0,0-1.945-.716,63.906,63.906,0,0,0-17.2-2.968h-.614a3.837,3.837,0,0,0-1.126.1l.409-2.354c.716.1,1.126.1,3.378.307a75.406,75.406,0,0,1,15.558,2.354,14.681,14.681,0,0,0,2.252.409Zm-2.252,9.826c-2.354-1.433-11.464-3.378-15.66-3.378h-.716l.614-2.354a11.458,11.458,0,0,0,2.866.409,61.224,61.224,0,0,1,11.668,2.149,13.642,13.642,0,0,0,1.945.512Z" transform="translate(-50.604 -8.773)" fill="#fff"/>
    <path id="パス_112" data-name="パス 112" d="M391.508,28.366a12.279,12.279,0,0,0-2.047-.307H362.747a5.751,5.751,0,0,0-2.047.307V25.5a15.389,15.389,0,0,0,2.047.2h26.714a15.383,15.383,0,0,0,2.047-.2Z" transform="translate(-49.804 -8.509)" fill="#fff"/>
    <path id="パス_113" data-name="パス 113" d="M415.579,19.819V12.756a6.747,6.747,0,0,0-.1-1.433l-.1-.716V10.3h3.071a13.357,13.357,0,0,0-.2,2.456v7.062h10.44a18.919,18.919,0,0,0,2.457-.1v2.252a16.586,16.586,0,0,0-2.252-.1H418.138v8.291h9.007a10.816,10.816,0,0,0,2.456-.2V32.2a16.578,16.578,0,0,0-2.252-.1h-9.314V41.62h12.18a11.686,11.686,0,0,0,2.559-.2v2.252a6.792,6.792,0,0,0-1.331-.1H403.092a18.918,18.918,0,0,0-2.457.1V41.415a23.752,23.752,0,0,0,2.457.2h12.487V32.1h-8.5a18.918,18.918,0,0,0-2.456.1V29.952a23.748,23.748,0,0,0,2.456.2h8.5V21.866h-9.007a38.293,38.293,0,0,1-4.606,8.6l-.819,1.331L399.1,30.463l1.126-1.024c2.661-3.787,4.708-9.416,5.834-15.865l.1-1.74,3.173.614-.614,1.842c-.512,2.252-.819,3.378-1.535,5.732h8.393Z" transform="translate(-48.9 -8.867)" fill="#fff"/>
    <path id="パス_114" data-name="パス 114" d="M440.5,20.145a7.663,7.663,0,0,0,2.149.2h7.574a59.891,59.891,0,0,0,2.252-9.007l2.968.921a8.337,8.337,0,0,0-.921,2.559c-.2,1.024-.921,3.48-1.535,5.527h4.81c4.606,0,6.448,2.047,6.448,6.858a32.162,32.162,0,0,1-3.275,13.1c-1.126,2.149-2.456,3.173-4.3,3.173-1.331,0-3.378-1.228-5.015-2.866a6.723,6.723,0,0,0-1.74-1.228l1.638-1.842c.717,1.433,3.582,3.582,4.811,3.582.819,0,1.433-.512,2.15-1.842a28.514,28.514,0,0,0,3.173-11.873c0-3.48-1.33-5.015-4.3-5.015h-5.117a132.606,132.606,0,0,1-7.165,18.219,13.59,13.59,0,0,0-.921,2.149l-2.661-1.331c1.637-2.252,5.629-11.771,7.984-19.038h-6.96a21.106,21.106,0,0,0-2.149.2V20.145Zm31.115,12.589c-.2-3.992-4.913-13.511-7.574-15.251l1.74-1.433a11.5,11.5,0,0,0,1.331,1.638,34.67,34.67,0,0,1,7.267,14.022ZM470.082,9.5v5.629h-2.047V9.5Zm4.2,0v5.629h-2.047V9.5Z" transform="translate(-47.929 -8.886)" fill="#fff"/>
    <path id="パス_115" data-name="パス 115" d="M499.021,42.958a1.9,1.9,0,0,1-2.15,2.149,26.192,26.192,0,0,1-5.629-1.024l-1.842-.307-.307-1.842a36.075,36.075,0,0,0,6.448.614c.614,0,.819-.1.819-.819V34.872h-13.2a10.817,10.817,0,0,0-2.456.2V32.825c1.126.1,1.638.2,2.456.2h13.2V31.494a22.519,22.519,0,0,0-.1-2.354H498.3a31.509,31.509,0,0,0,5.118-3.378h-13a10.818,10.818,0,0,0-2.457.2V23.715c1.126.1,1.638.2,2.457.2h12.282c2.866,0,4.094,0,5.425-.1v1.535a88.584,88.584,0,0,1-9.109,5.425v2.149h13.1a10.819,10.819,0,0,0,2.457-.2v2.252h-.409l-.512-.1c-.409,0-.921-.1-1.535-.1h-13.1v8.188Zm3.889-25.179.1-.1A62.169,62.169,0,0,0,507,11.535l.512-1.331,3.07,1.433-1.126,1.024a43.9,43.9,0,0,1-4.4,5.22h5.629a23.213,23.213,0,0,0,2.866-.1,19.557,19.557,0,0,0-.2,2.866V22.9a10.053,10.053,0,0,0,.2,2.252h-2.968v-.409a11.743,11.743,0,0,0,.1-1.842V19.928h-26.2V22.9a10.034,10.034,0,0,0,.2,2.252h-2.968v-.409a11.761,11.761,0,0,0,.1-1.842V20.645a11.715,11.715,0,0,0-.2-2.866,20.72,20.72,0,0,0,2.866.1h4.4l-.409-1.024a35.406,35.406,0,0,0-2.661-4.3l-1.024-.921,1.842-1.228.716,1.024a33.211,33.211,0,0,1,3.173,3.889l1.024,1.024L489.3,17.779h13.613Zm-6.448-6.755a26.532,26.532,0,0,1,2.559,4.094l.819,1.126-2.866,1.331-.307-1.331a36.279,36.279,0,0,0-2.047-4.4l-.819-1.024L495.746,10Z" transform="translate(-46.981 -8.874)" fill="#fff"/>
    <path id="パス_116" data-name="パス 116" d="M520.9,38.349c2.354-2.661,5.323-9.212,5.834-13.306l2.252.819a13.363,13.363,0,0,0-.409,1.433c-.1.1-.1.409-.205.614l-.2.716a38.406,38.406,0,0,1-3.685,9.212,12.405,12.405,0,0,0-1.024,2.047Zm8.5-21.9a9.249,9.249,0,0,0-2.15.2V14.194a15.281,15.281,0,0,0,2.15.2h16.376v2.047l-8.6,6.96c4.913,4.094,7.165,7.984,7.165,12.487,0,4.708-2.866,7.676-7.472,7.676A9.32,9.32,0,0,1,530.01,40.6a10.973,10.973,0,0,0-1.536-1.331l1.74-1.74a8.34,8.34,0,0,0,1.433,1.638,7.372,7.372,0,0,0,5.118,2.047c2.968,0,4.913-2.149,4.913-5.425,0-4.4-2.252-8.188-7.369-12.385l8.188-6.96H529.4Zm23.029,23.029c-.307-3.275-4.708-13.511-6.244-14.227l2.047-1.228c.2.409.41.716,1.126,1.842a48.012,48.012,0,0,1,5.323,10.849,6.914,6.914,0,0,0,.716,1.74ZM550.89,10.1v5.629h-2.047V10.1Zm4.094,0v5.629h-2.047V10.1Z" transform="translate(-46.035 -8.872)" fill="#fff"/>
    <path id="パス_117" data-name="パス 117" d="M569.919,24.025c1.843,2.661,2.559,3.582,4.3,6.448l.819,1.024-2.559,1.74-.409-1.433c-.717-1.842-1.535-3.378-2.149-4.708V42.653a12.772,12.772,0,0,0,.2,2.456h-2.968v-.2l.1-.716a7.254,7.254,0,0,0,.1-1.535V26.379a54.544,54.544,0,0,1-4.606,11.566l-.512,1.228L560.4,38.149l.819-1.126a67.443,67.443,0,0,0,5.118-16.786h-2.661a10.818,10.818,0,0,0-2.456.2V18.191c1.126.1,1.638.2,2.456.2h3.685V12.664a6.761,6.761,0,0,0-.1-1.433l-.1-.716v-.307h2.968a13.341,13.341,0,0,0-.2,2.456V18.4h1.536a11.687,11.687,0,0,0,2.559-.2v2.252H573.6l-.512-.1c-.409,0-.921-.1-1.535-.1h-1.536v3.787Zm13.408,12.692-1.33.819a49.166,49.166,0,0,1-6.346,4.3l-1.331.921-1.638-2.661,1.74-.409A32.863,32.863,0,0,0,580.871,36L582,34.976Zm2.763-15.251h5.22a10.819,10.819,0,0,0,2.457-.2v2.252h-.409l-.512-.1c-.41,0-.921-.1-1.535-.1h-5.22v3.275h7.677a10.382,10.382,0,0,0,2.456-.2v2.252a11.272,11.272,0,0,0-2.456-.2H586.6a24.25,24.25,0,0,0,2.968,5.629,36.161,36.161,0,0,0,3.378-3.582l.819-1.433,2.456,2.047-1.331.921a33.42,33.42,0,0,1-4.094,3.48,30.343,30.343,0,0,0,4.913,4.606l1.535.921L595.3,43.472l-1.126-1.024A27.009,27.009,0,0,1,586.3,31.906V42.858q0,2.149-1.842,2.149a15.555,15.555,0,0,1-4.094-.716l-1.74-.1-.307-1.842a44.638,44.638,0,0,0,4.606.409c.614,0,.819-.2.819-.819V28.528h-6.755a10.816,10.816,0,0,0-2.456.2V26.481c1.126.1,1.637.2,2.456.2h6.755V23.411h-5.015a10.814,10.814,0,0,0-2.456.2V21.261c1.125.1,1.637.2,2.456.2h5.015V18.293h-6.346a10.82,10.82,0,0,0-2.457.2V16.246c1.126.1,1.638.2,2.457.2h3.275l-.409-1.228a32.22,32.22,0,0,0-1.638-3.275l-.819-1.126L579.642,10l.614,1.126a30.847,30.847,0,0,1,2.252,2.866l.921.819-2.559,1.535H586.4a47.817,47.817,0,0,0,2.559-5.118l.307-1.331,2.968,1.024-1.023,1.228a42.47,42.47,0,0,1-2.763,4.2h4.4a11.686,11.686,0,0,0,2.559-.2V18.4H595l-.512-.1c-.41,0-.921-.1-1.535-.1h-6.858Zm-8.5,8.7a19.641,19.641,0,0,1,2.968,2.764l1.024.716-2.252,1.945-.512-1.126a16.143,16.143,0,0,0-2.456-3.071l-.921-.716,1.433-1.331Z" transform="translate(-45.106 -8.876)" fill="#fff"/>
    <path id="パス_118" data-name="パス 118" d="M634.227,26.927a10.822,10.822,0,0,0,2.457-.2v2.252h-.41l-.512-.1c-.409,0-.921-.1-1.535-.1h-13.1v13.92c0,1.433-.717,2.149-1.945,2.149a44.8,44.8,0,0,1-6.96-1.126l-1.74-.307-.307-1.842a45.992,45.992,0,0,0,7.472.614c.614,0,.819-.2.819-.819V28.872H605.057a10.815,10.815,0,0,0-2.456.2V26.825c1.126.1,1.637.2,2.456.2h13.306V24.163a16.017,16.017,0,0,0-.2-3.071h2.457a67.453,67.453,0,0,0,6.755-6.346H609.458a12.157,12.157,0,0,0-2.559.2V12.7c1.126.1,1.74.2,2.559.2h17.2a51.6,51.6,0,0,0,5.322-.1v1.535a88.033,88.033,0,0,1-10.952,8.7v4.094h13.2Z" transform="translate(-44.113 -8.811)" fill="#fff"/>
    <path id="パス_683" data-name="パス 683" d="M-29.23-23.717h13.32l.37-4.329H-30.562l-.925,14.541h1.7a5.807,5.807,0,0,1,4.662-2.109c3.256,0,5.365,2.59,5.365,6.623,0,4.81-2.22,7.548-6.142,7.548a6.978,6.978,0,0,1-5.143-2.479l-1.776,2.553A12.81,12.81,0,0,0-26.64,0c7.548,0,11.766-3.219,11.766-8.954,0-4.958-3.626-8.251-9.139-8.251a8.975,8.975,0,0,0-5.7,1.813ZM0-28.49c-6.29,0-9.916,5.143-9.916,14.1C-9.916-4.921-6.512,0,0,0,6.623,0,9.99-4.847,9.99-14.356,9.99-23.421,6.4-28.49,0-28.49ZM4.921-13.542c0,4.366-.3,6.882-1.036,8.843C3.108-2.59,1.776-1.517,0-1.517c-3.367,0-4.847-3.811-4.847-12.58,0-8.732,1.591-12.95,4.847-12.95,3.33,0,4.921,4,4.921,12.543ZM23.68-28.49c-6.29,0-9.916,5.143-9.916,14.1C13.764-4.921,17.168,0,23.68,0c6.623,0,9.99-4.847,9.99-14.356C33.67-23.421,30.081-28.49,23.68-28.49ZM28.6-13.542c0,4.366-.3,6.882-1.036,8.843-.777,2.109-2.109,3.182-3.885,3.182-3.367,0-4.847-3.811-4.847-12.58,0-8.732,1.591-12.95,4.847-12.95,3.33,0,4.921,4,4.921,12.543Z" transform="translate(38.669 34.312)" fill="#fff"/>
    <path id="パス_684" data-name="パス 684" d="M1.7-23.68a12.649,12.649,0,0,1,.16-1.92h-4.48a9.992,9.992,0,0,1,.16,1.92v.8c.1,11.04-3.1,17.952-10.72,23.04l-1.088.448.7,1.152,1.024-.64C-3.84-3.008.288-8.224,1.216-16.16,2.5-8.352,5.088-3.616,10.5.9l.928.864L14.56-1.792l-1.44-.7C5.952-6.784,1.92-13.952,1.7-22.752Z" transform="translate(92.669 31.312)" fill="#fff"/>
  </g>
</svg>
