<svg xmlns="http://www.w3.org/2000/svg" width="319.479" height="133.213" viewBox="0 0 319.479 133.213">
  <g id="グループ_434" data-name="グループ 434" transform="translate(-479 -6578.744)">
    <g id="e0735_2_1_" data-name="e0735_2 (1)" transform="translate(459 6566.844)">
      <path id="パス_609" data-name="パス 609" d="M179.7,145.113a5.126,5.126,0,0,1-3.573-1.33,30.32,30.32,0,0,1-4.5-4.906c-1.261-1.6-3.573-4.463-4.834-5.32-27.618-.03-67.007-2.394-98.955-13.212C53,115.32,41.439,108.965,33.41,101.428,24.5,93.034,20,83.221,20,72.2c0-8.6,3.363-16.641,10-23.912C36.773,40.866,46.861,34.422,59.977,29.1c13.536-5.5,30.266-9.754,49.729-12.621,20.43-3.044,44.013-4.581,70.033-4.581s49.6,1.537,70.033,4.581c19.463,2.9,36.194,7.153,49.729,12.621,13.115,5.32,23.2,11.764,29.972,19.182,6.642,7.271,10,15.31,10,23.912,0,11-4.5,20.838-13.41,29.2-7.987,7.537-19.589,13.921-34.428,18.916-31.99,10.818-71.336,13.182-98.955,13.212-1.261.857-3.573,3.724-4.834,5.32a30.318,30.318,0,0,1-4.5,4.906,5.2,5.2,0,0,1-3.573,1.33C179.782,145.113,179.7,145.113,179.7,145.113Z" fill="#49240d"/>
      <path id="パス_610" data-name="パス 610" d="M185.362,21.6C79.009,21.6,29.7,47.378,29.7,79.2c0,43.616,73.522,58.638,143.429,58.638,3.657,0,8.786,9.215,11.77,11.289,0,0,.336.356.5.3.168.089.5-.3.5-.3,2.943-2.044,8.113-11.289,11.77-11.289,69.865,0,143.429-15.023,143.429-58.638C341.024,47.378,291.715,21.6,185.362,21.6Z" transform="translate(-5.622 -6.992)" fill="#fff"/>
    </g>
    <path id="パス_686" data-name="パス 686" d="M17.595,13.042c.416-.026,1.014-.026,1.456-.026a7.3,7.3,0,0,1,3.354.624,3.611,3.611,0,0,1,.988,1.924c.052.182.1.286.39.286.26,0,.312-.078.312-.286-.026-.936-.052-2.054-.052-3.016,0-.91.026-1.794.052-2.7,0-.234-.026-.312-.338-.312-.286,0-.312.078-.364.286a3,3,0,0,1-.962,1.716,6.781,6.781,0,0,1-3.38.572c-.442,0-1.04,0-1.456-.026V8.206a9.046,9.046,0,0,1,.26-3.146c.312-.6,1.144-.65,2.054-.65,2.132,0,3.25.26,4.03.832a7.23,7.23,0,0,1,1.768,2.782c.052.156.13.208.416.182.26-.052.286-.13.26-.286-.182-1.4-.364-3.12-.468-4.446-2.288.078-4.654.1-6.786.1-2.106,0-4.68-.052-6.968-.1-.182,0-.234.052-.234.364,0,.286.052.312.234.338,1.066.1,1.716.13,1.976.624.312.572.312.91.312,3.406v9.438a9.491,9.491,0,0,1-.312,3.51c-.286.546-.78.546-1.82.65-.156.026-.208.052-.208.338,0,.26.052.286.234.286,1.17-.052,2.418-.078,3.614-.078,1.248,0,2.678.026,3.9.078.208,0,.26-.026.26-.312,0-.234-.052-.286-.234-.312-1.066-.1-1.69-.13-1.976-.65-.312-.546-.312-.91-.312-3.51Zm18.98,1.014c.026-2.028-.026-3.874-3.848-3.874-3.2,0-5.2,1.9-5.2,3.12,0,.52.208.832,1.014.832,1.352,0,2-.546,2-1.248a1.725,1.725,0,0,1,1.82-1.976c1.066,0,1.56.806,1.56,2.756v.728a1.4,1.4,0,0,1-.6,1.014,5.439,5.439,0,0,1-2.028.936,8.351,8.351,0,0,0-3.328,1.43,3.01,3.01,0,0,0-.884,2.314c0,1.17.78,2.756,3.328,2.756a4.548,4.548,0,0,0,3.64-1.534,2.209,2.209,0,0,0,2.21,1.4,3.682,3.682,0,0,0,2.21-.6c.182-.13.182-.208.078-.39s-.234-.182-.338-.13a1.3,1.3,0,0,1-.754.182c-.6,0-.962-.624-.936-2.288ZM33.9,19.568a2.259,2.259,0,0,1-2.314,2.262A1.944,1.944,0,0,1,29.945,19.7a2.631,2.631,0,0,1,1.9-2.73c1.456-.546,1.82-.754,2.08-1.144Zm11.778-9.386A6.134,6.134,0,0,0,39.721,16.6c0,3.64,2.392,6.24,5.9,6.24a5.1,5.1,0,0,0,4.706-2.73c.078-.156.052-.26-.156-.39-.208-.156-.338-.182-.468.026a3.636,3.636,0,0,1-3.3,1.82c-1.716,0-3.614-1.716-3.614-5.1,0-3.2,1.014-5.46,3.016-5.46.676,0,1.066.52,1.378,1.092.312.624.78,1.612,1.56,1.612.858,0,1.144-.78,1.144-1.716a1.414,1.414,0,0,0-1.04-1.222A7.4,7.4,0,0,0,45.675,10.182ZM54.7,15.538c2.314-.052,4.94-.026,7.566.052.156,0,.26.026.39-.13a.56.56,0,0,0,.13-.442,5.135,5.135,0,0,0-5.07-4.836A6.129,6.129,0,0,0,51.681,16.6a5.879,5.879,0,0,0,6.006,6.24A5.156,5.156,0,0,0,62.5,20.27a.806.806,0,0,0,.13-.286c0-.078-.1-.182-.208-.26a.467.467,0,0,0-.234-.1.316.316,0,0,0-.26.13,3.987,3.987,0,0,1-3.614,1.872c-1.612,0-3.718-1.716-3.718-5.148A3.873,3.873,0,0,1,54.7,15.538Zm.13-.936c.39-2.132,1.482-3.64,2.886-3.64,1.508,0,2.132,1.69,2.21,3.146,0,.234-.026.39-.234.416A43.346,43.346,0,0,1,54.827,14.6ZM68.139,8.96c0-2.548.052-4.576.13-6.37,0-.1-.13-.208-.286-.208A34.668,34.668,0,0,1,63.719,3.5c-.208.078-.26.1-.234.39.026.312.078.338.338.312l.65-.052c.442-.026.754.078.858.52a12.665,12.665,0,0,1,.13,2.236v9.672c0,2.47-.078,3.874-.208,5.746-.026.182.026.234.312.234a.661.661,0,0,0,.52-.156l1.144-1.014a.507.507,0,0,1,.6,0,4.617,4.617,0,0,0,3.432,1.456c3.718,0,5.954-2.782,5.954-6.422,0-3.718-2.262-6.292-5.616-6.292a4.182,4.182,0,0,0-3.458,2.08Zm0,5.8a3.052,3.052,0,0,1,.442-2.028A2.786,2.786,0,0,1,70.895,11.4c1.768,0,3.2,1.794,3.2,5.044,0,3.276-1.274,5.538-3.2,5.538A2.7,2.7,0,0,1,68.529,20.4a4.111,4.111,0,0,1-.39-2.288ZM85.4,10.182a6.111,6.111,0,0,0-6.058,6.4,6.075,6.075,0,1,0,12.142-.052A6.058,6.058,0,0,0,85.4,10.182Zm0,.78c2.08,0,3.042,2.262,3.042,5.564,0,3.068-1.04,5.538-3.042,5.538-2.054,0-3.016-2.288-3.016-5.538C82.387,13.406,83.4,10.962,85.4,10.962Zm14.274-.78a6.111,6.111,0,0,0-6.058,6.4,6.075,6.075,0,1,0,12.142-.052A6.058,6.058,0,0,0,99.677,10.182Zm0,.78c2.08,0,3.042,2.262,3.042,5.564,0,3.068-1.04,5.538-3.042,5.538-2.054,0-3.016-2.288-3.016-5.538C96.661,13.406,97.675,10.962,99.677,10.962Zm12.116-2.054c0-2.47.078-4.446.156-6.37,0-.13-.156-.208-.312-.208a33.445,33.445,0,0,1-4.212,1.144c-.286.052-.312.1-.286.39s.078.312.364.286l.6-.052a.754.754,0,0,1,.858.546,9.851,9.851,0,0,1,.156,2.21V18.632a8.179,8.179,0,0,1-.182,2.7c-.182.416-.6.416-1.352.494-.182.026-.234.078-.234.312s.052.286.26.286c.936-.052,2.08-.078,2.99-.078.884,0,1.794.026,2.782.078.182,0,.234-.052.234-.286s-.052-.286-.234-.312c-.806-.078-1.248-.1-1.4-.494a9.016,9.016,0,0,1-.182-2.73V16.994l.442-.39c1.2,1.664,1.924,2.782,3.12,4.55.26.416.468.754.728,1.222.65-.026,1.43-.026,2.106-.026.6,0,1.43.078,2.08.078.234,0,.26-.052.26-.286,0-.26-.026-.286-.208-.312a2.359,2.359,0,0,1-1.222-.286,5.738,5.738,0,0,1-1.118-1.222c-1.222-1.586-2.678-3.614-3.926-5.408.234-.208.26-.234.494-.468l1.17-1.092a7.628,7.628,0,0,1,2.08-1.586,4.51,4.51,0,0,1,1.612-.52c.13,0,.182-.052.182-.338,0-.26-.052-.312-.208-.312-.728.026-1.612.078-2.392.078-.806,0-1.768,0-2.6-.026-.156,0-.208.052-.208.286,0,.312.052.338.208.338.52.026,1.04.052,1.144.364.13.39-.208.858-1.014,1.716l-1.352,1.4c-.546.546-.91.91-1.378,1.326Zm15.47,5.512h16.25c.26,0,.338-.078.338-.26s-.208-.39-.754-.832c-1.248-.936-1.534-1.144-1.768-1.144-.182,0-.494.208-1.716,1.638h-4.94v-2.6h7.384c.26,0,.338-.078.338-.26s-.208-.39-.676-.78c-1.066-.832-1.352-1.04-1.586-1.04-.182,0-.494.208-1.612,1.482h-3.848V8.18H142c.26,0,.338-.078.338-.26s-.208-.39-.676-.78c-1.092-.832-1.378-1.04-1.612-1.04-.182,0-.494.208-1.534,1.482h-3.848V5.294h8.346c.286,0,.39-.078.39-.26,0-.208-.156-.39-.7-.832-1.17-.936-1.378-1.092-1.638-1.092-.208,0-.416.156-1.664,1.586h-5.668a11.7,11.7,0,0,0,1.95-1.482c.936-.052,1.274-.208,1.274-.6s-.52-.624-3.354-1.482a17.12,17.12,0,0,1-.364,1.95A16.775,16.775,0,0,1,132.7,4.7h-5.122a18.453,18.453,0,0,0,1.118-1.482c1.014-.156,1.222-.26,1.222-.624,0-.39-.91-.806-3.432-1.508a13.176,13.176,0,0,1-1.508,3.406,19.82,19.82,0,0,1-3.666,4.472c-.1.078.078.312.208.26a14.68,14.68,0,0,0,3.432-2.028v1.43c0,4.056-.156,5.07-.156,6.084,0,.754.234.962,1.04.962.988,0,1.43-.312,1.43-1.066Zm0-6.838V5.294h5.018V7.582Zm0,.6h5.018v2.444h-5.018Zm0,3.042h5.018v2.6h-5.018ZM144.371,17.9c.26,0,.338-.078.338-.26s-.208-.416-.754-.884c-1.248-1.04-1.508-1.248-1.742-1.248-.182,0-.494.208-1.846,1.794h-6.318v-.988c.624-.234.78-.39.78-.624,0-.416-.182-.468-3.2-.754a15.272,15.272,0,0,1,.078,2v.364h-8.06a9.642,9.642,0,0,1-1.976-.208l.286.962a11.926,11.926,0,0,1,1.768-.156h6.344a23.077,23.077,0,0,1-8.71,6.292c-.13.052-.026.338.1.312a20.885,20.885,0,0,0,10.374-4.992c-.052,2.158-.208,4.42-.208,4.992,0,.624.286.858.988.858,1.092,0,1.534-.312,1.534-1.066,0-.91-.1-2.7-.182-5.98a14.359,14.359,0,0,0,3.588,3.614,21.009,21.009,0,0,0,4.68,2.262,5.028,5.028,0,0,0,1.092.26c.156,0,.234-.078.312-.286a2.723,2.723,0,0,1,1.82-2.054c.13-.052.13-.26,0-.286a26.668,26.668,0,0,1-7.02-1.508,14.136,14.136,0,0,1-4.082-2.418Zm10.244,5.59h8.736v.468c0,.624.312.91,1.066.91.962,0,1.482-.364,1.482-1.066,0-.494-.078-2.054-.078-4.29v-.858c.52-.364.624-.468.624-.676,0-.156-.1-.312-.364-.572.572.182,1.118.338,1.586.442a7.128,7.128,0,0,0,1.508.234c.26,0,.364-.13.494-.7a2.579,2.579,0,0,1,1.456-1.794c.13-.052.13-.286,0-.286a28.6,28.6,0,0,1-8.138-1.066,13.986,13.986,0,0,1-2.47-.988,24.2,24.2,0,0,0,3.666-3.64c.988-.234,1.222-.364,1.222-.754,0-.286-.234-.494-.7-.884-.962-.78-1.3-.988-1.508-.988s-.624.364-1.378,1.118h-5.3c.13-.208.286-.416.416-.624.884-.052,1.118-.182,1.118-.52,0-.364-.806-.754-2.886-1.378a12.557,12.557,0,0,1-1.2,2.47,21.463,21.463,0,0,1-5.824,6.136c-.1.078.026.312.156.26a16.445,16.445,0,0,0,6.942-4.68,23,23,0,0,0,2.444,3.068,29.52,29.52,0,0,1-10.374,5.07c-.13.026-.052.338.078.312a38.225,38.225,0,0,0,4.784-.91c0,.832.026,1.664.026,2.47,0,2.86-.078,3.562-.078,4.264,0,.65.26.936.962.936,1.066,0,1.534-.338,1.534-1.04ZM156.071,8.7h5.642a19.34,19.34,0,0,1-3.146,3.406,14.458,14.458,0,0,1-2.99-2.782Zm-1.4,8.684c-.364-.26-.6-.416-.832-.572a20.035,20.035,0,0,0,5.408-2.626,16.486,16.486,0,0,0,3.614,2.08c.286.13.624.26.962.39a6.753,6.753,0,0,0-.676.728Zm8.684,5.512h-8.736V17.982h8.736ZM150.871,4.488a9.814,9.814,0,0,0-.26-1.118c-.026-.13-.26-.1-.286.026a2.92,2.92,0,0,1-1.9,2.886A1.231,1.231,0,0,0,147.6,7.53a1.3,1.3,0,0,0,1.326,1.378c1.4,0,2.262-1.586,2.028-3.822h16.094a12.809,12.809,0,0,1-.832,2.652c-.052.13.13.234.234.182a13.331,13.331,0,0,0,2.522-1.742.944.944,0,0,1,.754-.234c.832,0,1.014-.1,1.014-.546,0-.208-.156-.39-.754-.936-1.274-1.118-1.482-1.274-1.742-1.274-.208,0-.416.156-1.482,1.3h-6.552V2.85c.6-.234.884-.468.884-.728,0-.286-.312-.572-3.51-.884.052.546.078,1.274.078,2.106V4.488Zm39.624,4.5c0,.13.026.182.1.208a1.616,1.616,0,0,1,.754.39.711.711,0,0,1,.286.52c0,.208-.416.442-.936.78-1.222.78-2.34,1.456-4.42,2.73a4.05,4.05,0,0,0-.468-2.21,2.43,2.43,0,0,0-2.21-1.014,5.015,5.015,0,0,0-2.834,1.092,22.3,22.3,0,0,0,1.352-2.028c.364-.6.65-.988.91-1.378A30.575,30.575,0,0,0,188,6.75a.977.977,0,0,0,.728-.91c0-.572-.7-.962-1.69-.962a1.566,1.566,0,0,0-.936.286,4.685,4.685,0,0,1-2.08.962c.208-.338.624-.936.78-1.144a3.038,3.038,0,0,1,.7-.728.873.873,0,0,0,.364-.65,1.05,1.05,0,0,0-.624-.962,5.63,5.63,0,0,0-2.626-.676,1.428,1.428,0,0,0-.962.312c-.078.078-.182.156-.182.286,0,.078.026.1.156.13a3.339,3.339,0,0,1,.546.182,1.974,1.974,0,0,1,.624.364.625.625,0,0,1,.234.442,2.908,2.908,0,0,1-.13.7,12.189,12.189,0,0,1-.858,2.132,14.261,14.261,0,0,1-3.016.416,3.019,3.019,0,0,1-2.6-1.066.46.46,0,0,0-.286-.234c-.1,0-.156.1-.156.234a1.549,1.549,0,0,0,.13.6,2.982,2.982,0,0,0,3.12,2.106c.624-.052,1.378-.13,1.872-.182a25.342,25.342,0,0,1-3.8,5.148c-.286.286-.65.624-.91.858a1.664,1.664,0,0,0-.416,1.066,1,1,0,0,0,.286.832,1.061,1.061,0,0,0,.806.286,1.674,1.674,0,0,0,1.17-.754,28.216,28.216,0,0,1,1.846-2.652c1.04-1.17,1.976-1.794,2.938-1.794.936,0,1.274.858,1.274,2.236,0,.364,0,.754-.026,1.222a19.639,19.639,0,0,0-2.834,2.028,4.586,4.586,0,0,0-1.794,3.38,3.019,3.019,0,0,0,1.794,2.912c1.274.6,2.5.78,5.59.78,2.964,0,4.55-.286,5.07-.65a1.008,1.008,0,0,0,.442-.78,1.313,1.313,0,0,0-.546-.962,2.487,2.487,0,0,0-1.534-.442,3.356,3.356,0,0,0-1.066.208,7.01,7.01,0,0,1-1.534.442,22.279,22.279,0,0,1-3.536.182c-2.444,0-3.536-.624-3.536-1.846,0-1.118.7-1.924,2.106-2.886.312-.208.728-.494,1.352-.858-.026,1.4-.078,2.028-.078,2.5,0,.884.39,1.248,1.144,1.248a1.021,1.021,0,0,0,.962-.676,9.5,9.5,0,0,0,.078-2.288c0-.546,0-1.326.026-1.976.624-.364,1.586-.832,2.444-1.274a28.936,28.936,0,0,1,3.848-1.638,7.079,7.079,0,0,1,1.456-.364c.572-.052.91-.312.91-.832,0-.494-.26-1.144-1.482-1.768a5.473,5.473,0,0,0-2.08-.65C190.963,8.622,190.5,8.752,190.5,8.986ZM27.2,53.824A15,15,0,0,0,23.51,51.8a4.077,4.077,0,0,0-1.17-.312c-.208,0-.286.078-.286.208a.455.455,0,0,0,.26.39,17.446,17.446,0,0,1,3.172,3.172,18.563,18.563,0,0,1,1.586,2.626c.364.754.754,1.222,1.4,1.222a1.429,1.429,0,0,0,1.456-1.586c0-.858-.624-1.794-1.95-3.016a68.36,68.36,0,0,0,6.448-4.654,2.5,2.5,0,0,1,1.352-.7c.52-.052,1.066-.182,1.066-.806,0-.494-.338-1.092-1.508-2.106a2.25,2.25,0,0,0-1.534-.728,1.633,1.633,0,0,0-.832.364,2.025,2.025,0,0,1-.858.234c-4,.468-7.826.78-11.544,1.144-1.04.078-1.664.1-2.158.1a2.093,2.093,0,0,1-1.43-.338,6.434,6.434,0,0,1-.832-.754c-.208-.208-.26-.286-.39-.286-.182,0-.364.468-.364.962a3.037,3.037,0,0,0,.936,1.872c.832.936,1.43,1.17,1.794,1.17a1.278,1.278,0,0,0,.728-.234,3.842,3.842,0,0,1,1.768-.572c3.978-.676,7.7-1.17,10.5-1.4.6-.052,1.04-.078,1.3-.078.156,0,.26.026.26.078a.818.818,0,0,1-.182.312A45.7,45.7,0,0,1,27.2,53.824ZM53.9,51.9a42.549,42.549,0,0,0,3.536-4.68c.234-.338.39-.546.624-.624.78-.26.858-.52.858-.78,0-.364-.312-.78-1.092-1.456a2.071,2.071,0,0,0-1.378-.7.98.98,0,0,0-.754.286,1.937,1.937,0,0,1-1.04.39c-1.846.26-3.588.494-5.72.728-1.014.1-1.664.156-1.976.156-.78,0-1.066-.182-1.794-.988-.182-.208-.286-.312-.364-.312-.156,0-.338.182-.338.676a2.225,2.225,0,0,0,.546,1.664c.728.91,1.248,1.222,1.742,1.222a1.567,1.567,0,0,0,.91-.286,3.87,3.87,0,0,1,1.2-.416c2.054-.442,4.394-.832,6.214-1.04.26-.026.338,0,.338.078a.8.8,0,0,1-.156.312,38.915,38.915,0,0,1-5.278,6.89A31.658,31.658,0,0,1,41.84,59.31a.353.353,0,0,0-.182.286c0,.182.13.234.26.234a1.64,1.64,0,0,0,.572-.13,23.089,23.089,0,0,0,4.446-2.054,29.816,29.816,0,0,0,6.37-5.1,15.575,15.575,0,0,1,2.6,2,21.818,21.818,0,0,1,3.016,3.874,1.7,1.7,0,0,0,1.612.884,1.3,1.3,0,0,0,1.2-1.4c0-.754-.624-1.768-2.184-2.964a16.6,16.6,0,0,0-2.5-1.586A33.7,33.7,0,0,0,53.9,51.9Zm24.752-6.864c.286-.442.416-.65.572-.858a1.786,1.786,0,0,1,.546-.416.716.716,0,0,0,.39-.754c0-.416-.338-.806-1.248-1.326a4.563,4.563,0,0,0-2.34-.78c-.364,0-.858.26-.858.442,0,.1.078.156.26.26a3.2,3.2,0,0,1,.884.65.738.738,0,0,1,.182.442A6.548,6.548,0,0,1,75.9,45.244a39.873,39.873,0,0,1-2.808,4.134,43.1,43.1,0,0,1-3.016,3.432c-.156.156-.208.208-.208.338s.078.234.286.234a.774.774,0,0,0,.364-.13A16.633,16.633,0,0,0,74.08,50.6a35.538,35.538,0,0,0,3.978-4.68,3.272,3.272,0,0,0,1.326.312,8.149,8.149,0,0,0,1.274-.182c.676-.13,1.456-.338,2.392-.468.208-.026.26.026.26.078a.59.59,0,0,1-.078.312,39.941,39.941,0,0,1-2.99,4.966,15.17,15.17,0,0,0-3.328-.962c-.234-.052-.442-.078-.624-.1-.234-.026-.364.052-.364.234,0,.1.13.182.39.338a15.9,15.9,0,0,1,2.86,1.95,33.571,33.571,0,0,1-10.01,8.658c-.234.13-.312.234-.312.364a.254.254,0,0,0,.26.234,2.2,2.2,0,0,0,.442-.1,26.473,26.473,0,0,0,11.154-7.7,16.9,16.9,0,0,1,1.3,1.768,1.506,1.506,0,0,0,1.118.65,1.235,1.235,0,0,0,1.144-1.274c0-.806-.416-1.794-2.158-3.016a52.242,52.242,0,0,0,3.2-4.758,1.581,1.581,0,0,1,.7-.6.825.825,0,0,0,.546-.754c0-.468-.416-.988-1.352-1.69a2.1,2.1,0,0,0-.988-.442.982.982,0,0,0-.7.286,1.182,1.182,0,0,1-.7.364A27.9,27.9,0,0,1,78.656,45.036Zm36.062,6.24c0-.65-.676-1.04-1.664-1.456a2.994,2.994,0,0,0-1.17-.26,1.735,1.735,0,0,0-.728.208,4.962,4.962,0,0,1-2.028.364c-2.548.052-5.98.208-9.2.416-1.534.1-2.028.13-2.73.13a2.569,2.569,0,0,1-2.184-.988c-.13-.13-.26-.234-.338-.234-.156,0-.312.208-.312.624a2.111,2.111,0,0,0,.494,1.4c.806,1.17,1.4,1.794,2.08,1.794a1.128,1.128,0,0,0,.7-.208,7.389,7.389,0,0,1,2.574-.494c3.2-.286,7.67-.39,9.724-.39,1.274,0,3.042.13,3.848.13A.987.987,0,0,0,114.718,51.276Zm17.888-6.084c.026-.988.052-1.456.1-2.054a.854.854,0,0,1,.286-.546,1.1,1.1,0,0,0,.364-.754c0-.364-.286-.7-.754-1.014a4.064,4.064,0,0,0-2.34-.858,2.357,2.357,0,0,0-1.378.6c-.234.182-.416.364-.416.546,0,.13.13.182.286.208.26.026.468.052.988.1.468.052.6.208.7.442a2.436,2.436,0,0,1,.1.91c.026,1.014.052,1.82.052,2.652-2.106.26-4.68.624-6.89.988a15.048,15.048,0,0,1-1.846.234,3.27,3.27,0,0,1-2.288-.962.359.359,0,0,0-.234-.13.274.274,0,0,0-.26.208.912.912,0,0,0-.078.416,3.414,3.414,0,0,0,1.248,1.95,2.451,2.451,0,0,0,1.664.806,1.415,1.415,0,0,0,.858-.286,4.727,4.727,0,0,1,1.534-.676A56.959,56.959,0,0,1,130.6,46.83c.026.91.052,1.872.026,2.886a6.123,6.123,0,0,0-1.326-.156,3.746,3.746,0,0,0-2.158.806,3.2,3.2,0,0,0-1.092,2.522,3.3,3.3,0,0,0,1.118,2.522,3.023,3.023,0,0,0,1.872.7,3.293,3.293,0,0,0,1.534-.312c-.832,2.626-3.094,4.732-6.76,6.032-.208.078-.312.156-.312.364,0,.156.182.26.364.26a7.846,7.846,0,0,0,1.456-.26,11.352,11.352,0,0,0,4.654-2.184,7.788,7.788,0,0,0,3.12-6.11,7.425,7.425,0,0,0-.65-3.12c0-1.482.052-2.834.078-4.16,1.69-.13,2.86-.156,4.524-.156a12.229,12.229,0,0,1,2.912.442,4.6,4.6,0,0,0,1.274.13.778.778,0,0,0,.832-.78,1.5,1.5,0,0,0-.754-1.222,5.357,5.357,0,0,0-2.6-.728,1.947,1.947,0,0,0-.858.26,4.137,4.137,0,0,1-1.17.26C135.544,44.958,134.3,45.062,132.606,45.192Zm-3.328,5.2a1.582,1.582,0,0,1,1.248.572,2.233,2.233,0,0,1,.39,1.378,1.986,1.986,0,0,1-.468,1.508,1.7,1.7,0,0,1-1.17.442,1.732,1.732,0,0,1-1.378-.572,1.946,1.946,0,0,1-.468-1.4,2.02,2.02,0,0,1,.546-1.43A1.779,1.779,0,0,1,129.278,50.392Zm23.738,1.586c1.274-1.482,2.21-2.47,3.406-3.848a35.815,35.815,0,0,1,3.562-3.8,6.082,6.082,0,0,1,1.014-.65.71.71,0,0,0,.416-.676,1.125,1.125,0,0,0-.494-.91,4.426,4.426,0,0,0-2.34-1.092.991.991,0,0,0-.7.338,2.487,2.487,0,0,1-1.248.676,17.257,17.257,0,0,1-4.446,1.04c-.338,0-.65-.182-1.092-.754-.208-.286-.312-.468-.468-.468-.182,0-.416.572-.416.962a3.407,3.407,0,0,0,1.014,1.976,1.382,1.382,0,0,0,2.236.1c.442-.234.832-.442,1.482-.754a18.255,18.255,0,0,1,2.73-1.092c.182-.052.312.052.312.182s-.1.26-.286.52a109,109,0,0,1-9.022,10.634,1.472,1.472,0,0,0-.494,1.17,1.319,1.319,0,0,0,.468.962,1.133,1.133,0,0,0,.754.312c.39,0,.754-.312,1.274-1.04,2-2.808,4.16-4.732,7.176-4.732a4.362,4.362,0,0,1,2.938.988,4.3,4.3,0,0,1,1.274,3.12,4.819,4.819,0,0,1-.936,3.146,4.36,4.36,0,0,1-1.82,1.326,7.8,7.8,0,0,0-1.326-2.158,4.385,4.385,0,0,0-2.964-1.326,3.439,3.439,0,0,0-2.158.624,2.291,2.291,0,0,0-.91,1.846A2.774,2.774,0,0,0,153.276,61a6.561,6.561,0,0,0,3.588.78,8.963,8.963,0,0,0,5.148-1.534,5.9,5.9,0,0,0,2.626-5.122,5.042,5.042,0,0,0-1.716-3.718,6.6,6.6,0,0,0-4.6-1.56,8.161,8.161,0,0,0-5.278,2.184Zm4.264,8.164a6.617,6.617,0,0,1-1.118.078,4.816,4.816,0,0,1-2.444-.494,1.563,1.563,0,0,1-.754-1.326,1.246,1.246,0,0,1,.26-.832,1.531,1.531,0,0,1,1.2-.442,2.432,2.432,0,0,1,1.638.754A4.762,4.762,0,0,1,157.28,60.142ZM180.6,50.7c-3.276,1.716-5.252,3.328-5.252,6.11a3.616,3.616,0,0,0,.91,2.418,5.139,5.139,0,0,0,2.34,1.456,16.941,16.941,0,0,0,4.862.572,21.4,21.4,0,0,0,5.252-.416c1.014-.234,1.2-.624,1.2-1.222,0-.468-.39-.91-1.118-1.144a3.851,3.851,0,0,0-1.326-.234,2.576,2.576,0,0,0-1.222.312,13.659,13.659,0,0,1-4.524.468c-3.458,0-4.992-.936-4.992-2.6,0-2.08,1.664-3.406,5.512-4.94A31.862,31.862,0,0,1,187,50.08c.468-.1,1.222-.286,1.638-.338.52-.078.728-.312.728-.78a2.519,2.519,0,0,0-.6-1.3,5.982,5.982,0,0,0-1.638-1.3,1.761,1.761,0,0,0-.884-.286c-.338,0-.6.156-.6.286,0,.1.1.182.234.312a2.7,2.7,0,0,1,.52.65.453.453,0,0,1-.13.676,16.133,16.133,0,0,1-1.638.806,14.3,14.3,0,0,1-2.262.91c-.364,0-.676-.1-.728-.624a25.921,25.921,0,0,1,0-3.3,14.614,14.614,0,0,1,.156-1.612,2.269,2.269,0,0,1,.208-.728,1.108,1.108,0,0,0,.312-.728,1.435,1.435,0,0,0-.676-1.144,3.913,3.913,0,0,0-2.262-1.066,2.831,2.831,0,0,0-1.4.416c-.182.1-.338.26-.338.416,0,.1.078.13.234.182.26.1.52.234.78.364.52.26.676.416.754.728a4.049,4.049,0,0,1,.1,1.352,40.181,40.181,0,0,0,.13,4.966A2.557,2.557,0,0,0,180.6,50.7Z" transform="translate(535 6611)" fill="#49240d"/>
  </g>
</svg>
