<svg xmlns="http://www.w3.org/2000/svg" width="64" height="434" viewBox="0 0 64 434">
  <g id="グループ_436" data-name="グループ 436" transform="translate(0.319)">
    <g id="グループ_255" data-name="グループ 255">
      <circle id="楕円形_11" data-name="楕円形 11" cx="32" cy="32" r="32" transform="translate(-0.319)" fill="#c4ad9d"/>
      <path id="パス_692" data-name="パス 692" d="M-3.24-19.44c.93-.27,1.56-.24,1.77.09a5.11,5.11,0,0,1,.3,2.31V-6.3c0,2.01.03,3.3-.3,3.99-.3.66-1.29.69-2.55.78-.21.03-.3.12-.3.45,0,.36.06.42.3.42,1.41-.06,3-.09,4.56-.09,1.41,0,3.06.03,4.44.09.21,0,.27-.06.27-.42,0-.33-.06-.42-.27-.45-1.26-.12-2.25-.15-2.55-.78S2.1-3.33,2.1-6.3v-9.39c0-2.43.09-4.23.12-6.63,0-.21-.27-.36-.48-.36-2.01.96-4.65,2.07-6.39,2.7-.36.12-.36.21-.27.54.09.39.21.42.51.33Z" transform="translate(31.681 43)" fill="#fff"/>
    </g>
    <line id="線_57" data-name="線 57" y2="120" transform="translate(32.5 64.166)" fill="none" stroke="#c4ad9d" stroke-width="1"/>
    <g id="グループ_255-2" data-name="グループ 255" transform="translate(0 185)">
      <circle id="楕円形_11-2" data-name="楕円形 11" cx="32" cy="32" r="32" transform="translate(-0.319)" fill="#c4ad9d"/>
      <path id="パス_693" data-name="パス 693" d="M7.29-6.51c0-.18-.3-.36-.54-.36-.15,0-.21.06-.3.21A6.335,6.335,0,0,1,4.8-4.35c-.63.54-1.29.72-3.99.72H-4.83c.96-1.53,1.8-2.46,5.31-5.49l.75-.66c4.26-3.21,5.31-4.89,5.31-7.44,0-2.91-2.25-5.31-6.57-5.31-3.69,0-6.72,2.76-6.72,5.16,0,.69.45,1.08,1.53,1.08,1.32,0,2.28-.69,2.28-1.41a5.775,5.775,0,0,1,.3-2.19A2.6,2.6,0,0,1,.03-21.63c1.62,0,2.76,1.44,2.76,4.29,0,2.04-.78,3.36-3.6,6.87l-.63.78A48.918,48.918,0,0,0-6.96-2.01a1.349,1.349,0,0,0-.18.84c0,.48.09.51.39.51C-4.68-.72-2.82-.72-.51-.72c2.28,0,3.93,0,6.09.06.51-1.5,1.26-3.99,1.65-5.61Z" transform="translate(31.681 43)" fill="#fff"/>
    </g>
    <line id="線_57-2" data-name="線 57" y2="120" transform="translate(32.5 249.166)" fill="none" stroke="#c4ad9d" stroke-width="1"/>
    <g id="グループ_255-3" data-name="グループ 255" transform="translate(0 370)">
      <circle id="楕円形_11-3" data-name="楕円形 11" cx="32" cy="32" r="32" transform="translate(-0.319)" fill="#c4ad9d"/>
      <path id="パス_694" data-name="パス 694" d="M.96-12.36c2.55-.6,4.8-1.89,4.8-5.01,0-3.27-2.52-5.16-5.94-5.16-3.78,0-6.12,2.67-6.12,4.38,0,.66.45.96,1.38.96,1.29,0,2.25-.57,2.25-1.56a3.747,3.747,0,0,1,.24-1.5A2.326,2.326,0,0,1-.18-21.6c1.65,0,2.52,1.92,2.52,4.2,0,3.36-1.68,4.68-3.33,4.68-.36,0-.87-.09-1.14-.09-.33,0-.48.12-.57.69-.12.54.03.6.3.6.3,0,.96-.06,1.35-.09,3-.21,3.93,2.73,3.93,4.89,0,3.48-1.17,5.67-3.27,5.67A2.3,2.3,0,0,1-2.67-2.82c-.36-.84-.75-2.28-1.92-2.28-1.38,0-2.16.57-2.16,1.29,0,.96.99,1.92,1.95,2.52A7.856,7.856,0,0,0-.39-.12c4.2,0,6.87-2.52,6.87-6.51,0-2.94-1.98-4.86-5.52-5.58Z" transform="translate(31.681 43)" fill="#fff"/>
    </g>
  </g>
</svg>
