<svg xmlns="http://www.w3.org/2000/svg" width="982.929" height="432.772" viewBox="0 0 982.929 432.772">
  <g id="グループ_433" data-name="グループ 433" transform="translate(-155.671 -5997)">
    <g id="recommend_chart" transform="translate(155.67 5997)">
      <rect id="長方形_211" data-name="長方形 211" width="484.253" height="50.607" transform="translate(480.077 62.473)" fill="#ff878a"/>
      <path id="パス_562" data-name="パス 562" d="M154.2,161.952a.71.71,0,0,1-.626-.365.689.689,0,0,1,0-.72l92.749-160A.7.7,0,0,1,246.908.5a.71.71,0,0,1,.626.365L339.792,161.18a.762.762,0,0,1,0,.731.72.72,0,0,1-.637.365Z" transform="translate(6.51 0.022)" fill="#ffebee"/>
      <path id="パス_563" data-name="パス 563" d="M246.929,1.044a.2.2,0,0,1,.177.1l92.185,160.315a.209.209,0,0,1-.177.313l-184.934-.324a.2.2,0,0,1-.177-.1.177.177,0,0,1,0-.2l92.791-160a.188.188,0,0,1,.136-.1m0-1.044a1.242,1.242,0,0,0-1.044.626l-92.739,160a1.242,1.242,0,0,0,1.044,1.868l184.934.324h0a1.252,1.252,0,0,0,1.044-1.868L248.046.626A1.232,1.232,0,0,0,247,0Z" transform="translate(6.488)" fill="#ffefe9"/>
      <path id="パス_564" data-name="パス 564" d="M346.584,154.01l-187.335.72L4.33,422.676l498.864.866Z" transform="translate(0 6.722)" fill="#ffacae" stroke="#ff878a" stroke-miterlimit="10" stroke-width="5"/>
      <path id="パス_565" data-name="パス 565" d="M213.515,94.554a40.859,40.859,0,0,1-3.037,3.225c.532.48.751.647,1.659,1.534.5-.824,1.106-1.931,1.576-2.912l.605-1.273,2.828,1.712-.908,1.044a49.388,49.388,0,0,1-5.218,5.469c1.044,0,2.9-.167,3.809-.261-.125-.626-.2-.96-.376-1.628l-.271-.626,1.179-.491.23.626a32.354,32.354,0,0,1,1.972,3.4l.5.8-2.787,1.044v-.877a9.39,9.39,0,0,0-.177-1.106l-.449.146-.449.125-.407.157v9.142a7.768,7.768,0,0,0,.052.824v.4l.052.5h-3.131v-.449l.052-.428a7.474,7.474,0,0,0,0-.835v-6.377l-.3.845a21.728,21.728,0,0,1-2.286,5.385l-.3.772L206.753,114l.355-.8a21.917,21.917,0,0,0,.731-5.385v-1.2l2.974.584v-1.659c-.376.1-1.545.428-2.2.574l-1.3.449-.616-3.2h2.557c.449-.605.647-.845,1.044-1.378a35.046,35.046,0,0,0-2.484-4.759l-.553-.605.877-.866.626.574.731.574a34.693,34.693,0,0,0,1.482-3.58l.3-1.252,3.2,1.44Zm1.785,12.43a45.9,45.9,0,0,1,2.2,4.06l.543.845-3.027,1.232-.073-1.106a45.987,45.987,0,0,0-.824-4.54l-.25-.7,1.138-.449Zm10.082,6.627h3.663a8.224,8.224,0,0,0,1.649-.157v1.555a10.083,10.083,0,0,0-1.649-.125h-10.6a10.165,10.165,0,0,0-1.67.125v-1.555a8.871,8.871,0,0,0,1.68.157h3.7v-4.634h-2.421a9.966,9.966,0,0,0-1.659.125v-1.534a11.366,11.366,0,0,0,1.649.136h2.432v-1.9a7.786,7.786,0,0,0-.177-1.68h3.559a10.874,10.874,0,0,0-.146,1.68v1.847H227.8a9.623,9.623,0,0,0,1.649-.125v1.534a10.237,10.237,0,0,0-1.649-.136h-2.411Zm-6.5-18.6a9.7,9.7,0,0,0-1.607.125V93.6a11.292,11.292,0,0,0,1.6.136h7.191c1.576,0,2.38,0,3.4-.073v.95a14.3,14.3,0,0,1-3.611,6.084,16.635,16.635,0,0,0,3.9,1.336l1.325.2-1.586,3.131-1.1-.449a17.628,17.628,0,0,1-4.582-2.411l-.271.167A18.16,18.16,0,0,1,219.2,104.7l-.8.428-.647-1.179.9-.3a14.475,14.475,0,0,0,3.486-2.724,15.206,15.206,0,0,1-2.964-5.865Zm1.649,0a10.958,10.958,0,0,0,3.131,4.269,12.326,12.326,0,0,0,2.139-4.258Z" transform="translate(8.833 4.018)" fill="#999"/>
      <path id="パス_566" data-name="パス 566" d="M246.778,96.818a22.48,22.48,0,0,0,1.586-3.528l.271-1.044,3.987,1.315-1.044.824a26.422,26.422,0,0,1-2.954,2.421h3.757a15.96,15.96,0,0,0,2.087-.1,11.266,11.266,0,0,0-.157,2.087v1.158a9.679,9.679,0,0,0,.146,1.649h-3.674v-.626a5.9,5.9,0,0,0,.083-1.044V98.1h-15.4v1.91a9.684,9.684,0,0,0,.146,1.649H232v-.125l.052-.5a6,6,0,0,0,.073-1.044V98.54A9.949,9.949,0,0,0,232,96.692a18.638,18.638,0,0,0,2.087.1h2.578l-.073-.2a28.706,28.706,0,0,0-1.2-2.839l-.5-.647,1.044-.751.522.48.731.522c1.252.887,1.67,1.232,2.3,1.732l.783.459-2,1.242h4.06l-.073-.449a20.77,20.77,0,0,0-.991-2.964l-.428-.595,1.148-.7.428.5.751.626a21.042,21.042,0,0,1,1.826,1.628l.856.678L243.355,96.8Zm4.175,11.8a11.731,11.731,0,0,0,1.7-.094,9.893,9.893,0,0,0-.136,1.753v2.974a9.252,9.252,0,0,0,.125,1.785,8.443,8.443,0,0,0-1.7-.1H235.381a11.647,11.647,0,0,0-1.7.094,8.953,8.953,0,0,0,.125-1.774V110.03a8.62,8.62,0,0,0-.125-1.513,9.936,9.936,0,0,0,1.7.1h4.759a12.167,12.167,0,0,0,.605-2.453H237.74a10.749,10.749,0,0,0-1.732.094,9.1,9.1,0,0,0,.167-1.743v-2.484a11.309,11.309,0,0,0-.1-1.753,11.574,11.574,0,0,0,1.732.1l10.9-.042a11.823,11.823,0,0,0,1.7-.094,10.507,10.507,0,0,0-.125,1.753v2.515a10.239,10.239,0,0,0,.115,1.753,8.5,8.5,0,0,0-1.7-.1h-3.955a32.539,32.539,0,0,1-2.86,2.442Zm-13.661,1.252v3.757h11.741v-3.757Zm2.171-8.234v3.225h7.431v-3.235Z" transform="translate(9.937 4.02)" fill="#999"/>
      <path id="パス_567" data-name="パス 567" d="M274.361,104.505a17.962,17.962,0,0,0,2.087-.094,11.608,11.608,0,0,0-.157,2.2v6.606a12.154,12.154,0,0,0,.146,1.764,12.6,12.6,0,0,0-2.087-.136H263.131a12.262,12.262,0,0,0-1.732.125,9.6,9.6,0,0,0,.177-2.2v-6.178c-1.378.574-2.651,1.044-4.362,1.576l-.918.4-.605-1.252,1.044-.3a44.115,44.115,0,0,0,9.727-5.343h-8.516a10.249,10.249,0,0,0-1.649.125v-1.545a12.212,12.212,0,0,0,1.659.136h6.909v-3.35h-3.987a11.7,11.7,0,0,0-1.732.167V95.593a8.151,8.151,0,0,0,1.68.157h3.987v-1.68c0-.324-.073-.877-.167-1.649h3.893a10.251,10.251,0,0,0-.157,1.659V95.8h2a8.223,8.223,0,0,0,1.649-.157v.929a26.092,26.092,0,0,0,1.858-2.275l.887-1.4,3.246,1.931L276.751,96.1a32.672,32.672,0,0,1-4.519,4.331h5.333a9.812,9.812,0,0,0,1.659-.125v1.534h-.271l-.355-.052h-7.973a39.449,39.449,0,0,1-4.519,2.828Zm-9.309,5.719v3.329h7.733v-3.308Zm7.754-4.446h-7.744v3.131H272.8Zm-4.4-5.667a36.613,36.613,0,0,0,3.016-2.849l.146-.157a8,8,0,0,0-1.148-.073h-2Z" transform="translate(10.971 4.034)" fill="#999"/>
      <path id="パス_568" data-name="パス 568" d="M203.647,222.07h1.785a8.143,8.143,0,0,0,1.628-.146v1.534a7.859,7.859,0,0,0-1.628-.1h-1.753v4.561a31.477,31.477,0,0,0,7.765.689,58.62,58.62,0,0,0,8.161-.48l-1.044,3.3h-3.454c-10.541,0-13.974-1.044-16.25-4.78a18.181,18.181,0,0,1-2.16,4.227l-.48.845-1.1-.626.449-.772a27.426,27.426,0,0,0,1.169-9.069v-1.252l3.329.658-.2.981a25.511,25.511,0,0,1-.532,3.277,6.47,6.47,0,0,0,1.325,1.482v-8.047h-3.131a11.218,11.218,0,0,0-1.649.115v-1.492a11.478,11.478,0,0,0,1.649.094h2.63v-3.434h-1.753a11.081,11.081,0,0,0-1.659.115v-1.524a9.924,9.924,0,0,0,1.649.125h1.753v-3.183l-.073-.48v-.251h3.267a12.125,12.125,0,0,0-.157,1.68v2.223h1.806a10.7,10.7,0,0,0,1.649-.115v1.524a10.007,10.007,0,0,0-1.649-.125h-1.806v3.423h2.578a8.225,8.225,0,0,0,1.639-.1v1.5a11.149,11.149,0,0,0-1.628-.125h-2.087Zm7.66,1.315c0,.908.073.929,2.254.929,2.348,0,2.849-.063,3.131-.47a5.8,5.8,0,0,0,.3-2.087v-1.148l1.409.449-.1.877.052.5c.073,1.127.115,1.753.115,2.233,0,1.972-.856,2.38-5.135,2.369s-5.135-.459-5.135-2.818V217.9a5.563,5.563,0,0,0-.073-1.325,9.088,9.088,0,0,0,1.336.073h4.634v-5.427h-4.916a11.479,11.479,0,0,0-1.649.125v-1.524a11.827,11.827,0,0,0,1.649.125h6.846a7.221,7.221,0,0,0,1.325-.073,10.736,10.736,0,0,0-.083,1.325v5.49a6.356,6.356,0,0,0,.063,1.325c-.344-.052-.5-.052-.7-.073h-5.281Z" transform="translate(8.328 9.098)" fill="#fff"/>
      <path id="パス_569" data-name="パス 569" d="M222.258,214.762a10.365,10.365,0,0,0-1.68.125v-1.534a10.848,10.848,0,0,0,1.67.136h5.719v-4.258l-.083-.5v-.23h3.287a9.393,9.393,0,0,0-.157,1.659v3.329h1.513v-4.248l-.073-.5v-.219h3.308a11.9,11.9,0,0,0-.157,1.659v3.329h5.865a9.623,9.623,0,0,0,1.649-.125v1.534h-.626c-.282,0-.605-.052-1.044-.052H238.1a26.093,26.093,0,0,1-2.713,2.651h5.156a10.938,10.938,0,0,0,1.659-.125v1.524h-.25a8.859,8.859,0,0,0-1.409-.1h-7.086v1.847h5.813a10.778,10.778,0,0,0,1.607-.157v1.524h-.25a7.785,7.785,0,0,0-1.409-.1h-5.8v2h8.172a9.624,9.624,0,0,0,1.649-.125v1.534h-.626a9.139,9.139,0,0,0-1.044-.052H234.51a16.229,16.229,0,0,0,7.556,2.745l1.451.157-1.858,3.3-1.179-.47a16.177,16.177,0,0,1-7.076-4.978v4.175a7.8,7.8,0,0,0,.177,1.659h-3.7v-.125l.052-.5A6.115,6.115,0,0,0,230,230.2v-2.985a25.392,25.392,0,0,1-8.725,4.175l-.783.292-.574-1.148.929-.271a21.562,21.562,0,0,0,6.9-5.03h-5.657a11.638,11.638,0,0,0-1.659.125v-1.524a11.721,11.721,0,0,0,1.649.125h7.963v-2h-5.636a10.281,10.281,0,0,0-1.659.125v-1.524a11.955,11.955,0,0,0,1.659.125h5.636v-1.858h-6.909a10.281,10.281,0,0,0-1.659.125v-1.534a10.727,10.727,0,0,0,1.659.136h3.955a26.214,26.214,0,0,0-.626-2.651Zm1.962-5.584.376.3c.877.678,1.555,1.252,2.306,1.931l.47.355-3.277,1.67-.125-.626a17.064,17.064,0,0,0-.95-2.9l-.376-.605,1.127-.647Zm3.83,5.594a32.274,32.274,0,0,1,2.223,2.661h3.3a12.734,12.734,0,0,0,.877-2.651Zm13.567-4.832-1.106.918a25.215,25.215,0,0,1-2.661,2.087l-.522.459-1.044-.637.48-.626a15.76,15.76,0,0,0,.856-2.6l.146-.9Z" transform="translate(9.41 9.101)" fill="#fff"/>
      <path id="パス_570" data-name="パス 570" d="M251.382,230.141a10.437,10.437,0,0,0,.146,1.659h-3.361a8.486,8.486,0,0,0,.177-1.659V223.18a31.012,31.012,0,0,1-2.63,2.087l-.71.647-.845-.9.751-.574a24.484,24.484,0,0,0,5.834-10.51h-3.987a10.281,10.281,0,0,0-1.659.125v-1.534a11.952,11.952,0,0,0,1.649.136h1.419v-3.34l-.073-.491v-.23h3.486a10.55,10.55,0,0,0-.157,1.659v2.4h.073c1.628,0,2.254,0,3.131-.063v.95a19.829,19.829,0,0,1-3.131,6.377v.209c.595.344.626.376.95.543a21.321,21.321,0,0,0,1.43-2.421l.355-1.044,2.6,1.889-.772.574-.407.3c-.647.491-1.451,1.044-2.087,1.44.7.48,1.179.8,1.753,1.263l.929.5-2.411,2.7-.428-.929c-.772-1.284-1.242-1.983-1.952-2.964Zm4.843-17.742a11.078,11.078,0,0,0-1.659.115V210.99a10.007,10.007,0,0,0,1.649.125h8.172c.971,0,2,0,3.047-.094v.9c-.083,8.871-.344,13.849-.856,16.886-.3,1.826-.981,2.6-2.233,2.6a18.18,18.18,0,0,1-3.7-.657l-1.3-.23-.219-1.4a31.652,31.652,0,0,0,3.235.23c.574,0,.751-.157.845-.751a103.486,103.486,0,0,0,.929-16.208H261.6c-.073,9.685-1.774,14.371-6.9,18.65l-.647.7-.95-.929.647-.605c3.131-3.976,4.373-8.579,4.488-17.053v-.772Z" transform="translate(10.468 9.105)" fill="#fff"/>
      <path id="パス_571" data-name="パス 571" d="M275.554,226.759l-.877,1.044a17.325,17.325,0,0,1-4.175,3.757l-.595.553L269,231.2l.626-.574a13.963,13.963,0,0,0,2.244-4.008l.344-1.221Zm5.083-2.62a10.743,10.743,0,0,0,1.639-.115v1.524h-.25a8.653,8.653,0,0,0-1.378-.094h-9.862a10.12,10.12,0,0,0-1.659.125v-1.534a10.123,10.123,0,0,0,1.659.125h.72V213.442h-.417a11.617,11.617,0,0,0-1.649.125v-1.524a11.953,11.953,0,0,0,1.649.1h.417v-1.879a5.424,5.424,0,0,0-.052-.929l-.073-.5v-.219H274.6a10.1,10.1,0,0,0-.146,1.649v1.879h2.787v-1.879a8.9,8.9,0,0,0-.052-.929l-.073-.5v-.23H280.4a10.1,10.1,0,0,0-.146,1.649v1.889h.23a10.91,10.91,0,0,0,1.576-.125v1.524H281.9l-.4-.052a9.711,9.711,0,0,0-1.044,0h-.271v10.718Zm-3.423-2.964h-2.776v2.954h2.787Zm0-3.9h-2.787v2.661H277.2Zm0-3.861h-2.776v2.578h2.776Zm.856,12.524a24.9,24.9,0,0,1,2.682,1.879l.9.584-2.63,2.421-.428-1.044a11.479,11.479,0,0,0-1.471-2.954l-.5-.584.877-.824Zm7.462,4.822-.23-1.357a22.628,22.628,0,0,0,3.183.209c.407,0,.5-.094.5-.553v-5.74H285.8a12.232,12.232,0,0,1-4.362,8.182l-.657.678-.929-.856.658-.647c1.7-2.359,2.411-5.218,2.421-9.842v-9.247a8.852,8.852,0,0,0-.146-1.805,14.607,14.607,0,0,0,2.087.1h5.218a14.771,14.771,0,0,0,2.087-.094,10.911,10.911,0,0,0-.156,2.087v18.191a1.461,1.461,0,0,1-1.5,1.649,17.042,17.042,0,0,1-3.7-.71Zm3.475-13.567h-3.058v4.853h3.131Zm0-6.011h-3.058v4.728h3.058Z" transform="translate(11.552 9.106)" fill="#fff"/>
      <path id="パス_572" data-name="パス 572" d="M191.178,352.249h1.753a8.143,8.143,0,0,0,1.628-.146v1.524a7.911,7.911,0,0,0-1.628-.1h-1.753v4.561a32.056,32.056,0,0,0,7.765.689,60.284,60.284,0,0,0,8.172-.491l-1.044,3.308h-3.454c-10.551,0-13.974-1.044-16.25-4.79a17.743,17.743,0,0,1-2.16,4.227l-.48.856-1.106-.626.459-.783a27.354,27.354,0,0,0,1.169-9.059v-1.252l3.34.658-.209.971a25.218,25.218,0,0,1-.532,3.277,6.063,6.063,0,0,0,1.325,1.482v-8.036h-3.131a11.629,11.629,0,0,0-1.659.125v-1.5a11.691,11.691,0,0,0,1.659.1h2.63v-3.423h-1.753a9.773,9.773,0,0,0-1.649.125v-1.534a10.253,10.253,0,0,0,1.659.136h1.753V340.32a9.4,9.4,0,0,0,0-.96l-.073-.47v-.25h3.434a10.766,10.766,0,0,0-.157,1.68v2.233h1.8a9.735,9.735,0,0,0,1.659-.125v1.534a10.26,10.26,0,0,0-1.659-.136H190.74v3.434h2.578a9.067,9.067,0,0,0,1.628-.094v1.5a10.012,10.012,0,0,0-1.628-.125H191.23Zm7.66,1.315c0,.9.073.918,2.254.929,2.359,0,2.86-.073,3.131-.47a6.074,6.074,0,0,0,.3-2.087v-1.148l1.4.459-.1.877.052.5c.073,1.127.125,1.753.125,2.223,0,1.983-.856,2.38-5.145,2.369s-5.135-.459-5.124-2.807v-6.345a6.941,6.941,0,0,0-.073-1.325,8.812,8.812,0,0,0,1.325.083h4.634v-5.437h-4.905a11.478,11.478,0,0,0-1.659.115v-1.524a10.533,10.533,0,0,0,1.659.125h6.836a7.224,7.224,0,0,0,1.325-.073,9.118,9.118,0,0,0-.073,1.325v5.479a7.171,7.171,0,0,0,.073,1.336l-.7-.083H198.88Z" transform="translate(7.782 14.781)" fill="#fff"/>
      <path id="パス_573" data-name="パス 573" d="M209.8,344.942a10.222,10.222,0,0,0-1.68.115v-1.524a10.777,10.777,0,0,0,1.68.125h5.709v-3.329a5.424,5.424,0,0,0-.052-.929l-.073-.5v-.23h3.277a10.433,10.433,0,0,0-.157,1.649v3.34h1.6v-3.329a8.74,8.74,0,0,0,0-.929l-.073-.5v-.23h3.308a10.434,10.434,0,0,0-.157,1.649v3.329h5.865a10.7,10.7,0,0,0,1.649-.115v1.524h-.271l-.355-.052a8.792,8.792,0,0,0-1.044-.052H225.66a24.953,24.953,0,0,1-2.7,2.651h5.156a9.543,9.543,0,0,0,1.649-.125v1.534h-.25a8.815,8.815,0,0,0-1.4-.1h-7.149v1.858h5.844a9.738,9.738,0,0,0,1.659-.125v1.534h-.25a8.736,8.736,0,0,0-1.4-.1h-5.813v2h8.161a11.042,11.042,0,0,0,1.661-.126l0,1.524h-.271l-.355-.052c-.271,0-.595-.052-1.044-.052h-7.065a16.428,16.428,0,0,0,7.566,2.745l1.451.146-1.858,3.308-1.179-.48a16.271,16.271,0,0,1-7.086-4.968v4.175a8.279,8.279,0,0,0,.167,1.649h-3.736v-.125l.052-.5a6.084,6.084,0,0,0,.084-1.044v-3a25.288,25.288,0,0,1-8.725,4.175l-.772.3-.574-1.158.929-.271a21.332,21.332,0,0,0,6.888-5.02h-5.709a10.252,10.252,0,0,0-1.649.125V353.9a10.427,10.427,0,0,0,1.649.125h7.973v-2h-5.636a10.086,10.086,0,0,0-1.649.125V350.6a10.333,10.333,0,0,0,1.649.125h5.636v-1.847h-6.919a9.938,9.938,0,0,0-1.649.115v-1.524a10.33,10.33,0,0,0,1.649.125h3.966c-.125-.731-.407-1.91-.626-2.661Zm1.962-5.584.376.3c.877.668,1.545,1.252,2.3,1.931l.48.344-3.287,1.68-.125-.626a17.266,17.266,0,0,0-.939-2.912l-.376-.605,1.127-.647Zm3.82,5.594A29.958,29.958,0,0,1,217.8,347.6h3.256a13.408,13.408,0,0,0,.887-2.651Zm13.567-4.843-1.106.929a24.008,24.008,0,0,1-2.651,2.087l-.532.449-1.044-.626.48-.626a14.607,14.607,0,0,0,.856-2.609l.157-.9Z" transform="translate(8.867 14.782)" fill="#fff"/>
      <path id="パス_574" data-name="パス 574" d="M252.231,348.7a12.833,12.833,0,0,0,2.087-.1,9.258,9.258,0,0,0-.146,1.983v2a11.331,11.331,0,0,0,.146,2.087,15.248,15.248,0,0,0-1.649-.1H249.59a8.955,8.955,0,0,0,5.072,4.175l1.336.334-2.087,3.131-1.127-.731a10.207,10.207,0,0,1-4.091-5.594c-.981,2.6-3.371,4.676-6.982,6.022l-.845.4-.626-1.252.95-.324a9.925,9.925,0,0,0,4.947-6.126H243a13.438,13.438,0,0,0-1.659.094,9.247,9.247,0,0,0,.157-2.087v-1.3l-1.983,1.952-.365-1.044a1.147,1.147,0,0,0-.1-.23c-.2-.522-.4-1.044-.626-1.555l-.167-.428-.177-.376v10.77a10.436,10.436,0,0,0,.146,1.659h-3.183v-.125l.052-.5a7.47,7.47,0,0,0,.073-1.044v-8.067a32.44,32.44,0,0,1-2.39,5.354l-.324.783-1.044-.584.48-.72a49.584,49.584,0,0,0,2.8-11.668h-1.044a9.987,9.987,0,0,0-1.659.115V344.07a10.125,10.125,0,0,0,1.659.125H235.2v-4.676l-.073-.511v-.219h3.131a10.552,10.552,0,0,0-.157,1.659v3.757h1.231a10.084,10.084,0,0,0,1.67-.125v1.534h-.271l-.355-.052c-.271,0-.626-.052-1.044-.052h-1.179v2.16c.9.751,1.524,1.3,3.047,2.787l.376.271v-.073a9.133,9.133,0,0,0-.146-1.983,15.543,15.543,0,0,0,2.087.1h2.807v-2.453H246.2a9.626,9.626,0,0,0-1.628.125V345.9a19.181,19.181,0,0,1-3.079,2.171l-.7.553-.824-1.106.793-.4a17.033,17.033,0,0,0,5.1-7.306l.407-1.232,3.371.991-.522.877a13.985,13.985,0,0,0,5.7,4.415l1.211.417-1.858,2.943-.908-.668a13.841,13.841,0,0,1-2.2-1.941v.908h-.271l-.355-.052a8.041,8.041,0,0,1-1.044-.052h-.146v2.359Zm-7.817,1.263v3.225h1.879v-3.235Zm4.968-4.905a7.779,7.779,0,0,0,1.169-.073,18.086,18.086,0,0,1-2.223-3.434,19.549,19.549,0,0,1-2.86,3.475.72.72,0,0,0,.25,0h3.663Zm-.219,8.14h2v-3.225h-2Z" transform="translate(9.912 14.779)" fill="#fff"/>
      <path id="パス_575" data-name="パス 575" d="M260.338,340.419a8.351,8.351,0,0,0-.177-1.659h3.632a7.648,7.648,0,0,0-.177,1.649v2.181h2.15a9.643,9.643,0,0,0,1.659-.115V344h-.25a7.669,7.669,0,0,0-1.4-.1h-7.566a9.868,9.868,0,0,0-1.649.115v-1.524a9.922,9.922,0,0,0,1.649.125H260.3Zm4.237,13.056a18.169,18.169,0,0,0,2.087-.094,10.582,10.582,0,0,0-.157,2.087v4.415a10.441,10.441,0,0,0,.146,1.628,15.11,15.11,0,0,0-2.087-.1h-5.6a15.051,15.051,0,0,0-1.732.1,10.771,10.771,0,0,0,.157-2.087v-4.237a8.632,8.632,0,0,0-.146-1.806,17.663,17.663,0,0,0,2.087.1Zm1.2-2.233a8.831,8.831,0,0,0-1.4-.094h-4.863a9.926,9.926,0,0,0-1.649.125v-1.555a8.154,8.154,0,0,0,1.649.146h4.863a8.154,8.154,0,0,0,1.649-.146v1.555Zm0-3.632a8.877,8.877,0,0,0-1.409-.094h-4.842a10.128,10.128,0,0,0-1.659.125v-1.534a10.122,10.122,0,0,0,1.659.125h4.863a9.7,9.7,0,0,0,1.649-.125v1.534Zm-5.323,7.139V360.1h2.954v-5.364Zm16.646,5.458c0,1.158-.553,1.774-1.534,1.774a15.9,15.9,0,0,1-4.175-.783l-1.43-.271-.177-1.409a23.934,23.934,0,0,0,3.434.261c.449,0,.522-.1.522-.574V345.721H268.7a11.052,11.052,0,0,0-1.6.125v-1.524a10.083,10.083,0,0,0,1.6.125h5.041V340.44a5.428,5.428,0,0,0-.052-.929l.031-.5v-.23h3.653a10.437,10.437,0,0,0-.157,1.649v4.008h1.148a10.8,10.8,0,0,0,1.649-.125v1.524h-.271l-.355-.052c-.271,0-.595-.052-1.044-.052h-1.158ZM269.324,348.6l.5.626.553.7c1.044,1.284,1.722,2.213,2.2,2.933l.7.751-3.361,2-.177-1.044c-.324-1.409-.918-3.465-1.545-5.27l-.376-.7,1.106-.626Z" transform="translate(11.009 14.786)" fill="#fff"/>
      <path id="パス_576" data-name="パス 576" d="M301.085,344.393a14.315,14.315,0,0,0,2.087-.094,10.649,10.649,0,0,0-.156,2.087v6.084a10.72,10.72,0,0,0,.146,2.087,15.423,15.423,0,0,0-1.649-.1h-7v6.011a10.875,10.875,0,0,0,.157,1.659H290.68V362l.052-.5a6.085,6.085,0,0,0,.084-1.044v-6.012h-6.846a13.346,13.346,0,0,0-1.649.1,10.165,10.165,0,0,0,.157-2.087v-6.366a9.391,9.391,0,0,0-.146-1.806,14.45,14.45,0,0,0,2.087.1h6.439v-3.924a8.9,8.9,0,0,0-.052-.929l-.073-.5v-.23h3.987a9.32,9.32,0,0,0-.157,1.659v3.9Zm-14.924,1.252v7.462h4.686v-7.462Zm8.349,0v7.473h4.811v-7.462Z" transform="translate(12.134 14.789)" fill="#fff"/>
      <line id="線_179" data-name="線 179" x2="331.88" y2="0.574" transform="translate(87.029 285)" fill="none" stroke="#fff" stroke-miterlimit="10" stroke-width="2"/>
      <line id="線_180" data-name="線 180" x1="78.274" y2="135.58" transform="translate(385.105 88.084)" fill="none" stroke="#ff878a" stroke-linecap="round" stroke-miterlimit="10" stroke-width="2"/>
      <line id="線_181" data-name="線 181" x2="16.698" transform="translate(463.379 88.042)" fill="none" stroke="#ff878a" stroke-linecap="round" stroke-miterlimit="10" stroke-width="2"/>
      <path id="パス_577" data-name="パス 577" d="M471.087,86.266a11.366,11.366,0,0,0-2.087.188V84.461a14.538,14.538,0,0,0,2.087.157h2.64c.324-2.7.647-6.022.647-6.732a7.311,7.311,0,0,0,0-.866c.908.094,2.16.136,2.933.136h13.609a30.507,30.507,0,0,0,3.444-.136v1.158l-.094,2.192v.971l-.219,3.277h2.38a13.452,13.452,0,0,0,2.087-.157v1.993a11.158,11.158,0,0,0-2.087-.188h-2.484c-.063.8-.094,1.346-.125,1.639a11.812,11.812,0,0,1-.094,1.67l-.125,1.649-.1,1.158h2.484a12.419,12.419,0,0,0,2.087-.167v1.972h-.355l-.459-.073c-.355,0-.772-.063-1.315-.063H493.3l-.167,1.158a6.19,6.19,0,0,1-.386,2.087,2.087,2.087,0,0,1-1.993,1.545,22.626,22.626,0,0,1-5.437-.8l-1.68-.261-.188-1.67a44.313,44.313,0,0,0,4.665.355c1.127,0,1.158-.073,1.513-2.39H475.262c-.835,0-1.221,0-2.453.063h-.731a47.115,47.115,0,0,0,1.44-7.848Zm23.566-13.974a12.336,12.336,0,0,0,2.087-.167v1.962h-.355l-.449-.063c-.355,0-.772-.063-1.325-.063h-18.17a31.162,31.162,0,0,1-5.281,6.262l-.772.866-1.325-1.044.908-.866a30.747,30.747,0,0,0,4.54-9.5l.188-1.263,4.352,1.127-.9,1.419c-.324.678-.428.835-.71,1.388ZM477.12,86.266c-.23,2.087-.522,3.893-.877,6.116h4.769c.324-2.087.553-4.091.772-6.116Zm4.832-1.649c.125-1.378.355-4.175.417-5.824h-4.54c-.1,1.482-.324,4.175-.522,5.824Zm3.246,1.649c-.094.9-.188,1.732-.188,1.993-.167,1.67-.2,1.806-.261,2.38s-.157,1.263-.23,1.743h5.417c.188-1.712.386-4.091.511-6.116Zm5.343-1.649v-.678c.1-1.858.136-2.734.167-5.145h-4.895c-.2,3-.292,4.175-.449,5.824Z" transform="translate(20.282 2.986)" fill="#fff"/>
      <path id="パス_578" data-name="パス 578" d="M508.683,87.356a15.654,15.654,0,0,1-6.512,10.624l-.866.971L500,97.688l1.044-.835c2.954-3.507,4.081-7.118,4.081-13.171V73.027a12.344,12.344,0,0,0-.188-2.317,22.732,22.732,0,0,0,2.672.125h14.611a23.2,23.2,0,0,0,2.672-.125,13.2,13.2,0,0,0-.2,2.672v22.47c0,1.451-.8,2.39-1.993,2.39a38.613,38.613,0,0,1-6.262-1.044l-1.712-.2-.115-1.816c1.68.188,4.175.355,5.573.355.741,0,.9-.136.9-.741V87.356Zm.25-7.535v3.955a17.932,17.932,0,0,1-.063,1.931H521.04V79.821Zm12.106-7.306H508.934v5.709H521.04Z" transform="translate(21.635 3.086)" fill="#fff"/>
      <path id="パス_579" data-name="パス 579" d="M554.2,83.221a22.094,22.094,0,0,1-4.4,8.5,68.1,68.1,0,0,1,7.587,3.381l1.513.553-2.609,3.413-1.127-.835a60.52,60.52,0,0,0-7.629-4.373c-2.9,2.087-7.5,3.642-13.494,4.373l-1.482.292-.71-1.764,1.649-.136a24.63,24.63,0,0,0,10.948-4.175,56.951,56.951,0,0,0-5.8-2.087l-3.308-.48c1.44-2.5,2.891-5.218,3.6-6.658h-6.178a14.26,14.26,0,0,0-2.087.157V81.415a14.539,14.539,0,0,0,2.087.157h6.982c.741-1.607,1.294-2.891,1.805-4.31l.449-1.607,3.83,1.044-.8,1.7c-.574,1.284-1.044,2.348-1.482,3.214H558a13.328,13.328,0,0,0,2.087-.157v1.962h-.355l-.449-.063c-.355,0-.772-.063-1.315-.063Zm-18.786-8.276v3a13.785,13.785,0,0,0,.188,2.15h-4.091a9.993,9.993,0,0,0,.23-2.15V75.852a11.788,11.788,0,0,0-.23-2.734,23.254,23.254,0,0,0,2.714.125h9.111V70.979a7.382,7.382,0,0,0-.063-1.19l-.1-.647V68.86h4.175a13.472,13.472,0,0,0-.188,2.087v2.317h9.393a23.2,23.2,0,0,0,2.64-.083,11.333,11.333,0,0,0-.229,2.734V78a10.636,10.636,0,0,0,.23,2.15H555.1V80l.063-.647A8.5,8.5,0,0,0,555.258,78V74.944Zm7.306,8.276c-.511,1.044-1.743,3.381-2.964,5.7a54.928,54.928,0,0,1,6.669,1.607,18.212,18.212,0,0,0,3.893-7.306Z" transform="translate(22.974 3.006)" fill="#fff"/>
      <path id="パス_580" data-name="パス 580" d="M574.812,80.611h-5.458a14.254,14.254,0,0,0-2.087.157V78.806a14.54,14.54,0,0,0,2.087.157h13.714a13.452,13.452,0,0,0,2.087-.157v1.962H584.8l-.449-.063c-.355,0-.772-.063-1.326-.063h-4.7v5.886h7.149a13.244,13.244,0,0,0,2.087-.157v1.962h-.355l-.449-.063c-.355,0-.772-.063-1.315-.063H578.3v6.5a38.277,38.277,0,0,0,4.342.23,46.671,46.671,0,0,0,8.443-.616l-1.044,3.8c-.8,0-1.9.063-3.131.063-11.3,0-15.331-1.451-18.577-6.6a18.628,18.628,0,0,1-5.354,6.533l-.835.9-1.252-1.252L561.934,97c2.421-2.7,4-6.5,4.738-11.48l.063-1.68,4.091.835L570.4,86.08a31.316,31.316,0,0,1-1.044,3.674,10.823,10.823,0,0,0,5.5,4.175Zm-8.756-5.667v3.319a8.744,8.744,0,0,0,.188,1.8h-4.018v-.511a9.3,9.3,0,0,0,.094-1.284V75.331a14.066,14.066,0,0,0-.125-2.087,17.877,17.877,0,0,0,2.087.094h9.956V70.979a7.382,7.382,0,0,0-.063-1.19l-.1-.647V68.86h4.175a13.457,13.457,0,0,0-.188,2.087v2.317h10.176a17.931,17.931,0,0,0,1.993-.083,13.571,13.571,0,0,0-.125,2.087V78.2a11.873,11.873,0,0,0,.157,1.8h-3.987v-.511a9.3,9.3,0,0,0,.094-1.284V74.944Z" transform="translate(24.293 3.006)" fill="#fff"/>
      <path id="パス_581" data-name="パス 581" d="M602.085,74.383a17.74,17.74,0,0,0,2.64-.125,14.236,14.236,0,0,0-.2,2.766v6.732l.553-.71a37.119,37.119,0,0,0,3.695-12.2l.136-1.774,4.091.8-.584,1.68a27.33,27.33,0,0,1-.929,3.131h6.085c2.025,0,2.5,0,3.674-.094v1.19c0,9.142-.459,15.008-1.482,19.443-.49,2.327-1.232,3.225-2.641,3.225a19.706,19.706,0,0,1-5.281-1.294l-2.139-.522-.2-1.931a44.133,44.133,0,0,0,5.74.71c.741,0,.929-.23,1.158-1.252A98.531,98.531,0,0,0,617.7,76.3h-6.825a28.979,28.979,0,0,1-4.3,7.483l-.741,1.127-1.346-.866V94.129a12.33,12.33,0,0,0,.2,2.087,19.588,19.588,0,0,0-2.087-.125h-7.5a19.151,19.151,0,0,0-2.223.125,13.306,13.306,0,0,0,.2-2.734V76.638a12.451,12.451,0,0,0-.2-2.38,22.846,22.846,0,0,0,2.672.125h1.419a24.367,24.367,0,0,0,.835-3.736l.2-1.607,4.175,1.044-.877,1.252a22.1,22.1,0,0,1-2.254,3.058Zm-5.6,1.649v7.984h4.665V76.032Zm0,9.622v8.829h4.665V85.7Zm14.454-4.342a55.8,55.8,0,0,1,4.321,5.5l.866,1.127-3.768,2.087-.292-1.513a52.6,52.6,0,0,0-2.609-6.377l-.605-.835,1.513-.971Z" transform="translate(25.689 3.013)" fill="#fff"/>
      <path id="パス_582" data-name="パス 582" d="M626.372,96.513c0-.866,0-1.158-.073-2.286-.125-1.774-.219-5.145-.219-7.118,0-2.922.25-6.982.866-13.421.063-.647.094-1.232.094-1.868l3.768.449c-.188.741-.313,1.252-.386,1.743a105.75,105.75,0,0,0-.96,12.816,59.623,59.623,0,0,0,.605,9.33Zm24.108-.835c-1.044,0-1.44,0-2.672.063-.96,0-3.027.063-4.54.063-3.214,0-5.083-.25-6.732-.96a5.657,5.657,0,0,1-3.6-5.479,6.586,6.586,0,0,1,1.805-4.6,6.2,6.2,0,0,0,.772-1.158l1.513,1.127a4.613,4.613,0,0,0-1.806,3.893c0,2.609,1.931,3.736,6.6,3.9h.4c2.181,0,4.634-.073,5.7-.136h.386a10.436,10.436,0,0,0,2.181-.324Zm-14.047-20.09a10.813,10.813,0,0,0-1.805.188V73.688a10.5,10.5,0,0,0,1.806.188H647.61a15.417,15.417,0,0,0,2.223-.188v1.931a24.4,24.4,0,0,0-8.568,3.861l-1.044-1.127a27.828,27.828,0,0,1,4.769-2.8Z" transform="translate(27.138 3.135)" fill="#fff"/>
      <path id="パス_583" data-name="パス 583" d="M662.506,96.555V73.532l-5.375,4.509-1.7-3.319a21.826,21.826,0,0,0,2.7-.929,23.063,23.063,0,0,0,5.114-2.933h3.35V96.555Z" transform="translate(28.42 3.093)" fill="#fff"/>
      <path id="パス_584" data-name="パス 584" d="M683.735,96.892c-6.262,0-9.915-4.989-9.915-13.327,0-7.984,3.83-13.014,9.915-13.014s9.915,5.03,9.915,13.014C693.649,91.893,689.913,96.892,683.735,96.892Zm0-24.766c-3.444,0-5.573,4.352-5.573,11.48,0,7.306,2.087,11.658,5.573,11.658s5.573-4.352,5.573-11.658C689.308,76.509,687.179,72.126,683.735,72.126Z" transform="translate(29.222 3.079)" fill="#fff"/>
      <path id="パス_586" data-name="パス 586" d="M741.21,72.57c.355-.835.71-1.639,1.127-2.86l.292-1.044,4.415,1.19-1.221.939a23.137,23.137,0,0,1-2.421,1.993h8.631a12.991,12.991,0,0,0,2.16-.219v1.973h-.355l-.449-.073c-.355,0-.8-.063-1.357-.063h-8.214v2.087h6.606a14.225,14.225,0,0,0,2.16-.167V78.32h-.167l-.647-.063a8.506,8.506,0,0,0-1.346-.094h-6.606v2.087h6.575a13.88,13.88,0,0,0,2.15-.157v1.962h-.355l-.449-.063c-.355,0-.8-.063-1.346-.063h-6.575v2.192h8.861a13.353,13.353,0,0,0,2.087-.167v1.962h-.355l-.449-.063c-.355,0-.772-.063-1.315-.063h-9.393v2.348h10.562a13.243,13.243,0,0,0,2.087-.157v1.962h-.355l-.449-.063c-.355,0-.772-.063-1.315-.063h-9.309a22.721,22.721,0,0,0,10.176,4.373l1.805.261-2.223,3.6-1.357-.605a23.169,23.169,0,0,1-9.654-6.544v5.9a13.95,13.95,0,0,0,.188,2.087h-3.924v-.167l.063-.637a8.593,8.593,0,0,0,.094-1.325V91.543a33.053,33.053,0,0,1-11.271,6.116l-1.044.48-.877-1.576,1.326-.324a28.784,28.784,0,0,0,9.393-6.627h-8.245a14.257,14.257,0,0,0-2.087.157V87.807a14.537,14.537,0,0,0,2.087.157h10.75V85.615H732.37a19.151,19.151,0,0,0-2.181.1,14.909,14.909,0,0,0,.2-2.828V76.984a33.553,33.553,0,0,1-2.776,2.087l-.9.8-1.044-1.221.908-.647a33.844,33.844,0,0,0,6.085-8.151l.511-1.346,4.175,1.044L736.3,70.723c-.772.991-1.044,1.409-1.576,1.993h6.377Zm-.835,3.841V74.323h-6.439V76.41Zm0,1.639h-6.439v2.087h6.439Zm-6.439,3.736v2.192h6.439V81.785Z" transform="translate(31.485 2.99)" fill="#fff"/>
      <path id="パス_587" data-name="パス 587" d="M783.8,89.785c-.908-.188-1.044-.23-1.806-.417a10.89,10.89,0,0,0-.136,2.254v4.31a12.009,12.009,0,0,0,.2,2.087,17.167,17.167,0,0,0-2.672-.125h-14.5a19.151,19.151,0,0,0-2.223.125,10.937,10.937,0,0,0,.23-2.672V91.622a13.41,13.41,0,0,0-.094-1.9h-.23l-1.252.355c-.355.094-1.044.292-2.16.543l-1.221.386L757.26,89.4l1.419-.219a51.137,51.137,0,0,0,11.48-5.124,22.042,22.042,0,0,1-3.475-3.444,28.947,28.947,0,0,1-6.022,3.246l-1.044.616-.866-1.388,1.284-.48a24.713,24.713,0,0,0,7.859-7.045l.71-1.294H762v2.7a13.271,13.271,0,0,0,.188,2.087h-4.018l.063-.417v-.386a8.4,8.4,0,0,0,.094-1.325V75.268a15.38,15.38,0,0,0-.188-2.713,19.058,19.058,0,0,0,2.64.136h9.393V70.979a7.382,7.382,0,0,0-.063-1.19l-.094-.647V68.86h4.175A13.457,13.457,0,0,0,774,70.947v1.712h9.591a16.428,16.428,0,0,0,2.62-.1,16.241,16.241,0,0,0-.2,2.9v1.576a13.577,13.577,0,0,0,.2,2.087h-4.029v-.167l.073-.637a8.13,8.13,0,0,0,.094-1.325V74.329H768.792l3.663,1.158-1.221,1.221c-.449.491-.543.584-.8.845H777a33.338,33.338,0,0,0,4.06-.136v1.294a29.988,29.988,0,0,1-5.824,5.406l-.167.125a34.189,34.189,0,0,0,10.176,2.192l1.931.063-1.8,3.7Zm-4.415-.71h1.346a31.54,31.54,0,0,1-8.088-3.288,40.225,40.225,0,0,1-7.212,3.131c-.355.094-.355.125-.522.157h14.5Zm-12.847,1.649v5.531H778.2V90.724Zm2.087-11.48c-.188.157-.25.23-.605.511a22.242,22.242,0,0,0,4.081,3.131,22.288,22.288,0,0,0,3.935-3.611Z" transform="translate(32.864 3.006)" fill="#fff"/>
      <path id="パス_588" data-name="パス 588" d="M815.186,84.472a6.874,6.874,0,0,0-.543,1.044l-.094.292-.491,1.346a19.411,19.411,0,0,1-3.987,6.7,10.854,10.854,0,0,1-8.12,3.235c-5.636,0-8.433-2.7-8.433-8.12,0-.96,0-2.15.063-3.538.063-2.578.2-10.656.2-12.012a9.779,9.779,0,0,0-.2-2.38h4.029a10.249,10.249,0,0,0-.229,2.734c0,2.087,0,2.766-.157,12.973v2.087c0,4.018,1.732,5.959,5.312,5.959a9.528,9.528,0,0,0,7.535-3.9,16.7,16.7,0,0,0,2.828-5.636,9.038,9.038,0,0,0,.292-1.545Z" transform="translate(34.447 3.101)" fill="#fff"/>
      <path id="パス_589" data-name="パス 589" d="M820.12,74.813a6.856,6.856,0,0,0,1.806.23h5.823c.23-.835.386-1.482.71-2.734.1-.417.167-.71.2-.835a18.79,18.79,0,0,0,.324-2l3.694.835a9.041,9.041,0,0,0-.574,1.586,3.236,3.236,0,0,0-.094.324c-.136.574-.261,1.158-.418,1.732a8.966,8.966,0,0,1-.261,1.044h8.109a6.8,6.8,0,0,0,1.806-.23v2.087a9.831,9.831,0,0,0-1.806-.188H830.88c-1.576,5.917-3.872,13.453-5.573,18.222a10.657,10.657,0,0,0-.511,1.9l-3.674-1.158a13.005,13.005,0,0,0,1.159-2.64c1.419-3.966,3.444-10.562,5.02-16.26h-5.375a10.1,10.1,0,0,0-1.805.188Zm27.406,22.063H846.4c-.261,0-.584,0-1.451.063s-3.768.063-5.406.063q-8.61,0-8.6-5.312a4.874,4.874,0,0,1,1.837-4,5.32,5.32,0,0,0,.929-1.044l1.158,1.315A2.9,2.9,0,0,0,833.26,90.7c0,2.192,1.962,3.131,6.638,3.131,1.931,0,3.862,0,5.312-.136a15.436,15.436,0,0,0,2.317-.25ZM835.42,81.869a10.219,10.219,0,0,0-1.9.2v-2a6.512,6.512,0,0,0,1.9.2h9.111a8.631,8.631,0,0,0,1.868-.23v1.931a20.371,20.371,0,0,0-7.024,2.672l-.866-1.127a24.6,24.6,0,0,1,3.131-1.639Z" transform="translate(35.608 3.032)" fill="#fff"/>
      <path id="パス_590" data-name="パス 590" d="M865.568,88.4a4.77,4.77,0,0,0-.772,1.7,13.2,13.2,0,0,1-2.484,4.582,3.809,3.809,0,0,1-3.006,1.545c-2.087,0-3.8-1.451-5.083-4.258-1.513-3.277-2.087-7.431-2.087-14.3V75.261a13.053,13.053,0,0,0-.157-1.931l3.893.125a12.414,12.414,0,0,0-.188,2.192v2.286c0,5.9.449,9.393,1.576,12.044.835,1.993,1.806,3,2.86,3,.814,0,1.513-.616,2.484-2.192a7.923,7.923,0,0,0,1.284-3.413Zm9.393,2.9a11.858,11.858,0,0,0-.167-2.087C874.283,84,870.9,77.369,868.136,75.95l1.576-1.639a9.248,9.248,0,0,0,1.044,1.127,23.158,23.158,0,0,1,7.838,13.2,10.019,10.019,0,0,0,.386,1.555Z" transform="translate(36.999 3.201)" fill="#fff"/>
      <path id="パス_591" data-name="パス 591" d="M883.377,76.2a14.256,14.256,0,0,0-2.087.157V74.391a13.388,13.388,0,0,0,2.087.167h10.238v-3.58a7.389,7.389,0,0,0-.063-1.19l-.094-.647V68.86h4.175a12.523,12.523,0,0,0-.2,2.087v3.58h10.436a12.421,12.421,0,0,0,2.087-.167v1.952h-.793c-.355,0-.772-.063-1.315-.063H894.836V76.6a50.685,50.685,0,0,1-.282,5.312h8.433c1.806,0,2.38,0,3.674-.094v1.158a65.316,65.316,0,0,1-1.294,12.649c-.511,1.837-1.315,2.64-2.7,2.64a26.426,26.426,0,0,1-6.5-1.482l-1.513-.282-.157-1.774a31.435,31.435,0,0,0,5.7.71c1.044,0,1.221-.2,1.545-1.388A45.915,45.915,0,0,0,902.9,83.5h-8.568c-.971,6.669-4.446,11.407-10.75,14.611l-1.044.71-1.127-1.545,1.284-.584c5.865-4.279,8.276-10.207,8.245-20.09v-.417Z" transform="translate(38.278 3.006)" fill="#fff"/>
      <path id="パス_592" data-name="パス 592" d="M600.157,243.235a9.274,9.274,0,0,0-1.506-.1H587.064a10.761,10.761,0,0,0-1.784.139v-1.611a11.591,11.591,0,0,0,1.784.1h11.587a9.732,9.732,0,0,0,1.773-.1v1.576Zm-2.317,10.509a18.551,18.551,0,0,0,2.178-.081,11.166,11.166,0,0,0-.162,2.317v7.276a11.051,11.051,0,0,0,.162,1.773,14.24,14.24,0,0,0-2.225-.1H587.609a16.346,16.346,0,0,0-1.773.1,11.1,11.1,0,0,0,.162-2.317v-7.056a10.426,10.426,0,0,0-.162-1.993,18.2,18.2,0,0,0,2.2.116Zm-1.3-8.62a18.659,18.659,0,0,0,2.236-.116,11.644,11.644,0,0,0-.162,2.317v2.734a10.058,10.058,0,0,0,.162,1.773,14.389,14.389,0,0,0-2.236-.1H588.9a15.742,15.742,0,0,0-1.773.1,11.225,11.225,0,0,0,.162-2.317v-2.526a10.407,10.407,0,0,0-.162-2.016,17.291,17.291,0,0,0,2.2.116Zm-4.994,13.394v-3.406h-2.816v3.406Zm-2.816,1.367v3.6h2.816v-3.6Zm1.228-13.394v3.87h5.967v-3.87Zm4.264,12.027h2.989v-3.406h-2.989Zm0,4.971h2.989v-3.6h-2.989Zm7.068-4.322a10.068,10.068,0,0,0,.162-1.808V245.552a5.685,5.685,0,0,0-.058-1.02l-.081-.545v-.232h3.036a9.148,9.148,0,0,0-.162,1.8v11.784a8.511,8.511,0,0,0,.162,1.808Zm1.043,3.766c1.39.151,2.758.267,3.545.267.533,0,.637-.116.637-.626V243.316a9.065,9.065,0,0,0-.162-1.8h3.117a12.888,12.888,0,0,0-.162,1.8V263.65c0,1.1-.51,1.692-1.471,1.692a18.542,18.542,0,0,1-3.893-.7l-1.425-.243Z" transform="translate(-13.621 -2.346)" fill="#ff878a"/>
      <path id="パス_593" data-name="パス 593" d="M612.275,247.419a12.138,12.138,0,0,0-1.807.139v-1.634a12.477,12.477,0,0,0,1.807.127h6.338v-4.565l-.081-.533v-.243h3.036a10.425,10.425,0,0,0-.162,1.738v3.6h2.317v-3.6a5.23,5.23,0,0,0-.058-.962l-.081-.533v-.243h3.059a10.438,10.438,0,0,0-.162,1.738v3.6h6.477a11.173,11.173,0,0,0,1.773-.127v1.634h-.672c-.3,0-.649-.058-1.159-.058h-3.847a29.425,29.425,0,0,1-2.572,2.816h5.365a9.98,9.98,0,0,0,1.773-.139v1.645h-.266a10.6,10.6,0,0,0-1.506-.1h-7.914v1.993h6.558a11.183,11.183,0,0,0,1.773-.139v1.645H632a9.133,9.133,0,0,0-1.506-.1h-6.558v2.178h9.084a11.3,11.3,0,0,0,1.773-.139v1.634h-.3l-.371-.058H625.09l.151.1a20.229,20.229,0,0,0,8.25,3.256l1.53.185-1.668,2.955-1.228-.487a19.918,19.918,0,0,1-8.227-5.26v4.53a12.119,12.119,0,0,0,.162,1.773h-3.267v-.66a7.93,7.93,0,0,0,.081-1.159v-3.592a27.078,27.078,0,0,1-9.455,4.727l-.915.371-.672-1.263,1.159-.29a24.532,24.532,0,0,0,7.891-5.237h-6.848a11.943,11.943,0,0,0-1.773.127v-1.773a12.285,12.285,0,0,0,1.773.139h8.9V254.95h-6.4a10.559,10.559,0,0,0-1.773.139v-1.645a12.288,12.288,0,0,0,1.773.139h6.4V251.59h-7.763a11.945,11.945,0,0,0-1.773.139v-1.645a10.823,10.823,0,0,0,1.773.139h4.426a23.321,23.321,0,0,0-.962-2.85Zm2.144-5.851c.8.672,1.611,1.448,2.607,2.422l.591.51-2.955,1.495-.208-.742a25.045,25.045,0,0,0-1.3-2.931l-.475-.614,1.263-.73Zm3.916,5.851a34.087,34.087,0,0,1,2.178,2.85h4.113a20.858,20.858,0,0,0,1.066-2.85Zm14.344-5.318-1,.939a30.2,30.2,0,0,1-2.549,2.317l-.568.568-1.159-.718.568-.649a17.7,17.7,0,0,0,1.159-2.734l.22-.973Z" transform="translate(-9.725 -2.475)" fill="#ff878a"/>
      <path id="パス_594" data-name="パス 594" d="M585.735,286.315a5.884,5.884,0,0,0-.452.892l-.081.243-.406,1.159a16.369,16.369,0,0,1-3.325,5.585A9.05,9.05,0,0,1,574.7,296.9c-4.7,0-7.045-2.259-7.045-6.767,0-.8,0-1.8.058-2.955,0-2.144.162-8.887.162-10.011a8.215,8.215,0,0,0-.162-1.993h3.36a8.766,8.766,0,0,0-.185,2.317c0,1.75,0,2.317-.139,10.822v1.692c0,3.36,1.448,4.971,4.426,4.971a7.948,7.948,0,0,0,6.291-3.244,14.032,14.032,0,0,0,2.318-4.7,6.851,6.851,0,0,0,.243-1.286Z" transform="translate(-16.416 2.994)" fill="#ff878a"/>
      <path id="パス_595" data-name="パス 595" d="M586.44,278.4a5.725,5.725,0,0,0,1.506.2H592.8c.185-.707.324-1.24.591-2.317l.162-.707a12.839,12.839,0,0,0,.266-1.657l3.094.7a6.965,6.965,0,0,0-.487,1.309,2.859,2.859,0,0,0-.081.278c-.1.475-.209.962-.348,1.448a7.932,7.932,0,0,1-.22.915h6.778a5.7,5.7,0,0,0,1.495-.2v1.773a8.109,8.109,0,0,0-1.495-.162h-7.149c-1.321,4.947-3.221,11.227-4.635,15.2a9.168,9.168,0,0,0-.429,1.587l-3.059-.962a10.635,10.635,0,0,0,.962-2.259c1.159-3.3,2.873-8.806,4.194-13.568h-4.484a8.464,8.464,0,0,0-1.506.162Zm22.849,18.4h-2.1c-.684,0-3.14.058-4.519.058-4.774,0-7.161-1.483-7.161-4.426a4.056,4.056,0,0,1,1.529-3.337,5.046,5.046,0,0,0,.776-.881l.962,1.159a2.422,2.422,0,0,0-1.344,2.317c0,1.819,1.645,2.6,5.538,2.6,1.611,0,3.221,0,4.426-.1a12.36,12.36,0,0,0,1.935-.208ZM599.2,284.29a9.449,9.449,0,0,0-1.587.162v-1.668a5.481,5.481,0,0,0,1.587.162h7.589a7.687,7.687,0,0,0,1.553-.185v1.611a16.984,16.984,0,0,0-5.851,2.225l-.73-.939a19.888,19.888,0,0,1,2.584-1.367Z" transform="translate(-13.437 2.794)" fill="#ff878a"/>
      <path id="パス_596" data-name="パス 596" d="M621.865,289.411a4.073,4.073,0,0,0-.637,1.425,10.962,10.962,0,0,1-2.074,3.812,3.14,3.14,0,0,1-2.491,1.286c-1.726,0-3.175-1.159-4.241-3.546-1.263-2.734-1.773-6.2-1.773-11.923v-2.016a10.666,10.666,0,0,0-.139-1.611l3.244.116a10.231,10.231,0,0,0-.15,1.819v1.912c0,4.913.371,7.809,1.309,10.046.7,1.657,1.506,2.491,2.387,2.491.672,0,1.263-.51,2.074-1.819a6.732,6.732,0,0,0,1.077-2.85Zm7.8,2.422a10.656,10.656,0,0,0-.139-1.692c-.429-4.333-3.244-9.883-5.562-11.065l1.321-1.379a6.4,6.4,0,0,0,.915.95,19.316,19.316,0,0,1,6.523,10.926,11.264,11.264,0,0,0,.324,1.286Z" transform="translate(-9.618 3.258)" fill="#ff878a"/>
      <path id="パス_597" data-name="パス 597" d="M633.313,279.611a11.741,11.741,0,0,0-1.773.127V278.1a12.042,12.042,0,0,0,1.773.127h8.539v-2.989a9.307,9.307,0,0,0-.058-1l-.081-.533v-.243h3.476a10.439,10.439,0,0,0-.162,1.773v2.978h8.667a11.066,11.066,0,0,0,1.773-.127v1.634h-.29l-.382-.058h-12v.208a40.044,40.044,0,0,1-.243,4.438h7.033c1.506,0,1.993,0,3.071-.081v.962a55.449,55.449,0,0,1-1.078,10.555c-.429,1.529-1.1,2.2-2.26,2.2a22.153,22.153,0,0,1-5.422-1.24l-1.263-.232L642.489,295a26.644,26.644,0,0,0,4.762.591c.834,0,1.02-.162,1.286-1.159a36.807,36.807,0,0,0,.962-8.748h-7c-.811,5.562-3.708,9.5-8.968,12.189l-.834.591-.938-1.286,1.066-.487c4.89-3.569,6.952-8.516,6.882-16.754v-.348Z" transform="translate(-6.281 2.723)" fill="#ff878a"/>
      <ellipse id="楕円形_28" data-name="楕円形 28" cx="94.929" cy="94.929" rx="94.929" ry="94.929" transform="translate(503.194 178.147)" fill="rgba(255,135,138,0)" stroke="#ff878a" stroke-miterlimit="10" stroke-width="6"/>
      <ellipse id="楕円形_29" data-name="楕円形 29" cx="94.929" cy="94.929" rx="94.929" ry="94.929" transform="translate(774.472 179.155)" fill="rgba(255,135,138,0)" stroke="#ff878a" stroke-miterlimit="10" stroke-width="6"/>
      <path id="パス_598" data-name="パス 598" d="M781.873,262.164a8.872,8.872,0,0,0-1.773.162v-1.669a10.822,10.822,0,0,0,1.773.139h2.2c.266-2.259.533-5.017.533-5.608v-.73c.753.081,1.8.1,2.445.1h11.355a25.238,25.238,0,0,0,2.874-.1v.962l-.07,1.831v.811l-.1,2.734h1.981a9.974,9.974,0,0,0,1.773-.139v1.669a8.587,8.587,0,0,0-1.773-.162h-2.062c-.058.672-.081,1.159-.1,1.367a5.186,5.186,0,0,1-.081,1.4l-.116,1.367-.07.973h2.062a11.3,11.3,0,0,0,1.773-.139v1.634h-.29l-.382-.058h-3.3l-.139.962a5.071,5.071,0,0,1-.324,1.726,1.7,1.7,0,0,1-1.657,1.286,18.822,18.822,0,0,1-4.542-.672l-1.39-.22-.162-1.39a35.783,35.783,0,0,0,3.893.29c.938,0,.962,0,1.263-1.981h-14.75a39.482,39.482,0,0,0,1.159-6.558Zm19.7-11.656a11.17,11.17,0,0,0,1.773-.127v1.634h-.672c-.3,0-.649-.058-1.1-.058H786.333a25.652,25.652,0,0,1-4.4,5.214l-.649.73-1.159-.892.753-.718a25.91,25.91,0,0,0,3.789-7.925l.162-1.054,3.615.95-.742,1.159c-.278.556-.359.7-.591,1.159Zm-14.634,11.656c-.185,1.726-.429,3.256-.718,5.11h3.974c.266-1.773.452-3.476.649-5.11Zm4.032-1.367c.1-1.159.3-3.476.348-4.866h-3.789c-.081,1.24-.267,3.476-.429,4.866Zm2.711,1.367c-.081.753-.162,1.448-.162,1.669-.127,1.39-.162,1.506-.209,1.981s-.139,1.054-.185,1.46h4.507c.162-1.425.324-3.476.429-5.11Zm4.461-1.367v-.568c.081-1.553.1-2.317.139-4.3h-4.09c-.162,2.5-.243,3.476-.371,4.866Z" transform="translate(17.29 -1.428)" fill="#ff878a"/>
      <path id="パス_599" data-name="パス 599" d="M809.87,262.9a13.047,13.047,0,0,1-5.434,8.864l-.718.8-1.078-1.043.892-.7c2.468-2.931,3.406-5.944,3.406-10.984v-8.9a9.643,9.643,0,0,0-.162-1.923,18.536,18.536,0,0,0,2.225.1h12.224a18.537,18.537,0,0,0,2.225-.1,11.938,11.938,0,0,0-.162,2.225v18.747a1.752,1.752,0,0,1-1.657,1.981,32.451,32.451,0,0,1-5.214-.9l-1.425-.162-.209-1.483c1.39.162,3.476.3,4.635.3.614,0,.753-.116.753-.626v-6.2Zm.208-6.28v4.913h10.15v-4.913Zm10.1-6.129h-10.1v4.751h10.1Z" transform="translate(20.866 -1.156)" fill="#ff878a"/>
      <path id="パス_600" data-name="パス 600" d="M829.879,258.656a9.756,9.756,0,0,1,4.913-1.24c4.727,0,7.786,2.445,7.786,6.257,0,4.5-3.036,7.149-8.215,7.149a13.128,13.128,0,0,1-7.253-2.016l1.669-2.1a7.369,7.369,0,0,0,5.365,2.769c2.931,0,4.866-2.259,4.866-5.608a4.635,4.635,0,0,0-4.785-5.029,6.524,6.524,0,0,0-4.4,1.529h-1.588l.811-11.251h12.919l-.544,2.978H830.331Z" transform="translate(24.749 -1.141)" fill="#ff878a"/>
      <path id="パス_601" data-name="パス 601" d="M851.753,270.858c-5.179,0-8.273-4.16-8.273-11.123,0-6.651,3.2-10.845,8.273-10.845s8.273,4.194,8.273,10.845C860.026,266.7,856.909,270.858,851.753,270.858Zm0-20.647c-2.873,0-4.635,3.627-4.635,9.559s1.715,9.721,4.635,9.721,4.635-3.627,4.635-9.721c.012-5.909-1.761-9.594-4.635-9.594Z" transform="translate(27.346 -1.177)" fill="#ff878a"/>
      <path id="パス_602" data-name="パス 602" d="M873.84,251.208c0,1.97-.1,4.252-.243,5.724h7.52a25.737,25.737,0,0,0,2.955-.1v1.02a47.2,47.2,0,0,1-1.425,11.784c-.475,1.506-1.159,2.12-2.387,2.12a28.344,28.344,0,0,1-5.793-1.02l-1.263-.185-.185-1.506a40.133,40.133,0,0,0,4.913.429c1.078,0,1.309-.185,1.669-1.495a39.714,39.714,0,0,0,1.159-9.675h-7.392a17.241,17.241,0,0,1-9.269,13.267l-.892.649-.9-1.309,1.043-.51a17.253,17.253,0,0,0,6.013-8.516c.857-2.422,1.159-5.4,1.159-10.694H864.27a12.011,12.011,0,0,0-1.8.139V249.69a12.224,12.224,0,0,0,1.8.127h20.381a11.582,11.582,0,0,0,1.8-.127v1.634h-.29l-.382-.058c-.29,0-.672-.058-1.159-.058Z" transform="translate(30.332 -1.05)" fill="#ff878a"/>
      <path id="パス_603" data-name="パス 603" d="M905.49,249.577a14.766,14.766,0,0,0,2.225-.127,12.858,12.858,0,0,0-.162,2.317v18.156c0,1.286-.556,1.935-1.657,1.935a23.061,23.061,0,0,1-4.971-.939l-1.344-.243-.22-1.425a39.111,39.111,0,0,0,4.113.324c.834,0,.962-.116.962-.753v-8.03h-14.9v9.455a10.743,10.743,0,0,0,.162,1.773h-3.476v-.672a6.361,6.361,0,0,0,.081-1.1V251.454a11.113,11.113,0,0,0-.162-2,14.106,14.106,0,0,0,2.236.127Zm-10.243,1.367h-5.793v8.47h5.793Zm9.153,0H898.26v8.47H904.4Z" transform="translate(34.115 -1.088)" fill="#ff878a"/>
      <path id="パス_604" data-name="パス 604" d="M791.847,295.551a35.912,35.912,0,0,1-2.5,5.318l-.429.973-1.286-.7.591-.892a42.387,42.387,0,0,0,3.059-10.428h-1.367a10.554,10.554,0,0,0-1.773.139v-1.692a10.821,10.821,0,0,0,1.773.139h1.935v-3.766c-1.159.22-1.321.243-2.317.406l-1,.243-.568-1.344,1.159-.209a24.333,24.333,0,0,0,5.793-2.317l.985-.73,2.178,2.48-1.506.371c-.718.22-1.159.348-2.063.568v4.322h.834a16.025,16.025,0,0,0,1.877-.1v1.611h-.568a12.834,12.834,0,0,0-1.309-.058h-.834v1.483l.128.127a41.553,41.553,0,0,1,3.013,3.036l.73.649-2.213,2.062-.348-1.02a31.994,31.994,0,0,0-1.367-2.978v10.289a10.764,10.764,0,0,0,.162,1.773h-2.955v-.139l.058-.533a7.779,7.779,0,0,0,.081-1.1Zm15.144-1.981a22,22,0,0,0,2.769-3.476l.429-.857,2.468,2.074-1.159.718a35.107,35.107,0,0,1-3.789,2.665,21.261,21.261,0,0,0,4.936,4.832l1.054.533-1.935,2.874-.776-1.043a23.9,23.9,0,0,1-3.256-4.635c0,.7.1,1.506.1,2.259,0,3.87-.823,5.793-2.514,5.793a8.91,8.91,0,0,1-3.094-.73l-1.159-.29L800.908,303a21.257,21.257,0,0,0,2.816.266,1.028,1.028,0,0,0,1.159-.73,13.347,13.347,0,0,0,.521-3.835,32.609,32.609,0,0,1-6.4,4.16l-.973.591-.8-1.159,1.043-.452a27.194,27.194,0,0,0,6.883-6.291,8.675,8.675,0,0,0-.162-.962,27.924,27.924,0,0,1-5.909,3.812l-.915.568-.7-1.159.962-.44a22.187,22.187,0,0,0,5.793-5.283,4.636,4.636,0,0,0-.29-.591,21.331,21.331,0,0,1-4.218,2.317l-.915.568-.7-1.159,1.043-.406a18.62,18.62,0,0,0,4.38-4h-.591a10.592,10.592,0,0,0-1.715.127v-1.715a11.039,11.039,0,0,0,1.715.139h4.971a10.622,10.622,0,0,0,1.717-.139l0,1.634h-.266a8.537,8.537,0,0,0-1.448-.1h-.973a19.689,19.689,0,0,1-1.634,1.553l.139.162a15.232,15.232,0,0,1,1.529,2.931Zm-6.6-8.111v1.425a14.461,14.461,0,0,0,.127,1.773h-2.92v-.637a7.644,7.644,0,0,0,.081-1.159v-1.135a10.426,10.426,0,0,0-.116-1.692,12,12,0,0,0,1.692.07h4.461v-1.9a9.259,9.259,0,0,0-.058-1l-.069-.533v-.243h3.2a10.432,10.432,0,0,0-.162,1.773v1.9h4.727a16.8,16.8,0,0,0,1.692-.07,10.159,10.159,0,0,0-.1,1.692v1.159a8.863,8.863,0,0,0,.162,1.75h-2.989v-.614a10.724,10.724,0,0,0,.058-1.159v-1.495Z" transform="translate(18.485 3.827)" fill="#ff878a"/>
      <path id="パス_605" data-name="パス 605" d="M813.359,284.393a9.464,9.464,0,0,0,1.668.127h7.647c-.22-.51-.371-.915-.487-1.159a4.636,4.636,0,0,0-.776-1.39l2.873-.973a18.429,18.429,0,0,0,1.448,3.545H831.7a9.272,9.272,0,0,0,1.669-.127v1.657h-.139a9.424,9.424,0,0,0-1.529-.1H826.36c.29.672,1.228,2.653,1.634,3.476h4.426a10,10,0,0,0,1.668-.151v1.738a8.022,8.022,0,0,0-1.668-.162h-3.754l.162.324c.406.857.8,1.634.939,1.912l.962,1.854a10.743,10.743,0,0,0,.753,1.228l-2.526,1.4c-1.02-1.668-3.777-2.688-7.276-2.688-3.708,0-5.631,1.1-5.631,3.221,0,2.422,2.6,3.65,7.647,3.65a28.568,28.568,0,0,0,6.211-.556v2.839a54.072,54.072,0,0,1-6.28.382c-6.4,0-9.918-2.074-9.918-5.793,0-3.279,2.688-5.052,7.682-5.052a15.062,15.062,0,0,1,6.013,1.078c-.371-.73-1.159-2.259-1.854-3.766h-11.32a7.547,7.547,0,0,0-1.668.162v-1.726a9.126,9.126,0,0,0,1.668.151h10.625c-.742-1.634-1.286-2.758-1.611-3.476h-8.261a9.469,9.469,0,0,0-1.669.127Zm19.465-4.843v4.171h-1.692V279.55Zm3.036,0v4.171h-1.692V279.55Z" transform="translate(22.44 3.688)" fill="#ff878a"/>
      <path id="パス_606" data-name="パス 606" d="M834.61,285.316a5.7,5.7,0,0,0,1.506.185h4.855c.2-.7.324-1.228.591-2.317l.162-.7A15.947,15.947,0,0,0,842,280.82l3.082.707a7.787,7.787,0,0,0-.487,1.309l-.081.266c-.1.487-.208.973-.348,1.448a8.174,8.174,0,0,1-.209.915h6.767a5.7,5.7,0,0,0,1.506-.185v1.773a8.364,8.364,0,0,0-1.506-.162h-7.149c-1.309,4.947-3.221,11.227-4.635,15.2a10,10,0,0,0-.429,1.587l-3.059-.973a10.738,10.738,0,0,0,.962-2.248c1.159-3.314,2.873-8.817,4.194-13.568h-4.484a8.469,8.469,0,0,0-1.506.162Zm22.86,18.4h-.95c-.22,0-.475,0-1.159.058s-3.14,0-4.507,0q-7.184,0-7.172-4.438a4.067,4.067,0,0,1,1.53-3.325,4.049,4.049,0,0,0,.776-.892l.973,1.1a2.421,2.421,0,0,0-1.344,2.317c0,1.831,1.634,2.607,5.527,2.607,1.611,0,3.221,0,4.438-.1a11.162,11.162,0,0,0,1.935-.22Zm-10.1-12.514a8.364,8.364,0,0,0-1.587.162V289.7a5.918,5.918,0,0,0,1.587.162h7.6a7.586,7.586,0,0,0,1.553-.185v1.611a16.754,16.754,0,0,0-5.793,2.225l-.718-.939a17.819,17.819,0,0,1,2.572-1.367Z" transform="translate(25.939 3.889)" fill="#ff878a"/>
      <path id="パス_607" data-name="パス 607" d="M868.656,296.321a3.882,3.882,0,0,0-.649,1.425,11.252,11.252,0,0,1-2.062,3.812,3.174,3.174,0,0,1-2.5,1.286c-1.715,0-3.163-1.159-4.241-3.546-1.263-2.734-1.773-6.2-1.773-11.923v-2.016a10.425,10.425,0,0,0-.139-1.611l3.256.1a9.44,9.44,0,0,0-.162,1.831v1.9c0,4.924.371,7.821,1.309,10.046q1.066,2.5,2.4,2.5c.672,0,1.263-.51,2.063-1.831a6.627,6.627,0,0,0,1.077-2.839Zm7.786,2.41a9.6,9.6,0,0,0-.139-1.692c-.429-4.322-3.244-9.883-5.562-11.065l1.321-1.367a7.727,7.727,0,0,0,.915.939,19.315,19.315,0,0,1,6.523,10.938,11.935,11.935,0,0,0,.324,1.286Z" transform="translate(29.537 4.354)" fill="#ff878a"/>
      <path id="パス_608" data-name="パス 608" d="M878.7,286.508a11.956,11.956,0,0,0-1.773.139v-1.634a12.056,12.056,0,0,0,1.773.127h8.539v-3.974l-.081-.533v-.243h3.476a10.427,10.427,0,0,0-.162,1.773v2.978h8.678a11.17,11.17,0,0,0,1.773-.127v1.634h-.672c-.3,0-.649-.058-1.1-.058H888.3v.3a39.848,39.848,0,0,1-.243,4.426H895.1c1.495,0,1.981,0,3.059-.081v.973a53.574,53.574,0,0,1-1.078,10.555c-.429,1.529-1.1,2.2-2.248,2.2a22.212,22.212,0,0,1-5.434-1.24l-1.263-.243-.127-1.471a26.524,26.524,0,0,0,4.75.591c.834,0,1.02-.162,1.286-1.159a37.346,37.346,0,0,0,.973-8.759h-7.149c-.8,5.562-3.708,9.513-8.968,12.2l-.834.591-.938-1.286,1.078-.487c4.89-3.569,6.952-8.516,6.871-16.766v-.348Z" transform="translate(32.653 3.821)" fill="#ff878a"/>
      <line id="線_182" data-name="線 182" x2="24.923" transform="translate(721.301 275.046)" fill="none" stroke="#ff878a" stroke-linecap="round" stroke-miterlimit="10" stroke-width="6"/>
      <line id="線_183" data-name="線 183" y1="24.934" transform="translate(733.756 262.579)" fill="none" stroke="#ff878a" stroke-linecap="round" stroke-miterlimit="10" stroke-width="6"/>
    </g>
    <path id="パス_685" data-name="パス 685" d="M-216.33-12.63a25.615,25.615,0,0,0,3.51-4.95c.75-.27.96-.42.96-.78,0-.24-.18-.48-.63-.96-1.02-1.05-1.23-1.23-1.53-1.23-.24,0-.48.18-1.38,1.2h-.93v-3.93c.63-.3.93-.57.93-.84,0-.3-.33-.63-3.81-.96a18.784,18.784,0,0,1,.21,2.76v2.97h-1.8a10.8,10.8,0,0,1-2.22-.24l.33,1.17a7.742,7.742,0,0,1,1.89-.24h5.43a28.912,28.912,0,0,1-8.28,10.89c-.12.09.15.42.27.36a26.377,26.377,0,0,0,4.47-2.82v5.01c0,3.99-.21,5.97-.21,6.63,0,.81.39,1.11,1.35,1.11s1.53-.39,1.53-1.23c0-1.41-.09-5.67-.09-9.09v-2.85a7.72,7.72,0,0,1,2.13,2.76c.45.87.78,1.14,1.35,1.14a1.334,1.334,0,0,0,1.26-1.44c0-1.02-.78-1.83-2.31-2.49a13.967,13.967,0,0,0,3.03-2.19c.81.03,1.02-.12,1.02-.36,0-.39-.45-.72-2.67-1.98a10.388,10.388,0,0,1-.6,1.59,18.579,18.579,0,0,1-1.5,2.67q-.855-.27-1.71-.45Zm16.56-8.28c0,9.24-.45,15.27-1.26,18.33-.24.96-.54,1.23-1.44,1.23a33.673,33.673,0,0,1-4.14-.36c-.15-.03-.21.36-.06.42,2.34.84,3.12,1.35,3.36,2.67.12.63.3.78.87.78a4.156,4.156,0,0,0,2.37-.6,5.6,5.6,0,0,0,2.04-3.57c.78-3.21.96-5.85,1.2-17.79.87-.81.96-.9.96-1.11,0-.24-.18-.45-.72-.93-1.2-1.02-1.44-1.2-1.74-1.2-.24,0-.48.18-1.62,1.44h-9.51a13.309,13.309,0,0,1-2.49-.24l.33,1.17a10.8,10.8,0,0,1,2.22-.24h1.89a48.086,48.086,0,0,1-1.47,13.38,18.74,18.74,0,0,1-5.94,9.42c-.12.09.12.48.24.42a17.171,17.171,0,0,0,8.07-8.82c1.44-3.57,2.04-8.16,2.1-14.4Zm24.15.81c0-2.19-2.76-3.66-7.68-4.05-.15,0-.21.36-.09.42a13.023,13.023,0,0,1,3.87,3.33c1.59,2.01,1.59,2.01,2.37,2.01A1.583,1.583,0,0,0-175.62-20.1Zm9.87,13.23c0-2.31-2.13-4.86-5.61-6.81-.12-.06-.42.18-.33.3a13.543,13.543,0,0,1,2.31,5.58c.42,2.64.84,3.09,1.83,3.09A1.929,1.929,0,0,0-165.75-6.87Zm-22.71-6.39c-.03-.15-.36-.12-.39.03-.45,2.76-1.26,4.29-2.97,5.58a1.889,1.889,0,0,0-.87,1.71,1.609,1.609,0,0,0,1.62,1.74c2.01,0,3.06-2.46,3.06-5.49A14.923,14.923,0,0,0-188.46-13.26Zm6.27-2.91c.75-.27,1.08-.6,1.08-.96,0-.48-.33-.54-4.14-1.02.12,3.06.15,6.09.15,9.12,0,4.35-.09,5.43-.09,6.51,0,3.03,1.26,3.78,6.15,3.78a23.482,23.482,0,0,0,6.57-.6c1.11-.39,1.62-.99,1.62-1.86a.946.946,0,0,0-.48-.84c-.78-.39-.93-.48-.93-1.29,0-.6.03-2.31.03-3.45,0-.15-.39-.18-.42-.03-.81,3.03-1.2,4.35-2.07,4.95-.66.45-1.65.45-3.39.45-3.87,0-4.08-.09-4.08-1.83Zm36.93.87a42.931,42.931,0,0,0,6-6.15c1.14,0,1.5-.12,1.5-.54,0-.39-.87-.96-3.33-2.25a23.864,23.864,0,0,1-2.76,4.08,2.6,2.6,0,0,0-.66-.72c-1.11-.9-1.41-1.14-1.68-1.14-.21,0-.57.24-1.83,1.65h-1.77v-3.06c.66-.21.99-.45.99-.75,0-.33-.33-.66-3.99-.99.09,1.02.12,1.98.12,2.97v1.83h-5.37a9.328,9.328,0,0,1-2.07-.24l.33,1.11a11.024,11.024,0,0,1,1.83-.18h5.28v4.38h-8.01a10.858,10.858,0,0,1-2.25-.24l.33,1.11a13.761,13.761,0,0,1,2.04-.18h11.16c-1.59,1.32-3.24,2.55-4.92,3.69a22.808,22.808,0,0,0-2.22-.96c.06.78.09,1.53.12,2.31a51.8,51.8,0,0,1-7.14,3.66c-.15.06,0,.45.15.42a39.465,39.465,0,0,0,7.05-2.61v1.92c0,5.1-.15,6.48-.15,7.74,0,.69.39.99,1.17.99,1.26,0,1.83-.36,1.83-1.2V.6h9.63v.9c0,.72.42.99,1.2.99,1.26,0,1.86-.33,1.86-1.14,0-.99-.15-4.05-.15-8.49V-8.82c.72-.51.9-.69.9-.96,0-.24-.18-.45-.72-.87-1.2-.93-1.47-1.11-1.77-1.11-.24,0-.48.18-1.77,1.44h-7.89a57.83,57.83,0,0,0,6.15-4.29h9.99c.3,0,.39-.09.39-.3s-.21-.51-.81-.99c-1.41-1.14-1.71-1.38-1.98-1.38-.21,0-.57.24-2.13,1.98Zm-4.53,0v-4.38h5.55a50.289,50.289,0,0,1-4.38,4.38Zm-3.72,5.73.12-.06h9.51v4.17h-9.63Zm9.63,9.48h-9.63V-4.77h9.63Zm23.97-19.29a13.447,13.447,0,0,1,1.89-.03,9.464,9.464,0,0,1,4.8,1.62,6.557,6.557,0,0,1,2.64,5.64,8.917,8.917,0,0,1-2.7,6.96,14.887,14.887,0,0,1-7.71,3.93c-.39.09-.57.15-.57.39s.21.3.66.3a21.348,21.348,0,0,0,6.15-1.14,13.088,13.088,0,0,0,4.44-2.67,8.151,8.151,0,0,0,2.76-6.18,9.2,9.2,0,0,0-3.51-7.62,11.481,11.481,0,0,0-7.44-2.34,13.442,13.442,0,0,0-7.26,1.95,11.6,11.6,0,0,0-4.05,4.2,9.368,9.368,0,0,0-1.29,4.56c0,2.73.57,4.26,1.65,5.46a3.044,3.044,0,0,0,2.28,1.17,3.3,3.3,0,0,0,2.49-1.23,24.658,24.658,0,0,0,3.33-5.01,21.545,21.545,0,0,0,1.89-4.32,12.223,12.223,0,0,0,.66-3.18A4.12,4.12,0,0,0-119.91-19.38Zm-.99.18a1.509,1.509,0,0,1,.54,1.35,6.961,6.961,0,0,1-.63,2.55,36.433,36.433,0,0,1-4.02,7.35c-1.14,1.62-1.59,1.92-2.07,1.92a1.935,1.935,0,0,1-1.32-.99,5.962,5.962,0,0,1-.75-3.24,7.81,7.81,0,0,1,.51-2.85,9.135,9.135,0,0,1,2.55-3.69A10.1,10.1,0,0,1-120.9-19.2Zm44.91,1.14c.3,0,.39-.09.39-.3s-.24-.48-.9-1.02c-1.44-1.2-1.77-1.44-2.04-1.44-.21,0-.57.24-2.25,2.07h-7.35v-4.41c.66-.27.96-.54.96-.78,0-.33-.33-.66-4.14-.99a15.751,15.751,0,0,1,.18,2.25v3.93h-9.3a12.728,12.728,0,0,1-2.43-.24l.33,1.11a14.879,14.879,0,0,1,2.13-.18h6.81A33.583,33.583,0,0,1-95.31-7.23a18.833,18.833,0,0,1-7.56,9.18c-.12.09.06.45.21.39,4.68-1.8,7.77-4.38,9.69-8.31a23.352,23.352,0,0,0,1.89-6.45h8.07a46.026,46.026,0,0,1-1.32,9.75A1.916,1.916,0,0,1-86.4-1.05a23.472,23.472,0,0,1-4.29-.45c-.15-.03-.18.33-.03.39,2.79.93,3.54,1.5,3.75,2.76.09.54.18.66.54.66a4.834,4.834,0,0,0,2.52-.63,4.126,4.126,0,0,0,1.86-2.1c.9-1.98,1.62-6.09,1.95-11.01.9-.66.99-.75.99-.96,0-.24-.18-.45-.72-.93-1.23-1.02-1.47-1.2-1.77-1.2-.24,0-.48.18-1.68,1.41h-7.71a39.353,39.353,0,0,0,.42-4.95Zm23.94,3.27a1.288,1.288,0,0,0-.48,0c-.09.03-.15.06-.15.18s.21.27.33.39a11.228,11.228,0,0,1,1.89,2.64,1.075,1.075,0,0,0,1.02.69,1.008,1.008,0,0,0,.99-1.05,2.248,2.248,0,0,0-1.11-1.8A5.856,5.856,0,0,0-52.05-14.79Zm2.43-1.83a.787.787,0,0,0-.48.03.181.181,0,0,0-.09.18c0,.12.24.27.36.36a7.613,7.613,0,0,1,2.1,2.34,1.148,1.148,0,0,0,1.11.66,1.006,1.006,0,0,0,.93-1.11,1.927,1.927,0,0,0-1.08-1.53A6.162,6.162,0,0,0-49.62-16.62Zm-8.13-1.11a13.9,13.9,0,0,0-4.17,4.38,10.772,10.772,0,0,0-1.17,5.04,7.827,7.827,0,0,0,4.41,6.9A14.426,14.426,0,0,0-52.86,0c1.41,0,1.95-.63,1.95-1.44a1.74,1.74,0,0,0-1.17-1.53,5.577,5.577,0,0,0-2.31-.42,9.393,9.393,0,0,1-4.8-1.56,5.315,5.315,0,0,1-2.19-4.47,8.24,8.24,0,0,1,2.16-5.82,9.814,9.814,0,0,1,6.87-3.24c1.68-.15,2.34-.09,2.97-.15.84-.03,1.11-.48,1.11-1.08,0-.63-.45-.93-.96-1.17a7.308,7.308,0,0,0-2.76-.48,2.138,2.138,0,0,0-1.14.27,9.074,9.074,0,0,1-1.65.57c-2.28.66-5.28,1.47-9.12,2.37a39.433,39.433,0,0,1-5.01.99c-.9.03-1.14-.09-2.19-1.17-.27-.33-.36-.3-.48-.3-.18,0-.3.45-.3.93a3.675,3.675,0,0,0,1.11,2.16c.99,1.11,1.68,1.5,2.28,1.47a1.22,1.22,0,0,0,.87-.33,4.628,4.628,0,0,1,1.14-.69,67.812,67.812,0,0,1,8.73-2.79Zm25.83,11.4a15.1,15.1,0,0,0,2.31-.12c.69-.12,1.17-.57,1.17-1.05a1.173,1.173,0,0,0-.48-1.05,2.255,2.255,0,0,0-1.11-.39c-.57-.03-.93.03-1.53-.03a81.27,81.27,0,0,1,2.37-10.5c.21-.66.39-.9.57-1.02a1.087,1.087,0,0,0,.51-.93,1.852,1.852,0,0,0-.84-1.41,6.5,6.5,0,0,0-2.94-1.44,1.942,1.942,0,0,0-1.05.21c-.24.15-.39.3-.39.45,0,.12.12.18.42.36.93.54,1.29.78,1.26,1.71-.03.99-.27,2.25-.63,4.65a2.463,2.463,0,0,0-1.2-.42,13.634,13.634,0,0,1-1.44-.15c-2.1-.42-3.03-1.05-3.39-1.62-.21-.33-.27-.45-.42-.45s-.21.18-.21.51a2.965,2.965,0,0,0,.93,2.01,6.8,6.8,0,0,0,2.94,1.71c-1.53,1.41-2.64,2.61-2.64,4.29a3.468,3.468,0,0,0,1.2,2.76,7.219,7.219,0,0,0,2.85,1.5c-.06.75-.09,1.38-.09,2.01,0,3.36,1.74,5.88,5.64,5.88A8.477,8.477,0,0,0-22.56-.84a5.944,5.944,0,0,0,1.77-4.53,7.718,7.718,0,0,0-2.28-5.1,11.971,11.971,0,0,0-4.35-2.76,1.441,1.441,0,0,0-.45-.12c-.15,0-.24.06-.24.21s.09.27.3.42a11.469,11.469,0,0,1,2.82,2.73,8.353,8.353,0,0,1,1.35,4.44,5.341,5.341,0,0,1-1.23,3.78A4.725,4.725,0,0,1-28.56-.33c-2.7,0-3.48-1.86-3.48-3.57A23.88,23.88,0,0,1-31.92-6.33Zm-.66-8.46c-.27,1.77-.51,3.57-.78,5.67-2.64-.3-3.42-1.17-3.42-2.31a2.619,2.619,0,0,1,1.02-1.89,5.95,5.95,0,0,1,1.5-1.02,3.466,3.466,0,0,1,1.08-.36C-32.91-14.73-32.76-14.76-32.58-14.79Zm46.23,2.58c.3,0,.39-.09.39-.3s-.24-.48-.9-1.05C11.7-14.76,11.37-15,11.1-15c-.21,0-.57.24-2.19,2.1H-1.26C-.69-14.13-.15-15.39.3-16.65c1.05-.24,1.23-.33,1.23-.69,0-.39-.18-.48-3.54-1.29a30.779,30.779,0,0,1-1.83,4.92l-.39.81h-5.79a9.824,9.824,0,0,1-2.13-.24l.33,1.11a11.024,11.024,0,0,1,1.83-.18h5.4a39.7,39.7,0,0,1-3.6,5.76,1.293,1.293,0,0,0-.21.6c0,.51.93,1.02,1.83,1.02a1.237,1.237,0,0,0,1.08-.6c.27-.42.54-.81.78-1.2A49.307,49.307,0,0,1,.42-4.35C-2.4-1.5-6.42.3-12.15,1.41c-.15.03-.15.42,0,.42C-5.46,1.41-.72-.12,2.58-3.09A31.819,31.819,0,0,1,7.26.54C8.7,1.89,8.76,1.92,9.57,1.92c.75,0,1.26-.66,1.26-1.62,0-1.59-2.04-3.27-6.72-4.98A20.768,20.768,0,0,0,7.8-12.21Zm-9,0A18.27,18.27,0,0,1,1.5-5.58C-.45-6.15-2.4-6.63-4.38-7.14a55.84,55.84,0,0,0,2.82-5.07ZM2.01-20.28v-2.55c.66-.3.99-.57.99-.84,0-.33-.33-.69-4.05-1.05.06.66.09,1.47.09,2.49v1.95H-8.64A9.7,9.7,0,0,0-9-21.99c-.03-.15-.3-.12-.33.03-.21,1.92-.63,2.52-2.19,3.33a1.42,1.42,0,0,0-.96,1.44,1.5,1.5,0,0,0,1.53,1.59c1.56,0,2.49-1.62,2.37-3.99H9.96A20.4,20.4,0,0,1,9-16.23c-.06.15.15.27.27.21a13.239,13.239,0,0,0,2.64-1.8,1.5,1.5,0,0,1,1.5-.45c.93.06,1.17-.21,1.17-.63,0-.24-.09-.48-.93-1.26-1.77-1.56-2.01-1.74-2.31-1.74-.24,0-.48.18-1.71,1.62Zm32.37.18c0-2.19-2.76-3.66-7.68-4.05-.15,0-.21.36-.09.42a13.023,13.023,0,0,1,3.87,3.33c1.59,2.01,1.59,2.01,2.37,2.01A1.583,1.583,0,0,0,34.38-20.1ZM44.25-6.87c0-2.31-2.13-4.86-5.61-6.81-.12-.06-.42.18-.33.3A13.543,13.543,0,0,1,40.62-7.8c.42,2.64.84,3.09,1.83,3.09A1.929,1.929,0,0,0,44.25-6.87ZM21.54-13.26c-.03-.15-.36-.12-.39.03-.45,2.76-1.26,4.29-2.97,5.58a1.889,1.889,0,0,0-.87,1.71A1.609,1.609,0,0,0,18.93-4.2c2.01,0,3.06-2.46,3.06-5.49A14.923,14.923,0,0,0,21.54-13.26Zm6.27-2.91c.75-.27,1.08-.6,1.08-.96,0-.48-.33-.54-4.14-1.02.12,3.06.15,6.09.15,9.12,0,4.35-.09,5.43-.09,6.51,0,3.03,1.26,3.78,6.15,3.78a23.482,23.482,0,0,0,6.57-.6c1.11-.39,1.62-.99,1.62-1.86a.946.946,0,0,0-.48-.84c-.78-.39-.93-.48-.93-1.29,0-.6.03-2.31.03-3.45,0-.15-.39-.18-.42-.03-.81,3.03-1.2,4.35-2.07,4.95-.66.45-1.65.45-3.39.45-3.87,0-4.08-.09-4.08-1.83Zm29.67-2.85a1.471,1.471,0,0,0,.42-1.02,2.1,2.1,0,0,0-.87-1.53,4.641,4.641,0,0,0-2.88-1.35,4.013,4.013,0,0,0-1.38.27c-.3.15-.51.27-.51.54,0,.18.09.21.93.51.96.39,1.17.87,1.14,1.98-.12,4.56-.33,9.48-.45,14.49C53.79-1.44,55.71.72,58.86.72a13.5,13.5,0,0,0,8.01-2.43,17.373,17.373,0,0,0,5.22-5.34,2.792,2.792,0,0,0,.39-.84.283.283,0,0,0-.3-.3c-.18,0-.36.18-.54.39a17.443,17.443,0,0,1-5.25,4.05,14.727,14.727,0,0,1-6.54,1.83,4.735,4.735,0,0,1-2.88-.69c-.45-.42-.69-1.29-.69-2.85,0-1.89.12-4.62.36-7.77a38.754,38.754,0,0,1,.51-5.28C57.21-18.75,57.36-18.84,57.48-19.02ZM91.17-17.7A13.9,13.9,0,0,0,87-13.32a10.772,10.772,0,0,0-1.17,5.04,7.827,7.827,0,0,0,4.41,6.9A14.426,14.426,0,0,0,96.06.03c1.41,0,1.95-.63,1.95-1.44a1.74,1.74,0,0,0-1.17-1.53,5.577,5.577,0,0,0-2.31-.42,9.393,9.393,0,0,1-4.8-1.56,5.315,5.315,0,0,1-2.19-4.47,8.24,8.24,0,0,1,2.16-5.82,9.814,9.814,0,0,1,6.87-3.24c1.68-.15,2.34-.09,2.97-.15.84-.03,1.11-.48,1.11-1.08,0-.63-.45-.93-.96-1.17a7.308,7.308,0,0,0-2.76-.48,2.138,2.138,0,0,0-1.14.27,9.074,9.074,0,0,1-1.65.57c-2.28.66-5.28,1.47-9.12,2.37a39.434,39.434,0,0,1-5.01.99c-.9.03-1.14-.09-2.19-1.17-.27-.33-.36-.3-.48-.3-.18,0-.3.45-.3.93a3.675,3.675,0,0,0,1.11,2.16c.99,1.11,1.68,1.5,2.28,1.47a1.22,1.22,0,0,0,.87-.33,4.628,4.628,0,0,1,1.14-.69,67.812,67.812,0,0,1,8.73-2.79Zm26.34,9.66h-9.6a9.574,9.574,0,0,1-2.1-.24l.33,1.11a11.687,11.687,0,0,1,1.89-.18h9.48v6.18c0,.33-.15.45-.51.45-1.08,0-2.64-.09-4.29-.21-.15,0-.18.39-.03.42,2.4.6,3.27,1.11,3.42,2.19.12.66.18.78.75.78,1.5,0,2.49-.36,3.03-1.11a3.2,3.2,0,0,0,.54-1.95c0-1.14-.06-1.92-.09-3.57V-7.35h12.18c.3,0,.39-.09.39-.3s-.24-.45-.96-1.05c-1.59-1.23-1.92-1.47-2.19-1.47-.21,0-.57.24-2.1,2.13h-7.32v-.93c.78-.36,1.05-.57,1.05-.87,0-.21,0-.33-.57-.48a29.118,29.118,0,0,0,4.77-2.91c1.14-.03,1.47-.18,1.47-.6,0-.24-.18-.45-.69-.9-1.17-1.05-1.41-1.23-1.71-1.23-.24,0-.48.18-1.71,1.29h-9.96a8.2,8.2,0,0,1-1.95-.24l.33,1.17a6.465,6.465,0,0,1,1.71-.24h9.81a19.147,19.147,0,0,1-3.06,3.45c-.57-.09-1.35-.21-2.4-.39a18.563,18.563,0,0,1,.09,2.25ZM109.62-18.6a10.483,10.483,0,0,0-.33-1.5c-.03-.15-.27-.12-.3.03-.27,1.89-.66,2.49-2.25,3.27a1.456,1.456,0,0,0-.93,1.44,1.5,1.5,0,0,0,1.56,1.59c1.62,0,2.55-1.59,2.34-4.14h19.08a16.912,16.912,0,0,1-.96,3c-.06.15.15.3.27.24a15.844,15.844,0,0,0,2.82-1.86c.21-.21.24-.21.72-.24,1.14-.09,1.29-.18,1.29-.66,0-.24-.18-.48-.78-1.11-1.38-1.38-1.59-1.56-1.89-1.56-.24,0-.48.18-1.71,1.5H123.9a28.8,28.8,0,0,0,4.14-3.51c1.02,0,1.38-.21,1.38-.57,0-.39-.87-.9-3.57-2.13a24.248,24.248,0,0,1-1.08,2.73,37.006,37.006,0,0,1-1.92,3.48Zm11.55-2.52c0-1.65-1.38-2.82-4.53-3.87-.15-.06-.24.15-.15.27a6.946,6.946,0,0,1,1.62,3.33c.3,1.62.51,1.92,1.38,1.92A1.6,1.6,0,0,0,121.17-21.12Zm-6.36.42c0-1.59-1.32-2.7-4.5-3.6a.2.2,0,0,0-.18.3,6.866,6.866,0,0,1,1.62,3.15c.33,1.5.63,1.89,1.44,1.89A1.643,1.643,0,0,0,114.81-20.7Zm38.31,2.13a1.288,1.288,0,0,0-.48,0c-.09.03-.15.06-.15.18s.21.27.33.39a11.228,11.228,0,0,1,1.89,2.64,1.075,1.075,0,0,0,1.02.69,1.008,1.008,0,0,0,.99-1.05,2.248,2.248,0,0,0-1.11-1.8A5.856,5.856,0,0,0,153.12-18.57Zm2.4-1.89a.787.787,0,0,0-.48.03.181.181,0,0,0-.09.18c0,.12.24.27.36.36a7.613,7.613,0,0,1,2.1,2.34,1.148,1.148,0,0,0,1.11.66,1.006,1.006,0,0,0,.93-1.11,1.927,1.927,0,0,0-1.08-1.53A6.162,6.162,0,0,0,155.52-20.46Zm-1.05,9.9c-1.59-.96-2.49-1.56-3.81-2.49-.96-.69-1.71-1.17-2.22-1.56a2.547,2.547,0,0,0-1.62-.57,3.4,3.4,0,0,0-2.28.81c-1.23.81-3.09,2.22-4.14,3-.48.36-1.02.69-1.29.87a1.293,1.293,0,0,1-.72.24c-.36,0-.72-.12-1.41-.81-.12-.12-.18-.18-.3-.18-.18,0-.36.3-.36.72A3.252,3.252,0,0,0,137.4-8.4a3.479,3.479,0,0,0,2.22,1.35,1.06,1.06,0,0,0,1.02-.51c.21-.36.54-.9.93-1.44a26.18,26.18,0,0,1,3.6-3.84c.75-.66.99-.84,1.44-.84.39,0,.84.3,1.56.96,4.11,3.78,7.17,6.27,10.62,8.04a4.606,4.606,0,0,0,2.16.78,1.723,1.723,0,0,0,1.5-.78,1.713,1.713,0,0,0,.27-.96,1.327,1.327,0,0,0-.33-.93,3.743,3.743,0,0,0-1.41-.96A62.052,62.052,0,0,1,154.47-10.56Zm19.77-5.07a9.994,9.994,0,0,0-1.47,1.17,3.811,3.811,0,0,0-1.14,2.49c0,1.5,1.32,2.49,4.29,2.49.51,0,1.65,0,2.43-.06.06,1.29.09,2.73.09,4.14a18.781,18.781,0,0,0-3.21.03,6.938,6.938,0,0,0-2.85.9,2.944,2.944,0,0,0-1.5,2.4A3.1,3.1,0,0,0,172.32.54a6.826,6.826,0,0,0,3.81,1.02c3.45,0,4.83-1.74,4.68-4.47a18.587,18.587,0,0,1,5.4,3.63,1.55,1.55,0,0,0,1.11.48,1.242,1.242,0,0,0,1.14-1.32c0-1.11-.84-1.8-1.8-2.37a22.254,22.254,0,0,0-6.06-2.64c-.09-1.2-.27-3.36-.3-4.65a24.474,24.474,0,0,0,4.86-1.23c.96-.36,1.62-.63,1.62-1.26,0-.69-.51-1.08-1.41-1.08a1.692,1.692,0,0,1-1.11-.27c-.51-.3-1.11-.69-1.65-1.08-.27-.21-.45-.09-.33.18a8.686,8.686,0,0,1,.69,1.14c.24.57.3.78-.12.96a12.8,12.8,0,0,1-2.61.63c-.03-1.59-.03-3.06,0-4.5,1.92-.27,4.35-.51,6.39-.69,1.59-.15,1.98-.33,1.98-1.23,0-.75-1.05-1.53-2.16-1.53a2.276,2.276,0,0,0-1.47.3,6.683,6.683,0,0,1-1.71.54c-.87.18-1.8.36-2.94.54.03-.54.09-.93.15-1.65a1.457,1.457,0,0,1,.57-1.14,1.135,1.135,0,0,0,.42-.84c0-.36-.21-.9-1.29-1.53a4.573,4.573,0,0,0-2.31-.75,1.921,1.921,0,0,0-1.2.51c-.24.24-.36.39-.36.57,0,.15.06.21.18.21a4.716,4.716,0,0,1,.69.12,1.754,1.754,0,0,1,.84.36c.24.24.27.63.27,1.5v2.94a45.675,45.675,0,0,1-6.15.69c-1.83,0-3-.3-3.72-1.08-.12-.12-.15-.18-.27-.18a.29.29,0,0,0-.27.27.884.884,0,0,0,.15.39,4.147,4.147,0,0,0,3.96,2.4C172.74-15.57,173.73-15.6,174.24-15.63Zm1.23.03c1.11-.15,1.83-.27,2.82-.39.03,1.59.03,2.85.03,4.44a29.909,29.909,0,0,1-3,.18c-1.74,0-2.4-.57-2.4-1.32a2.522,2.522,0,0,1,.84-1.65A6.326,6.326,0,0,1,175.47-15.6Zm3,12a3.628,3.628,0,0,1-.48,2.37,3.247,3.247,0,0,1-2.49.84,5.693,5.693,0,0,1-2.58-.39,1.642,1.642,0,0,1-.96-1.35,1.493,1.493,0,0,1,.75-1.23,5.684,5.684,0,0,1,2.31-.57A11.065,11.065,0,0,1,178.47-3.6Zm33.21-14.64c.03-1.14.06-1.68.12-2.37a.986.986,0,0,1,.33-.63,1.266,1.266,0,0,0,.42-.87c0-.42-.33-.81-.87-1.17a4.69,4.69,0,0,0-2.7-.99,2.719,2.719,0,0,0-1.59.69c-.27.21-.48.42-.48.63,0,.15.15.21.33.24.3.03.54.06,1.14.12.54.06.69.24.81.51a2.811,2.811,0,0,1,.12,1.05c.03,1.17.06,2.1.06,3.06-2.43.3-5.4.72-7.95,1.14a17.363,17.363,0,0,1-2.13.27,3.773,3.773,0,0,1-2.64-1.11.415.415,0,0,0-.27-.15.316.316,0,0,0-.3.24,1.052,1.052,0,0,0-.09.48,3.939,3.939,0,0,0,1.44,2.25,2.828,2.828,0,0,0,1.92.93,1.632,1.632,0,0,0,.99-.33,5.454,5.454,0,0,1,1.77-.78,65.723,65.723,0,0,1,7.26-1.32c.03,1.05.06,2.16.03,3.33a7.065,7.065,0,0,0-1.53-.18,4.322,4.322,0,0,0-2.49.93,3.7,3.7,0,0,0-1.26,2.91,3.807,3.807,0,0,0,1.29,2.91,3.488,3.488,0,0,0,2.16.81A3.8,3.8,0,0,0,209.34-6c-.96,3.03-3.57,5.46-7.8,6.96-.24.09-.36.18-.36.42,0,.18.21.3.42.3a9.054,9.054,0,0,0,1.68-.3,13.1,13.1,0,0,0,5.37-2.52,8.986,8.986,0,0,0,3.6-7.05,8.568,8.568,0,0,0-.75-3.6c0-1.71.06-3.27.09-4.8,1.95-.15,3.3-.18,5.22-.18a14.11,14.11,0,0,1,3.36.51,5.312,5.312,0,0,0,1.47.15.9.9,0,0,0,.96-.9,1.733,1.733,0,0,0-.87-1.41,6.182,6.182,0,0,0-3-.84,2.246,2.246,0,0,0-.99.3,4.773,4.773,0,0,1-1.35.3C215.07-18.51,213.63-18.39,211.68-18.24Zm-3.84,6a1.826,1.826,0,0,1,1.44.66,2.576,2.576,0,0,1,.45,1.59,2.291,2.291,0,0,1-.54,1.74,1.961,1.961,0,0,1-1.35.51,2,2,0,0,1-1.59-.66,2.246,2.246,0,0,1-.54-1.62,2.331,2.331,0,0,1,.63-1.65A2.053,2.053,0,0,1,207.84-12.24Z" transform="translate(916 6416)" fill="#92785f"/>
    <text id="人" transform="translate(895 6096)" fill="#fff" font-size="32" font-family="Kan412TyposStd-Regular, Kan412Typos Std"><tspan x="-16" y="0">人</tspan></text>
  </g>
</svg>
