<svg id="レイヤー_1" data-name="レイヤー 1" xmlns="http://www.w3.org/2000/svg" viewBox="0 0 400 400"><defs><style>.cls-1{fill:#ad6165;}.cls-1,.cls-2,.cls-5{fill-opacity:0.7;}.cls-2{fill:#cc6d73;}.cls-3{fill:#f97f87;}.cls-4{fill:#f99fa3;}.cls-5{fill:#f8c7c9;}.cls-6{fill:#fafafa;}.cls-7{fill:#fff;}.cls-8{fill:#333;}.cls-9{fill:none;stroke:#ff878a;stroke-miterlimit:10;}.cls-10{fill:#ff878a;}.cls-11{fill:#49240d;}</style></defs><path class="cls-1" d="M237.09,187.35,154.53,73.72c25.1-18.24,51.53-26.83,82.56-26.83Z"/><path class="cls-2" d="M237.09,187.35H96.63c0-46.54,20.24-86.27,57.9-113.63Z"/><path class="cls-3" d="M237.09,187.35,319.65,301a140.46,140.46,0,0,1-196.2-31.07c-18.23-25.1-26.82-51.53-26.82-82.56Z"/><path class="cls-4" d="M237.09,187.35,319.65,73.72a140.46,140.46,0,0,1,31.07,196.19A133.58,133.58,0,0,1,319.65,301Z"/><path class="cls-5" d="M237.09,187.35V46.89c31,0,57.45,8.59,82.56,26.83Z"/><path class="cls-6" d="M128,121.21a8.87,8.87,0,0,1,4.06-.87c3.74,0,6.18,2.09,6.16,5.18,0,3.66-2.48,5.83-6.54,5.8a10.51,10.51,0,0,1-5.94-1.74l1.21-1.5a6.35,6.35,0,0,0,4.54,2.14c2.61,0,4.29-1.78,4.31-4.61a4,4,0,0,0-4.17-4.15,5.71,5.71,0,0,0-3.84,1.24h-1.14l.73-9,10.45.09-.37,2-9-.07Z"/><path class="cls-6" d="M148.77,131.46c-4.06,0-6.5-3.5-6.46-9.08s2.57-8.79,6.61-8.76,6.5,3.43,6.45,8.87S152.8,131.49,148.77,131.46Zm.14-16.79c-2.52,0-4.15,3-4.19,7.73s1.54,7.92,4.06,7.94,4.14-3,4.18-7.87S151.43,114.7,148.91,114.67Z"/><path class="cls-6" d="M163,131.22a5,5,0,0,0,.09,1.13l-1.72,0,0-.08,0-.34a4.79,4.79,0,0,0,.05-.7l.07-8.1a16.75,16.75,0,0,1-2,2.29l-.41.47-.68-.6.45-.37a23.07,23.07,0,0,0,4.07-7.62l.18-.79,1.69.6-.39.76a29.75,29.75,0,0,1-1.37,2.89Zm10.39-9.73.91-.15.11,1-.89,0-4.21.42a17.22,17.22,0,0,0,.61,2.56,11.29,11.29,0,0,0,2.74,4.73c.35.36.42.41.47.41s.33-.83.43-2.28v-.94l.93.23-.09.8v.43c0,.89,0,1.13-.07,2-.13,1.11-.46,1.62-1.07,1.62s-1.28-.51-2.22-1.61a15.17,15.17,0,0,1-3.24-7.8l-3.38.35-.87.15-.13-1,.9,0,3.35-.33,0-.45a39.54,39.54,0,0,1-.21-4l-.07-.9H169l-.06.85a39.73,39.73,0,0,0,.26,4.35ZM171,117.87c.49.4.78.62,1.49,1.22l.36.3.61.4L172.18,121l-.35-.6a23.43,23.43,0,0,0-1.44-1.85l-.49-.42.66-.64Z"/><path class="cls-7" d="M132.86,171.62V145.57l-6.17,5.7-2.18-4.39a26,26,0,0,0,9.15-4.43h4.72v29.17Z"/><path class="cls-7" d="M151.44,155.77A12.64,12.64,0,0,1,158,154c6.64,0,10.81,3.23,10.81,8.42,0,6.06-4.24,9.62-11.5,9.62a18.23,18.23,0,0,1-9.72-2.61l2.5-3.23c2.25,2.68,4.54,4,7,4,3.55,0,6-3,6-7.41,0-4.06-2.39-6.82-6-6.82a7.87,7.87,0,0,0-5.55,2h-2.4l1.09-15.49H168l-.9,4.79H152Z"/><path class="cls-7" d="M193.69,153.47l-18.32,18.31-.91-.91,18.32-18.31Zm-19,3.63a4.32,4.32,0,1,1,4.31,4.55A4.25,4.25,0,0,1,174.65,157.1Zm5.69,0c0-2.65-.37-3.68-1.38-3.68s-1.37,1-1.37,3.68.37,3.69,1.37,3.69S180.34,159.76,180.34,157.1Zm4.53,10.13a4.32,4.32,0,1,1,4.31,4.55A4.25,4.25,0,0,1,184.87,167.23Zm5.69,0c0-2.66-.37-3.69-1.38-3.69s-1.37,1-1.37,3.69.37,3.69,1.37,3.69S190.56,169.89,190.56,167.23Z"/><path class="cls-6" d="M180.62,231.11a122.69,122.69,0,0,0,9.4-12.39l2.14,0-.1,12.35,3.05,0v1.14l-3,0,0,4.56-2.14,0,0-4.55-9.29-.08Zm9.38-10a114.28,114.28,0,0,1-7.58,9.93l7.49.06Z"/><path class="cls-6" d="M204.77,236.46c-4.06,0-6.5-3.5-6.46-9.08s2.57-8.79,6.61-8.76,6.5,3.43,6.45,8.87S208.8,236.49,204.77,236.46Zm.14-16.79c-2.52,0-4.15,3-4.19,7.73s1.54,7.92,4.06,7.94,4.14-3,4.18-7.88S207.43,219.7,204.91,219.67Z"/><path class="cls-6" d="M219,236.22a5,5,0,0,0,.09,1.13l-1.72,0,0-.08,0-.34a3.65,3.65,0,0,0,.06-.7l.07-8.1a16.75,16.75,0,0,1-2,2.29l-.41.47-.68-.6.45-.37a23.07,23.07,0,0,0,4.07-7.62l.18-.79,1.69.6-.39.76a29.75,29.75,0,0,1-1.37,2.89Zm10.39-9.73.91-.15.11,1-.89,0-4.21.42a17.22,17.22,0,0,0,.61,2.56,11.29,11.29,0,0,0,2.74,4.73c.35.36.42.41.47.41s.33-.83.43-2.28v-.93l.93.22-.09.8v.43c0,.89,0,1.13-.07,2-.13,1.11-.46,1.62-1.07,1.62s-1.28-.51-2.22-1.61a15.17,15.17,0,0,1-3.24-7.8l-3.38.35-.87.15-.13-1,.9-.05,3.35-.33,0-.44a39.54,39.54,0,0,1-.21-4l-.07-.9H225l-.06.85a39.73,39.73,0,0,0,.26,4.35ZM227,222.87c.49.4.78.62,1.49,1.22l.36.3.61.4L228.18,226l-.35-.6a23.43,23.43,0,0,0-1.44-1.85l-.49-.42.66-.64Z"/><path class="cls-7" d="M180.08,249.88a16.27,16.27,0,0,1,9.54-2.79c6.24,0,10,2.5,10,6.6,0,3.67-2.17,5.95-6.75,7.08,2.83.58,4.32,1.23,5.63,2.47a6.92,6.92,0,0,1,2.07,5.26c0,5.26-4.21,8.49-11.07,8.49a18.28,18.28,0,0,1-10.49-2.72l2.8-3.27c2,2.61,4.57,4.06,7.18,4.06,3.56,0,5.88-2.61,5.88-6.64,0-4.24-2.61-6.53-7.4-6.53a19.35,19.35,0,0,0-3.38.37v-2.44a19,19,0,0,0,3.05.26c4.54,0,7-2.25,7-6.32,0-2.9-2-4.82-5.12-4.82-2.57,0-5,1.56-6.78,4.32Z"/><path class="cls-7" d="M210.7,260.77a12.59,12.59,0,0,1,6.61-1.82c6.64,0,10.81,3.23,10.81,8.42,0,6.06-4.25,9.62-11.5,9.62a18.26,18.26,0,0,1-9.73-2.61l2.51-3.23c2.25,2.68,4.53,4,7,4,3.56,0,6-3.05,6-7.41,0-4.06-2.4-6.82-5.95-6.82a7.86,7.86,0,0,0-5.56,2h-2.39l1.09-15.5h17.67l-.91,4.79H211.28Z"/><path class="cls-7" d="M253,258.46l-18.31,18.32-.91-.91L252,257.55Zm-19,3.65a4.33,4.33,0,1,1,4.32,4.54A4.27,4.27,0,0,1,233.91,262.11Zm5.7,0c0-2.66-.38-3.69-1.38-3.69s-1.38,1-1.38,3.69.38,3.68,1.38,3.68S239.61,264.76,239.61,262.11Zm4.52,10.12a4.32,4.32,0,1,1,4.32,4.55A4.26,4.26,0,0,1,244.13,272.23Zm5.7,0c0-2.66-.38-3.69-1.38-3.69s-1.38,1-1.38,3.69.38,3.69,1.38,3.69S249.83,274.89,249.83,272.23Z"/><path class="cls-6" d="M286.38,153.17a9.69,9.69,0,0,1,5.73-1.69c3.38,0,5.38,1.54,5.36,4a4.21,4.21,0,0,1-3.8,4.13c3,.58,4.47,2.1,4.45,4.64,0,3.22-2.34,5.11-6.26,5.08a10.48,10.48,0,0,1-6.19-1.8L287,166a6.76,6.76,0,0,0,4.71,2.19,3.79,3.79,0,0,0,4.09-4c0-2.52-1.7-3.91-4.88-3.94a16,16,0,0,0-2.26.18l0-1.44a11.64,11.64,0,0,0,1.92.17c2.94,0,4.61-1.33,4.63-3.74,0-1.7-1.31-2.88-3.32-2.89a5.77,5.77,0,0,0-4.29,2.22Z"/><path class="cls-6" d="M308.55,169.46c-4.05,0-6.5-3.5-6.46-9.08s2.58-8.79,6.61-8.76,6.5,3.43,6.45,8.86C315.11,166.07,312.58,169.49,308.55,169.46Zm.14-16.79c-2.52,0-4.15,3-4.19,7.73s1.54,7.92,4.06,7.94,4.14-3,4.18-7.88S311.21,152.69,308.69,152.67Z"/><path class="cls-6" d="M322.74,169.22a4.84,4.84,0,0,0,.09,1.12h-1.72l0-.08,0-.35a4.54,4.54,0,0,0,.05-.69l.07-8.1a16.66,16.66,0,0,1-2,2.28l-.41.48-.67-.6.44-.37a23.07,23.07,0,0,0,4.07-7.62l.18-.79,1.7.6-.4.76a28.57,28.57,0,0,1-1.37,2.89Zm10.39-9.73.91-.15.11,1-.89,0-4.21.43a17.22,17.22,0,0,0,.61,2.56,11.29,11.29,0,0,0,2.74,4.73c.35.36.42.41.47.41s.33-.83.43-2.28v-.94l.93.23-.09.8v.43c0,.88,0,1.12-.07,2-.13,1.11-.46,1.62-1.07,1.61s-1.28-.5-2.22-1.6a15.17,15.17,0,0,1-3.24-7.8l-3.38.35-.87.14-.13-1,.91-.05,3.34-.33-.05-.44a39.88,39.88,0,0,1-.2-4l-.08-.9h1.65l-.06.86a40.05,40.05,0,0,0,.26,4.35Zm-2.34-3.62c.5.4.78.62,1.49,1.22l.36.3.61.39L332,159l-.35-.6c-.46-.65-.68-.94-1.43-1.85l-.5-.42.66-.64Z"/><path class="cls-8" d="M250.31,91.78c2.39-2.17,3.25-3.65,3.27-5.62a3.33,3.33,0,0,0-3.35-3.6c-1.75,0-3.33,1-4.45,3l-1.45-1.63a8.22,8.22,0,0,1,6.13-2.4c3.44,0,5.6,1.8,5.57,4.6a6.32,6.32,0,0,1-2.09,4.56c-.11.11-.82.72-2.15,1.85L246.59,97l9.68.08-.5,2.12-11.72-.1v-1.6Z"/><path class="cls-8" d="M266.55,99.46c-4.05,0-6.5-3.5-6.46-9.08s2.58-8.79,6.61-8.76,6.5,3.43,6.45,8.86C273.11,96.07,270.58,99.49,266.55,99.46Zm.14-16.79c-2.52,0-4.15,3-4.19,7.73s1.54,7.92,4.06,7.94,4.14-3,4.18-7.88S269.21,82.69,266.69,82.67Z"/><path class="cls-8" d="M280.74,99.22a4.84,4.84,0,0,0,.09,1.12h-1.72l0-.08,0-.35a4.54,4.54,0,0,0,.05-.69l.07-8.1a16.66,16.66,0,0,1-2,2.28l-.41.48-.67-.6.44-.37a23.07,23.07,0,0,0,4.07-7.62l.18-.79,1.7.6-.4.76a28.57,28.57,0,0,1-1.37,2.89Zm10.39-9.73.91-.15.11,1-.89,0-4.21.43a17.22,17.22,0,0,0,.61,2.56,11.29,11.29,0,0,0,2.74,4.73c.35.36.42.41.47.41s.33-.83.43-2.28v-.94l.93.23-.09.8v.43c0,.88,0,1.12-.07,2-.13,1.11-.46,1.62-1.07,1.61s-1.28-.5-2.22-1.6a15.17,15.17,0,0,1-3.24-7.8l-3.38.35-.87.14-.13-1,.91-.05,3.34-.33-.05-.44a39.88,39.88,0,0,1-.2-4l-.08-.9h1.65l-.06.86a40.05,40.05,0,0,0,.26,4.35Zm-2.34-3.62c.5.4.78.62,1.49,1.22l.36.3.61.39L290,89l-.35-.6c-.46-.65-.68-.94-1.43-1.85l-.5-.42.66-.64Z"/><path class="cls-7" d="M192.42,65.77h-.27A7.72,7.72,0,0,0,185.86,69a9,9,0,0,0-1.38,3.32,5,5,0,0,1,4.15-1.78c3.55,0,5.75,2.24,5.72,5.74,0,3.75-2.44,6.07-6.25,6-4,0-6.27-2.72-6.23-7.33a10.26,10.26,0,0,1,2.84-7.44c1.75-1.79,3.88-2.73,7.28-3.27Zm-8.23,9.59c0,3.53,1.53,5.85,3.91,5.87s3.94-2,4-5c0-2.69-1.5-4.5-3.8-4.52a4.16,4.16,0,0,0-3,1.27,5.36,5.36,0,0,0-1,1.5A5.53,5.53,0,0,0,184.19,75.36Z"/><path class="cls-7" d="M204.33,82.46c-4.05,0-6.5-3.5-6.46-9.09,0-5.43,2.58-8.78,6.61-8.75s6.5,3.43,6.45,8.86C210.89,79.07,208.36,82.49,204.33,82.46Zm.14-16.79c-2.52,0-4.15,3-4.19,7.72s1.54,7.93,4.06,8,4.14-3,4.18-7.88S207,65.69,204.47,65.67Z"/><path class="cls-7" d="M218.52,82.22a4.84,4.84,0,0,0,.09,1.12h-1.72l0-.09,0-.34a4.58,4.58,0,0,0,.05-.7l.07-8.09a16.66,16.66,0,0,1-2,2.28l-.41.48-.68-.61.45-.37a22.8,22.8,0,0,0,4.07-7.62l.18-.78,1.7.59-.4.77a27.4,27.4,0,0,1-1.37,2.88Zm10.39-9.74.91-.14.11,1-.89,0-4.21.43a17.22,17.22,0,0,0,.61,2.56,11.35,11.35,0,0,0,2.74,4.73c.35.36.42.41.47.41s.33-.83.43-2.28v-.94l.93.23-.09.8v.43c0,.88,0,1.12-.07,2-.13,1.11-.46,1.62-1.07,1.61s-1.27-.5-2.22-1.6a15.33,15.33,0,0,1-3.24-7.8l-3.38.35-.87.14-.13-1,.91-.05,3.34-.33,0-.44a39.88,39.88,0,0,1-.2-4l-.08-.9h1.65l-.06.85a39.73,39.73,0,0,0,.26,4.35Zm-2.34-3.61c.49.4.78.62,1.49,1.22l.36.29.61.4L227.74,72l-.35-.6c-.46-.65-.68-.95-1.43-1.86l-.5-.41.66-.64Z"/><path class="cls-7" d="M182.54,90.07a5.5,5.5,0,0,0-.11-1.13l1.76,0a7.05,7.05,0,0,0-.12,1.12L184,99.64c.89-.47,1.87-1.06,3.07-1.83l.58-.46.54.74-.61.42a47.51,47.51,0,0,1-5.33,3.62l-.69.42-.7.48L180,101.4l.78-.25c.59-.23,1.2-.5,1.66-.72Zm12,12.93a37.12,37.12,0,0,0-2.39-3.89,11.72,11.72,0,0,1-5.69,4.3l-.6.34-.49-.84.75-.25a10.09,10.09,0,0,0,5.35-5.6,18.64,18.64,0,0,0,.68-6V90c0-.24,0-.44,0-.65l0-.32V88.9l1.79,0a6.73,6.73,0,0,0-.11,1.12V91c0,3.6-.36,5.76-1.14,7.35l.14.12a42.84,42.84,0,0,1,3.12,3.54l.53.62-1.5,1.23Zm-7.84-12.18c1,.88,1.89,1.62,2.79,2.51l.64.59-1.39,1.26-.4-.73a19.21,19.21,0,0,0-2.28-3l-.55-.55.65-.62Z"/><path class="cls-7" d="M204,90.18c0-.24,0-.45,0-.65l-.05-.32,0-.16,1.84,0a6.47,6.47,0,0,0-.11,1.12l0,4.26,4.79,0a6.52,6.52,0,0,0,1.12-.07v1l-.17,0a4.94,4.94,0,0,0-.95-.08l-4.79,0-.06,7,6.14,0a7.84,7.84,0,0,0,1.12-.08v1l-.18,0-.24,0a6.32,6.32,0,0,0-.7,0l-13-.11a7,7,0,0,0-1.14.07v-1a6.5,6.5,0,0,0,1.14.1l5.27,0Z"/><path class="cls-7" d="M284.08,182.88a16.27,16.27,0,0,1,9.54-2.79c6.24,0,10.05,2.5,10.05,6.6,0,3.67-2.17,5.95-6.75,7.08,2.83.58,4.32,1.23,5.63,2.47a6.92,6.92,0,0,1,2.07,5.26c0,5.26-4.21,8.49-11.07,8.49a18.28,18.28,0,0,1-10.49-2.72l2.8-3.27c2,2.61,4.57,4.06,7.18,4.06,3.56,0,5.88-2.61,5.88-6.64,0-4.24-2.61-6.53-7.4-6.53a19.35,19.35,0,0,0-3.38.37v-2.44a19,19,0,0,0,3.05.26c4.54,0,7-2.25,7-6.32,0-2.9-2-4.82-5.12-4.82-2.57,0-5,1.56-6.78,4.32Z"/><path class="cls-7" d="M321.89,210c-7.3,0-11.61-5.63-11.61-15.13,0-9.07,4.5-14.77,11.61-14.77s11.61,5.7,11.61,14.77C333.5,204.4,329.22,210,321.89,210Zm0-28.09c-3.63,0-5.74,4.79-5.74,13,0,8.46,2.07,13.25,5.74,13.25s5.73-4.76,5.73-13.25C327.62,186.73,325.48,181.9,321.89,181.9Z"/><path class="cls-7" d="M357,191.47l-18.31,18.31-.91-.91L356,190.56Zm-19,3.63a4.33,4.33,0,1,1,4.32,4.55A4.26,4.26,0,0,1,337.91,195.1Zm5.7,0c0-2.65-.38-3.68-1.38-3.68s-1.38,1-1.38,3.68.38,3.69,1.38,3.69S343.61,197.76,343.61,195.1Zm4.52,10.13a4.32,4.32,0,1,1,4.32,4.55A4.26,4.26,0,0,1,348.13,205.23Zm5.7,0c0-2.66-.38-3.69-1.38-3.69s-1.38,1-1.38,3.69.38,3.69,1.38,3.69S353.83,207.89,353.83,205.23Z"/><line class="cls-9" x1="336" y1="33.5" x2="301" y2="33.5"/><line class="cls-9" x1="279.5" y1="60" x2="301.5" y2="33"/><line class="cls-9" x1="148.5" y1="33.5" x2="183.5" y2="33.5"/><line class="cls-9" x1="205" y1="60" x2="183" y2="33"/><path class="cls-10" d="M344.74,42.57V25.44l-3.92,3-1.12-2.07a15.73,15.73,0,0,0,3.74-1.63l.14-.07a17.88,17.88,0,0,0,1.73-1.15h1.92V42.57Z"/><path class="cls-10" d="M359.33,42.81c-4.44,0-7.15-3.76-7.15-9.88,0-6,2.73-9.65,7.15-9.65s7.15,3.69,7.15,9.65C366.48,39.05,363.75,42.81,359.33,42.81Zm0-18.38c-2.76,0-4.51,3.29-4.51,8.5s1.75,8.66,4.51,8.66,4.51-3.36,4.51-8.66S362.09,24.43,359.33,24.43Z"/><path class="cls-10" d="M380.93,30.77l-10.8,10.81-.55-.5,10.8-10.82Zm-11.29,2.16a2.53,2.53,0,1,1,5,0,2.53,2.53,0,1,1-5,0Zm3.86,0c0-1.25-.5-2-1.34-2s-1.34.76-1.34,2,.5,2,1.34,2S373.5,34.17,373.5,32.93Zm2.33,6a2.53,2.53,0,1,1,2.52,2.7A2.51,2.51,0,0,1,375.83,38.92Zm3.87,0c0-1.25-.51-2-1.35-2s-1.34.74-1.34,2,.5,2,1.34,2S379.7,40.17,379.7,38.92Z"/><path class="cls-10" d="M104.74,42.57V25.44l-3.92,3L99.7,26.37a15.73,15.73,0,0,0,3.74-1.63l.14-.07a17.88,17.88,0,0,0,1.73-1.15h1.92V42.57Z"/><path class="cls-10" d="M119.33,42.81c-4.44,0-7.15-3.76-7.15-9.88,0-6,2.73-9.65,7.15-9.65s7.15,3.69,7.15,9.65C126.48,39.05,123.75,42.81,119.33,42.81Zm0-18.38c-2.76,0-4.51,3.29-4.51,8.5s1.75,8.66,4.51,8.66,4.51-3.36,4.51-8.66S122.09,24.43,119.33,24.43Z"/><path class="cls-10" d="M140.93,30.77l-10.8,10.81-.55-.5,10.8-10.82Zm-11.29,2.16a2.53,2.53,0,1,1,5,0,2.53,2.53,0,1,1-5,0Zm3.86,0c0-1.25-.5-2-1.34-2s-1.34.76-1.34,2,.5,2,1.34,2S133.5,34.17,133.5,32.93Zm2.33,6a2.53,2.53,0,1,1,2.52,2.7A2.51,2.51,0,0,1,135.83,38.92Zm3.87,0c0-1.25-.51-2-1.35-2s-1.34.74-1.34,2,.5,2,1.34,2S139.7,40.17,139.7,38.92Z"/><path class="cls-11" d="M29.66,320.64h9.09a12.37,12.37,0,0,0,1.89-.14v1.72l-.31,0-.4-.06c-.31,0-.7-.05-1.18-.05H29.66v6.86a12,12,0,0,0,.17,1.86H26.16l0-.14,0-.57a6.63,6.63,0,0,0,.09-1.15v-6.86H17.41a11.47,11.47,0,0,0-1.9.14V320.5a13.13,13.13,0,0,0,1.9.14h8.92V316H18.85a12.57,12.57,0,0,0-1.87.14v-1.72a12.76,12.76,0,0,0,1.87.14h7.48v-8.1c0-.37,0-.71-.06-1.05l-.08-.56,0-.26h3.67a11.8,11.8,0,0,0-.17,1.87v8.1h7.68a11.75,11.75,0,0,0,1.86-.14v1.72l-.31,0-.4-.06c-.31,0-.67-.05-1.15-.05H29.66Zm-10-13.72.6.7c1.07,1.22,2,2.29,3,3.56l1,1.07-3.28,2L20.65,313a46.8,46.8,0,0,0-2.26-5.22l-.67-.93L19.1,306Zm19.23.65-1,1.1a44.82,44.82,0,0,1-4.18,4.71l-.76.91-1.33-1,.79-1a25.9,25.9,0,0,0,2.63-5.25l.42-1.36Z"/><path class="cls-11" d="M45.18,311.83a12.57,12.57,0,0,0-1.87.14v-1.72a12.85,12.85,0,0,0,1.87.14h3.89v-3.92c0-.37,0-.71,0-1.05l-.09-.56,0-.26h3.25a11.8,11.8,0,0,0-.17,1.87v3.92h3.13a11.79,11.79,0,0,0,1.87-.14V312a12.21,12.21,0,0,0-1.87-.14H52v.62l.45.17c1.16.48,2,.85,3.28,1.47l1,.39-1.66,2.6-.62-.73c-.85-.85-1.47-1.42-2.46-2.26v1.72a10.87,10.87,0,0,0,.17,1.83H48.9l0-.14L49,317a7.53,7.53,0,0,0,.08-1.16v-1.69a21.27,21.27,0,0,1-4.6,3.55l-.79.51-.87-1.07.84-.51a15.38,15.38,0,0,0,4.12-4.77Zm10.24,9.74a11.76,11.76,0,0,1-2.37,4.77c1.1.45,1.19.51,1.84.79l1.33.51-1.95,2.71-.93-.88A24.5,24.5,0,0,0,51.28,328a17.3,17.3,0,0,1-6.3,2.71l-1,.37-.63-1.44,1.16-.2a14.05,14.05,0,0,0,4.83-2.56c-1-.54-1.44-.77-2.51-1.25l-2.4-.34c.84-1.35,1.47-2.51,2.09-3.72H45a12.3,12.3,0,0,0-1.87.14V320a12.3,12.3,0,0,0,1.87.14h2.09l.39-1,.31-1.18,3.05.59-.54,1a3.44,3.44,0,0,0-.14.37,1.38,1.38,0,0,0-.08.2h5.45a11.56,11.56,0,0,0,1.77-.14v1.72l-.17,0-.45-.06c-.36,0-.67-.05-1.15-.05Zm-9.88-15.84a23.41,23.41,0,0,1,2.26,2.35l.79.67-2.82,1.58-.2-.82a22.07,22.07,0,0,0-1.21-3l-.48-.62,1.21-.76Zm3.93,15.84c-.51,1-1,2-1.64,3,1.27.37,1.64.48,2.8.88a12.42,12.42,0,0,0,1.83-3.87Zm8-15.19-.85.79a17.35,17.35,0,0,1-2.37,2.46l-.62.67-1.13-.84.59-.68a15,15,0,0,0,1.22-2.88l.25-1Zm9.82,5c-.25,5.42-1.1,9.06-3,12.31a19.4,19.4,0,0,0,4.54,3.78l1.27.56L68,330.88,67,330A21.59,21.59,0,0,1,62.76,326a20.88,20.88,0,0,1-5.5,4.38l-1,.73-.9-1.24,1-.54a21.27,21.27,0,0,0,5-5.5,22.7,22.7,0,0,1-2.2-8.61l0-.26a30.56,30.56,0,0,1-1.63,3l-.51,1-1.24-.65.56-.88a42.17,42.17,0,0,0,2.54-11.49l0-1.32,3.47.53L62,306.41c-.29,1.33-.48,2.17-.88,3.53h6.52a9.29,9.29,0,0,0,1.86-.17v1.75l-.28,0a10.22,10.22,0,0,0-1.58-.11Zm-6.69,0-.06.2-.05.16c-.09.23-.14.37-.26.63a22.33,22.33,0,0,0,2.43,9,32.65,32.65,0,0,0,1.75-10Z"/><path class="cls-11" d="M74.84,307.76c0-.36,0-.7-.06-1l-.08-.56,0-.26H78.2a12,12,0,0,0-.17,1.86V323a56.65,56.65,0,0,0,5-2.8l.93-.7.82,1.21-.93.68A80.4,80.4,0,0,1,74,328.48l-1.13.82-1.75-3.47,1.32-.37c1-.36,1.56-.59,2.43-1ZM94.57,329a65.82,65.82,0,0,0-3.27-6.21c-2.15,3.19-5.17,5.45-9.71,7.26l-1,.48-.82-1.36,1.19-.39a17.4,17.4,0,0,0,8.3-8.64c1-2.51,1.46-5.65,1.46-10.87v-1.66c0-.4,0-.74,0-1.08l-.09-.53,0-.26h3.65a10.84,10.84,0,0,0-.17,1.87v1.55c0,5.93-.54,9.34-2,12.22a61,61,0,0,1,5.28,5.45l.9.93-3.16,2.68ZM82,308.78a58.56,58.56,0,0,1,4.75,3.92l1.18,1L85,316.32l-.62-1.3a34.49,34.49,0,0,0-3.53-5.14L80,309l1.07-1.05Z"/><path class="cls-11" d="M110.38,307.59c0-.39,0-.73-.06-1.07l-.09-.53,0-.26H114a11.51,11.51,0,0,0-.17,1.86v7.17h7.54a10.61,10.61,0,0,0,1.86-.14v1.73l-.28,0a9.12,9.12,0,0,0-1.58-.11h-7.54v11.4h9.77a11.67,11.67,0,0,0,1.86-.14v1.72l-.31,0-.39-.05a11.48,11.48,0,0,0-1.16-.06H102a12.64,12.64,0,0,0-1.89.14v-1.72a13.1,13.1,0,0,0,1.89.14h8.42Z"/><path class="cls-11" d="M128.34,315.34a5.33,5.33,0,0,0,1.32.13h4.16a34.48,34.48,0,0,0,1.39-5.4l2.67.72a6,6,0,0,0-.51,1.37c-.35,1.25-.63,2.22-1,3.31h2.69c2.94,0,4.2,1.33,4.2,4.44a19.36,19.36,0,0,1-2,8.33,3,3,0,0,1-2.74,1.86c-1,0-2.18-.7-3.53-2.12a3.08,3.08,0,0,0-.88-.62l1-1.09a4.37,4.37,0,0,0,2.67,2c.48,0,.86-.35,1.27-1.16a18.63,18.63,0,0,0,1.79-7.4c0-2.14-.67-3-2.39-3H136a97.36,97.36,0,0,1-4.39,11.51,10,10,0,0,0-.48,1.27l-2.46-1.16c.58-.41,3.18-6.77,4.73-11.62h-3.74a7.78,7.78,0,0,0-1.32.13Zm18.57,7.84a7.17,7.17,0,0,0-.23-1.46,20.34,20.34,0,0,0-3.32-7.66,3.22,3.22,0,0,0-.77-.74l1.21-1a3.73,3.73,0,0,0,.65.83,21.53,21.53,0,0,1,4.87,8.5l.1.28,0,.18Zm-.16-14.46v3.65h-1.47v-3.65Zm2.62,0v3.65h-1.46v-3.65Z"/><path class="cls-11" d="M16.9,347.9A13.67,13.67,0,0,1,25,345.49c5,0,8.05,2.13,8.05,5.6,0,3.06-2,5.16-5.54,5.94a8.11,8.11,0,0,1,4.67,2.07A5.79,5.79,0,0,1,34,363.56c0,4.51-3.4,7.24-9.06,7.24a15.3,15.3,0,0,1-8.85-2.38l2.1-2.48a8.73,8.73,0,0,0,6.41,3.25c3.28,0,5.38-2.23,5.38-5.66,0-3.59-2.32-5.51-6.62-5.51a15.37,15.37,0,0,0-3,.28v-2.05a16.94,16.94,0,0,0,2.66.22c4,0,6.25-2,6.25-5.35,0-2.48-1.8-4.09-4.55-4.09a7.56,7.56,0,0,0-5.91,3.44Z"/><path class="cls-11" d="M48.31,370.8c-6,0-9.53-4.8-9.53-12.81,0-7.68,3.68-12.5,9.53-12.5s9.53,4.82,9.53,12.5C57.84,366,54.25,370.8,48.31,370.8Zm0-23.8C45,347,43,351.18,43,358c0,7,2,11.2,5.35,11.2S53.66,365,53.66,358C53.66,351.21,51.62,347,48.31,347Z"/><path class="cls-11" d="M66.55,369.7a7.18,7.18,0,0,0,.14,1.53H63.86A8.62,8.62,0,0,0,64,369.7V359.4a27.08,27.08,0,0,1-2.53,2.69l-.56.6L60,361.9l.56-.51A34.1,34.1,0,0,0,66,350.71l.23-1.13,2.92,1-.6,1.09a31.31,31.31,0,0,1-2,4Zm13.88-13.3,1.23-.21.14,1.37-1.21.05-5.45.63a18.89,18.89,0,0,0,2.6,7.21,9.53,9.53,0,0,0,2.36,2.69c.26,0,.49-1.11.59-3l0-1.27,1.3.35-.09,1.06v.93l0,1.26c0,2.48-.56,3.71-1.79,3.71s-3.11-1.7-4.68-4.27a22.27,22.27,0,0,1-2.9-8.33l-3.88.44-1.21.21-.18-1.37,1.23-.07,3.85-.44a60.06,60.06,0,0,1-.44-6L71.75,350l2.74-.07,0,1.16a53.31,53.31,0,0,0,.47,5.9Zm-3.32-5c1.42,1,2,1.42,2.76,2l.86.51-2.18,2-.44-.88a28.78,28.78,0,0,0-1.88-2.78l-.58-.56.86-.84Z"/><path class="cls-11" d="M88,363.53a166.38,166.38,0,0,0,12.75-17.74h3.71v17.58h4.21V365h-4.21v6.44h-3.71V365H88Zm12.75-14.21a135.07,135.07,0,0,1-10.21,14.05h10.21Z"/><path class="cls-11" d="M121.49,370.8c-6,0-9.53-4.8-9.53-12.81,0-7.68,3.68-12.5,9.53-12.5S131,350.31,131,358C131,366,127.43,370.8,121.49,370.8Zm0-23.8c-3.31,0-5.35,4.18-5.35,11,0,7,2,11.2,5.35,11.2s5.36-4.18,5.36-11.2C126.85,351.21,124.8,347,121.49,347Z"/><path class="cls-11" d="M140.66,373.41a7.9,7.9,0,0,0,.14,1.53H138a7.71,7.71,0,0,0,.14-1.53v-10.3a26,26,0,0,1-2.53,2.69l-.56.6-.88-.78.56-.52a34,34,0,0,0,5.36-10.67l.23-1.14,2.92,1-.6,1.09a30,30,0,0,1-2,4Zm13.88-13.3,1.23-.2.14,1.36-1.21.05-5.45.63a19.11,19.11,0,0,0,2.6,7.22,9.35,9.35,0,0,0,2.37,2.69c.25,0,.48-1.12.58-3l0-1.28,1.3.35L156,369v.92l0,1.26c0,2.48-.55,3.71-1.78,3.71s-3.11-1.69-4.69-4.27a22.2,22.2,0,0,1-2.9-8.33l-3.88.44-1.21.21-.18-1.37,1.23-.07,3.85-.44a60.06,60.06,0,0,1-.44-6l-.14-1.26,2.74-.06,0,1.16a53.44,53.44,0,0,0,.46,5.89Zm-3.32-5c1.42,1,2,1.42,2.76,2l.86.51-2.18,2-.44-.88a28.93,28.93,0,0,0-1.88-2.79l-.58-.56.86-.83Z"/></svg>