<svg id="レイヤー_1" data-name="レイヤー 1" xmlns="http://www.w3.org/2000/svg" viewBox="0 0 365.41 351.67"><defs><style>.cls-1{fill:#ad6165;}.cls-1,.cls-2,.cls-5{fill-opacity:0.7;}.cls-2{fill:#cc6d73;}.cls-3{fill:#f97f87;}.cls-4{fill:#f99fa3;}.cls-5{fill:#f8c7c9;}.cls-6{fill:#fafafa;}.cls-7{fill:#fff;}.cls-8{fill:#333;}.cls-9{fill:none;stroke:#ff878a;stroke-miterlimit:10;}.cls-10{fill:#ff878a;}.cls-11{fill:#49240d;}</style></defs><path class="cls-1" d="M221.57,164.07,139,50.44c25.11-18.24,51.53-26.82,82.56-26.82Z"/><path class="cls-2" d="M221.57,164.07H81.12c0-46.54,20.24-86.27,57.89-113.63Z"/><path class="cls-3" d="M221.57,164.07l82.56,113.64a140.46,140.46,0,0,1-196.19-31.08c-18.24-25.1-26.82-51.53-26.82-82.56Z"/><path class="cls-4" d="M221.57,164.07,304.13,50.44a140.46,140.46,0,0,1,31.08,196.19,133.48,133.48,0,0,1-31.08,31.08Z"/><path class="cls-5" d="M221.57,164.07V23.62c31,0,57.46,8.58,82.56,26.82Z"/><path class="cls-6" d="M112.5,97.93a8.78,8.78,0,0,1,4.06-.86c3.75,0,6.19,2.09,6.16,5.17,0,3.66-2.48,5.84-6.53,5.8a10.46,10.46,0,0,1-6-1.74l1.22-1.5a6.35,6.35,0,0,0,4.54,2.14c2.61,0,4.29-1.78,4.31-4.61a4,4,0,0,0-4.17-4.15,5.77,5.77,0,0,0-3.85,1.24h-1.14l.73-9,10.46.08-.37,2-9-.08Z"/><path class="cls-6" d="M133.25,108.18c-4.05,0-6.5-3.49-6.45-9.08,0-5.43,2.57-8.79,6.6-8.75s6.5,3.42,6.46,8.86C139.81,104.8,137.29,108.22,133.25,108.18Zm.14-16.78c-2.52,0-4.14,3-4.18,7.72s1.53,7.92,4,7.94,4.15-3,4.19-7.87S135.91,91.42,133.39,91.4Z"/><path class="cls-6" d="M147.44,107.94a4.9,4.9,0,0,0,.1,1.13h-1.72V109l0-.34a3.58,3.58,0,0,0,.06-.7l.06-8.09a16.59,16.59,0,0,1-2,2.28l-.42.47-.67-.6.44-.37A22.71,22.71,0,0,0,147.42,94l.18-.78,1.7.59-.4.77a25.54,25.54,0,0,1-1.37,2.88Zm10.4-9.73.9-.14.11,1-.88,0-4.22.42a17.07,17.07,0,0,0,.61,2.57,11.31,11.31,0,0,0,2.74,4.72c.36.36.42.42.48.42s.33-.84.42-2.28V104l.94.23-.1.8v.42c0,.89,0,1.13-.07,2-.12,1.1-.45,1.61-1.07,1.61s-1.27-.51-2.22-1.61a15.26,15.26,0,0,1-3.24-7.79l-3.38.34-.87.15-.12-1,.9,0,3.34-.33,0-.45a39.33,39.33,0,0,1-.21-4l-.08-.91h1.65l-.05.85a42.69,42.69,0,0,0,.25,4.35ZM155.5,94.6c.49.39.78.62,1.49,1.22l.35.29.61.4-1.28,1.16-.36-.6a20.8,20.8,0,0,0-1.43-1.85l-.49-.41.65-.64Z"/><path class="cls-7" d="M117.35,148.35V122.29l-6.17,5.7L109,123.6a25.54,25.54,0,0,0,9.14-4.43h4.72v29.18Z"/><path class="cls-7" d="M135.92,132.49a12.68,12.68,0,0,1,6.61-1.81c6.64,0,10.81,3.23,10.81,8.42,0,6.05-4.25,9.61-11.5,9.61a18.26,18.26,0,0,1-9.73-2.61l2.51-3.23c2.25,2.68,4.53,4,7,4,3.56,0,6-3.05,6-7.4,0-4.07-2.4-6.82-6-6.82a7.9,7.9,0,0,0-5.56,2h-2.39l1.09-15.5h17.67l-.91,4.79H136.5Z"/><path class="cls-7" d="M178.17,130.19,159.86,148.5l-.91-.91,18.31-18.31Zm-19,3.64a4.33,4.33,0,1,1,4.32,4.55A4.26,4.26,0,0,1,159.13,133.83Zm5.7,0c0-2.66-.38-3.69-1.38-3.69s-1.38,1-1.38,3.69.38,3.68,1.38,3.68S164.83,136.49,164.83,133.83ZM169.35,144a4.32,4.32,0,1,1,4.32,4.55A4.26,4.26,0,0,1,169.35,144Zm5.69,0c0-2.66-.37-3.68-1.37-3.68s-1.38,1-1.38,3.68.38,3.69,1.38,3.69S175,146.61,175,144Z"/><path class="cls-6" d="M165.11,207.83a121,121,0,0,0,9.39-12.39l2.15,0-.1,12.36,3,0V209l-3,0,0,4.55h-2.15l0-4.56-9.29-.08Zm9.37-10a113.09,113.09,0,0,1-7.57,9.93l7.49.06Z"/><path class="cls-6" d="M189.25,213.18c-4.05,0-6.5-3.49-6.45-9.08,0-5.43,2.57-8.79,6.6-8.75s6.5,3.42,6.46,8.86C195.81,209.8,193.29,213.22,189.25,213.18Zm.14-16.78c-2.52,0-4.14,3-4.18,7.72s1.53,7.92,4,7.95,4.15-3,4.19-7.88S191.91,196.42,189.39,196.4Z"/><path class="cls-6" d="M203.44,212.94a4.9,4.9,0,0,0,.1,1.13h-1.72V214l0-.34a3.58,3.58,0,0,0,.06-.7l.07-8.1a16.83,16.83,0,0,1-2,2.29l-.42.47-.67-.6.44-.37a22.71,22.71,0,0,0,4.07-7.62l.18-.78,1.7.59-.4.77a25.54,25.54,0,0,1-1.37,2.88Zm10.4-9.73.9-.14.11,1-.88,0-4.22.42a18.38,18.38,0,0,0,.61,2.57,11.31,11.31,0,0,0,2.74,4.72c.36.36.42.42.48.42s.33-.84.42-2.28V209l.94.23-.1.8v.42c0,.89,0,1.13-.07,2-.12,1.1-.45,1.61-1.07,1.61s-1.27-.51-2.22-1.61a15.26,15.26,0,0,1-3.24-7.79l-3.38.34-.87.15-.12-1,.9,0,3.34-.33,0-.45a39.33,39.33,0,0,1-.21-4l-.08-.91h1.65l-.05.85a42.69,42.69,0,0,0,.25,4.35Zm-2.34-3.61c.49.39.78.62,1.49,1.22l.35.29.61.4-1.28,1.16-.36-.59a19.36,19.36,0,0,0-1.43-1.86l-.49-.41.65-.64Z"/><path class="cls-7" d="M164.56,226.61a16.24,16.24,0,0,1,9.55-2.8c6.24,0,10,2.51,10,6.61,0,3.66-2.18,6-6.75,7.07,2.83.58,4.32,1.24,5.62,2.47a6.92,6.92,0,0,1,2.07,5.26c0,5.26-4.21,8.49-11.06,8.49A18.26,18.26,0,0,1,163.55,251l2.79-3.27c2,2.62,4.57,4.07,7.19,4.07,3.55,0,5.88-2.62,5.88-6.64,0-4.25-2.62-6.53-7.41-6.53a19.28,19.28,0,0,0-3.37.36v-2.43a20.23,20.23,0,0,0,3.05.25c4.53,0,7-2.25,7-6.31,0-2.91-2-4.83-5.12-4.83-2.58,0-5,1.56-6.79,4.32Z"/><path class="cls-7" d="M195.19,237.49a12.67,12.67,0,0,1,6.6-1.81c6.64,0,10.81,3.23,10.81,8.41,0,6.07-4.24,9.62-11.5,9.62a18.23,18.23,0,0,1-9.72-2.61l2.5-3.23c2.25,2.68,4.54,4,7,4,3.55,0,6-3.05,6-7.4,0-4.07-2.39-6.82-6-6.82a7.87,7.87,0,0,0-5.55,2H193l1.09-15.5h17.67l-.9,4.79H195.77Z"/><path class="cls-7" d="M237.44,235.19,219.12,253.5l-.91-.91,18.32-18.31Zm-19,3.64a4.32,4.32,0,1,1,4.32,4.55A4.25,4.25,0,0,1,218.4,238.83Zm5.69,0c0-2.66-.37-3.69-1.37-3.69s-1.38,1-1.38,3.69.37,3.68,1.38,3.68S224.09,241.49,224.09,238.83ZM228.62,249a4.32,4.32,0,1,1,4.31,4.55A4.25,4.25,0,0,1,228.62,249Zm5.69,0c0-2.66-.37-3.68-1.38-3.68s-1.37,1-1.37,3.68.37,3.69,1.37,3.69S234.31,251.61,234.31,249Z"/><path class="cls-6" d="M270.86,129.89a9.71,9.71,0,0,1,5.74-1.68c3.37,0,5.38,1.53,5.36,4,0,2.12-1.46,3.69-3.81,4.13,3,.57,4.48,2.09,4.45,4.64,0,3.22-2.34,5.11-6.26,5.07a10.48,10.48,0,0,1-6.19-1.8l1.33-1.5a6.76,6.76,0,0,0,4.72,2.18,3.78,3.78,0,0,0,4.08-4c0-2.52-1.7-3.92-4.87-3.94a13.41,13.41,0,0,0-2.26.18v-1.45a11.78,11.78,0,0,0,1.93.17c2.93,0,4.61-1.32,4.63-3.73,0-1.71-1.31-2.88-3.33-2.9a5.85,5.85,0,0,0-4.29,2.22Z"/><path class="cls-6" d="M293,146.18c-4,0-6.5-3.49-6.45-9.08,0-5.43,2.57-8.79,6.6-8.76s6.5,3.43,6.46,8.87S297.07,146.21,293,146.18Zm.14-16.78c-2.52,0-4.14,3-4.18,7.72s1.53,7.92,4.05,7.94,4.15-3,4.19-7.87S295.69,129.42,293.17,129.4Z"/><path class="cls-6" d="M307.23,145.94a4.47,4.47,0,0,0,.09,1.13l-1.72,0V147l0-.34a3.65,3.65,0,0,0,.06-.7l.07-8.1a17.46,17.46,0,0,1-2,2.29l-.41.47-.68-.6.45-.37A22.86,22.86,0,0,0,307.2,132l.18-.78,1.7.59-.4.76a24.9,24.9,0,0,1-1.37,2.89Zm10.39-9.73.9-.15.11,1-.88,0-4.22.42a17.89,17.89,0,0,0,.61,2.56,11.39,11.39,0,0,0,2.74,4.73c.36.36.43.41.48.41s.33-.83.42-2.28V142l.94.23-.09.8v.42c0,.89,0,1.13-.07,2-.12,1.1-.45,1.61-1.06,1.61s-1.28-.51-2.22-1.61a15.18,15.18,0,0,1-3.25-7.8l-3.37.35-.88.15-.12-1,.9,0,3.34-.33,0-.45a39.49,39.49,0,0,1-.21-4l-.08-.91h1.66l-.06.85a42.69,42.69,0,0,0,.25,4.35Zm-2.34-3.62c.49.4.78.62,1.49,1.23l.35.29.62.4-1.29,1.16-.36-.6a20.8,20.8,0,0,0-1.43-1.85l-.49-.41.65-.65Z"/><path class="cls-8" d="M234.8,68.51c2.38-2.17,3.25-3.66,3.26-5.63a3.32,3.32,0,0,0-3.34-3.6,5.21,5.21,0,0,0-4.45,3l-1.46-1.64a8.25,8.25,0,0,1,6.14-2.4c3.44,0,5.59,1.8,5.57,4.6a6.37,6.37,0,0,1-2.1,4.57c-.11.11-.82.71-2.14,1.84l-5.21,4.45,9.69.08-.5,2.12-11.72-.09v-1.6Z"/><path class="cls-8" d="M251,76.18c-4.05,0-6.5-3.49-6.45-9.08,0-5.43,2.57-8.79,6.6-8.76s6.5,3.43,6.46,8.87S255.07,76.21,251,76.18Zm.14-16.78c-2.52,0-4.14,3-4.18,7.72s1.53,7.92,4,7.94,4.15-3,4.19-7.87S253.69,59.42,251.17,59.4Z"/><path class="cls-8" d="M265.23,75.94a4.47,4.47,0,0,0,.09,1.13l-1.72,0V77l0-.34a3.65,3.65,0,0,0,.06-.7l.07-8.1a17.46,17.46,0,0,1-2,2.29l-.41.47-.68-.6.45-.37A22.86,22.86,0,0,0,265.2,62l.18-.78,1.7.59-.4.76a24.9,24.9,0,0,1-1.37,2.89Zm10.39-9.73.9-.15.11,1-.88,0-4.22.42a17.89,17.89,0,0,0,.61,2.56,11.39,11.39,0,0,0,2.74,4.73c.36.36.43.41.48.41s.33-.83.42-2.28V72l.94.23-.09.8v.42c0,.89,0,1.13-.07,2-.12,1.1-.45,1.61-1.06,1.61s-1.28-.51-2.22-1.61a15.18,15.18,0,0,1-3.25-7.8l-3.37.35-.88.15-.12-1,.9,0,3.34-.33,0-.45a39.49,39.49,0,0,1-.21-4l-.08-.91h1.66l-.06.85a42.69,42.69,0,0,0,.25,4.35Zm-2.34-3.62c.49.4.78.62,1.49,1.23l.35.29.62.4-1.29,1.16-.36-.6a20.8,20.8,0,0,0-1.43-1.85l-.49-.41.65-.65Z"/><path class="cls-7" d="M176.9,42.49h-.26a7.69,7.69,0,0,0-6.29,3.24A9.13,9.13,0,0,0,169,49a5.08,5.08,0,0,1,4.16-1.78c3.55,0,5.74,2.24,5.71,5.74,0,3.75-2.44,6.08-6.25,6-4,0-6.27-2.72-6.23-7.32a10.32,10.32,0,0,1,2.85-7.45c1.74-1.78,3.88-2.73,7.28-3.27Zm-8.23,9.6c0,3.53,1.53,5.84,3.92,5.86s3.94-2,4-4.94c0-2.7-1.49-4.51-3.79-4.53a4.28,4.28,0,0,0-3,1.27,5.86,5.86,0,0,0-1,1.51C168.68,51.52,168.68,51.56,168.67,52.09Z"/><path class="cls-7" d="M188.82,59.18c-4.06,0-6.51-3.5-6.46-9.08s2.57-8.79,6.6-8.76,6.5,3.43,6.46,8.87S192.85,59.21,188.82,59.18ZM189,42.39c-2.52,0-4.14,3-4.18,7.73s1.53,7.92,4,7.94S193,55,193,50.19,191.47,42.42,189,42.39Z"/><path class="cls-7" d="M203,58.94a4.47,4.47,0,0,0,.09,1.13l-1.72,0,0-.08,0-.34a3.65,3.65,0,0,0,.06-.7l.07-8.1a17.46,17.46,0,0,1-2,2.29l-.41.47-.68-.6.45-.37A22.86,22.86,0,0,0,203,45l.18-.79,1.7.6-.4.76a25.71,25.71,0,0,1-1.37,2.89Zm10.39-9.73.9-.15.11,1-.88,0-4.22.42a18.57,18.57,0,0,0,.61,2.56,11.5,11.5,0,0,0,2.74,4.73c.36.36.43.41.48.41s.33-.83.43-2.28V55l.94.23-.09.8v.43c0,.89,0,1.13-.07,2-.12,1.11-.45,1.62-1.07,1.61s-1.27-.5-2.21-1.6a15.18,15.18,0,0,1-3.25-7.8l-3.38.35-.87.15-.12-1,.9,0,3.34-.34,0-.44a39.54,39.54,0,0,1-.21-4l-.08-.9H209l-.06.85a42.87,42.87,0,0,0,.25,4.35Zm-2.34-3.62c.49.4.78.62,1.49,1.22l.36.3.6.39-1.28,1.17-.36-.6a20.8,20.8,0,0,0-1.43-1.85l-.49-.41.65-.65Z"/><path class="cls-7" d="M167,66.79a6.15,6.15,0,0,0-.11-1.12h1.75a6.82,6.82,0,0,0-.11,1.12l-.08,9.57c.89-.47,1.87-1.06,3.07-1.84l.58-.45.54.74-.62.42a47.93,47.93,0,0,1-5.33,3.62l-.68.42-.71.47-.84-1.63.79-.25c.58-.23,1.2-.5,1.66-.72Zm12,12.94a38.45,38.45,0,0,0-2.39-3.89,11.76,11.76,0,0,1-5.7,4.3l-.59.33-.49-.84.75-.25A10.07,10.07,0,0,0,176,73.79a19,19,0,0,0,.68-6v-1c0-.24,0-.44,0-.65l0-.32,0-.15h1.79a6.91,6.91,0,0,0-.11,1.12v.94c0,3.6-.35,5.76-1.13,7.36l.13.12a40.69,40.69,0,0,1,3.13,3.53l.52.62-1.49,1.23ZM171.2,67.54c1,.88,1.89,1.62,2.79,2.51l.64.59-1.39,1.27-.41-.74a20.4,20.4,0,0,0-2.27-3l-.56-.55.65-.62Z"/><path class="cls-7" d="M188.53,66.9c0-.24,0-.44,0-.65l-.05-.32v-.15h1.84a6.55,6.55,0,0,0-.11,1.12l0,4.27,4.79,0a8,8,0,0,0,1.13-.08v1l-.17,0a7.46,7.46,0,0,0-1-.08l-4.79,0-.05,7,6.13,0a6.73,6.73,0,0,0,1.13-.08v1h-.19l-.24,0a6,6,0,0,0-.7,0l-13-.11a7.17,7.17,0,0,0-1.15.08v-1a7.54,7.54,0,0,0,1.14.09l5.27,0Z"/><path class="cls-7" d="M268.57,159.61a16.26,16.26,0,0,1,9.54-2.8c6.24,0,10.05,2.51,10.05,6.61,0,3.66-2.18,6-6.75,7.07,2.83.58,4.32,1.24,5.62,2.47a6.94,6.94,0,0,1,2.07,5.26c0,5.26-4.21,8.49-11.06,8.49A18.26,18.26,0,0,1,267.55,184l2.79-3.27c2,2.62,4.58,4.07,7.19,4.07,3.55,0,5.88-2.62,5.88-6.64,0-4.25-2.62-6.53-7.41-6.53a19.28,19.28,0,0,0-3.37.36v-2.43a20.23,20.23,0,0,0,3.05.25c4.53,0,7-2.25,7-6.31,0-2.9-2-4.83-5.12-4.83-2.58,0-5,1.56-6.79,4.32Z"/><path class="cls-7" d="M306.37,186.71c-7.29,0-11.61-5.62-11.61-15.13,0-9.07,4.5-14.77,11.61-14.77S318,162.51,318,171.58C318,181.12,313.7,186.71,306.37,186.71Zm0-28.08c-3.63,0-5.73,4.79-5.73,13,0,8.45,2.07,13.24,5.73,13.24s5.74-4.75,5.74-13.24C312.11,163.45,310,158.63,306.37,158.63Z"/><path class="cls-7" d="M341.44,168.19,323.12,186.5l-.91-.91,18.32-18.31Zm-19,3.64a4.32,4.32,0,1,1,4.32,4.55A4.25,4.25,0,0,1,322.4,171.83Zm5.69,0c0-2.66-.37-3.69-1.37-3.69s-1.38,1-1.38,3.69.37,3.68,1.38,3.68S328.09,174.49,328.09,171.83ZM332.62,182a4.32,4.32,0,1,1,4.31,4.55A4.25,4.25,0,0,1,332.62,182Zm5.69,0c0-2.66-.37-3.68-1.38-3.68s-1.37,1-1.37,3.68.37,3.69,1.37,3.69S338.31,184.61,338.31,182Z"/><line class="cls-9" x1="320.49" y1="10.22" x2="285.49" y2="10.22"/><line class="cls-9" x1="263.99" y1="36.72" x2="285.99" y2="9.72"/><line class="cls-9" x1="132.99" y1="10.22" x2="167.99" y2="10.22"/><line class="cls-9" x1="189.49" y1="36.72" x2="167.49" y2="9.72"/><path class="cls-10" d="M329.22,19.3V2.16l-3.91,3L324.18,3.1a15.81,15.81,0,0,0,3.75-1.64l.14-.07A20.73,20.73,0,0,0,329.8.24h1.92V19.3Z"/><path class="cls-10" d="M343.81,19.54c-4.44,0-7.15-3.77-7.15-9.89,0-5.95,2.74-9.65,7.15-9.65S351,3.7,351,9.65C351,15.77,348.23,19.54,343.81,19.54Zm0-18.39c-2.76,0-4.51,3.29-4.51,8.5s1.75,8.66,4.51,8.66,4.52-3.36,4.52-8.66S346.57,1.15,343.81,1.15Z"/><path class="cls-10" d="M365.41,7.49l-10.8,10.82-.54-.51L364.87,7ZM354.12,9.65a2.53,2.53,0,1,1,5.05,0,2.53,2.53,0,1,1-5.05,0Zm3.87,0c0-1.25-.5-2-1.34-2s-1.35.75-1.35,2,.5,2,1.35,2S358,10.9,358,9.65Zm2.33,6a2.52,2.52,0,1,1,5,0,2.53,2.53,0,1,1-5,0Zm3.86,0c0-1.24-.5-2-1.34-2s-1.35.74-1.35,2,.51,2,1.35,2S364.18,16.89,364.18,15.64Z"/><path class="cls-10" d="M89.22,19.3V2.16l-3.91,3L84.18,3.1a15.81,15.81,0,0,0,3.75-1.64l.14-.07A20.73,20.73,0,0,0,89.8.24h1.92V19.3Z"/><path class="cls-10" d="M103.81,19.54c-4.44,0-7.15-3.77-7.15-9.89C96.66,3.7,99.4,0,103.81,0S111,3.7,111,9.65C111,15.77,108.23,19.54,103.81,19.54Zm0-18.39c-2.76,0-4.51,3.29-4.51,8.5s1.75,8.66,4.51,8.66,4.52-3.36,4.52-8.66S106.57,1.15,103.81,1.15Z"/><path class="cls-10" d="M125.41,7.49l-10.8,10.82-.54-.51L124.87,7ZM114.12,9.65a2.53,2.53,0,1,1,5,0,2.53,2.53,0,1,1-5,0Zm3.87,0c0-1.25-.5-2-1.34-2s-1.35.75-1.35,2,.5,2,1.35,2S118,10.9,118,9.65Zm2.33,6a2.52,2.52,0,1,1,5,0,2.53,2.53,0,1,1-5,0Zm3.86,0c0-1.24-.5-2-1.34-2s-1.35.74-1.35,2,.51,2,1.35,2S124.18,16.89,124.18,15.64Z"/><path class="cls-11" d="M14.14,297.36h9.09a12.2,12.2,0,0,0,1.89-.14v1.72l-.31,0-.39-.05c-.31,0-.71-.06-1.19-.06H14.14v6.86a12,12,0,0,0,.17,1.86H10.64l0-.14.06-.56a8.13,8.13,0,0,0,.08-1.16V298.8H1.89a12.55,12.55,0,0,0-1.89.14v-1.72a13.1,13.1,0,0,0,1.89.14h8.92v-4.63H3.33a12.36,12.36,0,0,0-1.86.14v-1.72a12.64,12.64,0,0,0,1.86.14h7.48v-8.1c0-.37,0-.71-.06-1.05l-.08-.56,0-.25h3.67a11.69,11.69,0,0,0-.17,1.86v8.1h7.68a11.67,11.67,0,0,0,1.86-.14v1.72l-.31,0-.39,0a11.48,11.48,0,0,0-1.16-.06H14.14Zm-10-13.72.59.71c1.07,1.21,2,2.28,3,3.55l1,1.08-3.27,2-.34-1.24a49,49,0,0,0-2.26-5.23l-.68-.93,1.38-.93Zm19.22.65-1,1.1a47.05,47.05,0,0,1-4.18,4.72l-.76.9-1.33-1,.79-1a25.8,25.8,0,0,0,2.62-5.25l.43-1.35Z"/><path class="cls-11" d="M29.66,288.55a12.45,12.45,0,0,0-1.86.14V287a12.73,12.73,0,0,0,1.86.14h3.9v-3.92c0-.37,0-.71-.06-1.05l-.08-.56,0-.25h3.25a10.6,10.6,0,0,0-.17,1.86v3.92H39.6a11.59,11.59,0,0,0,1.86-.14v1.72a12.18,12.18,0,0,0-1.86-.14H36.47v.62l.45.17c1.16.48,2,.85,3.27,1.47l1,.4-1.67,2.59-.62-.73c-.84-.85-1.47-1.41-2.45-2.26v1.72a10.05,10.05,0,0,0,.17,1.84H33.39l0-.14,0-.54a6.35,6.35,0,0,0,.09-1.16v-1.69A21.64,21.64,0,0,1,29,294.4l-.79.5-.88-1.07.85-.51a15.64,15.64,0,0,0,4.12-4.77Zm10.25,9.74a11.82,11.82,0,0,1-2.37,4.77c1.1.45,1.18.51,1.83.79l1.33.51-2,2.71-.93-.87a22.42,22.42,0,0,0-2.06-1.47,17.34,17.34,0,0,1-6.29,2.71l-1,.36-.62-1.43,1.16-.2a14.17,14.17,0,0,0,4.82-2.57c-1-.54-1.44-.76-2.51-1.24l-2.4-.34c.85-1.36,1.47-2.51,2.09-3.73H29.52a12.09,12.09,0,0,0-1.86.14v-1.72a12.18,12.18,0,0,0,1.86.14h2.09l.4-1,.31-1.19,3,.59-.54,1.05a1.78,1.78,0,0,0-.14.36,1.43,1.43,0,0,0-.09.2h5.45a11.77,11.77,0,0,0,1.78-.14v1.72l-.17,0-.45,0c-.37,0-.68-.06-1.16-.06ZM30,282.46a24.57,24.57,0,0,1,2.26,2.34l.79.68-2.82,1.58-.2-.82a21.2,21.2,0,0,0-1.22-3l-.48-.63,1.22-.76ZM34,298.29c-.5,1-1,2-1.63,3,1.27.37,1.63.48,2.79.88A12.54,12.54,0,0,0,37,298.29Zm8-15.19-.84.8a17.43,17.43,0,0,1-2.38,2.45l-.62.68L37,286.18l.6-.68a14.63,14.63,0,0,0,1.21-2.88l.26-.95Zm9.83,5c-.26,5.42-1.1,9.06-3,12.31a19.45,19.45,0,0,0,4.55,3.78l1.27.57-2.15,2.85-1-.85a21.56,21.56,0,0,1-4.21-4.06,21.16,21.16,0,0,1-5.5,4.37l-1,.73-.91-1.24,1-.53a21.67,21.67,0,0,0,5-5.51,22.47,22.47,0,0,1-2.2-8.61l0-.25a30.49,30.49,0,0,1-1.64,3l-.51,1L40.22,295l.57-.87a42.72,42.72,0,0,0,2.54-11.49l0-1.33,3.48.54-.4,1.32c-.28,1.33-.48,2.18-.87,3.53h6.52a9.42,9.42,0,0,0,1.86-.17v1.75l-.28,0a10.31,10.31,0,0,0-1.58-.11Zm-6.69,0-.06.2-.06.17c-.08.22-.14.36-.25.62a22,22,0,0,0,2.43,9,33,33,0,0,0,1.75-10Z"/><path class="cls-11" d="M59.33,284.49c0-.37,0-.71-.06-1.05l-.08-.56,0-.26h3.53a11,11,0,0,0-.17,1.87V299.7a56.21,56.21,0,0,0,5-2.79l.94-.71.81,1.22-.93.67a79.56,79.56,0,0,1-9.85,7.12l-1.13.82-1.75-3.48,1.33-.36c1-.37,1.55-.6,2.43-1Zm19.73,21.2a61.32,61.32,0,0,0-3.28-6.21c-2.14,3.19-5.16,5.45-9.71,7.25l-1,.48-.81-1.35,1.18-.4a17.36,17.36,0,0,0,8.3-8.64c1-2.51,1.47-5.64,1.47-10.86v-1.67c0-.39,0-.73-.06-1.07l-.08-.54,0-.25h3.64a12,12,0,0,0-.17,1.86v1.55c0,5.93-.53,9.35-2,12.23a57,57,0,0,1,5.28,5.44l.91.94-3.17,2.68ZM66.47,285.5a58.64,58.64,0,0,1,4.74,3.93l1.19,1L69.52,293l-.62-1.3a34.57,34.57,0,0,0-3.53-5.13l-.88-.91,1.07-1Z"/><path class="cls-11" d="M94.86,284.32c0-.4,0-.74-.06-1.07l-.08-.54,0-.25h3.76a11.43,11.43,0,0,0-.17,1.86v7.17h7.53a11.79,11.79,0,0,0,1.87-.14v1.72l-.28,0a10.36,10.36,0,0,0-1.59-.11H98.28v11.4H108a11.79,11.79,0,0,0,1.87-.14v1.72l-.31,0-.4-.06a11.48,11.48,0,0,0-1.16-.06H86.45a12.46,12.46,0,0,0-1.89.14v-1.72a13,13,0,0,0,1.89.14h8.41Z"/><path class="cls-11" d="M112.83,292.06a5.24,5.24,0,0,0,1.32.14h4.15a36.42,36.42,0,0,0,1.4-5.41l2.67.72a5.76,5.76,0,0,0-.51,1.37c-.35,1.25-.63,2.23-1,3.32h2.69c3,0,4.2,1.32,4.2,4.43a19.29,19.29,0,0,1-2,8.33,3,3,0,0,1-2.74,1.86c-1,0-2.18-.7-3.53-2.11a3.1,3.1,0,0,0-.88-.63l.95-1.09a4.37,4.37,0,0,0,2.67,2c.49,0,.86-.34,1.28-1.16a18.76,18.76,0,0,0,1.79-7.4c0-2.14-.68-3-2.39-3h-2.46a96,96,0,0,1-4.39,11.51,10.15,10.15,0,0,0-.49,1.28l-2.46-1.16c.58-.42,3.18-6.78,4.74-11.63h-3.74a6.82,6.82,0,0,0-1.32.14Zm18.56,7.84a7.38,7.38,0,0,0-.23-1.46,20.17,20.17,0,0,0-3.32-7.66,3.36,3.36,0,0,0-.76-.74l1.2-1a4.56,4.56,0,0,0,.65.84,21.44,21.44,0,0,1,4.88,8.49l.09.28,0,.19Zm-.16-14.46v3.65h-1.46v-3.65Zm2.62,0v3.65h-1.46v-3.65Z"/><path class="cls-11" d="M1.39,324.62a13.67,13.67,0,0,1,8.14-2.41c5,0,8,2.13,8,5.6,0,3.06-2,5.17-5.54,5.94a8.11,8.11,0,0,1,4.67,2.07,5.81,5.81,0,0,1,1.77,4.46c0,4.52-3.41,7.24-9.07,7.24a15.3,15.3,0,0,1-8.85-2.38l2.11-2.48a8.68,8.68,0,0,0,6.4,3.25c3.28,0,5.39-2.23,5.39-5.66,0-3.59-2.33-5.51-6.63-5.51a15.44,15.44,0,0,0-3,.28v-2a18.39,18.39,0,0,0,2.66.21c4,0,6.25-1.95,6.25-5.35,0-2.47-1.79-4.08-4.55-4.08a7.56,7.56,0,0,0-5.91,3.43Z"/><path class="cls-11" d="M32.8,347.52c-6,0-9.54-4.8-9.54-12.81,0-7.67,3.69-12.5,9.54-12.5s9.53,4.83,9.53,12.5C42.33,342.72,38.74,347.52,32.8,347.52Zm0-23.8c-3.32,0-5.36,4.18-5.36,11,0,7,2,11.2,5.36,11.2s5.35-4.17,5.35-11.2C38.15,327.93,36.11,323.72,32.8,323.72Z"/><path class="cls-11" d="M51,346.42a7.33,7.33,0,0,0,.14,1.54H48.34a7.86,7.86,0,0,0,.14-1.54v-10.3A26,26,0,0,1,46,338.81l-.55.61-.89-.79.56-.51a34.21,34.21,0,0,0,5.36-10.68l.24-1.14,2.92,1-.6,1.09a30.66,30.66,0,0,1-2,4Zm13.88-13.3,1.23-.2.13,1.37-1.2,0-5.46.63a19.11,19.11,0,0,0,2.6,7.22,9.35,9.35,0,0,0,2.37,2.69c.26,0,.49-1.12.58-3l0-1.28,1.3.35-.1,1.07v.93l0,1.25c0,2.48-.56,3.71-1.79,3.71s-3.11-1.69-4.69-4.27a22.2,22.2,0,0,1-2.9-8.33l-3.88.44-1.2.21-.19-1.37,1.23-.07,3.86-.44a57.11,57.11,0,0,1-.45-6l-.14-1.25L59,326.7l0,1.16a56,56,0,0,0,.46,5.89Zm-3.32-5c1.41,1,2,1.42,2.76,2l.86.51-2.18,2-.45-.88A27.2,27.2,0,0,0,60.71,329l-.58-.56.86-.83Z"/><path class="cls-11" d="M72.5,340.25a169.18,169.18,0,0,0,12.75-17.73H89v17.57h4.21v1.61H89v6.44H85.25V341.7H72.5Zm12.75-14.2a137.77,137.77,0,0,1-10.22,14H85.25Z"/><path class="cls-11" d="M106,347.52c-6,0-9.53-4.8-9.53-12.81,0-7.67,3.68-12.5,9.53-12.5s9.53,4.83,9.53,12.5C115.51,342.72,111.92,347.52,106,347.52Zm0-23.8c-3.31,0-5.36,4.18-5.36,11,0,7,2,11.2,5.36,11.2s5.35-4.17,5.35-11.2C111.33,327.93,109.29,323.72,106,323.72Z"/><path class="cls-11" d="M125.15,350.14a7.24,7.24,0,0,0,.14,1.53h-2.83a8.48,8.48,0,0,0,.13-1.53V339.83a26,26,0,0,1-2.53,2.69l-.55.61-.88-.79.55-.51a34.21,34.21,0,0,0,5.36-10.68l.24-1.14,2.92,1-.6,1.09a31.31,31.31,0,0,1-1.95,4ZM139,336.84l1.23-.21.14,1.37-1.21,0-5.46.63a19.11,19.11,0,0,0,2.6,7.22,9.35,9.35,0,0,0,2.37,2.69c.26,0,.49-1.11.58-3l0-1.28,1.3.35-.1,1.07v.93l0,1.25c0,2.49-.56,3.72-1.79,3.72s-3.11-1.7-4.69-4.28a22.2,22.2,0,0,1-2.9-8.33l-3.87.44-1.21.21-.19-1.37,1.23-.07,3.86-.44a57.11,57.11,0,0,1-.45-6l-.13-1.25,2.73-.07,0,1.16a52.92,52.92,0,0,0,.47,5.89Zm-3.32-5c1.41,1,2,1.41,2.76,2l.86.51-2.18,2-.44-.88a32.37,32.37,0,0,0-1.88-2.79l-.58-.55.85-.84Z"/></svg>