<svg xmlns="http://www.w3.org/2000/svg" width="382.85" height="346.611" viewBox="0 0 382.85 346.611">
  <g id="generation" transform="translate(-11.32 -15.96)">
    <path id="パス_450" data-name="パス 450" d="M95.3,308.337a5.391,5.391,0,0,0,1.658-3.845c0-1.414-.681-2.39-1.678-2.39s-1.648.712-2.227,2.105l-.885-1.271a4.068,4.068,0,0,1,3.306-1.556,2.838,2.838,0,0,1,3.051,3.051,4.435,4.435,0,0,1-.824,2.644,8.847,8.847,0,0,1-1.363,1.505l-.244.224-2.522,2.563H98.71l-.305,1.668H92.211v-1.292Z" transform="translate(1.381 4.875)" fill="#ff878a"/>
    <path id="パス_451" data-name="パス 451" d="M103.809,313.2c-2.217,0-3.539-2.238-3.539-5.97,0-3.57,1.363-5.818,3.539-5.818s3.55,2.248,3.55,5.818C107.359,310.93,106.027,313.2,103.809,313.2Zm0-11.076c-1.231,0-2.034,1.943-2.034,5.085s.742,5.207,2.034,5.207,2.034-1.943,2.034-5.207-.763-5.116-2.034-5.116Z" transform="translate(1.519 4.876)" fill="#ff878a"/>
    <path id="パス_452" data-name="パス 452" d="M111.9,313.013V302.72l-1.922,2.034-.61-1.485a6.151,6.151,0,0,0,.966-.417,7.822,7.822,0,0,0,1.831-1.3h1.2v11.483Z" transform="translate(1.675 4.878)" fill="#ff878a"/>
    <path id="パス_453" data-name="パス 453" d="M124.3,301.53c-1.017,2.756-2.39,7.048-3.59,11.483h-1.871c1.159-3.1,3.051-7.415,4.241-9.876h-5.085l-.214,1.688h-.631l.437-3.3Z" transform="translate(1.808 4.878)" fill="#ff878a"/>
    <path id="パス_455" data-name="パス 455" d="M168.242,308.267a5.411,5.411,0,0,0,1.688-3.834c0-1.414-.671-2.39-1.658-2.4s-1.648.7-2.248,2.1l-.875-1.282a4.068,4.068,0,0,1,3.306-1.536,2.848,2.848,0,0,1,3.051,3.051,4.516,4.516,0,0,1-.834,2.644,9.306,9.306,0,0,1-1.383,1.485l-.234.234-2.543,2.543h5.136l-.305,1.668H165.12v-1.3Z" transform="translate(2.627 4.874)" fill="#ff878a"/>
    <path id="パス_456" data-name="パス 456" d="M176.729,313.2c-2.217,0-3.529-2.258-3.509-5.991,0-3.57,1.4-5.808,3.58-5.8s3.539,2.268,3.509,5.838C180.289,310.93,178.946,313.2,176.729,313.2Zm.071-11.076c-1.231,0-2.034,1.932-2.034,5.085s.7,5.218,1.963,5.218,2.034-1.932,2.034-5.2-.681-5.157-1.963-5.157Z" transform="translate(2.766 4.876)" fill="#ff878a"/>
    <path id="パス_457" data-name="パス 457" d="M184.832,313.042l.051-10.293-1.932,2.034-.6-1.485a6.154,6.154,0,0,0,1.017-.417,7.792,7.792,0,0,0,1.841-1.3h1.2l-.071,11.493Z" transform="translate(2.922 4.879)" fill="#ff878a"/>
    <path id="パス_458" data-name="パス 458" d="M197.12,309.933c0,2.105-1.332,3.326-3.59,3.306s-3.56-1.241-3.55-3.346a2.807,2.807,0,0,1,2.1-3.051,2.441,2.441,0,0,1-1.729-2.583c0-1.76,1.261-2.848,3.255-2.838s3.224,1.109,3.214,2.868a2.451,2.451,0,0,1-1.76,2.573,2.807,2.807,0,0,1,2.065,3.072Zm-3.56-2.685c-1.22,0-2.034,1.017-2.034,2.624s.8,2.644,2.034,2.644,2.034-1.017,2.034-2.614-.854-2.644-2.065-2.655Zm0-5.085c-1.017,0-1.79.865-1.8,2.177s.722,2.217,1.78,2.227,1.79-.9,1.79-2.207-.712-2.217-1.77-2.217Z" transform="translate(3.052 4.876)" fill="#ff878a"/>
    <path id="パス_459" data-name="パス 459" d="M237.3,308.337a5.391,5.391,0,0,0,1.658-3.845c0-1.414-.681-2.39-1.678-2.39s-1.637.712-2.227,2.105l-.885-1.271a4.068,4.068,0,0,1,3.306-1.556,2.838,2.838,0,0,1,3.051,3.051,4.434,4.434,0,0,1-.824,2.644,8.847,8.847,0,0,1-1.363,1.505l-.244.224-2.522,2.563h5.136l-.305,1.668H234.19v-1.292Z" transform="translate(3.807 4.875)" fill="#ff878a"/>
    <path id="パス_460" data-name="パス 460" d="M245.809,313.2c-2.217,0-3.539-2.238-3.539-5.97,0-3.57,1.363-5.818,3.539-5.818s3.55,2.248,3.55,5.818C249.359,310.93,248.027,313.2,245.809,313.2Zm0-11.076c-1.231,0-2.034,1.943-2.034,5.085s.742,5.207,2.034,5.207,2.034-1.943,2.034-5.207-.763-5.116-2.034-5.116Z" transform="translate(3.945 4.876)" fill="#ff878a"/>
    <path id="パス_461" data-name="パス 461" d="M253.9,313.013V302.72l-1.922,2.034-.61-1.485a6.153,6.153,0,0,0,.966-.417,7.821,7.821,0,0,0,1.831-1.3h1.2v11.483Z" transform="translate(4.101 4.878)" fill="#ff878a"/>
    <path id="パス_462" data-name="パス 462" d="M260.411,312.324a3.773,3.773,0,0,0,3.245-1.963,6.489,6.489,0,0,0,.742-2.309,2.4,2.4,0,0,1-2.126,1.139c-1.912,0-3.112-1.444-3.112-3.733,0-2.5,1.312-4.068,3.377-4.068s3.468,1.8,3.468,4.841a7.923,7.923,0,0,1-1.526,5.014,5.7,5.7,0,0,1-3.916,2.105l-.275-1.017Zm4.068-6.357c0-2.339-.773-3.865-1.953-3.865s-1.963,1.322-1.963,3.326c0,1.77.763,2.909,1.953,2.909a1.841,1.841,0,0,0,1.353-.631,3.419,3.419,0,0,0,.6-1.017Z" transform="translate(4.234 4.876)" fill="#ff878a"/>
    <path id="パス_463" data-name="パス 463" d="M306.3,308.337a5.39,5.39,0,0,0,1.658-3.845c0-1.414-.681-2.39-1.678-2.39s-1.637.712-2.227,2.105l-.885-1.271a4.068,4.068,0,0,1,3.306-1.556,2.838,2.838,0,0,1,3.051,3.051,4.434,4.434,0,0,1-.824,2.644,8.848,8.848,0,0,1-1.363,1.505l-.244.224-2.522,2.563h5.136l-.305,1.668H303.19v-1.292Z" transform="translate(4.985 4.875)" fill="#ff878a"/>
    <path id="パス_464" data-name="パス 464" d="M314.809,313.2c-2.217,0-3.539-2.238-3.539-5.97,0-3.57,1.363-5.818,3.539-5.818s3.55,2.248,3.55,5.818C318.359,310.93,317.027,313.2,314.809,313.2Zm0-11.076c-1.231,0-2.034,1.943-2.034,5.085s.742,5.207,2.034,5.207,2.034-1.943,2.034-5.207-.763-5.116-2.034-5.116Z" transform="translate(5.124 4.876)" fill="#ff878a"/>
    <path id="パス_465" data-name="パス 465" d="M323.053,308.337a5.39,5.39,0,0,0,1.658-3.845c0-1.414-.681-2.39-1.668-2.39s-1.648.712-2.238,2.105l-.885-1.271a4.129,4.129,0,0,1,3.306-1.556,2.828,2.828,0,0,1,3.051,3.051,4.5,4.5,0,0,1-.814,2.644,9.52,9.52,0,0,1-1.373,1.505l-.244.224-2.512,2.563h5.085l-.295,1.668H320v-1.292Z" transform="translate(5.272 4.875)" fill="#ff878a"/>
    <path id="パス_466" data-name="パス 466" d="M331.58,313.2c-2.227,0-3.55-2.238-3.55-5.97,0-3.57,1.373-5.818,3.55-5.818s3.55,2.248,3.55,5.818C335.119,310.93,333.787,313.2,331.58,313.2Zm0-11.076c-1.231,0-2.034,1.943-2.034,5.085s.732,5.207,2.034,5.207,2.034-1.943,2.034-5.207-.8-5.116-2.034-5.116Z" transform="translate(5.41 4.876)" fill="#ff878a"/>
    <path id="パス_467" data-name="パス 467" d="M46.362,308.161l-.712,1.119-.346-.4a9.509,9.509,0,0,1-3.377-6.1,8.381,8.381,0,0,1-3.916,6.275l-.346.315-.346-.61.417-.224c2.421-1.8,3.55-4.607,3.509-8.767V298.6h1.017a6.263,6.263,0,0,0-.061.824v.346a9.489,9.489,0,0,0,3.753,8.137Z" transform="translate(0.444 4.828)" fill="#ff878a"/>
    <path id="パス_468" data-name="パス 468" d="M27.347,343.213a6.743,6.743,0,0,0,.193,1.851H23.93a7.4,7.4,0,0,0,.193-1.851v-1.22a11.015,11.015,0,0,0-.193-2.421c.732.051,1.3.081,2.36.081h2.8l-.051-.224a27.463,27.463,0,0,0-1.454-3.448l-.488-.6,1.312-.773.346.58a25.093,25.093,0,0,1,2.705,2.471l.936.773-2.136,1.22h4.78v-.142a20.342,20.342,0,0,0-1.373-3.641l-.539-.681,1.251-.712h-7.8l-1.2.061-.509-1.485,1.485.061c8.421-.549,12.2-1.017,16.68-2.136l1.017-.427,2.533,3.214-1.505.061-1.282.112c-.631.081-.824.081-1.282.112l3.417,1.709-.854.712a34.43,34.43,0,0,1-3.194,3.133h3.906a20.971,20.971,0,0,0,2.36-.081,12.113,12.113,0,0,0-.163,2.421v1.271a6.1,6.1,0,0,0,.193,1.821H44.546a6,6,0,0,0,.193-1.821v-2.136H27.347ZM25.5,355.54a28.153,28.153,0,0,0,8.767-3.641,14.717,14.717,0,0,1-4.16-6.733,11.79,11.79,0,0,0-1.76.112V343.66a11.526,11.526,0,0,0,1.821.112H39.9a39,39,0,0,0,3.906-.091V344.7a14.7,14.7,0,0,1-4.9,7.17,31.01,31.01,0,0,0,7.547,1.943l2.034.112L46.611,357.2l-1.373-.4a26.709,26.709,0,0,1-8.767-3.194,32.332,32.332,0,0,1-10.639,3.234l-1.017.285-.712-1.454Zm6.2-10.334a13.222,13.222,0,0,0,4.668,5.268,13.283,13.283,0,0,0,3.651-5.268ZM41.5,334.181c-2.034.153-4.729.264-7.008.295l.427.59c.915.834,1.4,1.282,2.594,2.482l.946.793-2.248,1.271h3.7v-.081l.061-.092a26.089,26.089,0,0,0,2.166-4.465l.305-.915Z" transform="translate(0.215 5.374)" fill="#49240d"/>
    <path id="パス_469" data-name="パス 469" d="M54.372,332.571a5.362,5.362,0,0,0-.061-1.017l-.081-.57v-.254h3.183A13.038,13.038,0,0,0,57.3,332.6v2.472h1.536a10.34,10.34,0,0,0,1.912-.112v1.709h-.285a10.49,10.49,0,0,0-1.627-.112h-6.3a11.881,11.881,0,0,0-1.871.142v-1.709a12.488,12.488,0,0,0,1.871.112h1.831Zm3.387,14.839a15.486,15.486,0,0,0,2.329-.112,11.971,11.971,0,0,0-.163,2.39v4.9a12.887,12.887,0,0,0,.163,1.932,17.567,17.567,0,0,0-1.871-.112H53.375a17.491,17.491,0,0,0-1.971.112,13.13,13.13,0,0,0,.171-2.441v-4.7A11.005,11.005,0,0,0,51.4,347.3a18.521,18.521,0,0,0,2.37.112Zm1.6-6.662a10.356,10.356,0,0,0-1.6-.112H53.8a12.631,12.631,0,0,0-1.912.142V339.07a13.352,13.352,0,0,0,1.912.112h3.956a10.166,10.166,0,0,0,1.882-.112v1.709Zm.285,4.129a9.855,9.855,0,0,0-1.882-.112H53.8a10.63,10.63,0,0,0-1.912.112V343.21a9.641,9.641,0,0,0,1.912.142h3.956a10.1,10.1,0,0,0,1.882-.142Zm-5.248,3.987v6.1h2.766v-6.1Zm21.562,1.424a11.613,11.613,0,0,0,1.505-.142v1.739a10.772,10.772,0,0,0-1.76-.142v3.5a1.556,1.556,0,0,1-1.658,1.77,14.177,14.177,0,0,1-3.5-.681l-1.017-.2-.285-1.393a22.2,22.2,0,0,0,2.97.254c.62,0,.732-.112.732-.681v-2.563H65.052v3.5a9.642,9.642,0,0,0,.163,1.882H62.194a9.551,9.551,0,0,0,.173-1.882v-3.5a10.532,10.532,0,0,0-1.739.142v-1.739a10.883,10.883,0,0,0,1.739.142v-5.045a9.337,9.337,0,0,0-.173-1.932c.742.061,1.19.081,2.278.081h3.051v-1.587H62.438a11.432,11.432,0,0,0-1.912.142v-1.739a12.2,12.2,0,0,0,1.912.142H64.6v-2.085H63.363a12.064,12.064,0,0,0-1.871.142V336.68a12.14,12.14,0,0,0,1.871.142h1.231V334.91H62.967a10.168,10.168,0,0,0-1.882.112v-1.678a12.092,12.092,0,0,0,1.882.142h1.627v-.915a5.363,5.363,0,0,0-.061-1.017l-.081-.57v-.254h3.133a11.686,11.686,0,0,0-.173,1.871v.915h3.051V332.6a8.828,8.828,0,0,0-.193-1.871h3.112a11.686,11.686,0,0,0-.173,1.871v.915H75.06a12.371,12.371,0,0,0,1.912-.142v1.7a10.165,10.165,0,0,0-1.912-.112H73.219v1.912h1.424a11.743,11.743,0,0,0,1.882-.142v1.729h-.285a9.154,9.154,0,0,0-1.6-.122H73.219v2.085h2.2a11.634,11.634,0,0,0,1.871-.142v1.739a10.782,10.782,0,0,0-1.871-.142H70.33v1.587h3.244a19.974,19.974,0,0,0,2.339-.081,11.1,11.1,0,0,0-.173,2.329v4.618Zm-8.432-5.472H65.052v1.943h2.472Zm0,3.4H65.052v2.034h2.472Zm-.142-13.273v1.912h3.051v-1.912Zm0,3.356v2.085h3.051V338.3Zm2.95,8.462h2.614v-1.943H70.33Zm0,1.454v2.034h2.614v-2.034Z" transform="translate(0.672 5.377)" fill="#49240d"/>
    <path id="パス_470" data-name="パス 470" d="M90.906,338.119v-5.268a5.362,5.362,0,0,0-.061-1.017l-.081-.539v-.285h3.7a12.58,12.58,0,0,0-.173,1.882v5.228h7.2a10.168,10.168,0,0,0,1.882-.112v1.709a11.75,11.75,0,0,0-1.882-.142H94.252v6.316h6.174a10.605,10.605,0,0,0,1.882-.142v1.709a10.069,10.069,0,0,0-1.882-.112H94.252v7.038h8.686a11.941,11.941,0,0,0,1.912-.142v1.709a10.173,10.173,0,0,0-1.912-.112H81.874a10.678,10.678,0,0,0-1.912.112v-1.759a12.463,12.463,0,0,0,1.912.142h9.032v-7.059H85.1a10.168,10.168,0,0,0-1.882.112v-1.709a11.025,11.025,0,0,0,1.882.142h5.838V339.5H85.292a26.77,26.77,0,0,1-4.068,6.3l-.661.966-1.332-.946.763-.854a30.512,30.512,0,0,0,3.845-11.7l.122-1.454,3.814.885-.519,1.414a26.26,26.26,0,0,1-1.332,4.007Z" transform="translate(1.16 5.382)" fill="#49240d"/>
    <path id="パス_471" data-name="パス 471" d="M108.823,353.311v-1.2c-.092-1.749-.163-4.506-.163-6.235a96.281,96.281,0,0,1,.519-9.7,8.85,8.85,0,0,0,.092-1.322l2.644.376a8.136,8.136,0,0,0-.234,1.18c-.356,3.733-.519,6.611-.519,9.347,0,1.729.071,4.394.183,5.808v.285a8.221,8.221,0,0,0,.142,1.139Zm11.971-17.179a8.27,8.27,0,0,0-.142-1.353h2.807a7.753,7.753,0,0,0-.142,1.353v3.051h3.051a5.218,5.218,0,0,0,1.322-.142v1.536a6.1,6.1,0,0,0-1.322-.142h-3.051V347.4a33.276,33.276,0,0,1,3.855,2.034,4.852,4.852,0,0,0,1.017.539l-1.393,2.339-.661-.661a17.013,17.013,0,0,0-2.858-2.288v.285c0,2.878-1.556,4.272-4.76,4.272-2.858,0-4.862-1.607-4.862-3.926s1.81-3.794,4.6-3.794a10.172,10.172,0,0,1,2.5.325v-6.1h-5.5a7.538,7.538,0,0,0-1.322.142v-1.5a5.6,5.6,0,0,0,1.322.142h5.5Zm0,11.991a8.136,8.136,0,0,0-2.858-.59c-1.77,0-2.919.966-2.919,2.471a2.868,2.868,0,0,0,3.153,2.624c1.821,0,2.624-.926,2.624-3Z" transform="translate(1.663 5.446)" fill="#49240d"/>
    <path id="パス_472" data-name="パス 472" d="M146.471,340.723h5.38a10.675,10.675,0,0,0,1.882-.142v1.739h-.285a10.356,10.356,0,0,0-1.6-.112h-5.38v6.265h8a11.637,11.637,0,0,0,1.871-.142v1.739h-.305l-.407-.061c-.305,0-.681-.051-1.159-.051h-8v5.35a11.979,11.979,0,0,0,.173,1.882h-3.621a9.153,9.153,0,0,0,.2-1.882v-5.35H132.2a12.539,12.539,0,0,0-1.879.142l0-1.8a12.724,12.724,0,0,0,1.882.142h2.736V342.95a9.683,9.683,0,0,0-.2-2.339,18.521,18.521,0,0,0,2.37.112h6.1v-5.085h-5.614a28.418,28.418,0,0,1-5.207,6.408l-.712.793-1.119-1.017.834-.712a25.661,25.661,0,0,0,4.465-9.347l.285-1.312,3.651.8-.661,1.332c-.254.57-.315.712-.478,1.017l-.264.539h14.666a11.662,11.662,0,0,0,1.882-.142v1.739h-.315l-.4-.061c-.315,0-.681-.051-1.17-.051h-6.581Zm-8.34,1.475v6.265h5.085V342.2Z" transform="translate(2.033 5.372)" fill="#49240d"/>
    <path id="パス_473" data-name="パス 473" d="M171.787,333.271l-.692,1.3c-.539,1.343-.712,1.688-1.19,2.685h8.137c.712,0,2.156-.061,3.529-.142v1.109a18.724,18.724,0,0,1-8.035,11.412c1.343,1.017,1.851,1.434,2.878,2.278l1.393,1.017-2.9,2.848-.834-1.2a48.046,48.046,0,0,0-6.886-7.435l-1.017-.62,1.078-1.312.915.773c1.363.844,2.5,1.587,4.068,2.726a19.6,19.6,0,0,0,5.187-9.967h-8.249a30.828,30.828,0,0,1-8.513,9.632l-.681.712-1.088-1.231.854-.57a32.088,32.088,0,0,0,7.862-13.842l.254-1.414Z" transform="translate(2.521 5.399)" fill="#49240d"/>
    <path id="パス_474" data-name="パス 474" d="M206.151,339.148H190.264c-.834.59-1.566,1.078-2.543,1.648l-.905.712-.946-1.17,1.017-.6a27.461,27.461,0,0,0,6.692-8.228l.519-1.159,3.784.966-1.017,1.22c-.224.346-.285.4-.458.631h4.851a35.4,35.4,0,0,0,3.987-.122v1.119A32.392,32.392,0,0,1,201,337.693h6.265a15.617,15.617,0,0,0,2.339-.112,11.269,11.269,0,0,0-.173,2.329v4.821a11.807,11.807,0,0,0,.173,2.329,17.881,17.881,0,0,0-1.882-.112H191a12.326,12.326,0,0,0-1.871.142v-1.739a12.6,12.6,0,0,0,1.871.142h15.155v-2.471H191.911a11.323,11.323,0,0,0-1.882.142v-1.78a12.721,12.721,0,0,0,1.882.142h14.239Zm-14.178,9.683-.376.793a34.355,34.355,0,0,1-2.136,5.757l-.366.885-3.224-1.882.8-.712a23.974,23.974,0,0,0,3.387-4.557l.315-.946Zm6.855-11.188a17.465,17.465,0,0,0,2.034-3.051h-5.614l-.254.295a24.511,24.511,0,0,1-2.878,2.787Zm7.211,14.158c.051.62.081,1.078.081,1.729,0,2.8-.742,3.133-6.977,3.133a15.083,15.083,0,0,1-4.272-.315,2.034,2.034,0,0,1-1.424-2.248v-5.146l-.092-.57v-.264h3.509a12.612,12.612,0,0,0-.173,1.851v3.275c0,.458.112.631.427.692s1.821.081,2.878.081a25.947,25.947,0,0,0,3.244-.173c1.109-.112,1.312-.448,1.424-2.217l-.061-1.2,1.6.458Zm-6.723-4.068a31.4,31.4,0,0,1,3.051,2.105l.905.539-2.421,2.37-.427-.885a22.907,22.907,0,0,0-2.034-3.051l-.661-.6,1.119-1.017Zm8.625,1.017a37.76,37.76,0,0,1,4.16,4.3l.773.712-3.051,2.329-.4-1.19a39.4,39.4,0,0,0-2.675-5.157l-.631-.631,1.251-1.017Z" transform="translate(2.982 5.37)" fill="#49240d"/>
    <path id="パス_475" data-name="パス 475" d="M220.425,349.236c.824-.275,1.454-.539,2.258-.854l.966-.59.6,1.393-1.017.458a55.158,55.158,0,0,1-7.17,4.272l-1.017.742-1.454-3.448,1.282-.254c1.261-.346,1.8-.488,2.512-.712v-9.917H215.96a12.539,12.539,0,0,0-1.879.142l0-1.759a12.213,12.213,0,0,0,1.882.163h1.424v-5.523a6.214,6.214,0,0,0-.061-1.078l-.081-.539v-.295h3.387a12.582,12.582,0,0,0-.173,1.912v5.523h1.017a11.363,11.363,0,0,0,1.871-.163v1.76a12.14,12.14,0,0,0-1.871-.142h-1.017Zm12.907-14.005a25.622,25.622,0,0,0,1.536-3.906l.173-.875,3.56,1.282-1.017.936a19.709,19.709,0,0,1-2.451,2.563h2.512a20.868,20.868,0,0,0,2.36-.112,9.663,9.663,0,0,0-.193,2.36v5.014a8.839,8.839,0,0,0,.193,2.278,14.954,14.954,0,0,0-2.36-.112h-12a17.192,17.192,0,0,0-1.963.112,8.9,8.9,0,0,0,.193-2.278v-5.014a10.608,10.608,0,0,0-.193-2.36,20.393,20.393,0,0,0,2.36.112h1.312v-.061a18.571,18.571,0,0,0-1.139-3.245l-.488-.62,1.312-.8.427.6a19.563,19.563,0,0,1,2.329,2.034l.885.62-2.431,1.475Zm3.214,11.188a15.958,15.958,0,0,0,2.339-.112,11.369,11.369,0,0,0-.173,2.339v6.011a11.5,11.5,0,0,0,.173,1.851,14.847,14.847,0,0,0-1.912-.122H226.609a16.441,16.441,0,0,0-1.882.122,12.558,12.558,0,0,0,.173-2.4v-5.462a11.492,11.492,0,0,0-.173-2.339,20.343,20.343,0,0,0,2.339.112Zm-6.265-7.272v-2.5h-3.59v2.5Zm-3.59,1.454v2.614h3.59V340.6Zm1.139,7.231v2.655h7.832v-2.655Zm0,4.068v2.97h7.832V351.9Zm5.248-12.754h3.845v-2.5h-3.845Zm0,4.068h3.845V340.6h-3.845Z" transform="translate(3.455 5.372)" fill="#49240d"/>
    <path id="パス_476" data-name="パス 476" d="M266.132,344.559a5.9,5.9,0,0,0-.478.946l-.091.254-.427,1.19a17.108,17.108,0,0,1-3.529,5.93,9.591,9.591,0,0,1-7.17,2.878q-7.476,0-7.465-7.181c0-.854,0-1.912.061-3.133.051-2.278.163-9.428.163-10.618a9.153,9.153,0,0,0-.163-2.116h3.56a9.256,9.256,0,0,0-.2,2.421c0,1.851,0,2.451-.142,11.483v1.79c0,3.56,1.536,5.268,4.7,5.268a8.381,8.381,0,0,0,6.662-3.448,14.616,14.616,0,0,0,2.512-4.984,9.87,9.87,0,0,0,.254-1.363Z" transform="translate(4.025 5.411)" fill="#49240d"/>
    <path id="パス_477" data-name="パス 477" d="M271.69,335.239a6.447,6.447,0,0,0,1.627.142l19.65-.509a12.043,12.043,0,0,0,1.678-.173v1.912a7.674,7.674,0,0,0-1.017-.092,4.5,4.5,0,0,0-.57,0,14.931,14.931,0,0,0-5.136,1.139c-3.692,1.485-5.858,4.272-5.858,7.547,0,3.621,2.329,5.98,7.028,7.12a7.954,7.954,0,0,0,1.882.254l-1.109,3.478h-.112l-.376-.112c-.285-.092-.763-.2-1.393-.376-2.929-.905-4.557-1.79-6.011-3.326a8.6,8.6,0,0,1-2.441-6.184A9.5,9.5,0,0,1,283,338.779a10.5,10.5,0,0,1,4.587-2.288l-14.239.427a8.137,8.137,0,0,0-1.6.2Z" transform="translate(4.448 5.445)" fill="#49240d"/>
    <path id="パス_478" data-name="パス 478" d="M312.052,348.083a4.414,4.414,0,0,0-.692,1.505,11.523,11.523,0,0,1-2.187,4.068,3.377,3.377,0,0,1-2.655,1.373c-1.821,0-3.356-1.282-4.5-3.763-1.343-2.909-1.882-6.581-1.882-12.642v-2.136A10.469,10.469,0,0,0,300,334.78l3.448.112a10.844,10.844,0,0,0-.173,1.932v2.034c0,5.207.4,8.289,1.393,10.649.742,1.77,1.6,2.655,2.543,2.655.712,0,1.332-.549,2.187-1.943a7.119,7.119,0,0,0,1.139-3.051Zm8.259,2.563a11.119,11.119,0,0,0-.142-1.79c-.458-4.587-3.448-10.486-5.9-11.737l1.393-1.454a8.076,8.076,0,0,0,1.017,1.017,20.566,20.566,0,0,1,6.926,11.595,8.927,8.927,0,0,0,.336,1.363Z" transform="translate(4.931 5.446)" fill="#49240d"/>
    <path id="パス_479" data-name="パス 479" d="M338.727,333.527a8.847,8.847,0,0,0-.173-1.6h3.417a8.654,8.654,0,0,0-.173,1.6v2.187h6.581a6.559,6.559,0,0,0,1.6-.193v1.871a9.155,9.155,0,0,0-1.6-.163H341.8v3.926h6.723a8.654,8.654,0,0,0,1.6-.173v1.851a8.745,8.745,0,0,0-1.6-.173H341.8v4.76a33.757,33.757,0,0,1,7.262,3.407,5.755,5.755,0,0,0,1.454.692l-1.932,2.929a26.445,26.445,0,0,0-6.784-4.729v1.017c0,3.5-2.034,5.238-6.265,5.238s-6.774-1.932-6.774-4.923,2.644-4.729,6.662-4.729a21.1,21.1,0,0,1,3.306.285v-3.987h-8.32a9.555,9.555,0,0,0-1.6.173v-1.851a8.942,8.942,0,0,0,1.6.173h8.32v-3.875h-8.137a6.449,6.449,0,0,0-1.6.193v-1.9a6.286,6.286,0,0,0,1.6.193h8.137Zm0,14.921a13.224,13.224,0,0,0-3.621-.57c-2.9,0-4.7,1.221-4.7,3.163s1.882,3.356,4.668,3.356c2.512,0,3.651-1.2,3.651-3.845Z" transform="translate(5.423 5.397)" fill="#49240d"/>
    <path id="パス_480" data-name="パス 480" d="M368.928,333.077a8.847,8.847,0,0,0-.173-1.6H372.2a7.648,7.648,0,0,0-.173,1.6v2.705h6.031a9.157,9.157,0,0,0,1.6-.173v1.851a6.905,6.905,0,0,0-1.6-.173H372.03v9.235c0,5.635-3.194,8.849-10,9.967a3.957,3.957,0,0,0-1.281.4l-.57-1.6c4.78-.285,8.228-3.051,8.716-7.12a5,5,0,0,1-3.814,1.6,5.085,5.085,0,0,1-5.36-5.085,5.177,5.177,0,0,1,5.33-5.085,5.085,5.085,0,0,1,3.926,1.709v-3.987H356.4a9.453,9.453,0,0,0-1.627.173V335.64a9.255,9.255,0,0,0,1.627.173h12.551Zm-6.5,11.646a3.234,3.234,0,0,0,3.275,3.56,3.438,3.438,0,0,0,3.306-3.611,3.306,3.306,0,1,0-6.581.051Z" transform="translate(5.867 5.39)" fill="#49240d"/>
    <path id="パス_486" data-name="パス 486" d="M303.448,45.448a5.5,5.5,0,0,1,3.051-.834,4.414,4.414,0,0,1,4.607,4.76c0,3.4-1.81,5.441-4.821,5.441a6.723,6.723,0,0,1-4.475-1.566l.895-1.414a4.374,4.374,0,0,0,3.367,1.963c1.943,0,3.183-1.7,3.183-4.323,0-2.238-1.312-3.824-3.133-3.824a3.763,3.763,0,0,0-2.848,1.18h-.844l.488-8.381h7.76l-.254,1.871h-6.692Z" transform="translate(4.962 0.384)" fill="#ff878a"/>
    <path id="パス_487" data-name="パス 487" d="M318.237,54.6V40.078l-2.644,2.543-.773-1.749a9.763,9.763,0,0,0,2.543-1.383l.1-.061a13.838,13.838,0,0,0,1.17-1.017h1.3V54.6Z" transform="translate(5.184 0.383)" fill="#ff878a"/>
    <path id="パス_488" data-name="パス 488" d="M330.968,47.811c1.76-2.034,2.39-3.417,2.39-5.248s-1.017-3.316-2.5-3.316c-1.3,0-2.482,1.017-3.3,2.787l-1.088-1.505a5.533,5.533,0,0,1,4.546-2.278,3.906,3.906,0,0,1,4.129,4.231,6.662,6.662,0,0,1-1.526,4.251c-.081.1-.6.671-1.576,1.729l-3.845,4.17h7.191l-.356,1.973H326.33V53.13Z" transform="translate(5.381 0.381)" fill="#ff878a"/>
    <path id="パス_489" data-name="パス 489" d="M232.357,136.027a6.235,6.235,0,0,1,4.251-1.607c2.5,0,4,1.373,4,3.661a3.712,3.712,0,0,1-2.8,3.865,3.906,3.906,0,0,1,3.346,4.251c0,2.99-1.709,4.76-4.618,4.76a6.682,6.682,0,0,1-4.607-1.627l1.017-1.4a4.658,4.658,0,0,0,3.509,2.034c1.831,0,3.051-1.465,3.051-3.723a3.312,3.312,0,0,0-3.651-3.621,8.776,8.776,0,0,0-1.678.183v-1.383a6.723,6.723,0,0,0,1.434.142,3.133,3.133,0,0,0,3.417-3.5,2.441,2.441,0,0,0-2.492-2.665,4.14,4.14,0,0,0-3.173,2.1Z" transform="translate(3.768 2.024)" fill="#ff878a"/>
    <path id="パス_490" data-name="パス 490" d="M248.407,150.752V136.228l-2.655,2.543L245,137.041a9.936,9.936,0,0,0,2.543-1.383l.092-.061a12.633,12.633,0,0,0,1.18-1.017h1.271v16.161Z" transform="translate(3.992 2.026)" fill="#ff878a"/>
    <path id="パス_491" data-name="パス 491" d="M261.081,150.957c-3.051,0-4.851-3.194-4.851-8.381s1.851-8.137,4.851-8.137,4.851,3.133,4.851,8.137S264.031,150.957,261.081,150.957Zm0-15.592c-1.871,0-3.051,2.8-3.051,7.211s1.19,7.343,3.051,7.343,3.051-2.848,3.051-7.343-1.221-7.211-3.051-7.211Z" transform="translate(4.184 2.024)" fill="#ff878a"/>
    <path id="パス_492" data-name="パス 492" d="M169.817,189.961c1.749-2.034,2.39-3.417,2.39-5.248S171.19,181.4,169.7,181.4c-1.3,0-2.471,1.017-3.285,2.787l-1.088-1.505a5.523,5.523,0,0,1,4.536-2.278,3.906,3.906,0,0,1,4.17,4.231,6.662,6.662,0,0,1-1.526,4.251c-.081.1-.61.671-1.587,1.729l-3.834,4.17h7.191l-.356,1.973H165.21V195.25Z" transform="translate(2.629 2.809)" fill="#ff878a"/>
    <path id="パス_493" data-name="パス 493" d="M181.881,196.957c-3.051,0-4.851-3.194-4.851-8.381s1.851-8.137,4.851-8.137,4.851,3.133,4.851,8.137S184.872,196.957,181.881,196.957Zm0-15.592c-1.871,0-3.051,2.8-3.051,7.211s1.19,7.343,3.051,7.343,3.051-2.848,3.051-7.343-1.18-7.211-3.051-7.211Z" transform="translate(2.831 2.81)" fill="#ff878a"/>
    <path id="パス_494" data-name="パス 494" d="M194.081,196.957c-3.051,0-4.851-3.194-4.851-8.381s1.851-8.137,4.851-8.137,4.851,3.133,4.851,8.137S197.031,196.957,194.081,196.957Zm0-15.592c-1.871,0-3.051,2.8-3.051,7.211s1.19,7.343,3.051,7.343,3.051-2.848,3.051-7.343-1.22-7.211-3.051-7.211Z" transform="translate(3.039 2.81)" fill="#ff878a"/>
    <line id="線_155" data-name="線 155" x2="350.242" transform="translate(43.928 301.028)" fill="none" stroke="#ff878a" stroke-miterlimit="10" stroke-width="1"/>
    <line id="線_156" data-name="線 156" y1="6.998" transform="translate(43.928 294.03)" fill="none" stroke="#000" stroke-miterlimit="10" stroke-width="1"/>
    <text id="_0" data-name="0" transform="translate(29.404 307.597)" fill="#ff878a" font-size="16" font-family="Helvetica"><tspan x="0" y="0">0</tspan></text>
    <text id="_100" data-name="100" transform="translate(11.32 260.984)" fill="#ff878a" font-size="16" font-family="Helvetica"><tspan x="0" y="0">100</tspan></text>
    <text id="_200" data-name="200" transform="translate(11.32 214.381)" fill="#ff878a" font-size="16" font-family="Helvetica"><tspan x="0" y="0">200</tspan></text>
    <text id="_300" data-name="300" transform="translate(11.32 167.778)" fill="#ff878a" font-size="16" font-family="Helvetica"><tspan x="0" y="0">300</tspan></text>
    <text id="_400" data-name="400" transform="translate(11.32 121.176)" fill="#ff878a" font-size="16" font-family="Helvetica"><tspan x="0" y="0">400</tspan></text>
    <text id="_500" data-name="500" transform="translate(11.32 74.563)" fill="#ff878a" font-size="16" font-family="Helvetica"><tspan x="0" y="0">500</tspan></text>
    <text id="_600" data-name="600" transform="translate(11.32 27.96)" fill="#ff878a" font-size="16" font-family="Helvetica"><tspan x="0" y="0">600</tspan></text>
    <line id="線_157" data-name="線 157" y1="279.637" transform="translate(43.928 21.391)" fill="none" stroke="#ff878a" stroke-miterlimit="10" stroke-width="1"/>
    <line id="線_158" data-name="線 158" x2="8.757" transform="translate(43.928 301.028)" fill="none" stroke="#ff878a" stroke-miterlimit="10" stroke-width="1"/>
    <line id="線_159" data-name="線 159" x2="8.757" transform="translate(43.928 254.415)" fill="none" stroke="#ff878a" stroke-miterlimit="10" stroke-width="1"/>
    <line id="線_160" data-name="線 160" x2="8.757" transform="translate(43.928 207.812)" fill="none" stroke="#ff878a" stroke-miterlimit="10" stroke-width="1"/>
    <line id="線_161" data-name="線 161" x2="8.757" transform="translate(43.928 161.209)" fill="none" stroke="#ff878a" stroke-miterlimit="10" stroke-width="1"/>
    <line id="線_162" data-name="線 162" x2="8.757" transform="translate(43.928 114.607)" fill="none" stroke="#ff878a" stroke-miterlimit="10" stroke-width="1"/>
    <line id="線_163" data-name="線 163" x2="8.757" transform="translate(43.928 67.994)" fill="none" stroke="#ff878a" stroke-miterlimit="10" stroke-width="1"/>
    <line id="線_164" data-name="線 164" x2="8.757" transform="translate(43.928 21.391)" fill="none" stroke="#ff878a" stroke-miterlimit="10" stroke-width="1"/>
    <rect id="長方形_195" data-name="長方形 195" width="63.049" height="238.618" transform="translate(292.604 62.41)" fill="#cc6d73"/>
    <rect id="長方形_196" data-name="長方形 196" width="63.049" height="139.818" transform="translate(222.548 161.209)" fill="#f97f87"/>
    <rect id="長方形_197" data-name="長方形 197" width="63.049" height="93.205" transform="translate(152.501 207.812)" fill="#f99fa3"/>
    <rect id="長方形_198" data-name="長方形 198" width="63.049" height="46.603" transform="translate(82.455 254.415)" fill="#f8c7c9"/>
  </g>
</svg>
