<svg xmlns="http://www.w3.org/2000/svg" width="314" height="48" viewBox="0 0 314 48">
  <g id="グループ_90" data-name="グループ 90" transform="translate(0 0.126)">
    <g id="コンポーネント_2_43" data-name="コンポーネント 2 – 43" transform="translate(0 -0.126)">
      <g id="パス_10" data-name="パス 10" fill="#1877f2">
        <path d="M 290.4500122070312 47.5 L 23.54999923706055 47.5 C 20.43922996520996 47.5 17.42169189453125 46.87919235229492 14.58119201660156 45.65480804443359 C 11.83673095703125 44.47180938720703 9.37165355682373 42.77799987792969 7.254499912261963 40.62038421630859 C 5.136730670928955 38.46211624145508 3.473961591720581 35.94880676269531 2.3125 33.15023040771484 C 1.109807729721069 30.25246238708496 0.5 27.17388534545898 0.5 24 C 0.5 20.82611465454102 1.109807729721069 17.74753761291504 2.3125 14.84976959228516 C 3.473961591720581 12.05119228363037 5.136730670928955 9.537884712219238 7.254499912261963 7.379615306854248 C 9.37165355682373 5.222000122070312 11.83673095703125 3.528192281723022 14.58119201660156 2.345192193984985 C 17.42169189453125 1.120807647705078 20.43922996520996 0.5 23.54999923706055 0.5 L 290.4500122070312 0.5 C 293.5607604980469 0.5 296.5783081054688 1.120807647705078 299.4187622070312 2.345192193984985 C 302.1632690429688 3.528192281723022 304.6282958984375 5.222038269042969 306.7454528808594 7.379615306854248 C 308.86328125 9.537884712219238 310.5260009765625 12.05119228363037 311.6875 14.84976959228516 C 312.8901977539062 17.74753761291504 313.5 20.82611465454102 313.5 24 C 313.5 27.17388534545898 312.8901977539062 30.25246238708496 311.6875 33.15023040771484 C 310.5260009765625 35.94880676269531 308.86328125 38.46211624145508 306.7454528808594 40.62038421630859 C 304.6282958984375 42.77796173095703 302.1632690429688 44.47180938720703 299.4187622070312 45.65480804443359 C 296.5783081054688 46.87919235229492 293.5607604980469 47.5 290.4500122070312 47.5 Z" stroke="none"/>
        <path d="M 23.54998779296875 1 C 20.50772094726562 1 17.5567626953125 1.607082366943359 14.77911376953125 2.804374694824219 C 12.09451293945312 3.961540222167969 9.68292236328125 5.618709564208984 7.611419677734375 7.729831695556641 C 5.53863525390625 9.842250823974609 3.911163330078125 12.30220794677734 2.7742919921875 15.04145812988281 C 1.596954345703125 17.87816619873047 1 20.89225006103516 1 24 C 1 27.10774993896484 1.596954345703125 30.12183380126953 2.7742919921875 32.95854187011719 C 3.911163330078125 35.69779205322266 5.53863525390625 38.15774917602539 7.611419677734375 40.27016830444336 C 9.68292236328125 42.38129043579102 12.09451293945312 44.03845977783203 14.77911376953125 45.19562530517578 C 17.5567626953125 46.39291763305664 20.50772094726562 47 23.54998779296875 47 L 290.4500122070312 47 C 293.4922790527344 47 296.4432373046875 46.39291763305664 299.2208862304688 45.19562530517578 C 301.9054870605469 44.03845977783203 304.3170776367188 42.38129043579102 306.3885803222656 40.27016830444336 C 308.4613647460938 38.15774917602539 310.0888366699219 35.69779205322266 311.2257080078125 32.95854187011719 C 312.4030456542969 30.12183380126953 313 27.10774993896484 313 24 C 313 20.89225006103516 312.4030456542969 17.87816619873047 311.2257080078125 15.04145812988281 C 310.0888366699219 12.30220794677734 308.4613647460938 9.842250823974609 306.3885803222656 7.729831695556641 C 304.3170776367188 5.618709564208984 301.9054870605469 3.961540222167969 299.2208862304688 2.804374694824219 C 296.4432373046875 1.607082366943359 293.4922790527344 1 290.4500122070312 1 L 23.54998779296875 1 M 23.54998779296875 0 L 290.4500122070312 0 C 303.4562377929688 0 314 10.74516677856445 314 24 C 314 37.25483322143555 303.4562377929688 48 290.4500122070312 48 L 23.54998779296875 48 C 10.543701171875 48 0 37.25483322143555 0 24 C 0 10.74516677856445 10.543701171875 0 23.54998779296875 0 Z" stroke="none" fill="#1f74f2"/>
      </g>
      <text id="Facebookページへ" transform="translate(179 32)" fill="#fff" font-size="20" font-family="YuMin-Medium, YuMincho" font-weight="500"><tspan x="-80.64" y="0">Facebookページへ</tspan></text>
    </g>
    <path id="icon_facebook" d="M26.247,13.124A13.124,13.124,0,1,0,11.073,26.088V16.917H7.741V13.124h3.332V10.232c0-3.289,1.959-5.106,4.957-5.106a20.19,20.19,0,0,1,2.938.256v3.23H17.313a1.9,1.9,0,0,0-2.139,2.051v2.461h3.64l-.582,3.794H15.174v9.171A13.127,13.127,0,0,0,26.247,13.124Z" transform="translate(63.557 10.389)" fill="#fff"/>
  </g>
</svg>
