<svg xmlns="http://www.w3.org/2000/svg" width="109.928" height="107.108" viewBox="0 0 109.928 107.108">
  <g id="icon_attractiong_customers" transform="translate(0.977 0.7)">
    <circle id="楕円形_18" data-name="楕円形 18" cx="18.088" cy="18.088" r="18.088" transform="translate(35.699 34.521)" fill="none" stroke="#627ff5" stroke-miterlimit="10" stroke-width="2"/>
    <path id="パス_313" data-name="パス 313" d="M38.232,16.2C23.566,16.2,9.878,26.466,5.478,40.155L4.5,43.577H72.943l-1.467-3.911A35.475,35.475,0,0,0,38.232,16.2Z" transform="translate(15.555 61.831)" fill="none" stroke="#627ff5" stroke-miterlimit="10" stroke-width="2"/>
    <circle id="楕円形_19" data-name="楕円形 19" cx="14.177" cy="14.177" r="14.177" transform="translate(66.009 0.3)" fill="none" stroke="#627ff5" stroke-miterlimit="10" stroke-width="2"/>
    <path id="パス_314" data-name="パス 314" d="M18.889,28.622H55.066l-.978-2.933A27.525,27.525,0,0,0,28.177,7.6h0A29.461,29.461,0,0,0,14,11.511" transform="translate(52.498 28.388)" fill="none" stroke="#627ff5" stroke-miterlimit="10" stroke-width="2"/>
    <path id="パス_315" data-name="パス 315" d="M14.2,12.2" transform="translate(53.276 46.276)" fill="none" stroke="#627ff5" stroke-miterlimit="10" stroke-width="2"/>
    <circle id="楕円形_20" data-name="楕円形 20" cx="14.177" cy="14.177" r="14.177" transform="translate(12.722 0.3)" fill="none" stroke="#627ff5" stroke-miterlimit="10" stroke-width="2"/>
    <path id="パス_316" data-name="パス 316" d="M41.077,11.511A26.729,26.729,0,0,0,26.9,7.6h0A26.867,26.867,0,0,0,1.478,26.177L.5,28.622H35.7" transform="translate(0 28.388)" fill="none" stroke="#627ff5" stroke-miterlimit="10" stroke-width="2"/>
  </g>
</svg>
