<svg xmlns="http://www.w3.org/2000/svg" width="96.864" height="107.395" viewBox="0 0 96.864 107.395">
  <g id="beauty" transform="translate(-1.43 -0.13)">
    <circle id="楕円形_23" data-name="楕円形 23" cx="21.204" cy="21.204" r="21.204" transform="translate(30.88 23.208)" fill="none" stroke="#f5718a" stroke-miterlimit="10" stroke-width="2.75"/>
    <path id="パス_319" data-name="パス 319" d="M43.331,14A41.5,41.5,0,0,0,4.725,42.059L3.44,45.754H83.758l-1.232-4.337A41.23,41.23,0,0,0,43.331,14Z" transform="translate(8.753 60.396)" fill="none" stroke="#f5718a" stroke-miterlimit="10" stroke-width="2.75"/>
    <path id="パス_320" data-name="パス 320" d="M10.36,1.42c-.589,5.729-1.071,6.211-6.8,6.8,5.729.643,6.211,1.124,6.8,7.014.91-5.89.91-6.372,6.8-7.014C11.271,7.631,11.271,7.149,10.36,1.42Z" transform="translate(9.275 5.617)" fill="#f5718a"/>
    <path id="パス_321" data-name="パス 321" d="M17.41,6.986c2.731.321,3,.589,3.266,3.373.321-2.784.589-3,3.373-3.266C21.265,6.719,21,6.5,20.73,3.72,20.569,6.5,20.194,6.719,17.41,6.986Z" transform="translate(69.586 15.633)" fill="#f5718a"/>
    <path id="パス_322" data-name="パス 322" d="M16.61,13.866c2.784.321,3.052.535,3.32,3.32.321-2.731.535-3,3.32-3.266-2.784-.321-3-.589-3.266-3.32C19.662,13.331,19.394,13.6,16.61,13.866Z" transform="translate(66.102 45.592)" fill="#f5718a"/>
    <path id="パス_323" data-name="パス 323" d="M7.726,13.262c.428-4.123.75-4.5,4.873-4.926-4.123-.482-4.444-.8-4.873-4.926-.482,4.123-.8,4.444-4.926,4.926C6.923,8.765,7.244,9.139,7.726,13.262Z" transform="translate(5.966 14.283)" fill="#f5718a"/>
    <path id="パス_324" data-name="パス 324" d="M19.743,16.946c-7.657-.8-8.353-1.5-9.156-9.156-.75,7.657-1.5,8.353-9.156,9.156,7.657.8,8.353,1.5,9.156,9.156C11.389,18.446,12.086,17.749,19.743,16.946Z" transform="translate(0 33.356)" fill="#f5718a"/>
    <path id="パス_325" data-name="パス 325" d="M8.7,10.56c-.535,4.551-.91,4.926-5.355,5.355,4.551.535,4.926.91,5.355,5.355.482-4.551.857-4.926,5.355-5.355C9.561,15.486,9.186,15.111,8.7,10.56Z" transform="translate(8.361 45.418)" fill="#f5718a"/>
    <path id="パス_326" data-name="パス 326" d="M30.411,9.173c-6.1-.75-6.64-1.285-7.229-7.443-.7,6.158-1.285,6.8-7.443,7.282,6.158.7,6.693,1.285,7.229,7.389C23.718,10.3,24.254,9.762,30.411,9.173Z" transform="translate(62.314 6.967)" fill="#f5718a"/>
    <path id="パス_327" data-name="パス 327" d="M10.93,3.872c1.928,0,2.088.428,2.3,2.356,0-1.928.375-2.088,2.356-2.3-1.981,0-2.142-.375-2.3-2.356C13.072,3.444,12.858,3.872,10.93,3.872Z" transform="translate(41.368 6.271)" fill="#f5718a"/>
    <path id="パス_328" data-name="パス 328" d="M20.171,5.485C15.888,5,15.513,4.574,15.085.13,14.6,4.414,14.228,4.788,9.73,5.485c4.284.482,4.658.91,5.355,5.355C15.513,6.288,15.888,5.913,20.171,5.485Z" transform="translate(36.143 0)" fill="#f5718a"/>
    <path id="パス_329" data-name="パス 329" d="M31.451,15.913c-6.158-.75-6.693-1.285-7.282-7.443-.7,6.158-1.232,6.693-7.389,7.282,6.1.7,6.64,1.232,7.229,7.389C24.758,17.037,25.294,16.662,31.451,15.913Z" transform="translate(66.842 36.317)" fill="#f5718a"/>
  </g>
</svg>
