<svg xmlns="http://www.w3.org/2000/svg" width="560.17" height="48" viewBox="0 0 560.17 48">
  <g id="グループ_405" data-name="グループ 405" transform="translate(-359.582 -1529)">
    <path id="パス_356" data-name="パス 356" d="M0,0H560.17s-13.117,23.809-13.1,24,13.1,24,13.1,24H0L13.1,24Z" transform="translate(359.582 1529)" fill="#ff878a"/>
    <g id="グループ_238" data-name="グループ 238" transform="translate(3 -782)">
      <path id="パス_683" data-name="パス 683" d="M-219.21-12.61v.26c0,.52.234.728.806.728.7,0,1.144-.286,1.144-.91,0-.442-.13-1.872-.13-4.94V-19.11c.624-.442.7-.572.7-.78,0-.156-.1-.286-.494-.624-.858-.676-1.014-.78-1.17-.78s-.312.1-1.092.962H-232.86a15.642,15.642,0,0,0-2.21-1.04,35.17,35.17,0,0,1,.13,4c0,3.432-.078,4.394-.078,5.018,0,.52.234.7.806.7.728,0,1.118-.234,1.118-.832v-.13h4.784a6.8,6.8,0,0,1-.52,1.118,11.682,11.682,0,0,1-.962,1.534,10.7,10.7,0,0,0-2.7-.754c-.13-.026-.26.182-.156.26a8.251,8.251,0,0,1,2.7,2.652c.286.442.494.624.806.624a.947.947,0,0,0,.91-1.014,1.817,1.817,0,0,0-1.04-1.508,12.278,12.278,0,0,0,2.314-1.508c.806.078,1.014-.1,1.014-.338,0-.208-.364-.442-1.82-1.066Zm-13.884-.65v-2.912h5.98v2.912Zm13.884,0h-6.084v-2.912h6.084Zm0-3.562h-6.084v-2.86h6.084Zm-7.9-2.86v2.86h-5.98v-2.86ZM-227.3-2.236c0,2.288-.078,3.38-.078,3.718,0,.546.26.754.858.754.754,0,1.17-.234,1.17-.884,0-.468-.1-1.95-.1-3.744v-2.73c2.392-.234,4.758-.546,7.124-.936a6.763,6.763,0,0,1,.728,1.274c.39.858.572,1.04,1.04,1.04a1.068,1.068,0,0,0,.936-1.17c0-1.43-1.664-2.86-4.992-3.874-.156-.052-.312.208-.182.312a12.97,12.97,0,0,1,2.08,1.9c-2.834.208-5.668.286-8.5.39a32.908,32.908,0,0,0,5.252-3.692c.806.078,1.144-.078,1.144-.338,0-.286-.208-.442-2.34-1.43a9.569,9.569,0,0,1-1.144,1.664,42.441,42.441,0,0,1-3.926,3.822c-1.04.026-2.106.026-3.146.026a35.058,35.058,0,0,1-5.1-.208c.442,2.262.6,2.626.91,2.626.182,0,.338-.156.52-.7,2.678-.13,5.278-.312,7.748-.52Zm-9.75,3.77a16.816,16.816,0,0,0,6.682-3.588c.91,0,1.144-.1,1.144-.312,0-.286-.364-.494-2.392-1.508a8.626,8.626,0,0,1-1.248,1.768A20.715,20.715,0,0,1-237.2,1.2C-237.332,1.274-237.2,1.586-237.046,1.534Zm19.474-.208A1.036,1.036,0,0,0-216.558.182c0-1.534-2.5-3.172-6.344-4.03-.13-.026-.234.182-.13.26a13.421,13.421,0,0,1,4.42,4.082C-218.17,1.17-217.962,1.326-217.572,1.326ZM-208.55.312h4.186V.936c0,.468.234.676.806.676.7,0,1.092-.286,1.092-.832,0-.39-.078-1.716-.078-4.342V-4.888c.6-.39.728-.546.728-.754,0-.156-.1-.338-.494-.676-.832-.676-.988-.78-1.17-.78-.156,0-.286.1-1.092,1.014h-3.744a12.335,12.335,0,0,0-2.21-1.066,26.434,26.434,0,0,1,.182,3.77c0,3.094-.1,4.056-.1,4.576,0,.494.26.7.806.7.728,0,1.092-.286,1.092-.806Zm4.186-.65h-4.186v-5.1h4.186Zm16.146-11.414c.26,0,.338-.078.338-.26,0-.156-.13-.312-.65-.78-1.17-1.014-1.352-1.144-1.508-1.144s-.364.13-1.482,1.534h-2.886v-7.826c.832-.364.91-.494.91-.676,0-.39-.416-.494-3.042-.728.182,1.04.208,2.756.208,9.23h-3.042a8.831,8.831,0,0,1-2-.182l.26.988a10.556,10.556,0,0,1,1.742-.156h3.042v.65c0,8.554-.13,11.284-.13,12.142,0,.52.234.754.858.754.91,0,1.352-.286,1.352-.936,0-1.066-.13-4.134-.156-12.61Zm-22.1-7.384a6.964,6.964,0,0,1,1.586-.156h6.786c.26,0,.338-.078.338-.26,0-.156-.13-.312-.6-.7-1.144-.884-1.326-1.014-1.508-1.014-.156,0-.338.13-1.352,1.326h-3.666a8.092,8.092,0,0,1-1.872-.208Zm-1.222,3.51a10.5,10.5,0,0,1,1.716-.156h9.126c.26,0,.338-.078.338-.234s-.13-.312-.6-.754c-1.04-.884-1.248-.988-1.4-.988s-.39.1-1.352,1.326H-209.8a9.3,9.3,0,0,1-2-.234Zm1.2,3.406a6.886,6.886,0,0,1,1.56-.156h6.552c.234,0,.338-.078.338-.26,0-.156-.13-.312-.546-.676-.988-.78-1.2-.91-1.352-.91s-.364.13-1.2,1.2h-3.8a7.88,7.88,0,0,1-1.846-.208Zm.1,3.354a8.788,8.788,0,0,1,1.56-.156h6.422c.26,0,.338-.078.338-.234,0-.182-.1-.338-.52-.65-1.014-.832-1.2-.962-1.378-.962-.156,0-.338.13-1.17,1.2h-3.692a8.245,8.245,0,0,1-1.872-.208Zm27.876-13.886h6.48c1.3,0,2.2.036,3.636.072a.375.375,0,0,0,.36-.252l1.188-3.24c.036-.144-.072-.288-.324-.288-2.376.108-4.644.144-6.12.144-1.908,0-4.212,0-5.652-.036a.59.59,0,0,0-.5.216.664.664,0,0,0-.216.468l-.864,11.484a8.293,8.293,0,0,1-.216,1.008c-.072.324-.072.5.432.72.612.252.756.18.972-.18a4.88,4.88,0,0,1,4.536-2.628c2.232,0,4.248,2.376,4.248,6.48,0,4.284-1.152,7.524-3.96,7.524a2.727,2.727,0,0,1-2.592-1.98c-.4-.972-.936-2.664-2.34-2.664-1.692,0-2.592.72-2.592,1.476,0,1.188,1.26,2.376,2.448,3.06a10.434,10.434,0,0,0,5.076,1.224c5.4,0,8.244-3.816,8.244-8.676,0-4.68-2.808-7.812-7.272-7.812a6.978,6.978,0,0,0-5.688,2.232c.072-.756.18-1.332.216-1.872Zm23.436-4.284c-5.112,0-8.064,5.184-8.064,13.608,0,8.316,2.88,13.284,8.064,13.284,5,0,7.992-5.22,7.992-13.5C-150.936-21.852-153.924-27.036-158.928-27.036Zm0,1.116c3.06,0,3.78,4.86,3.78,12.384,0,7.488-.792,12.276-3.78,12.276-3.1,0-3.852-4.788-3.852-12.276C-162.78-21.06-162.024-25.92-158.928-25.92Zm18.792-1.116c-5.112,0-8.064,5.184-8.064,13.608,0,8.316,2.88,13.284,8.064,13.284,5,0,7.992-5.22,7.992-13.5C-132.144-21.852-135.132-27.036-140.136-27.036Zm0,1.116c3.06,0,3.78,4.86,3.78,12.384,0,7.488-.792,12.276-3.78,12.276-3.1,0-3.852-4.788-3.852-12.276C-143.988-21.06-143.232-25.92-140.136-25.92Zm22.828,11.464A25.681,25.681,0,0,0-115.7-7.488,20.847,20.847,0,0,0-109.248.884a3.422,3.422,0,0,0,1.352.754c.234,0,.338-.1.494-.546A2.361,2.361,0,0,1-105.686-.78c.13-.026.13-.26,0-.312A17.282,17.282,0,0,1-114.162-7.9a20.39,20.39,0,0,1-2.99-8.918c.052-.806.078-1.586.1-2.392.78-.364.91-.468.91-.728,0-.494-.364-.572-3.77-.884a16.841,16.841,0,0,1,.13,2.184c0,9.516-2.73,15.054-9.828,20.1-.1.078.052.338.182.286C-121.728-1.768-118.27-6.188-117.308-14.456Zm30.342-4.6a1.117,1.117,0,0,0-.416,0c-.078.026-.13.052-.13.156s.182.234.286.338a9.731,9.731,0,0,1,1.638,2.288.932.932,0,0,0,.884.6.873.873,0,0,0,.858-.91,1.948,1.948,0,0,0-.962-1.56A5.075,5.075,0,0,0-86.966-19.058Zm2.08-1.638a.682.682,0,0,0-.416.026.157.157,0,0,0-.078.156c0,.1.208.234.312.312a6.6,6.6,0,0,1,1.82,2.028,1,1,0,0,0,.962.572.871.871,0,0,0,.806-.962,1.67,1.67,0,0,0-.936-1.326A5.34,5.34,0,0,0-84.886-20.7ZM-83.82-6.89a1.158,1.158,0,0,1,.884.468,1.228,1.228,0,0,0,1.066.416c.442-.026,1.092-.39,1.092-1.43a6.116,6.116,0,0,0-2.184-4.81A8.014,8.014,0,0,0-87.174-14.4c-.078,0-.13-.026-.182-.026-.26,0-.39.078-.39.26,0,.156.208.26.468.364a6.312,6.312,0,0,1,2.99,2.652,4.289,4.289,0,0,1,.78,2.132c0,.416-.858.91-3.146,1.82-.234.1-.234.13-.234.234s.052.182.286.182c.182,0,.494-.026.78-.052C-85.3-6.864-84.73-6.89-83.82-6.89ZM-93.492-14.2c.39-.858.754-1.586.988-2.132a1.914,1.914,0,0,1,.546-.806,1.024,1.024,0,0,0,.6-.832,1.018,1.018,0,0,0-.234-.728,4.245,4.245,0,0,0-2.73-1.482,4.105,4.105,0,0,0-1.274.208c-.26.078-.442.234-.442.468,0,.156.182.182.39.26a6.493,6.493,0,0,1,1.014.442.776.776,0,0,1,.39.754,14.946,14.946,0,0,1-1.222,4.16c-1.066.26-2.054.546-3.016.728a10.776,10.776,0,0,1-2.236.312,1.98,1.98,0,0,1-1.326-.91c-.1-.156-.13-.286-.338-.286-.234,0-.39.39-.39.936a2.99,2.99,0,0,0,.988,1.768,2.23,2.23,0,0,0,1.456.7,1.02,1.02,0,0,0,.676-.234,5.179,5.179,0,0,1,.754-.364c.832-.364,1.82-.754,2.834-1.144A83.375,83.375,0,0,1-101.812-2.34a2.418,2.418,0,0,0-.494,1.4A1.052,1.052,0,0,0-101.318.1a1.25,1.25,0,0,0,1.144-.572C-99.5-1.586-98.562-3.328-97.6-5.3c1.092-2.21,2.5-5.278,3.666-7.748a7.157,7.157,0,0,1,1.352-.208c1.17,0,1.534.728,1.534,3.172a15.96,15.96,0,0,1-.624,4.134A9.211,9.211,0,0,1-93.024-2.99a1.127,1.127,0,0,1-.988.468A2.756,2.756,0,0,1-95-2.808a11.288,11.288,0,0,1-1.768-1.014.58.58,0,0,0-.338-.156.191.191,0,0,0-.208.208c0,.078.052.156.182.312a15.466,15.466,0,0,1,1.118,1.4,2.079,2.079,0,0,1,.52,1.378C-95.52.156-95,.494-94.22.494c.884,0,1.638-.6,2.548-1.56a8.454,8.454,0,0,0,1.534-2.782,17.341,17.341,0,0,0,.962-5.9c0-2.626-1.274-4.524-2.964-4.524A8.651,8.651,0,0,0-93.492-14.2Zm22.048,5.122c2.626,1.352,3.8,2.366,3.8,4.342a3.611,3.611,0,0,1-3.77,3.744c-2.262,0-4.29-2.054-5.46-4.68-.052-.13-.156-.208-.442-.156-.312.052-.312.234-.286.416a38.226,38.226,0,0,0,.91,4.342,14.964,14.964,0,0,0,4.992.91c4.368,0,6.942-2.106,6.942-5.616,0-3.094-1.3-4.264-4.992-6.058l-1.4-.676c-2.184-1.066-2.886-2.158-2.886-3.328a3.06,3.06,0,0,1,3.12-3.276c2.08,0,3.692,1.716,4.706,4.108.052.13.1.208.39.156.26-.052.26-.13.26-.26-.1-1.378-.286-3.068-.286-4.394a6.575,6.575,0,0,1-2.574-.078,9.8,9.8,0,0,0-2.626-.364c-3.484,0-5.824,2.028-5.824,4.68s1.04,3.952,4.134,5.512Zm9.516-1.9a.74.74,0,0,1,.91.546,6.955,6.955,0,0,1,.182,2.158V-4.42a7.685,7.685,0,0,1-.182,2.756c-.234.416-.65.416-1.378.494-.182.026-.234.078-.234.312s.052.286.234.286c.962-.026,2-.078,2.912-.078.884,0,1.976.052,2.886.078.156,0,.208-.026.208-.26,0-.26-.052-.312-.208-.338-.728-.078-1.274-.078-1.456-.494A9.291,9.291,0,0,1-58.21-4.42V-7.93a3.421,3.421,0,0,1,.572-2.08,2.618,2.618,0,0,1,2.184-1.482,1.838,1.838,0,0,1,1.846,1.3,5.21,5.21,0,0,1,.286,2.236V-4.42a8.111,8.111,0,0,1-.208,2.756c-.208.416-.624.442-1.326.494-.182,0-.234.052-.234.286,0,.26.026.312.234.312.962-.026,2.028-.078,2.964-.078.832,0,1.872.052,2.86.078.182,0,.208-.052.208-.286s-.026-.286-.182-.312c-.78-.078-1.3-.1-1.482-.494A8.921,8.921,0,0,1-50.67-4.42V-7.982a3.244,3.244,0,0,1,.546-2.028,2.663,2.663,0,0,1,2.236-1.482,1.793,1.793,0,0,1,1.82,1.3,5.644,5.644,0,0,1,.286,2.236V-4.42a8.111,8.111,0,0,1-.208,2.756c-.208.416-.624.416-1.352.494-.182,0-.234.026-.234.286s.026.312.234.312C-46.328-.6-45.236-.65-44.326-.65c.884,0,1.95.078,2.86.078.182,0,.208-.052.208-.312,0-.234-.052-.26-.208-.286-.7-.078-1.248-.1-1.456-.494A8.921,8.921,0,0,1-43.1-4.42V-6.214c0-.624.026-1.924.026-2.886a3.56,3.56,0,0,0-3.692-3.718,4.5,4.5,0,0,0-4.056,2.574,3.65,3.65,0,0,0-3.718-2.574,4.336,4.336,0,0,0-3.666,2.47c0-.65.026-1.43.052-2.184,0-.1-.13-.208-.286-.208-1.274.416-3.094.91-4.16,1.144-.26.052-.312.078-.286.39.026.286.078.312.338.286Zm31.564,2.028c.026-2.028-.026-3.874-3.848-3.874-3.2,0-5.2,1.9-5.2,3.12,0,.52.208.832,1.014.832,1.352,0,2-.546,2-1.248a1.8,1.8,0,0,1,.468-1.456,1.8,1.8,0,0,1,1.352-.52c1.066,0,1.56.806,1.56,2.756v.728a1.4,1.4,0,0,1-.6,1.014,5.439,5.439,0,0,1-2.028.936,8.351,8.351,0,0,0-3.328,1.43,3.01,3.01,0,0,0-.884,2.314c0,1.17.78,2.756,3.328,2.756a4.548,4.548,0,0,0,3.64-1.534,2.209,2.209,0,0,0,2.21,1.4,3.682,3.682,0,0,0,2.21-.6c.182-.13.182-.208.078-.39s-.234-.182-.338-.13a1.3,1.3,0,0,1-.754.182c-.6,0-.962-.624-.936-2.288Zm-2.678,5.512A2.259,2.259,0,0,1-35.356-1.17,1.944,1.944,0,0,1-36.994-3.3a2.631,2.631,0,0,1,1.9-2.73c1.456-.546,1.82-.754,2.08-1.144Zm6.344-7.54a.742.742,0,0,1,.884.572,7.586,7.586,0,0,1,.208,2.132V-4.42a7.134,7.134,0,0,1-.26,2.756c-.182.416-.6.416-1.378.494-.156.026-.208.052-.208.338,0,.234.052.26.208.26C-26.282-.6-25.086-.65-24.2-.65c.858,0,1.95.052,2.938.078.13,0,.182-.026.182-.26,0-.286-.026-.338-.182-.338-.91-.078-1.326-.078-1.534-.494A8.82,8.82,0,0,1-22.98-4.42V-7.592a3.358,3.358,0,0,1,.728-2.288c.52-.65.884-.78,1.2-.78.52,0,.884.572,1.456.572.624,0,1.4-.91,1.4-1.95,0-.468-.546-.806-1.43-.806-1.482,0-2.574,1.456-3.354,2.86,0-1.04.052-1.82.078-2.548,0-.13-.156-.234-.338-.234A36.8,36.8,0,0,1-27.4-11.6c-.286.052-.338.1-.312.39s.078.312.364.286Zm10.816-.338-.052,3.718c-.026,1.248-.052,2.418-.052,3.666A3.932,3.932,0,0,0-15.1-1.014a3.682,3.682,0,0,0,2.73.884A4.141,4.141,0,0,0-9.226-1.482c.208-.208.1-.338-.052-.494s-.286-.182-.416-.078a2.563,2.563,0,0,1-1.664.7,1.743,1.743,0,0,1-1.4-.7,4.482,4.482,0,0,1-.494-2.678l.052-6.656c1.118,0,2.34.052,3.3.1a.258.258,0,0,0,.26-.182l.286-.754c.026-.1,0-.182-.1-.182-1.092.052-2.522.078-3.692.078,0-.806.052-1.794.078-2.652,0-.182-.052-.26-.364-.26-.286,0-.364.052-.442.26a5.836,5.836,0,0,1-1.352,1.846,4.418,4.418,0,0,1-2.288,1.118c-.286.026-.312.1-.312.364,0,.312.052.364.286.364Zm26.676.624c3.952-1.014,5.1-2.678,5.1-4.576,0-2.574-1.664-4.316-7.072-4.316-1.43,0-3.016.13-4.238.13q-1.755,0-3.51-.078c-.208,0-.26.052-.26.364,0,.286.052.312.234.338,1.118.1,1.69.13,2,.624.338.572.338.91.338,3.406v9.438c0,1.742,0,2.886-.338,3.458s-.884.572-1.872.676C.992-1.2.966-1.144.966-.884s.026.312.208.312C2.266-.6,3.514-.624,4.632-.624c1.274,0,2.99.13,4.5.13,6.214,0,7.956-2.7,7.956-5.33,0-2.678-2.236-4.316-6.292-4.706Zm-4.42-4.108a8.76,8.76,0,0,1,.286-3.328c.338-.546,1.014-.572,1.846-.572,2.626,0,4.134,1.274,4.134,3.64,0,2.236-1.066,4.108-5.382,4.108-.338,0-.494,0-.884-.026Zm0,4.784c.65-.026.858-.026,1.2-.026,5.694,0,6.136,2.574,6.136,4.238,0,2-.936,4.446-4.706,4.446-1.092,0-1.872-.078-2.262-.754a7.4,7.4,0,0,1-.364-3.25Zm15.99,2.548c2.314-.052,4.94-.026,7.566.052.156,0,.26.026.39-.13a.56.56,0,0,0,.13-.442,5.135,5.135,0,0,0-5.07-4.836A6.129,6.129,0,0,0,19.348-6.4a5.879,5.879,0,0,0,6.006,6.24,5.156,5.156,0,0,0,4.81-2.574.806.806,0,0,0,.13-.286c0-.078-.1-.182-.208-.26a.467.467,0,0,0-.234-.1.316.316,0,0,0-.26.13,3.987,3.987,0,0,1-3.614,1.872c-1.612,0-3.718-1.716-3.718-5.148A3.873,3.873,0,0,1,22.364-7.462Zm.13-.936c.39-2.132,1.482-3.64,2.886-3.64,1.508,0,2.132,1.69,2.21,3.146,0,.234-.026.39-.234.416A43.346,43.346,0,0,1,22.494-8.4Zm27.9-4.42a1.117,1.117,0,0,0-.416,0c-.078.026-.13.052-.13.156s.182.234.286.338a9.731,9.731,0,0,1,1.638,2.288.932.932,0,0,0,.884.6.873.873,0,0,0,.858-.91,1.948,1.948,0,0,0-.962-1.56A5.075,5.075,0,0,0,50.392-12.818ZM52.5-14.4a.682.682,0,0,0-.416.026.157.157,0,0,0-.078.156c0,.1.208.234.312.312a6.6,6.6,0,0,1,1.82,2.028,1,1,0,0,0,.962.572.871.871,0,0,0,.806-.962,1.67,1.67,0,0,0-.936-1.326A5.34,5.34,0,0,0,52.5-14.4Zm-7.046-.962a12.047,12.047,0,0,0-3.614,3.8A9.336,9.336,0,0,0,40.824-7.2a6.783,6.783,0,0,0,3.822,5.98A12.5,12.5,0,0,0,49.69,0c1.222,0,1.69-.546,1.69-1.248a1.508,1.508,0,0,0-1.014-1.326,4.834,4.834,0,0,0-2-.364A8.14,8.14,0,0,1,44.2-4.29a4.607,4.607,0,0,1-1.9-3.874,7.141,7.141,0,0,1,1.872-5.044,8.505,8.505,0,0,1,5.954-2.808c1.456-.13,2.028-.078,2.574-.13.728-.026.962-.416.962-.936,0-.546-.39-.806-.832-1.014a6.334,6.334,0,0,0-2.392-.416,1.853,1.853,0,0,0-.988.234,7.865,7.865,0,0,1-1.43.494c-1.976.572-4.576,1.274-7.9,2.054a34.175,34.175,0,0,1-4.342.858c-.78.026-.988-.078-1.9-1.014-.234-.286-.312-.26-.416-.26-.156,0-.26.39-.26.806a3.185,3.185,0,0,0,.962,1.872c.858.962,1.456,1.3,1.976,1.274a1.057,1.057,0,0,0,.754-.286,4.011,4.011,0,0,1,.988-.6A58.771,58.771,0,0,1,45.452-15.5Zm23.192,8.4h-8.32a8.3,8.3,0,0,1-1.82-.208l.286.962a10.129,10.129,0,0,1,1.638-.156h8.216v5.356c0,.286-.13.39-.442.39-.936,0-2.288-.078-3.718-.182-.13,0-.156.338-.026.364,2.08.52,2.834.962,2.964,1.9.1.572.156.676.65.676A3.018,3.018,0,0,0,70.7,1.17a2.772,2.772,0,0,0,.468-1.69c0-.988-.052-1.664-.078-3.094V-6.37H81.644c.26,0,.338-.078.338-.26s-.208-.39-.832-.91c-1.378-1.066-1.664-1.274-1.9-1.274-.182,0-.494.208-1.82,1.846H71.088v-.806c.676-.312.91-.494.91-.754,0-.182,0-.286-.494-.416a25.235,25.235,0,0,0,4.134-2.522c.988-.026,1.274-.156,1.274-.52,0-.208-.156-.39-.6-.78-1.014-.91-1.222-1.066-1.482-1.066-.208,0-.416.156-1.482,1.118H64.718a7.1,7.1,0,0,1-1.69-.208l.286,1.014a5.6,5.6,0,0,1,1.482-.208h8.5a16.594,16.594,0,0,1-2.652,2.99c-.494-.078-1.17-.182-2.08-.338a16.089,16.089,0,0,1,.078,1.95ZM61.806-16.12a9.084,9.084,0,0,0-.286-1.3c-.026-.13-.234-.1-.26.026-.234,1.638-.572,2.158-1.95,2.834a1.261,1.261,0,0,0-.806,1.248,1.3,1.3,0,0,0,1.352,1.378c1.4,0,2.21-1.378,2.028-3.588H78.42a14.657,14.657,0,0,1-.832,2.6c-.052.13.13.26.234.208a13.731,13.731,0,0,0,2.444-1.612c.182-.182.208-.182.624-.208.988-.078,1.118-.156,1.118-.572,0-.208-.156-.416-.676-.962-1.2-1.2-1.378-1.352-1.638-1.352-.208,0-.416.156-1.482,1.3h-4.03a24.959,24.959,0,0,0,3.588-3.042c.884,0,1.2-.182,1.2-.494,0-.338-.754-.78-3.094-1.846a21.015,21.015,0,0,1-.936,2.366,32.07,32.07,0,0,1-1.664,3.016ZM71.816-18.3c0-1.43-1.2-2.444-3.926-3.354-.13-.052-.208.13-.13.234a6.02,6.02,0,0,1,1.4,2.886c.26,1.4.442,1.664,1.2,1.664A1.386,1.386,0,0,0,71.816-18.3ZM66.3-17.94c0-1.378-1.144-2.34-3.9-3.12a.171.171,0,0,0-.156.26,5.951,5.951,0,0,1,1.4,2.73c.286,1.3.546,1.638,1.248,1.638A1.424,1.424,0,0,0,66.3-17.94ZM90.718-7.566c2.028-3.562,3.8-6.656,4.94-8.45a2.032,2.032,0,0,1,.832-.806.884.884,0,0,0,.6-.806,2.239,2.239,0,0,0-.936-1.638c-1.17-1.014-1.794-1.248-2.5-1.248-.6,0-1.092.13-1.092.416,0,.182.078.156.26.234a2.646,2.646,0,0,1,.988.754,1.159,1.159,0,0,1,.208,1.222c-.546,1.43-1.2,2.6-2.86,5.876-.806,1.586-2.08,3.874-4.212,7.878-.468.858-.78,1.534-.91,1.82a2.3,2.3,0,0,0-.208,1.066,1.254,1.254,0,0,0,.338.78,1.767,1.767,0,0,0,1.092.416.784.784,0,0,0,.624-.286,3.573,3.573,0,0,0,.6-1.274A21.149,21.149,0,0,1,90.77-6.344a3.367,3.367,0,0,1,2.7-1.846c1.118,0,1.638,1.014,1.664,3.588A7.073,7.073,0,0,0,95.762-1.2a2.984,2.984,0,0,0,2.73,1.56,6.426,6.426,0,0,0,4.914-2.028,12.183,12.183,0,0,0,2.7-4.5,18.678,18.678,0,0,0,.754-3.354c0-.312-.052-.468-.234-.468-.208,0-.26.13-.364.416a15.709,15.709,0,0,1-2.73,5.174A6.078,6.078,0,0,1,99.142-1.95a1.612,1.612,0,0,1-1.56-.884,6.009,6.009,0,0,1-.442-2.288c-.13-2.808-1.326-4.056-3.25-4.056A4.234,4.234,0,0,0,90.77-7.54Zm37.674-5.252a1.117,1.117,0,0,0-.416,0c-.078.026-.13.052-.13.156s.182.234.286.338a9.73,9.73,0,0,1,1.638,2.288.932.932,0,0,0,.884.6.873.873,0,0,0,.858-.91,1.948,1.948,0,0,0-.962-1.56A5.075,5.075,0,0,0,128.392-12.818ZM130.5-14.4a.682.682,0,0,0-.416.026.157.157,0,0,0-.078.156c0,.1.208.234.312.312a6.6,6.6,0,0,1,1.82,2.028,1,1,0,0,0,.962.572.871.871,0,0,0,.806-.962,1.67,1.67,0,0,0-.936-1.326A5.34,5.34,0,0,0,130.5-14.4Zm-7.046-.962a12.047,12.047,0,0,0-3.614,3.8A9.336,9.336,0,0,0,118.824-7.2a6.783,6.783,0,0,0,3.822,5.98A12.5,12.5,0,0,0,127.69,0c1.222,0,1.69-.546,1.69-1.248a1.508,1.508,0,0,0-1.014-1.326,4.834,4.834,0,0,0-2-.364A8.14,8.14,0,0,1,122.2-4.29a4.607,4.607,0,0,1-1.9-3.874,7.141,7.141,0,0,1,1.872-5.044,8.505,8.505,0,0,1,5.954-2.808c1.456-.13,2.028-.078,2.574-.13.728-.026.962-.416.962-.936,0-.546-.39-.806-.832-1.014a6.334,6.334,0,0,0-2.392-.416,1.853,1.853,0,0,0-.988.234,7.865,7.865,0,0,1-1.43.494c-1.976.572-4.576,1.274-7.9,2.054a34.175,34.175,0,0,1-4.342.858c-.78.026-.988-.078-1.9-1.014-.234-.286-.312-.26-.416-.26-.156,0-.26.39-.26.806a3.185,3.185,0,0,0,.962,1.872c.858.962,1.456,1.3,1.976,1.274a1.057,1.057,0,0,0,.754-.286,4.011,4.011,0,0,1,.988-.6,58.771,58.771,0,0,1,7.566-2.418Zm28.522,1.17c-.13,0-.234.052-.234.182,0,.156.156.234.338.364a8.778,8.778,0,0,1,2.7,2.652,7.3,7.3,0,0,1,1.248,3.3.6.6,0,0,1-.416.624,17.9,17.9,0,0,1-1.82.624c-.26.078-.494.13-.494.286s.078.234.39.26c1.664.13,2.262.572,2.73,1.3a.945.945,0,0,0,.962.494,1,1,0,0,0,.91-.546,3,3,0,0,0,.39-1.872,8.032,8.032,0,0,0-.936-3.406,8.969,8.969,0,0,0-3.484-3.484A5.763,5.763,0,0,0,151.974-14.2Zm-5.1,4.628a1.09,1.09,0,0,0,.1-.416c0-.13-.13-.182-.26-.182s-.312.208-.52.52c-1.43,2.236-2.106,3.432-2.912,4.55a.961.961,0,0,1-.624.468c-.442,0-.858-.52-1.144-1.274a10.131,10.131,0,0,1-.572-3.64,12.792,12.792,0,0,1,.442-3.744,1.817,1.817,0,0,0,.234-1.014,3.344,3.344,0,0,0-1.482-2.288,3.266,3.266,0,0,0-1.872-.936c-.442,0-.546.052-.546.26,0,.156.052.156.182.286a2.823,2.823,0,0,1,1.066,1.95c.052,1.274,0,2.5,0,3.614a24.236,24.236,0,0,0,.338,4.264,8.67,8.67,0,0,0,2.7,5.1,3.658,3.658,0,0,0,2.5,1.118A1,1,0,0,0,145.5-2a2.393,2.393,0,0,0-.416-1.118,1.564,1.564,0,0,1-.182-.7A9.115,9.115,0,0,1,145.24-5.2,36.3,36.3,0,0,1,146.878-9.568Zm22.932-3.978a8.661,8.661,0,0,0-1.274,1.014,3.3,3.3,0,0,0-.988,2.158c0,1.3,1.144,2.158,3.718,2.158.442,0,1.43,0,2.106-.052.052,1.118.078,2.366.078,3.588a16.277,16.277,0,0,0-2.782.026,6.013,6.013,0,0,0-2.47.78,2.551,2.551,0,0,0-1.3,2.08A2.684,2.684,0,0,0,168.146.468a5.916,5.916,0,0,0,3.3.884c2.99,0,4.186-1.508,4.056-3.874a16.109,16.109,0,0,1,4.68,3.146,1.344,1.344,0,0,0,.962.416A1.076,1.076,0,0,0,182.134-.1c0-.962-.728-1.56-1.56-2.054a19.287,19.287,0,0,0-5.252-2.288c-.078-1.04-.234-2.912-.26-4.03a21.211,21.211,0,0,0,4.212-1.066c.832-.312,1.4-.546,1.4-1.092,0-.6-.442-.936-1.222-.936a1.466,1.466,0,0,1-.962-.234c-.442-.26-.962-.6-1.43-.936-.234-.182-.39-.078-.286.156a7.529,7.529,0,0,1,.6.988c.208.494.26.676-.1.832a11.094,11.094,0,0,1-2.262.546c-.026-1.378-.026-2.652,0-3.9,1.664-.234,3.77-.442,5.538-.6,1.378-.13,1.716-.286,1.716-1.066,0-.65-.91-1.326-1.872-1.326a1.972,1.972,0,0,0-1.274.26,5.792,5.792,0,0,1-1.482.468c-.754.156-1.56.312-2.548.468.026-.468.078-.806.13-1.43a1.263,1.263,0,0,1,.494-.988.983.983,0,0,0,.364-.728c0-.312-.182-.78-1.118-1.326a3.964,3.964,0,0,0-2-.65,1.665,1.665,0,0,0-1.04.442c-.208.208-.312.338-.312.494,0,.13.052.182.156.182a4.087,4.087,0,0,1,.6.1,1.52,1.52,0,0,1,.728.312c.208.208.234.546.234,1.3v2.548a39.585,39.585,0,0,1-5.33.6c-1.586,0-2.6-.26-3.224-.936-.1-.1-.13-.156-.234-.156a.251.251,0,0,0-.234.234.766.766,0,0,0,.13.338,3.594,3.594,0,0,0,3.432,2.08C168.51-13.494,169.368-13.52,169.81-13.546Zm1.066.026c.962-.13,1.586-.234,2.444-.338.026,1.378.026,2.47.026,3.848a25.921,25.921,0,0,1-2.6.156c-1.508,0-2.08-.494-2.08-1.144a2.185,2.185,0,0,1,.728-1.43A5.483,5.483,0,0,1,170.876-13.52Zm2.6,10.4a3.144,3.144,0,0,1-.416,2.054,2.814,2.814,0,0,1-2.158.728,4.934,4.934,0,0,1-2.236-.338,1.423,1.423,0,0,1-.832-1.17,1.294,1.294,0,0,1,.65-1.066,4.926,4.926,0,0,1,2-.494A9.589,9.589,0,0,1,173.476-3.12Zm28.782-12.688c.026-.988.052-1.456.1-2.054a.854.854,0,0,1,.286-.546,1.1,1.1,0,0,0,.364-.754c0-.364-.286-.7-.754-1.014a4.064,4.064,0,0,0-2.34-.858,2.357,2.357,0,0,0-1.378.6c-.234.182-.416.364-.416.546,0,.13.13.182.286.208.26.026.468.052.988.1.468.052.6.208.7.442a2.436,2.436,0,0,1,.1.91c.026,1.014.052,1.82.052,2.652-2.106.26-4.68.624-6.89.988a15.048,15.048,0,0,1-1.846.234,3.27,3.27,0,0,1-2.288-.962.359.359,0,0,0-.234-.13.274.274,0,0,0-.26.208.912.912,0,0,0-.078.416,3.414,3.414,0,0,0,1.248,1.95,2.451,2.451,0,0,0,1.664.806,1.415,1.415,0,0,0,.858-.286,4.727,4.727,0,0,1,1.534-.676,56.96,56.96,0,0,1,6.292-1.144c.026.91.052,1.872.026,2.886a6.123,6.123,0,0,0-1.326-.156,3.746,3.746,0,0,0-2.158.806,3.2,3.2,0,0,0-1.092,2.522,3.3,3.3,0,0,0,1.118,2.522,3.023,3.023,0,0,0,1.872.7A3.293,3.293,0,0,0,200.23-5.2c-.832,2.626-3.094,4.732-6.76,6.032-.208.078-.312.156-.312.364,0,.156.182.26.364.26a7.846,7.846,0,0,0,1.456-.26,11.352,11.352,0,0,0,4.654-2.184,7.788,7.788,0,0,0,3.12-6.11,7.425,7.425,0,0,0-.65-3.12c0-1.482.052-2.834.078-4.16,1.69-.13,2.86-.156,4.524-.156a12.229,12.229,0,0,1,2.912.442,4.6,4.6,0,0,0,1.274.13.778.778,0,0,0,.832-.78,1.5,1.5,0,0,0-.754-1.222,5.357,5.357,0,0,0-2.6-.728,1.947,1.947,0,0,0-.858.26,4.137,4.137,0,0,1-1.17.26C205.2-16.042,203.948-15.938,202.258-15.808Zm-3.328,5.2a1.582,1.582,0,0,1,1.248.572,2.233,2.233,0,0,1,.39,1.378A1.986,1.986,0,0,1,200.1-7.15a1.7,1.7,0,0,1-1.17.442,1.732,1.732,0,0,1-1.378-.572,1.946,1.946,0,0,1-.468-1.4,2.02,2.02,0,0,1,.546-1.43A1.779,1.779,0,0,1,198.93-10.608Zm27.222-10.036c-1.326,0-1.9.7-1.9,1.69,0,.962.624,3.9.884,5.694a47.157,47.157,0,0,1,.572,6.4,15.723,15.723,0,0,1-.078,1.69c0,.208.078.312.26.312.624,0,.832-.234.832-.468a16.425,16.425,0,0,1-.078-1.69,51.391,51.391,0,0,1,.546-6.422c.26-1.924.832-4.576.832-5.512C228.024-19.994,227.452-20.644,226.152-20.644Zm-.026,18.018a1.825,1.825,0,0,0-1.82,1.82,1.82,1.82,0,0,0,1.82,1.794A1.832,1.832,0,0,0,227.92-.806,1.837,1.837,0,0,0,226.126-2.626Z" transform="translate(640 2348)" fill="#fff"/>
    </g>
  </g>
</svg>
