<svg xmlns="http://www.w3.org/2000/svg" xmlns:xlink="http://www.w3.org/1999/xlink" width="960" height="2" viewBox="0 0 960 2">
  <defs>
    <clipPath id="clip-path">
      <rect width="960" height="2" fill="none"/>
    </clipPath>
  </defs>
  <g id="リピートグリッド_49" data-name="リピートグリッド 49" clip-path="url(#clip-path)">
    <g transform="translate(-170.5 -1744)">
      <line id="線_173" data-name="線 173" x2="16" transform="translate(170.5 1744.5)" fill="none" stroke="#666" stroke-width="1"/>
    </g>
    <g transform="translate(-134.5 -1744)">
      <line id="線_173-2" data-name="線 173" x2="16" transform="translate(170.5 1744.5)" fill="none" stroke="#666" stroke-width="1"/>
    </g>
    <g transform="translate(-98.5 -1744)">
      <line id="線_173-3" data-name="線 173" x2="16" transform="translate(170.5 1744.5)" fill="none" stroke="#666" stroke-width="1"/>
    </g>
    <g transform="translate(-62.5 -1744)">
      <line id="線_173-4" data-name="線 173" x2="16" transform="translate(170.5 1744.5)" fill="none" stroke="#666" stroke-width="1"/>
    </g>
    <g transform="translate(-26.5 -1744)">
      <line id="線_173-5" data-name="線 173" x2="16" transform="translate(170.5 1744.5)" fill="none" stroke="#666" stroke-width="1"/>
    </g>
    <g transform="translate(9.5 -1744)">
      <line id="線_173-6" data-name="線 173" x2="16" transform="translate(170.5 1744.5)" fill="none" stroke="#666" stroke-width="1"/>
    </g>
    <g transform="translate(45.5 -1744)">
      <line id="線_173-7" data-name="線 173" x2="16" transform="translate(170.5 1744.5)" fill="none" stroke="#666" stroke-width="1"/>
    </g>
    <g transform="translate(81.5 -1744)">
      <line id="線_173-8" data-name="線 173" x2="16" transform="translate(170.5 1744.5)" fill="none" stroke="#666" stroke-width="1"/>
    </g>
    <g transform="translate(117.5 -1744)">
      <line id="線_173-9" data-name="線 173" x2="16" transform="translate(170.5 1744.5)" fill="none" stroke="#666" stroke-width="1"/>
    </g>
    <g transform="translate(153.5 -1744)">
      <line id="線_173-10" data-name="線 173" x2="16" transform="translate(170.5 1744.5)" fill="none" stroke="#666" stroke-width="1"/>
    </g>
    <g transform="translate(189.5 -1744)">
      <line id="線_173-11" data-name="線 173" x2="16" transform="translate(170.5 1744.5)" fill="none" stroke="#666" stroke-width="1"/>
    </g>
    <g transform="translate(225.5 -1744)">
      <line id="線_173-12" data-name="線 173" x2="16" transform="translate(170.5 1744.5)" fill="none" stroke="#666" stroke-width="1"/>
    </g>
    <g transform="translate(261.5 -1744)">
      <line id="線_173-13" data-name="線 173" x2="16" transform="translate(170.5 1744.5)" fill="none" stroke="#666" stroke-width="1"/>
    </g>
    <g transform="translate(297.5 -1744)">
      <line id="線_173-14" data-name="線 173" x2="16" transform="translate(170.5 1744.5)" fill="none" stroke="#666" stroke-width="1"/>
    </g>
    <g transform="translate(333.5 -1744)">
      <line id="線_173-15" data-name="線 173" x2="16" transform="translate(170.5 1744.5)" fill="none" stroke="#666" stroke-width="1"/>
    </g>
    <g transform="translate(369.5 -1744)">
      <line id="線_173-16" data-name="線 173" x2="16" transform="translate(170.5 1744.5)" fill="none" stroke="#666" stroke-width="1"/>
    </g>
    <g transform="translate(405.5 -1744)">
      <line id="線_173-17" data-name="線 173" x2="16" transform="translate(170.5 1744.5)" fill="none" stroke="#666" stroke-width="1"/>
    </g>
    <g transform="translate(441.5 -1744)">
      <line id="線_173-18" data-name="線 173" x2="16" transform="translate(170.5 1744.5)" fill="none" stroke="#666" stroke-width="1"/>
    </g>
    <g transform="translate(477.5 -1744)">
      <line id="線_173-19" data-name="線 173" x2="16" transform="translate(170.5 1744.5)" fill="none" stroke="#666" stroke-width="1"/>
    </g>
    <g transform="translate(513.5 -1744)">
      <line id="線_173-20" data-name="線 173" x2="16" transform="translate(170.5 1744.5)" fill="none" stroke="#666" stroke-width="1"/>
    </g>
    <g transform="translate(549.5 -1744)">
      <line id="線_173-21" data-name="線 173" x2="16" transform="translate(170.5 1744.5)" fill="none" stroke="#666" stroke-width="1"/>
    </g>
    <g transform="translate(585.5 -1744)">
      <line id="線_173-22" data-name="線 173" x2="16" transform="translate(170.5 1744.5)" fill="none" stroke="#666" stroke-width="1"/>
    </g>
    <g transform="translate(621.5 -1744)">
      <line id="線_173-23" data-name="線 173" x2="16" transform="translate(170.5 1744.5)" fill="none" stroke="#666" stroke-width="1"/>
    </g>
    <g transform="translate(657.5 -1744)">
      <line id="線_173-24" data-name="線 173" x2="16" transform="translate(170.5 1744.5)" fill="none" stroke="#666" stroke-width="1"/>
    </g>
    <g transform="translate(693.5 -1744)">
      <line id="線_173-25" data-name="線 173" x2="16" transform="translate(170.5 1744.5)" fill="none" stroke="#666" stroke-width="1"/>
    </g>
    <g transform="translate(729.5 -1744)">
      <line id="線_173-26" data-name="線 173" x2="16" transform="translate(170.5 1744.5)" fill="none" stroke="#666" stroke-width="1"/>
    </g>
    <g transform="translate(765.5 -1744)">
      <line id="線_173-27" data-name="線 173" x2="16" transform="translate(170.5 1744.5)" fill="none" stroke="#666" stroke-width="1"/>
    </g>
  </g>
</svg>
