<svg xmlns="http://www.w3.org/2000/svg" width="180" height="47.739" viewBox="0 0 180 47.739">
  <g id="sign" transform="translate(-5.91 -8.507)">
    <path id="パス_543" data-name="パス 543" d="M155.838,58.093c.5-1.456,1.028-2.9,1.487-4.371.362-1.171.765-2.311-.248-3.476a1.4,1.4,0,0,1,.372-2.063,2.112,2.112,0,0,0,.74-2.06,2.124,2.124,0,0,0-.929-1.964c-.787-.527-.966-2.757-.4-3.63a.891.891,0,0,1,1.413-.217c1.152,1.267,2,.836,2.964-.232.489-.548,1.146-1.22,2-.768s.514,1.366.483,2.106c-.115,2.627-.294,5.266-.372,7.877-.031,1.069.062,1.041,1.3,1.106.846.046,1.639.672,2.515-.152,1.316-1.239,3.435-1.586,4.027-3.637.065-.22.273-.427.266-.62a4.414,4.414,0,0,1,1.812-3.773c.468-.375.585-1.239.8-1.877.242-.759-.486-1.041-.812-1.533a10.191,10.191,0,0,1-1.177-2.23,1.248,1.248,0,0,1,.517-1.1c.3-.146.812.127,1.214.266.115.037.173.245.257.372l.75,1.149c.22-.356.428-.725.669-1.066.722-1.025,1.642-.985,2.4.105.2.31.381.62.573.911a7.977,7.977,0,0,0,.889-.709c1.106-1.177,2.2-2.367,3.277-3.575.359-.4.8-.638,1.168-.229a1.428,1.428,0,0,1,.31,1.2,4.957,4.957,0,0,1-1.128,1.735c-1.382,1.341-2.844,2.6-4.266,3.9a4.072,4.072,0,0,0-.418.524,3.365,3.365,0,0,0,.762.065,2.267,2.267,0,0,0,1.1-.291c1.155-.976,2.249-.53,3.138.251a1.465,1.465,0,0,0,2.187.136c.434-.31,1.028-1.124,1.549-.5.638.743-.338,1.171-.743,1.648-.9,1.059-1.007,1.109-.245,2.15A41.07,41.07,0,0,0,189.1,47.01a1.549,1.549,0,0,0,1.019.437c.867.019,1.208.344,1.276,1.239a2.363,2.363,0,0,0,.821,1.549c1.344,1.025,2.788,1.927,4.21,2.844.31.2.765.214,1.072.424a5.86,5.86,0,0,1,.883.911c-.393.164-.8.5-1.177.465a12.3,12.3,0,0,1-6.6-3.144,10.69,10.69,0,0,0-1.239-1.019c-.465-.273-1.7.105-1.815.592a1.549,1.549,0,0,0,.291,1.239c1.763,1.84,3.593,3.618,5.387,5.43a19.923,19.923,0,0,1,1.685,1.9.88.88,0,0,1-.056.833.9.9,0,0,1-.8.251,3.484,3.484,0,0,1-1.2-.669,40.394,40.394,0,0,1-7.884-8.138c-1.084-1.636-1.112-1.66.675-2.274a4.6,4.6,0,0,0,1.168-.675c.378-.276.359-.62.056-.985-1.146-1.347-2.271-2.72-3.457-4.027a1.078,1.078,0,0,0-.97-.232c-.929.409-1.772.929-2.661,1.416a1.37,1.37,0,0,0-.694,1.363c.019,1.007,0,2.02.093,3.017.167,1.688.449,3.364.62,5.049A25.4,25.4,0,0,1,179,64.245a5.118,5.118,0,0,1-.5,1.295c-.734,1.239-1.657,1.214-2.422-.062a5.333,5.333,0,0,1-.88-3.531,1.053,1.053,0,0,1,.486-.716c.146-.065.5.2.691.39s.31.536.52.74c.068.065.387-.059.536-.17a.589.589,0,0,0,.152-.421c.046-2.233.226-4.476.087-6.7-.146-2.3-.585-4.591-.929-6.88-.124-.83-.369-.96-1.069-.595a35.584,35.584,0,0,0-3.225,1.837c-.821.545-.79,1.038-.077,1.636,2.134,1.794,2.354,2.679,1.224,5.186a21.651,21.651,0,0,1-1.366,2.686c-.2.31-.734.393-1.115.582a3.742,3.742,0,0,1,.022-1.072c.372-1.177.864-2.32,1.2-3.51.356-1.261,0-1.756-1.276-2.292a1.149,1.149,0,0,0-1.6.387c-1.025,1.357-2.1,2.679-3.15,4.027a3.571,3.571,0,0,1-.719.9c-1.617,1.044-1.493,2.562-1.186,4.129.149.759.393,1.5.52,2.264a3.557,3.557,0,0,1-.015,1.366.883.883,0,0,1-1.6.378,19.822,19.822,0,0,1-2.168-3.556,3.194,3.194,0,0,1,.059-2.444c.929-1.725.238-3.507.477-5.235.016-.112-.142-.35-.223-.353a10.774,10.774,0,0,0-2.215.056c-.248.043-.461.57-.592.914-.331.867-.542,1.784-.914,2.633-.585,1.344-1.239,2.667-1.911,3.968a4.026,4.026,0,0,1-1.038,1.239.886.886,0,0,1-1.549-.688,4.822,4.822,0,0,1,.22-1.369c.341-1.589.675-3.178,1.059-4.758.059-.242.359-.427.548-.641.164.22.431.421.465.66a11.085,11.085,0,0,1,.022,1.549Zm8.478-5.467c-.18.155-.356.232-.39.35a3.407,3.407,0,0,0-.208,1.106c.056.864.2,1.725.31,2.587.582-.573,1.19-1.121,1.741-1.725.824-.9.8-.9-.427-1.527A6.638,6.638,0,0,1,164.316,52.626Zm9.463-6.214c.146-.043.294-.077.434-.133,1.6-.675,1.7-.793,2.447-2.788.05-.13.108-.254.161-.381-.139,0-.31-.053-.415,0a8.221,8.221,0,0,0-2.788,2.952c-.009.062.118.232.17.35Zm-12.344,4.705a8.173,8.173,0,0,0-.149-1.143,3.042,3.042,0,0,0-.421-.709c-.217.189-.536.341-.62.579a9.678,9.678,0,0,0-.5,1.769.638.638,0,0,0,.273.536,1,1,0,0,0,1.416-1.032Zm0-6.016a3.122,3.122,0,0,0-.015-.87,6.242,6.242,0,0,0-.48-.9c-.208.279-.561.539-.6.843a12.317,12.317,0,0,0-.04,2.243.468.468,0,0,0,.929.043,12.139,12.139,0,0,0,.2-1.363ZM178.9,43.8c.849-.5,1.707-.985,2.534-1.515.068-.046,0-.44-.112-.595s-.489-.378-.545-.331c-.737.62-1.444,1.3-2.141,1.976A2.279,2.279,0,0,0,178.9,43.8Z" transform="translate(-101.691 -16.555)"/>
    <path id="パス_544" data-name="パス 544" d="M454.186,47.275a31.976,31.976,0,0,0,7.1-7.589,14.672,14.672,0,0,0,.9-1.354c.291-.527.87-1.413.715-1.58-.5-.536-1.05.167-1.592.328a35.143,35.143,0,0,0-8.447,4.25,2.831,2.831,0,0,1-1.468.418,1.087,1.087,0,0,1-.778-.691.985.985,0,0,1,.5-.846,1.951,1.951,0,0,0,1.2-.929,4.028,4.028,0,0,1,1.614-1.239c1.753-.821,3.581-1.474,5.313-2.336a45.511,45.511,0,0,0,3.965-2.37c.115-.074.08-.375.118-.573a1.239,1.239,0,0,0-.428,0,19.979,19.979,0,0,1-2.119.929,1.093,1.093,0,0,1-.979-.366,1.112,1.112,0,0,1,.031-1.044,20.878,20.878,0,0,1,1.667-1.6c.929-.9.9-.908.387-2.134A5.5,5.5,0,0,1,461.41,27c-.043-.434.025-1.18.263-1.286,1.18-.517.96-1.763,1.5-2.593a3.012,3.012,0,0,0,.239-.97,4.749,4.749,0,0,0-.874.22,1.949,1.949,0,0,0-1.239,1.53c-.127.759-.725.7-1.239.372-1.3-.8-1.332-1.859-.077-2.695.31-.211.688-.353,1.022-.545.468-.266.929-.551,1.391-.827-.372-.31-.759-.62-1.109-.951a4,4,0,0,1-1.267-2.67c-.077-1.385-.049-2.788,0-4.16a1.741,1.741,0,0,1,.406-1.022c.232-.248.722-.527.967-.437a1.481,1.481,0,0,1,.892.9,11.977,11.977,0,0,1-.158,1.821,20.08,20.08,0,0,0,.158,3.206c.124.762.722.979,1.416.62,1.732-.87,3.441-1.735,4.129-3.8a48,48,0,0,1,1.859-4.479c.136-.31.576-.778.716-.725.375.136.929.5.929.8a5.058,5.058,0,0,1-.344,2.224c-.719,1.623-1.6,3.172-2.382,4.774a8.413,8.413,0,0,0-.409,1.428c.421-.121.839-.245,1.264-.362a7.03,7.03,0,0,1,1.549-.387c.31,0,.6.31.9.493-.158.235-.263.564-.483.685-.675.372-1.431.6-2.088,1a20.812,20.812,0,0,0-2.816,1.979,2.707,2.707,0,0,0-.573,1.453c-.1.446.18.75.669.672.663-.105,1.425-.582,1.893.217.511.864-.034,1.676-.5,2.364a24.108,24.108,0,0,1-1.8,2.119c-.753.877-.753.9.053,1.679a5.923,5.923,0,0,1,.97.976.974.974,0,0,1-.13,1.444,2.514,2.514,0,0,0-.449.728,3.262,3.262,0,0,0,1.032-.025c2.184-.793,4.337-1.629,6.52-2.447a19.461,19.461,0,0,1,2.168-.771c.545-.133,1.292-.542,1.592.31.27.771-.31,1.084-.951,1.32-1.592.6-3.178,1.217-4.771,1.821-.8.31-1.611.558-2.391.892-1.1.465-1.193.7-.369,1.676,1.146,1.354,2.4,2.618,3.634,3.894a23.559,23.559,0,0,1,1.995,1.93c3.036,4.027,7.261,5.848,12.031,6.79a42.133,42.133,0,0,1,4.445,1.258.837.837,0,0,1,.421.694c-.022.177-.443.455-.657.431-2.3-.279-4.612-.533-6.892-.951a35.657,35.657,0,0,1-4.445-1.239c-2.209-.719-3.788-2.329-5.393-3.906-1.32-1.3-2.748-2.5-4-3.86s-2.36-2.859-3.485-4.337c-.706-.929-1.022-.951-1.648.053-.248.393-.424.827-.651,1.239A36.272,36.272,0,0,1,453.585,50.02a10.152,10.152,0,0,1-2.088.988,3.06,3.06,0,0,1-1.143.127c-.489-.015-1-.192-.96-.759a1.078,1.078,0,0,1,.743-.7A6.788,6.788,0,0,0,453.6,47.9Z" transform="translate(-306.105 0)"/>
    <path id="パス_545" data-name="パス 545" d="M69.1,18.652c.62.04,1.707.068,2.788.183,1.406.149,2,1.028,1.282,2.243a32.272,32.272,0,0,1-3.2,4.241c-.743.883-1.67,1.611-2.478,2.432-.112.108-.074.369-.105.558a1.549,1.549,0,0,0,.437-.037c.5-.2.985-.455,1.5-.62a8.333,8.333,0,0,1,1.772-.458c2.221-.214,2.831.62,2.1,2.729a3.311,3.311,0,0,0-.31,1.292c.053.493-.158.6-.48.858a2.206,2.206,0,0,0-.771,1.286c-.285,2.134.279,2.522,2.246,1.676s3.841-1.639,5.768-2.447a2.565,2.565,0,0,1,.874-.254.731.731,0,0,1,.579.288.682.682,0,0,1-.05.641,10.486,10.486,0,0,1-2.044,1.45c-1.893.874-3.819,1.673-5.765,2.416a2.238,2.238,0,0,0-1.623,2.023c-.564,5.886-2.788,11.235-5.266,16.486-.929,1.945-2.134,3.757-3.237,5.616a6.091,6.091,0,0,1-.861,1.09c-.756.784-1.725,1.044-1.707.663a3.593,3.593,0,0,1,.62-1.611,62.654,62.654,0,0,0,5.913-12.558c.827-2.407,1.453-4.879,2.168-7.326a4.767,4.767,0,0,0,.186-.908c.149-1.571-.208-1.648-1.493-1.044-3,1.413-6.05,2.741-9.1,4.061-1.431.62-2.125.567-2.246-.043-.2-1.013.635-1.344,1.292-1.654,4.061-2.106,7.072-5.474,10.328-8.543a3,3,0,0,0,.867-1.549c.229-1.354-.474-1.933-1.738-1.444-1.583.62-3.1,1.391-4.684,2.026a9.64,9.64,0,0,1-2.218.527.83.83,0,0,1-.681-.474,2.558,2.558,0,0,1,.223-1.035.31.31,0,0,1,.18-.139c3.857-1.5,6.1-4.894,8.931-7.6a8.994,8.994,0,0,0,1.292-1.9c.276-.446.335-.886-.335-1.059-.514-.133-1.081-.393-1.31.4-.022.074,0,.158-.04.229-.146.4-.31.8-.446,1.2a5.116,5.116,0,0,1-1.354-1.093,1.824,1.824,0,0,1-.043-2.168C67.291,18.671,67.873,18.38,69.1,18.652Zm.427,16.523c0-.019-.074-.421-.273-.5s-.585.1-.787.276c-.864.771-1.713,1.567-2.522,2.4a8.834,8.834,0,0,0-.852,1.22,14.834,14.834,0,0,0,1.512-.387c.579-.214,1.112-.548,1.691-.759A1.824,1.824,0,0,0,69.524,35.175Z" transform="translate(-34.954 -6.932)"/>
    <path id="パス_546" data-name="パス 546" d="M5.91,61.844c.489-1.549.886-2.89,1.323-4.21.963-2.927,1.967-5.845,2.906-8.782a3.515,3.515,0,0,0-.081-1.295c-.022-.214-.183-.536-.1-.62,1.1-1.112.762-2.568.929-3.884s.88-2.478.517-3.85a1.157,1.157,0,0,1,.97-1.375c.712-.177,1.2.214,1.5,1.1.375,1.109.685,2.218-.081,3.327a3.262,3.262,0,0,0-.356,1.084c-.641,2.621-1.239,5.266-1.93,7.859a1.76,1.76,0,0,0,.561,1.976,6.394,6.394,0,0,1,1.75,4.647,38.625,38.625,0,0,1-2.1,12.047,3.237,3.237,0,0,1-.589,1.239A1.332,1.332,0,0,1,9.94,71.5a1.277,1.277,0,0,1-.595-1.072,4.451,4.451,0,0,1,.431-1.549,30.048,30.048,0,0,0,2-10.842,2.9,2.9,0,0,0-.966-2.655,18.487,18.487,0,0,0-1.239,2.144c-.558,1.357-1,2.757-1.493,4.139-.053.146-.112.288-.164.434-.2.558-.579,1.053-1.18.8C6.359,62.72,6.149,62.16,5.91,61.844Z" transform="translate(0 -20.209)"/>
    <path id="パス_547" data-name="パス 547" d="M189.446,14.253c-.183.694-.431,1.583-.647,2.478a5.054,5.054,0,0,0-.065.846,3.311,3.311,0,0,0,.66-.062c2.072-.62,4.151-1.22,6.2-1.89.874-.285,1.685-.774,2.562-1.05a1.056,1.056,0,0,1,.929.412A1.121,1.121,0,0,1,198.928,16a2.788,2.788,0,0,1-1.146.737c-1.524.551-3.067,1.05-4.606,1.549-1.323.437-2.633.9-3.974,1.276a5.133,5.133,0,0,0-3.181,2.828,21.126,21.126,0,0,1-1.239,1.939c-.678,1.032-1.366,2.057-2.051,3.082-.474.709-.929,1.434-1.425,2.113-.257.344-.592.864-1.094.48-.167-.13-.087-.7,0-1.035a7.362,7.362,0,0,1,.589-1.258,17.614,17.614,0,0,1,1.118-2.029,1.834,1.834,0,0,0,.1-2.125c-.929-1.917-.9-1.924-3.125-1.574a8.154,8.154,0,0,1-2.051.118.929.929,0,0,1-.911-1.115c.068-.561.458-.765.96-.824,1.069-.13,2.137-.269,3.209-.384a1.094,1.094,0,0,0,1.084-1.239c0-.771-.04-1.549-.105-2.314a4.463,4.463,0,0,0-.257-.889c-.2-.641-.22-1.351.48-1.571a1.82,1.82,0,0,1,1.406.455,14.045,14.045,0,0,1,1.71,1.859c.462.558.254.815-.431.787-.982-.04-.886.647-.83,1.276.068.743.564.818,1.174.712a2.467,2.467,0,0,0,2.308-1.942c.177-.83.4-1.648.619-2.478a5.8,5.8,0,0,1,.4-1.317c.121-.226.52-.5.722-.446a1.858,1.858,0,0,1,.846.651C189.4,13.51,189.366,13.8,189.446,14.253Zm-4.863,7.3c-.35-.257-.542-.486-.647-.452a.691.691,0,0,0-.418.44c-.018.13.245.421.378.418C184.084,21.954,184.27,21.756,184.583,21.552Z" transform="translate(-117.339 -2.874)"/>
    <path id="パス_548" data-name="パス 548" d="M352.074,66.8c-.273-.074-.619-.285-.818-.2-.712.291-1.36.737-2.069,1.025a4.894,4.894,0,0,1-1.732.4,1.044,1.044,0,0,1-.774-.66,1.13,1.13,0,0,1,.446-.951,40.764,40.764,0,0,1,3.717-1.859,2.115,2.115,0,0,0,1.505-2.308,2.846,2.846,0,0,1,.049-.929.871.871,0,0,1,1.444-.468,1.633,1.633,0,0,1,.17.158c.4.443.753,1.2,1.2,1.258.62.077,1.273-.418,1.93-.62,1.775-.5,3.541-1.066,5.35-1.419a6.563,6.563,0,0,1,2.478.288.867.867,0,0,1,.48.694.8.8,0,0,1-.579.523c-2.862,0-5.393,1.143-8,2.1a4.065,4.065,0,0,0-2.788,3.321,21.377,21.377,0,0,1-2.658,7.125A74.206,74.206,0,0,1,341.641,86.6c-.449.455-.9,1.2-1.741.747-.514-.279-.31-.988.567-1.933a73.622,73.622,0,0,0,8.673-11.136,17.656,17.656,0,0,0,2.732-6.583C351.913,67.469,351.978,67.252,352.074,66.8Z" transform="translate(-230.339 -35.67)"/>
    <path id="パス_549" data-name="パス 549" d="M415.427,99.375l-.585.62a8.785,8.785,0,0,1-1.391-.777c-2.147-1.76-4.287-3.531-6.378-5.353a32.824,32.824,0,0,1-2.416-2.494.855.855,0,0,0-1.205-.2A21.755,21.755,0,0,1,397.1,93.3c-.824.167-1.6.576-2.419.768a1.548,1.548,0,0,1-1.239-.158,1.3,1.3,0,0,1-.105-1.211c1.032-2.168,2.134-4.284,3.222-6.418.282-.548.6-1.075.883-1.626s.678-.833,1.3-.554a1.081,1.081,0,0,1,.508,1.549c-.784,1.419-1.62,2.813-2.4,4.231a13.414,13.414,0,0,0-.595,1.465,6.343,6.343,0,0,0,1.57,0c1.406-.406,2.788-.9,4.163-1.394a.652.652,0,0,0,.344-1.1,2.538,2.538,0,0,1-.477-2.184.883.883,0,0,1,1.431-.551,3.334,3.334,0,0,1,.79.824,26.773,26.773,0,0,0,6.356,6.657,51.143,51.143,0,0,1,3.993,3.531A2.631,2.631,0,0,1,415.427,99.375Z" transform="translate(-267.346 -52.1)"/>
    <path id="パス_550" data-name="パス 550" d="M369.69,27.868a5.2,5.2,0,0,1,.118-1.307,1.677,1.677,0,0,1,.7-.79c.158-.077.62.161.74.372.393.725.706.8,1.391.235a26.151,26.151,0,0,1,3.24-2.187,1.877,1.877,0,0,0,.929-1.239c.291-1.038.74-2.032.988-3.079.226-.957.232-1.964.421-2.93.062-.325.341-.778.6-.843a1.127,1.127,0,0,1,.911.471,2.878,2.878,0,0,1,.239,2.67c-.291.793-.709,1.549-1.05,2.314-.152.347-.251.712-.375,1.069a10.7,10.7,0,0,0,1.3-.056c1.217-.2,2.429-.434,3.64-.651a.986.986,0,0,1,.232-.025c1.075.034,2.339-.09,2.964.9.685,1.084-.465,1.859-1.035,2.58-.988,1.273-2.113,2.441-3.218,3.615a.793.793,0,0,1-.781.071.892.892,0,0,1-.136-.824c.567-1.01,1.22-1.967,1.815-2.958a12.271,12.271,0,0,0,.564-1.208,5.742,5.742,0,0,0-1.5-.164,19.006,19.006,0,0,0-2.478.62c-3.2.929-5.975,2.441-7.716,5.47-.592,1.025-1.431.957-1.89-.09a14.489,14.489,0,0,1-.61-2.035Z" transform="translate(-251.093 -5.241)"/>
    <path id="パス_551" data-name="パス 551" d="M187.654,97.49a6.634,6.634,0,0,0,1.019.79c1.239.62,1.239.62.427,1.527-.551.62-1.159,1.152-1.741,1.725-.108-.861-.248-1.722-.31-2.587a3.41,3.41,0,0,1,.208-1.106C187.307,97.722,187.484,97.648,187.654,97.49Z" transform="translate(-125.029 -61.419)" fill="#fff"/>
    <path id="パス_552" data-name="パス 552" d="M219.234,70.038c-.053-.118-.186-.288-.149-.341a8.016,8.016,0,0,1,2.788-2.952c.112-.056.276,0,.415,0-.053.127-.112.251-.161.381-.743,1.989-.846,2.106-2.447,2.788C219.529,69.96,219.38,69.994,219.234,70.038Z" transform="translate(-147.136 -40.181)" fill="#fff"/>
    <path id="パス_553" data-name="パス 553" d="M175.91,88.527a1,1,0,0,1-1.428,1.047.638.638,0,0,1-.273-.536,9.681,9.681,0,0,1,.5-1.769c.1-.239.415-.39.62-.579a3.041,3.041,0,0,1,.421.709A8.19,8.19,0,0,1,175.91,88.527Z" transform="translate(-116.166 -53.965)" fill="#fff"/>
    <path id="パス_554" data-name="パス 554" d="M177.066,69.266a12.153,12.153,0,0,1-.211,1.363.468.468,0,0,1-.929-.043,12.317,12.317,0,0,1,.04-2.243c.037-.31.39-.564.6-.843a6.246,6.246,0,0,1,.48.9A3.12,3.12,0,0,1,177.066,69.266Z" transform="translate(-117.328 -40.719)" fill="#fff"/>
    <path id="パス_555" data-name="パス 555" d="M235.483,63.547a2.278,2.278,0,0,1-.263-.465c.7-.675,1.4-1.348,2.141-1.976.056-.046.424.167.545.331s.18.548.111.595C237.19,62.561,236.332,63.048,235.483,63.547Z" transform="translate(-158.277 -36.301)" fill="#fff"/>
    <path id="パス_556" data-name="パス 556" d="M88.553,71.05c.133,1.264-.285,1.9-1.217,2.243-.579.211-1.112.545-1.691.759a14.832,14.832,0,0,1-1.524.387,8.836,8.836,0,0,1,.852-1.22c.809-.83,1.657-1.617,2.518-2.4a.991.991,0,0,1,.787-.276C88.472,70.626,88.544,71.032,88.553,71.05Z" transform="translate(-53.983 -42.807)" fill="#fff"/>
    <path id="パス_557" data-name="パス 557" d="M201.533,40.325c-.31.2-.5.4-.688.406-.133,0-.4-.288-.378-.418a.691.691,0,0,1,.418-.44C200.991,39.838,201.183,40.068,201.533,40.325Z" transform="translate(-134.289 -21.647)" fill="#fff"/>
  </g>
</svg>
