<svg id="レイヤー_1" data-name="レイヤー 1" xmlns="http://www.w3.org/2000/svg" viewBox="0 0 19.45 28.62"><defs><style>.cls-1,.cls-2,.cls-3{fill:none;}.cls-2{stroke:#000;}.cls-2,.cls-3{stroke-linecap:round;stroke-linejoin:round;stroke-width:2px;}.cls-3{stroke:#fff;}</style></defs><rect class="cls-1" x="-15.4" y="-8.16" width="48" height="48"/><path class="cls-2" d="M18.35,1.1l-17,12.71a.63.63,0,0,0-.12.88.34.34,0,0,0,.12.12l17,12.71"/><path class="cls-3" d="M18.35,1a.09.09,0,0,1,.08,0,.11.11,0,0,1,0,.14l-17,12.71a.53.53,0,0,0-.1.74l.1.1,17,12.71a.11.11,0,0,1,0,.14.11.11,0,0,1-.14,0l-17-12.71a.62.62,0,0,1-.14-.14.73.73,0,0,1,.14-1L18.29,1Z"/><path class="cls-2" d="M18.35,1.1l-17,12.71a.63.63,0,0,0-.12.88.34.34,0,0,0,.12.12l17,12.71"/></svg>