<svg id="レイヤー_1" data-name="レイヤー 1" xmlns="http://www.w3.org/2000/svg" viewBox="0 0 19.45 28.62"><defs><style>.cls-1,.cls-2,.cls-3{fill:none;}.cls-2{stroke:#000;}.cls-2,.cls-3{stroke-linecap:round;stroke-linejoin:round;stroke-width:2px;}.cls-3{stroke:#fff;}</style></defs><rect class="cls-1" x="-15.4" y="-8.16" width="48" height="48"/><path class="cls-2" d="M1.1,27.52l17-12.71a.63.63,0,0,0,.12-.88l-.12-.12L1.1,1.1"/><path class="cls-3" d="M1.1,27.62a.09.09,0,0,1-.08,0,.11.11,0,0,1,0-.14L18,14.73a.54.54,0,0,0,.1-.74l-.1-.1L1,1.18A.11.11,0,0,1,1,1a.11.11,0,0,1,.14,0l17,12.71a.62.62,0,0,1,.14.14.73.73,0,0,1-.14,1L1.16,27.6Z"/><path class="cls-2" d="M1.1,27.52l17-12.71a.63.63,0,0,0,.12-.88l-.12-.12L1.1,1.1"/></svg>