<?xml version="1.0" encoding="utf-8"?>
<!-- Generator: Adobe Illustrator 24.0.3, SVG Export Plug-In . SVG Version: 6.00 Build 0)  -->
<svg version="1.1" id="レイヤー_1" xmlns="http://www.w3.org/2000/svg" xmlns:xlink="http://www.w3.org/1999/xlink" x="0px"
	 y="0px" viewBox="0 0 167.7 72.3" style="enable-background:new 0 0 167.7 72.3;" xml:space="preserve">
<style type="text/css">
	.st0{fill:#B69E84;}
</style>
<title>carigraphy_r</title>
<g id="レイヤー_1-2">
	<path class="st0" d="M122,7.7c4-3.7,9-6.2,14.4-7.1c5.3-1,10.9-0.6,16,1.2c5.2,1.8,9.6,5.1,12.7,9.6c1.5,2.3,2.4,4.9,2.6,7.6
		c0.1,2.7-0.4,5.4-1.6,7.9c-2.3,4.9-6.3,8.9-11.2,11.3c-4.9,2.3-10.1,3.7-15.5,4.2c-2.7,0.3-5.3,0.6-8,0.7c-2.7,0.1-5.4-0.1-8.1-0.4
		c-2.7-0.3-5.3-0.9-7.8-2c-1.3-0.6-2.4-1.4-3.4-2.4c-0.5-0.6-0.9-1.2-1.1-1.9c-0.2-0.7-0.3-1.4-0.3-2.1v-0.1l0,0
		c0.4-1.5,1.3-2.8,2.7-3.5c1.3-0.7,2.8-1,4.3-0.9c2.9,0.2,5.7,0.9,8.3,2.2c2.6,1.2,5,2.8,7.1,4.8c2.2,2,3.9,4.4,5.1,7
		c0.6,1.4,1,2.8,1.1,4.3c0.1,1.5-0.1,3.1-0.7,4.5c-0.6,1.4-1.5,2.6-2.7,3.6c-1.2,1-2.5,1.7-3.9,2.2c-2.8,1-5.7,1.4-8.6,1.4
		c-2.9,0-5.7-0.2-8.6-0.5c-5.7-0.7-11.2-2-16.7-3.7c-5.4-1.7-10.7-3.7-16-5.8c-10.5-4.2-20.7-8.8-31.4-11.8
		c-5.2-1.6-10.7-2.5-16.1-2.7c-2.7-0.1-5.4,0-8.1,0.3c-2.7,0.3-5.3,0.8-7.9,1.5c-2.6,0.7-5,1.8-7.3,3.2c-2.3,1.4-4.3,3.2-6,5.3
		c-1.7,2.1-2.9,4.6-3.6,7.2c-0.7,2.6-0.7,5.4,0,8c0.8,2.6,2.4,4.9,4.6,6.5c2.2,1.6,4.8,2.8,7.4,3.4c5.4,1.3,11.1,1.4,16.6,0.2
		c5.5-1.1,10.7-3.2,15.4-6.3c4.7-3,8.7-7,11.8-11.7c0.2-0.2,0.4-0.2,0.6,0c0,0,0,0,0,0c0.1,0.1,0.2,0.3,0.1,0.5l0,0
		C55.1,58,51,62,46.2,65c-4.8,3.1-10.1,5.3-15.6,6.4c-2.8,0.6-5.6,0.8-8.4,0.9c-2.8,0-5.7-0.3-8.5-0.9c-2.8-0.6-5.5-1.8-7.8-3.4
		c-2.4-1.7-4.2-4.1-5.1-6.9c-0.8-2.8-0.9-5.8-0.3-8.7c0.6-2.9,1.8-5.6,3.5-8c3.4-4.9,8.2-8.6,13.8-10.6c2.8-1,5.6-1.8,8.5-2.2
		c2.9-0.4,5.8-0.5,8.7-0.4c5.8,0.3,11.5,1.3,17,3c11,3.3,21.2,8.1,31.5,12.5s20.7,8.6,31.7,10.2c2.7,0.4,5.5,0.7,8.3,0.8
		c2.7,0.1,5.4-0.2,8-1c2.5-0.7,4.6-2.5,5.8-4.8c0.5-1.2,0.8-2.5,0.7-3.8c-0.1-1.3-0.4-2.6-0.9-3.8c-1.1-2.5-2.7-4.7-4.7-6.6
		c-2-1.9-4.3-3.5-6.8-4.7c-2.5-1.2-5.1-2-7.9-2.2c-1.3-0.1-2.7,0.1-3.9,0.7c-1.2,0.6-2,1.7-2.3,3v-0.1c0,0.6,0.1,1.2,0.2,1.8
		c0.2,0.6,0.5,1.1,0.9,1.6c0.9,0.9,2,1.7,3.2,2.2c2.4,1,5,1.7,7.6,2c2.7,0.3,5.3,0.5,8,0.4c2.7,0,5.3-0.3,8-0.6
		c5.3-0.5,10.5-1.8,15.4-4c4.8-2.3,8.7-6.2,11-11c1.1-2.4,1.6-5.1,1.4-7.8c-0.2-2.6-1.1-5.2-2.6-7.4c-3-4.4-7.4-7.7-12.5-9.4
		c-5-1.7-10.5-2.1-15.7-1.1c-5.2,1-10.1,3.4-13.9,7.1c-0.2,0.2-0.4,0.2-0.6,0S121.9,7.8,122,7.7L122,7.7L122,7.7z"/>
</g>
</svg>
