<?xml version="1.0" encoding="utf-8"?>
<!-- Generator: Adobe Illustrator 24.0.3, SVG Export Plug-In . SVG Version: 6.00 Build 0)  -->
<svg version="1.1" id="レイヤー_1" xmlns="http://www.w3.org/2000/svg" xmlns:xlink="http://www.w3.org/1999/xlink" x="0px"
	 y="0px" viewBox="0 0 167.7 72.3" style="enable-background:new 0 0 167.7 72.3;" xml:space="preserve">
<style type="text/css">
	.st0{fill:#B69E84;}
</style>
<title>carigraphy_l</title>
<g id="レイヤー_1-2">
	<path class="st0" d="M45.7,7.6c0.2,0.2,0.2,0.4,0,0.6c0,0,0,0,0,0c-0.2,0.2-0.4,0.2-0.6,0c-3.9-3.6-8.7-6.1-13.9-7.1
		c-5.2-1-10.6-0.7-15.7,1.1c-5.1,1.7-9.5,5-12.5,9.4c-1.5,2.2-2.3,4.8-2.5,7.4c-0.2,2.7,0.3,5.4,1.5,7.8c2.3,4.8,6.2,8.7,11,11
		c4.9,2.2,10.1,3.5,15.4,4c2.7,0.3,5.3,0.6,8,0.6c2.7,0.1,5.3-0.1,8-0.4c2.6-0.3,5.2-1,7.6-2c1.2-0.5,2.3-1.2,3.2-2.2
		c0.4-0.5,0.7-1,0.9-1.6c0.2-0.6,0.3-1.2,0.2-1.8v0.1c-0.3-1.3-1.2-2.4-2.3-3c-1.2-0.6-2.5-0.8-3.9-0.7c-2.7,0.2-5.4,1-7.9,2.2
		c-2.5,1.2-4.8,2.7-6.8,4.7c-2,1.9-3.6,4.1-4.7,6.6c-0.5,1.2-0.8,2.5-0.9,3.8c-0.1,1.3,0.2,2.6,0.7,3.8c1.2,2.3,3.3,4.1,5.8,4.8
		c2.6,0.8,5.3,1.1,8,1c2.8-0.1,5.5-0.3,8.3-0.8c11-1.7,21.4-5.8,31.7-10.2s20.5-9.3,31.5-12.5c5.5-1.7,11.2-2.7,17-3
		c2.9-0.1,5.8,0,8.7,0.4c2.9,0.4,5.8,1.1,8.5,2.2c5.6,2.1,10.4,5.8,13.8,10.6c1.7,2.4,2.8,5.1,3.5,8c0.6,2.9,0.5,5.8-0.3,8.7
		c-0.9,2.8-2.7,5.2-5.1,6.9c-2.4,1.7-5,2.8-7.8,3.4c-2.8,0.6-5.6,0.9-8.5,0.9c-2.8,0-5.7-0.3-8.4-0.9c-5.6-1.1-10.8-3.3-15.6-6.4
		c-4.8-3-9-7-12.2-11.7l0,0c-0.1-0.2,0-0.4,0.2-0.6c0.2-0.1,0.4,0,0.5,0.1c3.1,4.7,7.1,8.6,11.8,11.7c4.7,3,9.9,5.2,15.4,6.3
		c5.5,1.1,11.1,1.1,16.6-0.2c2.7-0.6,5.2-1.8,7.4-3.4c2.2-1.6,3.8-3.9,4.6-6.5c0.7-2.6,0.7-5.4,0-8c-0.7-2.6-1.9-5.1-3.6-7.2
		c-1.7-2.1-3.8-3.9-6.1-5.3c-2.3-1.4-4.7-2.5-7.3-3.3c-2.6-0.8-5.2-1.3-7.9-1.5c-2.7-0.3-5.4-0.4-8.1-0.3
		c-5.5,0.2-10.9,1.1-16.1,2.7c-10.7,3-20.9,7.6-31.4,11.8c-5.3,2.1-10.6,4.1-16,5.8c-5.4,1.7-11,3-16.7,3.7
		c-2.8,0.4-5.7,0.5-8.5,0.5c-2.9,0-5.8-0.4-8.6-1.4c-1.4-0.5-2.7-1.3-3.9-2.2c-1.2-1-2.1-2.2-2.7-3.6c-0.6-1.4-0.9-2.9-0.7-4.5
		c0.1-1.5,0.5-2.9,1.1-4.3c1.2-2.6,3-5,5.1-7c2.1-2,4.5-3.5,7.2-4.7c2.6-1.3,5.4-2,8.3-2.2c1.5-0.1,3,0.2,4.3,0.9
		c1.3,0.8,2.3,2,2.7,3.5l0,0c0,0,0,0,0,0.1c0,0.7-0.1,1.4-0.3,2.1c-0.3,0.7-0.7,1.3-1.1,1.9c-0.9,1-2.1,1.8-3.4,2.4
		c-2.5,1.1-5.1,1.7-7.8,2c-2.7,0.3-5.4,0.5-8.1,0.4c-2.7-0.1-5.3-0.4-8-0.7c-5.4-0.5-10.6-1.9-15.5-4.2c-4.9-2.4-8.9-6.3-11.2-11.3
		C0.4,24.4-0.1,21.7,0,19c0.2-2.7,1.1-5.3,2.6-7.6c3.1-4.5,7.6-7.9,12.7-9.6c5.1-1.8,10.7-2.2,16-1.2C36.7,1.5,41.7,3.9,45.7,7.6
		L45.7,7.6z"/>
</g>
</svg>
