<svg id="レイヤー_1" data-name="レイヤー 1" xmlns="http://www.w3.org/2000/svg" viewBox="0 0 120 137"><defs><style>.cls-1{fill:#627ff5;}.cls-2{fill:#fff;}.cls-3,.cls-4{fill:none;stroke:#fff;stroke-miterlimit:10;stroke-width:2px;}.cls-4{stroke-linecap:round;}</style></defs><rect class="cls-1" width="120" height="137"/><path class="cls-2" d="M18.34,93.45a5.67,5.67,0,0,0-.08-.9h1.3a4.49,4.49,0,0,0-.1.9v1.41h3.28a8.11,8.11,0,0,0,1-.06v1a6.68,6.68,0,0,0-1-.07H19.46v2.15c.42,0,.7-.05,1.12-.05,3.54,0,5.59,1.55,5.59,4.24,0,2.15-1.19,3.41-3.86,4.12l-.67.22-.29-.93A3.49,3.49,0,0,0,25,102.06c0-2.11-1.65-3.37-4.4-3.37a9.74,9.74,0,0,0-1.15.06v5.5c0,1.22-.66,1.85-1.95,1.85a3.74,3.74,0,0,1-3.91-3.61c0-2.08,1.86-3.82,4.74-4.45V95.72H14.69a6.88,6.88,0,0,0-1,.07v-1a8.11,8.11,0,0,0,1,.06h3.65Zm0,5.49c-2.24.58-3.63,2-3.63,3.57a2.73,2.73,0,0,0,2.73,2.66c.61,0,.9-.31.9-1ZM26.65,97a12.39,12.39,0,0,0-3.27-3.48l.66-.65a4.42,4.42,0,0,0,.73.62,14.62,14.62,0,0,1,2.31,2.21c.21.24.35.4.48.53Z"/><path class="cls-2" d="M35.17,97a6.24,6.24,0,0,0,.1,1.1,8.88,8.88,0,0,0-1.33-.06H30.48v7.67a6.81,6.81,0,0,0,.1,1H29.26l0-.08,0-.32a4.19,4.19,0,0,0,.05-.65V93.87a6.82,6.82,0,0,0-.1-1.24,9.9,9.9,0,0,0,1.32.07h3.36a10.8,10.8,0,0,0,1.33-.07,7.47,7.47,0,0,0-.1,1.41v3ZM34.08,95V93.51h-3.6V95Zm-3.6.81v1.47h3.6V95.77Zm7.46,3.86a9.15,9.15,0,0,0,1.31-.06,6.79,6.79,0,0,0-.09,1.32v2.44a6.63,6.63,0,0,0,.09,1.31,8.82,8.82,0,0,0-1-.06H33.76a8.66,8.66,0,0,0-1.1.06,6.41,6.41,0,0,0,.09-1.31v-2.61a5.91,5.91,0,0,0-.09-1.15,13,13,0,0,0,1.33.06Zm-4.07.82v3.31h4.18v-3.31Zm4-2.39H37.6c-.36,0-.52,0-1.05.06a7.26,7.26,0,0,0,.09-1.39V93.87a6.77,6.77,0,0,0-.09-1.24,9.74,9.74,0,0,0,1.31.07h3.55a7.92,7.92,0,0,0,1.32-.07,7.47,7.47,0,0,0-.1,1.41V106c0,.52-.26.79-.72.79a10.3,10.3,0,0,1-1.58-.24l-.28-.07-.7-.09-.11-.8a12,12,0,0,0,2,.21c.24,0,.26,0,.26-.29V98.06Zm-.14-4.55V95h3.79V93.51Zm3.79,2.26H37.72v1.47h3.79Z"/><path class="cls-2" d="M52.37,101.85c-.09.18-.27.58-.37.85a5.53,5.53,0,0,1-1.17,2,1.67,1.67,0,0,1-1.29.68c-1,0-1.79-.68-2.45-2a13.89,13.89,0,0,1-1-6.08v-2a5.36,5.36,0,0,0-.1-.9h1.33a5.37,5.37,0,0,0-.1.93v2c0,2.74.23,4.27.79,5.44.46,1,1,1.55,1.57,1.55s.68-.22,1.16-.93a4.41,4.41,0,0,0,.82-2Zm5.08,1.09c0-.17,0-.3,0-.43a9.41,9.41,0,0,0-2.08-5.57,7.13,7.13,0,0,0-1.56-1.44l.64-.74c.29.29.29.29.76.71a9.84,9.84,0,0,1,3.39,6.24,8.06,8.06,0,0,0,.18.94Z"/><path class="cls-2" d="M68.44,92.86A18.87,18.87,0,0,0,75,97.58l.71.21L74.92,99l-.55-.39A19.88,19.88,0,0,1,68,93.53a15.93,15.93,0,0,1-6.5,5.25l-.51.35-.57-.83.7-.22a14,14,0,0,0,6.16-5.61l.23-.59,1.29.4Zm3.39,7.67a7.85,7.85,0,0,0,1.31-.07,6.84,6.84,0,0,0-.09,1.33v3.62a6.75,6.75,0,0,0,.09,1,9.16,9.16,0,0,0-1.06-.07H63.89a9.44,9.44,0,0,0-1.06.07,6.92,6.92,0,0,0,.1-1.33v-3.51a6,6,0,0,0-.1-1.15,9.9,9.9,0,0,0,1.32.07Zm.19-2a5.29,5.29,0,0,0-.9-.07H64.88a7.14,7.14,0,0,0-1,.08v-1a6,6,0,0,0,1,.08h6.24a5.83,5.83,0,0,0,1.06-.08v1Zm-7.94,2.81v4.23h7.83v-4.23Z"/><path class="cls-2" d="M80.35,93.58a3.74,3.74,0,0,0-.11-.9h1.3a4.34,4.34,0,0,0-.1.9v3.55a6.19,6.19,0,0,1,4.69-2.22c2.84,0,4.6,2,4.6,5.07s-1.35,4.58-5,5.75a6.21,6.21,0,0,0-.83.3l-.35-1a4.38,4.38,0,0,0,1.88-.42,4.78,4.78,0,0,0,3.11-4.7c0-2.44-1.39-4-3.52-4-1.65,0-2.83.68-4.63,2.65v6.68a4.18,4.18,0,0,0,.1.89H80.23a3.53,3.53,0,0,0,.12-.89V99.73a36.87,36.87,0,0,0-2.68,3.71l-.84-.75a2.76,2.76,0,0,0,.72-.82,39.58,39.58,0,0,1,2.8-3.55V96.46H78.18a4.41,4.41,0,0,0-.9.1V95.5a5.15,5.15,0,0,0,.9.1h2.17Z"/><path class="cls-2" d="M96.08,93.82a5.55,5.55,0,0,0-.09-.9h1.34a3.31,3.31,0,0,0-.11.9v2.9h5.49v-2.9a3.31,3.31,0,0,0-.11-.9h1.32a3.74,3.74,0,0,0-.11.9v2.9h2.31a4.47,4.47,0,0,0,.91-.08v1a5.36,5.36,0,0,0-.91-.09h-2.31v3.07c0,1.07-.43,1.49-1.52,1.49a6.38,6.38,0,0,1-1.85-.31l-.31-.09-.29-.08-.06,0,.32-.85a2.66,2.66,0,0,0,1.66.44c.76,0,.95-.15.95-.71V97.6H97.22v4.8c0,1.81.7,2.38,2.93,2.38a27.67,27.67,0,0,0,4.61-.2v1.23l-.59,0-.58,0c-.39,0-1,0-1.71,0a15.08,15.08,0,0,1-3.53-.16c-1.55-.34-2.27-1.36-2.27-3.22V97.6H93.84a5.55,5.55,0,0,0-.9.09v-1a4.25,4.25,0,0,0,.9.08h2.24Z"/><path class="cls-2" d="M27.68,68.84a8.81,8.81,0,0,1-.52-3c0-5.71,5.55-10.35,12.4-10.35S52,60.15,52,65.86,46.41,76.2,39.57,76.2H39.3l-4.36,3.4-.21-1.45-.4-2.91a12.3,12.3,0,0,1-4.61-3.1l-.07-.07c-.12-.14-.24-.27-.35-.42l-.16-.19c-.09-.11-.17-.23-.25-.35a2.83,2.83,0,0,1-.2-.28c-.08-.11-.14-.22-.21-.33l-.19-.32-.2-.39L28,69.52c-.09-.2-.17-.41-.25-.62A.14.14,0,0,1,27.68,68.84Z"/><path class="cls-3" d="M91.68,54.2c-.17.45-.35.9-.54,1.33-.1.2-.19.39-.3.58s-.27.57-.43.85-.28.46-.41.69-.28.47-.44.7-.29.41-.43.61-.35.5-.55.74-.22.27-.34.42c-.24.3-.49.59-.75.88l-.15.16a26.41,26.41,0,0,1-9.9,6.65l-.87,6.25-.45,3.12-9.36-7.31-.57,0C51.5,69.89,39.57,60,39.57,47.67S51.5,25.45,66.21,25.45s26.63,10,26.63,22.22a19.1,19.1,0,0,1-1.12,6.4A.5.5,0,0,1,91.68,54.2Z"/><line class="cls-4" x1="54.46" y1="41.13" x2="78.14" y2="41.13"/><line class="cls-4" x1="54.46" y1="49.21" x2="78.14" y2="49.21"/><line class="cls-4" x1="54.46" y1="57.29" x2="68.12" y2="57.29"/></svg>