<svg xmlns="http://www.w3.org/2000/svg" width="136.873" height="148.361" viewBox="0 0 136.873 148.361">
  <g id="グループ_210" data-name="グループ 210" transform="translate(0.127)">
    <g id="グループ_206" data-name="グループ 206" transform="translate(-0.127)">
      <ellipse id="楕円形_10" data-name="楕円形 10" cx="68.437" cy="67.634" rx="68.437" ry="67.634" fill="#ffee1c"/>
      <path id="多角形_1" data-name="多角形 1" d="M15.5,0,31,36H0Z" transform="translate(33.162 148.361) rotate(-120)" fill="#ffee1c"/>
    </g>
    <path id="パス_689" data-name="パス 689" d="M-37.022-.038A15.387,15.387,0,0,1-38.257-1.1l-.532-.513a6.975,6.975,0,0,0,1.425-2.242,9.814,9.814,0,0,0,.608-3.515c0-4.769-2.755-7.828-7.049-7.828-4.313,0-7.144,3.135-7.144,7.923A8.248,8.248,0,0,0-48.8-1.349a6.7,6.7,0,0,0,4.94,1.9,6.524,6.524,0,0,0,3.5-.893,17.836,17.836,0,0,1,1.805,1.919Zm-6.612-3.325a15.2,15.2,0,0,1,1.52,1.33,3.648,3.648,0,0,1-1.71.38c-2.736,0-4.5-2.223-4.5-5.662a6.275,6.275,0,0,1,1.52-4.522A4.1,4.1,0,0,1-43.862-13a4.027,4.027,0,0,1,2.926,1.159,6.155,6.155,0,0,1,1.52,4.427,5.844,5.844,0,0,1-1.178,4.066,18.71,18.71,0,0,1-1.482-1.539ZM-21.746.228c-.266-.513-.741-1.539-.893-1.881-1.881-4.446-2.242-4.978-3.439-5.358a4.017,4.017,0,0,0,2.109-1.1A3.906,3.906,0,0,0-23-10.944c0-2.508-1.653-3.952-4.541-3.952H-32.1c-1.045,0-1.634-.019-2.432-.057a16.9,16.9,0,0,1,.152,2.47V-2.242a14.868,14.868,0,0,1-.152,2.47H-31.7a14.827,14.827,0,0,1-.152-2.489V-6.137h2.831c1.463,0,2.128.7,3.154,3.325a15.381,15.381,0,0,1,.988,3.04ZM-31.854-8.3V-12.73h3.9c1.558,0,2.337.7,2.337,2.071a2.255,2.255,0,0,1-.608,1.672,2.561,2.561,0,0,1-1.805.684ZM-7.535-.931V.228h2.546a12.533,12.533,0,0,1-.095-1.957V-12.16a11.527,11.527,0,0,1,.057-1.577c-.665.038-.665.038-1.653.038h-9.139a12.771,12.771,0,0,1-2.451-.133v2.47a18.593,18.593,0,0,1,2.432-.1h8.322v8.284h-8.645a12.215,12.215,0,0,1-2.375-.133V-.855A21.239,21.239,0,0,1-16.2-.931ZM-.846-5.966a20.858,20.858,0,0,1,3.1-.095H12.34a20.858,20.858,0,0,1,3.1.095V-8.607a18.659,18.659,0,0,1-3.078.133H2.232A18.659,18.659,0,0,1-.846-8.607ZM28.09-13.414a12.6,12.6,0,0,1,1.824,2.6l1.425-.8a10.292,10.292,0,0,0-1.824-2.565Zm5.282.608a10.834,10.834,0,0,0-1.824-2.451l-1.368.741a12.523,12.523,0,0,1,1.786,2.527ZM24.119.855a20.888,20.888,0,0,1-.076-2.109V-6.27a9.823,9.823,0,0,0-.076-1.292,6.139,6.139,0,0,0,.646.323A44.953,44.953,0,0,1,31.34-3.61l1.33-2.242a55.821,55.821,0,0,0-8.626-4.009v-3.534a12.737,12.737,0,0,1,.076-2h-2.6a12.212,12.212,0,0,1,.114,1.938V-1.273A12.8,12.8,0,0,1,21.517.855ZM37.564-9.68A1.768,1.768,0,0,1,37.82-9.7c.144,0,.144,0,.448.016.352,0,1.76.032,2.016.032,0,0,.208-.016.272-.016a.783.783,0,0,0-.128.208,21.192,21.192,0,0,1-1.92,2.736A9.8,9.8,0,0,1,37.069-5.3l1.456,1.44a7.194,7.194,0,0,1,1.392-1.456A5.409,5.409,0,0,1,43.2-6.96a.878.878,0,0,1,.976.864,7.827,7.827,0,0,0-3.44,2.256,2.55,2.55,0,0,0-.7,1.776A2.32,2.32,0,0,0,41.2,0a6.872,6.872,0,0,0,3.568.672,29.02,29.02,0,0,0,4.1-.288A4.714,4.714,0,0,1,49.6.32l-.16-2.064a13.9,13.9,0,0,1-4.7.672c-1.936,0-2.7-.336-2.7-1.168a1.684,1.684,0,0,1,.832-1.312A9.724,9.724,0,0,1,44.4-4.384V-4a12.666,12.666,0,0,1-.1,1.856l1.856-.048a6.569,6.569,0,0,1-.048-.848c0-.112,0-.256.016-.528v-.64c0-.224,0-.224-.016-.64v-.176q2.064-.72,2.4-.816a14.123,14.123,0,0,1,1.776-.432l-.752-1.84a5,5,0,0,1-1.184.48q-.6.192-2.448.864a2.105,2.105,0,0,0-2.288-1.7,3.868,3.868,0,0,0-2.256.72c-.208.16-.208.16-.32.24l-.016-.032a8.28,8.28,0,0,0,1.472-2.128c1.616-.048,3.648-.176,4.816-.32.816-.1.816-.1,1.264-.128l-.112-1.824a21.615,21.615,0,0,1-4.192.544c-.88.048-.88.048-1.008.064.032-.064.064-.112.144-.288a12.224,12.224,0,0,1,.64-1.44l-2.1-.224a6.337,6.337,0,0,1-.64,1.984A19.335,19.335,0,0,1,37.6-11.5ZM-37.886,17.977a4.278,4.278,0,0,1,.076.874,4.943,4.943,0,0,1-1.254,3.724,6.65,6.65,0,0,1-1.71,1.1V20.656a7.494,7.494,0,0,1,.057-1.368,8.818,8.818,0,0,1-1.14.057h-3.154a6.975,6.975,0,0,1-1.273-.057,11.949,11.949,0,0,1,.076,1.463V23.6c0,.551-.038,1.235-.1,1.843h1.862v-.95h2.6a8.645,8.645,0,0,1,.912.038,4.776,4.776,0,0,1,.684,1.14,7.74,7.74,0,0,0,3.059-2.223c.855-1.083,1.178-2.223,1.311-4.522.019-.323.038-.57.057-.893ZM-44.441,20.9H-42.5v1.9h-1.938Zm8.36-9.5v1.349h-1.881a11.991,11.991,0,0,1-1.8-.1v1.9a11.839,11.839,0,0,1,1.8-.095h6.023a11.688,11.688,0,0,1,1.8.095v-1.9a11.991,11.991,0,0,1-1.8.1h-2.185V11.4h2.85a12.357,12.357,0,0,1,1.862.1V9.5a11.569,11.569,0,0,1-2.033.114h-2.679V9.389a7.657,7.657,0,0,1,.114-1.444h-2.185a7.723,7.723,0,0,1,.114,1.425v.247h-2.071A11.22,11.22,0,0,1-40.147,9.5V11.5a12.357,12.357,0,0,1,1.862-.1Zm-10.108-1.121a11.3,11.3,0,0,1,1.539-.076h2.318a11.483,11.483,0,0,1,1.539.076V8.458a11.126,11.126,0,0,1-1.539.076H-44.65a10.782,10.782,0,0,1-1.539-.076Zm-.627,2.793A11.914,11.914,0,0,1-45.3,13h3.325a8.587,8.587,0,0,1,1.444.076V11.118a10.156,10.156,0,0,1-1.52.076H-45.3a8.369,8.369,0,0,1-1.52-.095Zm.627,2.679a9.414,9.414,0,0,1,1.2-.057h3a9.49,9.49,0,0,1,1.178.057V13.987a8.683,8.683,0,0,1-1.178.057h-3a9.622,9.622,0,0,1-1.2-.057Zm0,2.66a9.622,9.622,0,0,1,1.2-.057h2.983a9.622,9.622,0,0,1,1.2.057V16.647a8.683,8.683,0,0,1-1.178.057h-3a9.622,9.622,0,0,1-1.2-.057Zm16.777.893a8.919,8.919,0,0,1-.076-1.349V16.742a12.576,12.576,0,0,1,.057-1.349,15.624,15.624,0,0,1-1.862.076h-7.486c-.95-.019-1.52-.038-1.729-.057a8.415,8.415,0,0,1,.076,1.368V17.9a11.018,11.018,0,0,1-.076,1.406h1.919V17.274h7.144v2.033Zm-5.4-1.292a6.669,6.669,0,0,1,.095,1.349v4.389c0,1.254.513,1.558,2.641,1.558,1.33,0,1.976-.19,2.318-.665.323-.456.456-1.159.608-3.154a7.238,7.238,0,0,1-1.843-.684,13.321,13.321,0,0,1-.152,2.2c-.076.342-.3.456-.855.456-.646,0-.779-.076-.779-.456V19.364a6.74,6.74,0,0,1,.114-1.349Zm9.728-6.555a14.775,14.775,0,0,1,1.5-.114c1.862-.076,2.318-.1,3.287-.171-.475,1.748-.7,2.47-1.2,3.971a6.766,6.766,0,0,0-3.591.912,4.781,4.781,0,0,0-2.356,4.161c0,2.071,1.292,3.61,3.04,3.61a3,3,0,0,0,2.6-1.805,25.313,25.313,0,0,0,1.881-4.674,14.509,14.509,0,0,1,4.275,1.311,7.734,7.734,0,0,1-1.691,2.812,8.934,8.934,0,0,1-2.945,2,6.906,6.906,0,0,1,1.729,1.71,11.009,11.009,0,0,0,2.869-2.147A8.972,8.972,0,0,0-13.6,19.687a19.4,19.4,0,0,1,2.622,1.767l.855-2.508A6.708,6.708,0,0,1-11,18.49c-.589-.342-1.425-.779-2.033-1.083a31.654,31.654,0,0,0,.342-4.028,6.16,6.16,0,0,1,.114-1.273l-2.394-.095a5.7,5.7,0,0,1,.076,1.007,20.638,20.638,0,0,1-.19,3.515,15.484,15.484,0,0,0-4.2-1.2c.171-.589,1.33-4.085,1.425-4.313a2.836,2.836,0,0,1,.4-.8l-1.5-1.292a1.44,1.44,0,0,1-.76.228c-.7.1-2.394.171-3.534.171a11.267,11.267,0,0,1-1.919-.1Zm3,5.681a24.783,24.783,0,0,1-1.235,3.173c-.437.855-.722,1.2-1.083,1.2-.513,0-.931-.627-.931-1.406a2.671,2.671,0,0,1,.722-1.824A3.759,3.759,0,0,1-22.078,17.141Zm21.47,6.137A8.1,8.1,0,0,1,.551,25.387a14.885,14.885,0,0,0,3.819-3.61,14,14,0,0,0,3.762,3.591,10.683,10.683,0,0,1,1.14-2.128A11.386,11.386,0,0,1,5.605,19.9a22.372,22.372,0,0,0,2.717-9.025c.057-.57.095-.95.133-1.2a13.659,13.659,0,0,1-1.539.1H1.938c-.475,0-.874-.019-1.216-.038V8.553a11.369,11.369,0,0,1-1.729.1H-6.8a15.437,15.437,0,0,1-1.71-.1v2.052c.418-.038.627-.057,1.273-.076V20.9a9.039,9.039,0,0,1-1.463.19l.532,2.166a10.637,10.637,0,0,1,1.52-.4c.855-.171,2.147-.513,4.047-1.083v1.767A16.666,16.666,0,0,1-2.717,25.6H-.494a13.051,13.051,0,0,1-.114-2.052Zm0-12.749a6.575,6.575,0,0,1,.722.019v1.216c.3-.038.437-.057.8-.076a23.937,23.937,0,0,0,.874,4.807,17.881,17.881,0,0,0,1.406,3.4,11.684,11.684,0,0,1-3.8,3.344Zm6.821,1.14A19.416,19.416,0,0,1,4.427,17.9,17.9,17.9,0,0,1,2.85,11.669Zm-11.457-1.14H-2.6v2.09H-5.244Zm0,3.781H-2.6v2.033H-5.244Zm0,3.762H-2.6v1.843a26.461,26.461,0,0,1-2.641.608Zm17.955-.437a12,12,0,0,1,2.2-.646,21.292,21.292,0,0,1,5-.741c2.014,0,3.116.8,3.116,2.28a3.052,3.052,0,0,1-1.349,2.565,6.7,6.7,0,0,1-3.173,1.292,16.744,16.744,0,0,1-2.7.285h-.285a6.007,6.007,0,0,1,.817,2.166,18.679,18.679,0,0,0,4.123-.722c3.021-.95,4.807-3,4.807-5.529a4.309,4.309,0,0,0-.7-2.451c-.855-1.311-2.318-1.938-4.484-1.938a26.845,26.845,0,0,0-5.871.8,10.129,10.129,0,0,1-1.976.361Zm17.423-4.37a27.58,27.58,0,0,1,3.154-.38c4.123-.3,4.864-.361,6.4-.589a8.374,8.374,0,0,0-2.641,1.9,6.7,6.7,0,0,0-1.805,4.484,5.084,5.084,0,0,0,2.717,4.579,11.431,11.431,0,0,0,4.446,1.254,4.036,4.036,0,0,1,.646.114l.342-2.584c-.19.019-.361.019-.38.019a11.53,11.53,0,0,1-2.831-.494,3.19,3.19,0,0,1-2.527-3.1c0-1.919,1.425-3.819,3.838-5.073a8.5,8.5,0,0,1,3.762-1.026,2.942,2.942,0,0,1,.4.019l-.133-2.432a10.728,10.728,0,0,1-2.185.19c-5.263.247-8.417.418-9.481.475-2.793.19-2.793.19-3.135.19-.095,0-.3,0-.722-.019ZM-26.249,38.5a9.2,9.2,0,0,1-1.691.1h-5.377c.133-.8.19-1.14.3-2.052h7.638a15.3,15.3,0,0,1,2.318.114v-2.2a19.821,19.821,0,0,1-2.318.114H-32.8c.038-.38.038-.532.1-1.254.038-.532.095-.988.152-1.349l-2.413-.057a6.217,6.217,0,0,1,.076,1.026c0,.456-.019,1.2-.057,1.634h-3.04a19.822,19.822,0,0,1-2.318-.114v2.2a16.35,16.35,0,0,1,2.318-.114h2.85a20.191,20.191,0,0,1-1.5,5.738,14.117,14.117,0,0,1-4.047,5.339,6.858,6.858,0,0,1,1.615,1.615,16.609,16.609,0,0,0,3.211-3.9,20.487,20.487,0,0,0,1.786-3.781,12.945,12.945,0,0,0,2.527,3.591,15.018,15.018,0,0,1-5.529,2.527A6.444,6.444,0,0,1-35.825,49.6a21.011,21.011,0,0,0,3.4-1.463,14.27,14.27,0,0,0,2.394-1.615,14.079,14.079,0,0,0,2.679,1.653,25.892,25.892,0,0,0,3.439,1.368,7.16,7.16,0,0,1,1.159-2.147,15.883,15.883,0,0,1-5.776-2.3,16.029,16.029,0,0,0,2.812-4.332,10.185,10.185,0,0,1,.532-1.1Zm-1.6,1.957a12.836,12.836,0,0,1-2.242,3.363A10.612,10.612,0,0,1-32.5,40.457ZM-11.562,35v.931h-3.249a13.73,13.73,0,0,1-1.843-.076v1.805a14.481,14.481,0,0,1,1.843-.076h.551a9.693,9.693,0,0,1,.551,1.292h-.684a13.73,13.73,0,0,1-1.843-.076V40.59a14.1,14.1,0,0,1,1.843-.076h2.831v.95h-2.489a13.637,13.637,0,0,1-1.71-.076v1.653a14.23,14.23,0,0,1,1.71-.076h2.489V43.9h-3.021a11.367,11.367,0,0,1-1.824-.1v1.748a11.367,11.367,0,0,1,1.824-.1h3.021a13.226,13.226,0,0,1-.095,1.5h2.185a8.4,8.4,0,0,1-.1-1.5h3.42a11.93,11.93,0,0,1,1.843.1V43.8a12.053,12.053,0,0,1-1.862.1h-3.4v-.931h2.736a14.088,14.088,0,0,1,1.691.076V41.388a13.3,13.3,0,0,1-1.691.076H-9.567v-.95h3.23a14.29,14.29,0,0,1,1.843.076V38.8a14.1,14.1,0,0,1-1.843.076H-7.382c.19-.4.323-.684.57-1.292h.779a15.421,15.421,0,0,1,1.862.076V35.859a14.443,14.443,0,0,1-1.862.076H-9.586V35H-6.66a13.689,13.689,0,0,1,1.691.076V33.275a17.649,17.649,0,0,1-1.919.1h-2.7A9.06,9.06,0,0,1-9.491,32h-2.166a11.505,11.505,0,0,1,.095,1.368h-2.489a12.3,12.3,0,0,1-1.9-.1v1.786c.437-.038.817-.057,1.691-.057Zm2.736,2.584a11.455,11.455,0,0,1-.532,1.292h-2.451a10.765,10.765,0,0,0-.513-1.292ZM-21.29,33.636a16.874,16.874,0,0,1,3.059,3.439l1.558-1.539a18.871,18.871,0,0,0-3.1-3.306Zm-.114,7.695a6.673,6.673,0,0,1,1.273-.1H-19.1v4.085A10.905,10.905,0,0,1-21.784,47.2l.931,2.166c.152-.133.38-.3.551-.437a18.85,18.85,0,0,0,2.2-1.824,4.753,4.753,0,0,0,2.413,1.71,19.693,19.693,0,0,0,5.035.38c1.957,0,4.674-.038,6.479-.114a11.189,11.189,0,0,1,.57-2.166,58.45,58.45,0,0,1-7.258.342c-2.736,0-3.99-.133-4.769-.494a2.827,2.827,0,0,1-1.482-1.33V41.35a19.144,19.144,0,0,1,.076-2.071,8.367,8.367,0,0,1-1.444.1H-19.9a8.143,8.143,0,0,1-1.5-.1ZM5.12,33.807a12.065,12.065,0,0,1-1.482-.076c.038.475.076.893.076,1.33v9.614q0,.713-.057,1.311c.418-.038.836-.057,1.387-.057H12.72c.494,0,.874.019,1.292.057-.038-.418-.057-.836-.057-1.311V41.806a14.363,14.363,0,0,1,.057-1.444,11.042,11.042,0,0,1-1.33.057H5.709V39.051h6.422c.589,0,.893.019,1.368.038a9.714,9.714,0,0,1-.057-1.425v-2.6c0-.494.019-.912.057-1.33a9.032,9.032,0,0,1-1.368.076H9.015a18.141,18.141,0,0,0,.969-1.615l-2.2-.323a11.045,11.045,0,0,1-1.007,1.938Zm.589,1.805h5.738v1.71H5.709Zm0,6.555H11.96V44.1H5.709Zm-8.056-8.493A19.953,19.953,0,0,1,.807,37.3l1.615-1.539A21.631,21.631,0,0,0-.827,32.287Zm.019,7.771a7.215,7.215,0,0,1,1.311-.1H.047v3.971a11.835,11.835,0,0,1-2.774,1.9l.912,2.166c.133-.114.418-.342.7-.57a18.259,18.259,0,0,0,2.147-1.862,5.174,5.174,0,0,0,2.413,1.767,18.046,18.046,0,0,0,5.206.456c2.166,0,4.009-.019,6.137-.076a8.717,8.717,0,0,1,.57-2.166,73.151,73.151,0,0,1-7.885.3c-2.47,0-3.61-.171-4.408-.684A2.614,2.614,0,0,1,2.023,45.34V41.369A19.143,19.143,0,0,1,2.1,39.3a8.367,8.367,0,0,1-1.444.095H-.808a8.243,8.243,0,0,1-1.52-.095ZM21.65,35.289c.057-1.672.057-1.672.057-2.033A6.723,6.723,0,0,1,21.821,32h-2.28a9.944,9.944,0,0,1,.114,1.691c0,1.007,0,1.045-.019,1.6h-.855a13.964,13.964,0,0,1-2.09-.114V37.4a13.32,13.32,0,0,1,1.919-.114h.95a23.8,23.8,0,0,1-.893,5.453,12.209,12.209,0,0,1-2.527,4.731A8.5,8.5,0,0,1,17.7,49.406a15.8,15.8,0,0,0,2.907-5.814,28.8,28.8,0,0,0,.969-6.308H23.4c-.038,2.774-.038,2.774-.114,4.446a26.464,26.464,0,0,1-.494,4.5c-.171.627-.342.76-.874.76a11.893,11.893,0,0,1-1.862-.228A6.517,6.517,0,0,1,20.4,48.8a18.2,18.2,0,0,0,1.995.133c1.558,0,2.109-.494,2.451-2.166a49.726,49.726,0,0,0,.57-8.455,24.044,24.044,0,0,1,.1-3.1,20.826,20.826,0,0,1-2.128.076ZM28.661,47.6h2.793V48.95H33.6a15.945,15.945,0,0,1-.114-2.109V35.954a15.059,15.059,0,0,1,.095-1.995,10.955,10.955,0,0,1-1.71.1h-3.61a11.408,11.408,0,0,1-1.71-.1,15.058,15.058,0,0,1,.1,1.995V46.86a17.653,17.653,0,0,1-.114,2.185h2.128Zm0-11.647h2.793V45.7H28.661Zm10.45,8.113a6.785,6.785,0,0,1-.038-.8c0-.266,0-.266.038-1.387l.266-6.46c.038-.817.114-1.805.171-2.318H36.432c.076.532.133,1.482.171,2.318l.266,6.46c.057,1.159.057,1.159.057,1.368,0,.228-.019.418-.038.817Zm.266,4.161v-2.6H36.622v2.6Z" transform="translate(68.873 53)"/>
  </g>
</svg>
