<svg id="line_smartPhone" xmlns="http://www.w3.org/2000/svg" width="130.709" height="230" viewBox="0 0 130.709 230">
  <path id="パス_258" data-name="パス 258" d="M122.454,6H12.859A6.937,6.937,0,0,0,6,13.013v192.55H129.39V13.013A7.02,7.02,0,0,0,122.454,6Z" transform="translate(-2.34 -2.34)" fill="none"/>
  <path id="パス_259" data-name="パス 259" d="M119.359,0H11.275A11.275,11.275,0,0,0,0,11.275V218.725A11.275,11.275,0,0,0,11.275,230h108.16a11.275,11.275,0,0,0,11.275-11.274V11.275A11.372,11.372,0,0,0,119.359,0ZM65.317,220.755a7.411,7.411,0,1,1,5.271-2.171A7.441,7.441,0,0,1,65.317,220.755ZM126.124,197H4.51V11.275A6.765,6.765,0,0,1,11.275,4.51h108.16a6.765,6.765,0,0,1,6.765,6.765V197Z"/>
  <path id="パス_260" data-name="パス 260" d="M12.783,6H122.607a6.86,6.86,0,0,1,6.783,6.935V205.563H6V12.935A6.86,6.86,0,0,1,12.783,6Z" transform="translate(-2.34 -2.34)" fill="#00b900"/>
  <g id="FULL_COLOR_ICON" data-name="FULL COLOR ICON" transform="translate(28.238 61.665)">
    <rect id="長方形_155" data-name="長方形 155" width="74.233" height="74.233" rx="26.37" fill="#00b900"/>
    <g id="TYPE_A" data-name="TYPE A" transform="translate(9.967 11.894)">
      <path id="パス_261" data-name="パス 261" d="M96.5,114.419c0-12.1-12.126-21.959-27.028-21.959S42.44,102.3,42.44,114.419c0,10.839,9.619,19.921,22.605,21.635.878.189,2.08.579,2.379,1.33a5.526,5.526,0,0,1,.091,2.44s-.317,1.909-.39,2.312c-.116.683-.543,2.678,2.342,1.458s15.566-9.149,21.239-15.688h0c3.916-4.27,5.795-8.655,5.795-13.492" transform="translate(-42.44 -92.46)" fill="#fff"/>
      <path id="パス_262" data-name="パス 262" d="M76.2,118.854H74.3a.531.531,0,0,0-.525.531v11.748a.525.525,0,0,0,.525.525h1.9a.518.518,0,0,0,.525-.525V119.361a.525.525,0,0,0-.525-.531" transform="translate(-54.664 -102.745)" fill="#00b900"/>
      <path id="パス_263" data-name="パス 263" d="M92.31,118.854H90.4a.531.531,0,0,0-.525.531v7l-5.4-7.32-.037-.055H82.161a.531.531,0,0,0-.531.531v11.6a.525.525,0,0,0,.531.525h1.9a.525.525,0,0,0,.525-.525v-6.966l5.4,7.32a.384.384,0,0,0,.134.128h.037a.507.507,0,0,0,.134,0h1.9a.518.518,0,0,0,.647-.482V119.361a.525.525,0,0,0-.525-.531" transform="translate(-57.725 -102.745)" fill="#00b900"/>
      <path id="パス_264" data-name="パス 264" d="M65.08,128.751H59.926V119.4a.525.525,0,0,0-.525-.531H57.5a.531.531,0,0,0-.525.531v11.748h0a.531.531,0,0,0,.146.366h0a.506.506,0,0,0,.36.146H65.08a.525.525,0,0,0,.525-.525v-1.9a.531.531,0,0,0-.525-.525" transform="translate(-48.111 -102.761)" fill="#00b900"/>
      <path id="パス_265" data-name="パス 265" d="M111.132,121.822a.531.531,0,0,0,.531-.525v-1.9a.531.531,0,0,0-.531-.531h-7.57a.537.537,0,0,0-.366.152h0a.531.531,0,0,0-.146.366h0v11.76h0a.531.531,0,0,0,.146.366h0a.531.531,0,0,0,.366.146h7.57a.525.525,0,0,0,.531-.525v-1.9a.531.531,0,0,0-.531-.525h-5.148v-1.988h5.148a.531.531,0,0,0,.531-.531V124.3a.531.531,0,0,0-.531-.531h-5.148v-1.988Z" transform="translate(-66.08 -102.761)" fill="#00b900"/>
    </g>
  </g>
</svg>
