<svg xmlns="http://www.w3.org/2000/svg" width="108.5" height="108.341" viewBox="0 0 108.5 108.341">
  <g id="seminar" transform="translate(0.75 0.753)">
    <ellipse id="楕円形_14" data-name="楕円形 14" cx="9.063" cy="9.224" rx="9.063" ry="9.224" transform="translate(18.625 27.445)" fill="none" stroke="#87a5fb" stroke-miterlimit="10" stroke-width="2.5"/>
    <circle id="楕円形_15" data-name="楕円形 15" cx="9.548" cy="9.548" r="9.548" transform="translate(52.124 68.631)" fill="none" stroke="#87a5fb" stroke-miterlimit="10" stroke-width="2.5"/>
    <circle id="楕円形_16" data-name="楕円形 16" cx="9.548" cy="9.548" r="9.548" transform="translate(76.075 68.631)" fill="none" stroke="#87a5fb" stroke-miterlimit="10" stroke-width="2.5"/>
    <path id="パス_202" data-name="パス 202" d="M69.3,54.7c-3.56,0-9.224,1.618-11.976,4.369A18.546,18.546,0,0,0,26.9,71.531a1.246,1.246,0,0,0,1.133,1.295H86.293a1.149,1.149,0,0,0,1.149-1.149v-.146A18.077,18.077,0,0,0,69.3,54.7Z" transform="translate(16.323 33.513)" fill="none" stroke="#87a5fb" stroke-miterlimit="10" stroke-width="2.5"/>
    <path id="パス_203" data-name="パス 203" d="M38.191,67.515h67.014a1.278,1.278,0,0,0,1.295-1.262V1.633A1.246,1.246,0,0,0,105.205.5H1.633A1.084,1.084,0,0,0,.5,1.569V66.3A1.262,1.262,0,0,0,1.762,67.6H4.174" transform="translate(0 0)" fill="none" stroke="#87a5fb" stroke-miterlimit="10" stroke-width="2.5"/>
    <path id="パス_204" data-name="パス 204" d="M18.721,29.85h2.023l4.531,7.04a1.2,1.2,0,0,0,1.521.744,1.133,1.133,0,0,0,.744-.744l3.884-7.04h3.4a1.958,1.958,0,0,1,1.133.647l6.959,6.959a1.23,1.23,0,0,0,.89.388,1.3,1.3,0,0,0,.728-.227l8.092-5.664,1.133,1.618.971,1.295L43.4,42.635,38.384,37.78a1.3,1.3,0,0,0-.906-.388h-.388a1.214,1.214,0,0,0-.809,1.133V82.688a2.751,2.751,0,0,1-5.5,0V62.621a4.369,4.369,0,1,0-8.739,0h0V82.688a2.751,2.751,0,0,1-5.5,0V36.566a1.23,1.23,0,0,0-1.23-1.23h0a1.408,1.408,0,0,0-.518.1l-3.431,1.78a1.618,1.618,0,0,0-.647.809L6.018,56.309A1.618,1.618,0,0,1,4.286,57.6H3.914a1.7,1.7,0,0,1-1.295-2.071h0L7.8,35.271c8.868-4.855,9.564-5.421,10.924-5.421" transform="translate(1.279 18.148)" fill="none" stroke="#87a5fb" stroke-miterlimit="10" stroke-width="2.5"/>
    <line id="線_112" data-name="線 112" x2="7.671" transform="translate(9.692 67.66)" fill="none" stroke="#87a5fb" stroke-miterlimit="10" stroke-width="2.5"/>
    <line id="線_113" data-name="線 113" x2="48.064" transform="translate(50.344 29.582)" fill="none" stroke="#87a5fb" stroke-linecap="round" stroke-miterlimit="10" stroke-width="2.5"/>
    <line id="線_114" data-name="線 114" x2="48.064" transform="translate(50.344 14.45)" fill="none" stroke="#87a5fb" stroke-linecap="round" stroke-miterlimit="10" stroke-width="2.5"/>
    <line id="線_115" data-name="線 115" x1="15.601" y2="10.924" transform="translate(57.028 39.243)" fill="none" stroke="#87a5fb" stroke-linecap="round" stroke-miterlimit="10" stroke-width="2.5"/>
  </g>
</svg>
