<svg id="レイヤー_1" data-name="レイヤー 1" xmlns="http://www.w3.org/2000/svg" viewBox="0 0 31.7 31.71"><defs><style>.cls-1{fill:none;}.cls-2{fill:#ff878a;}</style></defs><g id="icon_checkbox" data-name="icon checkbox"><rect id="Check" class="cls-1" x="-4.15" y="-4.13" width="40" height="40"/><path id="パス_190" data-name="パス 190" class="cls-2" d="M19,31.71H6.47A6.61,6.61,0,0,1,0,25.32c0-4.2,0-8.46,0-12.58,0-2.05,0-4.17,0-6.25A6.61,6.61,0,0,1,6.39,0c3.17,0,6.38,0,9.54,0s6.27,0,9.38,0a6.56,6.56,0,0,1,4.41,1.9,6.46,6.46,0,0,1,2,4.47c0,4.19,0,8.44,0,12.56,0,2.05,0,4.18,0,6.27a6.61,6.61,0,0,1-6.37,6.46C23.43,31.71,21.37,31.71,19,31.71ZM6.48,1.7A4.91,4.91,0,0,0,1.69,6.43c0,4.17,0,8.42,0,12.53,0,2.06,0,4.18,0,6.27a4.86,4.86,0,0,0,1.4,3.32A4.8,4.8,0,0,0,6.41,30H25.22a4.88,4.88,0,0,0,3.31-1.4A4.74,4.74,0,0,0,30,25.3c0-4.18,0-8.43,0-12.54,0-2,0-4.18,0-6.27A4.91,4.91,0,0,0,25.29,1.7L19,1.68H6.48ZM14,24.45a.83.83,0,0,1-.48-.15h0L6.3,19h0a.89.89,0,0,1-.24-1,.77.77,0,0,1,.71-.54,1,1,0,0,1,.51.18h0l6.55,4.84L25.21,8.4h0a1.15,1.15,0,0,1,.46-.25V8.08l.24,0a.84.84,0,0,1,.57,1.34h0L14.63,24.15h0a.87.87,0,0,1-.65.3Z"/><path id="パス_191" data-name="パス 191" class="cls-2" d="M25.31.24a6.43,6.43,0,0,1,6.17,6.17c0,6.28,0,12.56,0,18.83a6.42,6.42,0,0,1-6.17,6.25c-6.28,0-12.56,0-18.84,0A6.42,6.42,0,0,1,.23,25.32c0-6.28,0-12.56,0-18.83A6.42,6.42,0,0,1,6.4.24Q15.85.18,25.31.24ZM6.48,1.49a5.13,5.13,0,0,0-5,4.93c0,6.27,0,12.55,0,18.82a5.14,5.14,0,0,0,4.93,5c6.27,0,12.54,0,18.81,0a5.14,5.14,0,0,0,5-4.94c0-6.27,0-12.54,0-18.81a5.12,5.12,0,0,0-4.93-5c-6.27,0-12.54,0-18.81,0ZM25.91,8.31a.65.65,0,0,1,.55.73.81.81,0,0,1-.12.29L14.47,24a.67.67,0,0,1-.86.11L6.43,18.82c-.5-.42-.06-1.53.74-1l6.7,4.95L25.37,8.54a1,1,0,0,1,.53-.23Z"/></g></svg>