<svg xmlns="http://www.w3.org/2000/svg" width="73.6" height="114.1" viewBox="0 0 73.6 114.1">
  <path id="noun_Speaker_151607" d="M53.184,112.9H19.495L10.859,55.738H.4V43.7h72V55.738H61.941Zm-32.595-1.095H52.211l8.757-57.162H71.305v-9.73H1.495v9.73H11.832ZM60.116,40.9H12.684l.608-.973A28.1,28.1,0,0,1,36.4,27.886,28.429,28.429,0,0,1,59.508,39.927ZM14.995,39.684H57.805a26.942,26.942,0,0,0-42.811,0ZM36.4,25.211A12.405,12.405,0,1,1,48.805,12.805,12.458,12.458,0,0,1,36.4,25.211Zm0-23.716A11.189,11.189,0,1,0,47.589,12.684,11.16,11.16,0,0,0,36.4,1.495Z" transform="translate(0.4 0.4)" fill="#627ff5" stroke="#87a5ff" stroke-miterlimit="10" stroke-width="1.6"/>
</svg>
