<svg xmlns="http://www.w3.org/2000/svg" width="86.4" height="101.479" viewBox="0 0 86.4 101.479">
  <g id="influencer" transform="translate(0.6 0.6)">
    <path id="パス_205" data-name="パス 205" d="M57.209.8A56.486,56.486,0,0,0,.8,57.209" transform="translate(0 0)" fill="none" stroke="#ff878a" stroke-miterlimit="10" stroke-width="2.8"/>
    <path id="パス_206" data-name="パス 206" d="M40.027,6.8A33.227,33.227,0,0,0,6.8,40.027" transform="translate(17.182 17.182)" fill="none" stroke="#ff878a" stroke-miterlimit="10" stroke-width="2.8"/>
    <circle id="楕円形_17" data-name="楕円形 17" cx="13.136" cy="13.136" r="13.136" transform="translate(44.073 44.073)" fill="none" stroke="#ff878a" stroke-miterlimit="10" stroke-width="2.8"/>
    <path id="パス_207" data-name="パス 207" d="M36.312,20a30.909,30.909,0,0,1,18.932,6.955A31.373,31.373,0,0,1,64.9,44.341c0,.386,0,1.159-.386,1.159a1.43,1.43,0,0,1-1.159.386H9.653c-.386,0-.773-.386-1.159-.386a1.43,1.43,0,0,1-.386-1.159h0a27.045,27.045,0,0,1,9.659-17.386A28.939,28.939,0,0,1,36.312,20Z" transform="translate(20.897 54.982)" fill="none"/>
    <path id="パス_208" data-name="パス 208" d="M33.727,20.9A25.809,25.809,0,0,0,9.773,38.287L9,40.605H58.841l-.773-2.7a25.577,25.577,0,0,0-24.341-17Z" transform="translate(23.482 57.558)" fill="none" stroke="#ff878a" stroke-miterlimit="10" stroke-width="2.8"/>
  </g>
</svg>
