<svg xmlns="http://www.w3.org/2000/svg" width="65" height="65" viewBox="0 0 65 65">
  <g id="グループ_263" data-name="グループ 263" transform="translate(0 -0.094)">
    <g id="楕円形_6" data-name="楕円形 6" transform="translate(0 0.094)" fill="none" stroke="#92785f" stroke-width="2">
      <circle cx="32.5" cy="32.5" r="32.5" stroke="none"/>
      <circle cx="32.5" cy="32.5" r="31.5" fill="none"/>
    </g>
    <g id="cosme" transform="translate(19.103 16.564)">
      <path id="パス_37" data-name="パス 37" d="M.846,31.684A.85.85,0,0,1,0,30.838v-11.5a.85.85,0,0,1,.846-.846H1v-9.5a.846.846,0,0,1,.831-.846V3.2A2.692,2.692,0,0,1,3.511.711l1.4-.569a1.927,1.927,0,0,1,2.653,1.78V8.148a.846.846,0,0,1,.831.846v9.5h.158a.846.846,0,0,1,.846.846v11.5a.846.846,0,0,1-.846.846ZM7.69,29.992v-9.8h-6v9.8ZM6.7,18.495V9.84H2.692v8.655ZM5.871,8.148V1.923a.223.223,0,0,0-.1-.188.238.238,0,0,0-.131-.042.2.2,0,0,0-.092,0l-1.4.584a1,1,0,0,0-.623.927V8.148Z" transform="translate(0 0)" fill="#92785f"/>
      <path id="パス_38" data-name="パス 38" d="M.969,31.73A.769.769,0,0,1,.2,30.961v-11.5A.769.769,0,0,1,.969,18.7H1.2V9.117a.769.769,0,0,1,.769-.769h.073V3.326A2.6,2.6,0,0,1,3.664.892L5.06.339A1.85,1.85,0,0,1,7.609,2.054V8.348h.062a.769.769,0,0,1,.769.769V18.7h.235a.769.769,0,0,1,.769.769v11.5a.769.769,0,0,1-.769.769ZM7.89,30.192V20.233H1.738v9.959ZM6.9,18.7V9.886H2.742V18.7ZM6.071,8.348v-6.3a.311.311,0,0,0-.138-.261.315.315,0,0,0-.173-.054.327.327,0,0,0-.119.023l-1.4.577a1.077,1.077,0,0,0-.658,1V8.348Z" transform="translate(-0.123 -0.123)" fill="#92785f"/>
      <path id="パス_39" data-name="パス 39" d="M1.277,31.845A.577.577,0,0,1,.7,31.268v-11.5a.577.577,0,0,1,.577-.577H1.7V9.424a.577.577,0,0,1,.577-.577h.254V3.633A2.411,2.411,0,0,1,4.041,1.392L5.429.815A1.669,1.669,0,0,1,6.068.7a1.615,1.615,0,0,1,.923.285,1.65,1.65,0,0,1,.746,1.369V8.847H7.99a.577.577,0,0,1,.577.577v9.77h.427a.577.577,0,0,1,.577.577v11.5a.577.577,0,0,1-.577.577Zm7.129-1.154V20.348H1.854V30.691Zm-1-11.5V10H2.857v9.194ZM6.583,8.847V2.353a.488.488,0,0,0-.223-.419.5.5,0,0,0-.281-.088.477.477,0,0,0-.192.038L4.48,2.461a1.257,1.257,0,0,0-.792,1.173V8.847Z" transform="translate(-0.431 -0.43)" fill="#92785f"/>
      <path id="パス_40" data-name="パス 40" d="M1.154,31.81A.654.654,0,0,1,.5,31.156V19.66a.654.654,0,0,1,.654-.654H1.5V9.312a.654.654,0,0,1,.654-.654h.177V3.522A2.488,2.488,0,0,1,3.891,1.215L5.306.638a1.738,1.738,0,0,1,2.372,1.6V8.659h.177a.654.654,0,0,1,.654.654v9.693h.35a.654.654,0,0,1,.654.654v11.5a.654.654,0,0,1-.654.654ZM8.206,30.5V20.313h-6.4V30.5Zm-1-11.5V9.966H2.811v9.04ZM6.371,8.659V2.241a.427.427,0,0,0-.188-.358.446.446,0,0,0-.238-.073.5.5,0,0,0-.165.031l-1.4.577a1.188,1.188,0,0,0-.742,1.1V8.659Z" transform="translate(-0.308 -0.319)" fill="#92785f"/>
      <path id="パス_41" data-name="パス 41" d="M1.277,31.845A.577.577,0,0,1,.7,31.268v-11.5a.577.577,0,0,1,.577-.577H1.7V9.424a.577.577,0,0,1,.577-.577h.254V3.633A2.411,2.411,0,0,1,4.041,1.392L5.429.815A1.669,1.669,0,0,1,6.068.7a1.615,1.615,0,0,1,.923.285,1.65,1.65,0,0,1,.746,1.369V8.847H7.99a.577.577,0,0,1,.577.577v9.77h.427a.577.577,0,0,1,.577.577v11.5a.577.577,0,0,1-.577.577Zm7.129-1.154V20.348H1.854V30.691Zm-1-11.5V10H2.857v9.194ZM6.583,8.847V2.353a.488.488,0,0,0-.223-.419.5.5,0,0,0-.281-.088.477.477,0,0,0-.192.038L4.48,2.461a1.257,1.257,0,0,0-.792,1.173V8.847Z" transform="translate(-0.431 -0.43)" fill="#92785f"/>
      <path id="パス_42" data-name="パス 42" d="M7.195,1.449a1.465,1.465,0,0,0-1.373-.142l-1.4.584A2.222,2.222,0,0,0,3.046,3.94V9.347H2.588a.385.385,0,0,0-.385.385v9.963H1.585a.385.385,0,0,0-.385.385v11.5a.385.385,0,0,0,.385.385h7.69a.385.385,0,0,0,.385-.385v-11.5a.385.385,0,0,0-.385-.385h-.6V9.731a.385.385,0,0,0-.385-.385H7.84V2.66a1.473,1.473,0,0,0-.646-1.211ZM3.815,3.94a1.457,1.457,0,0,1,.911-1.353l1.4-.565a.7.7,0,0,1,.95.638V9.347H3.815ZM8.906,31.19H1.969V20.463H8.89V31.19Zm-1-11.5H2.973V10.116H7.9Z" transform="translate(-0.739 -0.737)" fill="#92785f"/>
      <path id="パス_43" data-name="パス 43" d="M32.349,35.878a.846.846,0,0,1-.846-.846v-1a8.417,8.417,0,0,1-4.537-6.787,8.2,8.2,0,0,1,4.153-7.729,1.653,1.653,0,0,0,.769-.927.854.854,0,0,1-.581-.8V8.855A2.069,2.069,0,0,1,33.376,6.79h3.68a2.069,2.069,0,0,1,2.065,2.065v8.936a.854.854,0,0,1-.581.8,1.615,1.615,0,0,0,.731.915,8.236,8.236,0,0,1-.346,14.534v.988a.85.85,0,0,1-.846.846Zm4.864-1.707V33.5a.85.85,0,0,1,.519-.769,6.633,6.633,0,0,0,3.984-5.383H36.041v2.888a.846.846,0,0,1-1.692,0V27.33H28.673a6.644,6.644,0,0,0,3.991,5.383.854.854,0,0,1,.515.769v.688Zm-2.865-8.532v-7H33.58a3.414,3.414,0,0,1-1.615,2.357,6.594,6.594,0,0,0-3.234,4.645Zm7.306,0a6.614,6.614,0,0,0-3.238-4.656,3.384,3.384,0,0,1-1.623-2.346h-.769v7ZM37.41,16.945V8.87a.385.385,0,0,0-.385-.385H33.357a.385.385,0,0,0-.385.385v8.075Z" transform="translate(-16.584 -4.179)" fill="#92785f"/>
      <path id="パス_44" data-name="パス 44" d="M32.478,35.93a.769.769,0,0,1-.769-.769V34.116a8.309,8.309,0,0,1-4.533-6.737,8.117,8.117,0,0,1,4.107-7.659,1.746,1.746,0,0,0,.811-1.05.769.769,0,0,1-.6-.769V8.984A1.992,1.992,0,0,1,33.485,7h3.68a1.992,1.992,0,0,1,1.988,1.988V17.92a.769.769,0,0,1-.6.769,1.688,1.688,0,0,0,.788,1,8.159,8.159,0,0,1-.385,14.419v1.038a.769.769,0,0,1-.769.769Zm4.956-1.538v-.769a.769.769,0,0,1,.473-.707,6.679,6.679,0,0,0,4.022-5.537H36.092v2.965a.769.769,0,1,1-1.538,0V27.379H28.717a6.7,6.7,0,0,0,4.045,5.537.769.769,0,0,1,.484.711V34.4Zm-2.88-8.551V18.689h-.9a3.3,3.3,0,0,1-1.611,2.365,6.652,6.652,0,0,0-3.284,4.787Zm7.329,0a6.664,6.664,0,0,0-3.3-4.8,3.28,3.28,0,0,1-1.6-2.353h-.9v7.156Zm-4.268-8.69V8.984a.45.45,0,0,0-.45-.446h-3.68a.45.45,0,0,0-.454.45v8.163Z" transform="translate(-16.713 -4.308)" fill="#92785f"/>
      <path id="パス_45" data-name="パス 45" d="M32.78,36.04a.577.577,0,0,1-.577-.577V34.31a8.1,8.1,0,0,1-4.537-6.629,7.936,7.936,0,0,1,4.014-7.494,1.953,1.953,0,0,0,.95-1.388h-.065a.577.577,0,0,1-.577-.577V9.286a1.8,1.8,0,0,1,1.8-1.8h3.68a1.8,1.8,0,0,1,1.8,1.8v8.936a.577.577,0,0,1-.577.577H38.62a1.923,1.923,0,0,0,.927,1.377,7.967,7.967,0,0,1-.481,14.131v1.154a.577.577,0,0,1-.577.577Zm5.149-1.154v-.954a.573.573,0,0,1,.354-.531,6.829,6.829,0,0,0,4.153-5.91H36.2v3.157a.577.577,0,1,1-1.154,0V27.492H28.815a.939.939,0,0,0,0,.1,6.9,6.9,0,0,0,4.172,5.8.573.573,0,0,1,.354.531v.957Zm-2.88-8.548V18.8H33.791a3.1,3.1,0,0,1-1.538,2.392,6.821,6.821,0,0,0-3.407,5.149Zm7.356,0a6.829,6.829,0,0,0-3.422-5.16,3.076,3.076,0,0,1-1.538-2.38H36.2v7.54Zm-4.295-8.694V9.286a.642.642,0,0,0-.642-.642h-3.68a.646.646,0,0,0-.646.642v8.359Z" transform="translate(-17.015 -4.61)" fill="#92785f"/>
      <path id="パス_46" data-name="パス 46" d="M32.656,35.994A.654.654,0,0,1,32,35.34V34.225a8.205,8.205,0,0,1-4.537-6.667A8.017,8.017,0,0,1,31.5,20a1.865,1.865,0,0,0,.9-1.246.658.658,0,0,1-.627-.654V9.163A1.876,1.876,0,0,1,33.648,7.29h3.68A1.873,1.873,0,0,1,39.2,9.163V18.1a.654.654,0,0,1-.627.654,1.815,1.815,0,0,0,.873,1.23A8.048,8.048,0,0,1,39,34.233V35.34a.654.654,0,0,1-.654.654Zm5.072-1.307V33.81a.657.657,0,0,1,.385-.6,6.779,6.779,0,0,0,4.118-5.768H36.155v3.076a.654.654,0,0,1-1.307,0V27.438H28.773v.023A6.814,6.814,0,0,0,32.895,33.2a.657.657,0,0,1,.385.6v.881Zm-2.88-8.548V18.752H33.737a3.2,3.2,0,0,1-1.569,2.38,6.748,6.748,0,0,0-3.357,5Zm7.344,0a6.771,6.771,0,0,0-3.384-5.018,3.153,3.153,0,0,1-1.538-2.369H36.155v7.386Zm-4.283-8.694V9.163a.565.565,0,0,0-.565-.565h-3.68a.569.569,0,0,0-.569.565v8.282Z" transform="translate(-16.891 -4.487)" fill="#92785f"/>
      <path id="パス_47" data-name="パス 47" d="M32.78,36.04a.577.577,0,0,1-.577-.577V34.31a8.1,8.1,0,0,1-4.537-6.629,7.936,7.936,0,0,1,4.014-7.494,1.953,1.953,0,0,0,.95-1.388h-.065a.577.577,0,0,1-.577-.577V9.286a1.8,1.8,0,0,1,1.8-1.8h3.68a1.8,1.8,0,0,1,1.8,1.8v8.936a.577.577,0,0,1-.577.577H38.62a1.923,1.923,0,0,0,.927,1.377,7.967,7.967,0,0,1-.481,14.131v1.154a.577.577,0,0,1-.577.577Zm5.149-1.154v-.954a.573.573,0,0,1,.354-.531,6.829,6.829,0,0,0,4.153-5.91H36.2v3.157a.577.577,0,1,1-1.154,0V27.492H28.815a.939.939,0,0,0,0,.1,6.9,6.9,0,0,0,4.172,5.8.573.573,0,0,1,.354.531v.957Zm-2.88-8.548V18.8H33.791a3.1,3.1,0,0,1-1.538,2.392,6.821,6.821,0,0,0-3.407,5.149Zm7.356,0a6.829,6.829,0,0,0-3.422-5.16,3.076,3.076,0,0,1-1.538-2.38H36.2v7.54Zm-4.295-8.694V9.286a.642.642,0,0,0-.642-.642h-3.68a.646.646,0,0,0-.646.642v8.359Z" transform="translate(-17.015 -4.61)" fill="#92785f"/>
      <path id="パス_48" data-name="パス 48" d="M32.085,20.689a7.744,7.744,0,0,0-3.918,7.306,7.871,7.871,0,0,0,4.537,6.5v1.284a.385.385,0,0,0,.385.385H38.8a.385.385,0,0,0,.385-.385V34.5a7.775,7.775,0,0,0,.581-13.842,2.13,2.13,0,0,1-1.05-1.734H39a.385.385,0,0,0,.385-.385V9.6a1.6,1.6,0,0,0-1.6-1.6H34.1a1.607,1.607,0,0,0-1.607,1.6v8.932a.385.385,0,0,0,.385.385h.281A2.172,2.172,0,0,1,32.085,20.689Zm6.567,13.2a.384.384,0,0,0-.238.354V35.4H33.474V34.247a.385.385,0,0,0-.235-.354,7.09,7.09,0,0,1-4.3-5.968v-.311H35.55v3.349a.385.385,0,1,0,.769,0V27.61h6.629A7.006,7.006,0,0,1,38.653,33.893Zm.731-12.57a7.037,7.037,0,0,1,3.541,5.518H36.319V18.92h1.63a2.907,2.907,0,0,0,1.434,2.4ZM33.258,9.6a.838.838,0,0,1,.838-.831h3.68a.838.838,0,0,1,.838.834v8.548H33.258Zm.665,9.321H35.55v7.921H28.944a6.963,6.963,0,0,1,3.522-5.506,2.945,2.945,0,0,0,1.457-2.415Z" transform="translate(-17.324 -4.924)" fill="#92785f"/>
    </g>
  </g>
</svg>
