<svg xmlns="http://www.w3.org/2000/svg" width="764" height="275" viewBox="0 0 764 275">
  <g id="グループ_433" data-name="グループ 433" transform="translate(-258 -1674)">
    <g id="グループ_428" data-name="グループ 428" transform="translate(-20 -41.44)">
      <rect id="長方形_226" data-name="長方形 226" width="89" height="45" transform="translate(717 1856.44)" fill="#ff878a"/>
      <path id="多角形_10" data-name="多角形 10" d="M40,0,80,33H0Z" transform="translate(692 1918.44) rotate(-90)" fill="#ff878a"/>
    </g>
    <g id="inflady_chart" transform="translate(257 1673)">
      <path id="パス_627" data-name="パス 627" d="M2.79,19.72c3.46-.17,10.48-3.28,14.79-6.56,3.81-2.79,7.83-6.92,8.75-9l3.46,3c-.46.43-1.23,1.13-1.87,1.8a42.68,42.68,0,0,1-7,5.93V31.37a10.361,10.361,0,0,0,.21,2h-4.2a10.42,10.42,0,0,0,.22-2V17A46.51,46.51,0,0,1,5.23,21.1a13.08,13.08,0,0,0-1.73.56Z" fill="#ff878a"/>
      <path id="パス_628" data-name="パス 628" d="M48.15,16c-1.66-2.65-7.91-8-9.67-8.4l1.38-2A6,6,0,0,0,41.8,6.77a52.21,52.21,0,0,1,7.73,4.66,12.77,12.77,0,0,0,1.55,1.13ZM39.71,28.19c6.18,0,14.12-2.93,17.9-6.67C60.78,18.7,63.5,14,64,10.55l2,.91a7,7,0,0,0-.88,2.23c-2.75,10.16-9.7,15.91-21.81,18.07a12.76,12.76,0,0,0-2.25.63Z" fill="#ff878a"/>
      <path id="パス_629" data-name="パス 629" d="M72.93,9.52a11.62,11.62,0,0,0-2,.21V7.41a8.35,8.35,0,0,0,2,.24H97.32c-.5,14.05-6.67,21.92-19.38,24.67a11.43,11.43,0,0,0-1.66.6l-.81-2c3.46,0,9.07-3.15,12-6.78,3.07-3.71,4.83-8.54,5.26-14.58Z" fill="#ff878a"/>
      <path id="パス_630" data-name="パス 630" d="M106.57,32.32V4.16h4.48V30.49h14v1.83Z" fill="#ff878a"/>
      <path id="パス_631" data-name="パス 631" d="M143.14,29.71a10.08,10.08,0,0,1-7.27,3c-4.31,0-7.06-2.19-7.06-5.65,0-2.79,1.24-4.63,3.95-5.86a17.61,17.61,0,0,1,4.17-1.24,33.581,33.581,0,0,0,4.06-.6l2.12-.31c0-.36-.08-.64-.11-1-.21-2.93-1.94-4.55-4.84-4.55-2.33,0-4.76,1.24-6.91,3.49l-1.17-2.75a16.78,16.78,0,0,1,8.33-2.54c5.51,0,8.26,2,8.75,6.35.07.82.11,1.31.11,2V32.32h-4.13Zm0-9-1.94.35c-1.69.29-2.19.39-3.18.57-3.39.67-4.83,2.08-4.83,4.66,0,2.36,1.62,3.81,4.3,3.81a7.88,7.88,0,0,0,5.65-2.4Z" fill="#ff878a"/>
      <path id="パス_632" data-name="パス 632" d="M174.06,2.75V32.32h-4.23v-3a7.75,7.75,0,0,1-6.67,3.39c-5.9,0-9.43-4-9.43-10.63,0-6.14,3.81-10.34,9.39-10.34a7.84,7.84,0,0,1,6.71,3.46V2.75Zm-16,19.34c0,5.29,2.26,8.68,5.79,8.68,3.36,0,6-3.81,6-8.65s-2.65-8.57-6-8.57-5.78,3.53-5.78,8.54Z" fill="#ff878a"/>
      <path id="パス_633" data-name="パス 633" d="M184,12.06l6.81,15.71,5.9-14.29a3.43,3.43,0,0,0,.28-1.42h2.61l-10,23.4a10,10,0,0,1-2.62,3.6c-1.2,1-2.4,1.27-4.65,1.27a18.272,18.272,0,0,1-1.88-.07L180,38a13.24,13.24,0,0,0,2.9.28,4,4,0,0,0,3.21-1.16A8.22,8.22,0,0,0,187.55,35l1-2.22-9.28-20.76Z" fill="#ff878a"/>
      <rect id="長方形_212" data-name="長方形 212" width="401" height="225.36" rx="4.43" transform="translate(1 50.64)" fill="#fff7f7"/>
      <rect id="長方形_213" data-name="長方形 213" width="218" height="275" rx="3.61" transform="translate(547 1)" fill="rgba(255,153,94,0.08)"/>
      <g id="レイヤー_2" data-name="レイヤー 2">
        <g id="Rectangle">
          <rect id="rect" width="54.5" height="54.5" transform="translate(94.61 103.32)" fill="none"/>
        </g>
        <g id="icon_data" data-name="icon data">
          <path id="パス_634" data-name="パス 634" d="M134.35,114.67l6.81,6.81-6.81,6.82" fill="none" stroke="#49240d" stroke-linecap="round" stroke-linejoin="round" stroke-width="4"/>
          <line id="線_190" data-name="線 190" x2="38.61" transform="translate(102.56 121.48)" fill="none" stroke="#49240d" stroke-linecap="round" stroke-linejoin="round" stroke-width="4"/>
          <path id="パス_635" data-name="パス 635" d="M109.37,146.46l-6.81-6.81,6.81-6.81" fill="none" stroke="#49240d" stroke-linecap="round" stroke-linejoin="round" stroke-width="4"/>
          <line id="線_191" data-name="線 191" x1="38.61" transform="translate(102.56 139.65)" fill="none" stroke="#49240d" stroke-linecap="round" stroke-linejoin="round" stroke-width="4"/>
        </g>
      </g>
      <path id="パス_636" data-name="パス 636" d="M110.4,98.72a21.42,21.42,0,0,0,7.21,2.59l1.32.19-2.17,3.22-1-.42a22.81,22.81,0,0,1-7.37-4,27.75,27.75,0,0,1-9,4l-1,.35-.59-1.22,1.09-.29a24.16,24.16,0,0,0,7.58-4.85,2.4,2.4,0,0,1-.21-.23,18,18,0,0,1-2.31-3.89l-.52-.87,1.15-.59.48.9A13.46,13.46,0,0,0,107.93,97a14.24,14.24,0,0,0,2.61-3.79l.59-1.27,3.16,1.77-.8,1.11a20.491,20.491,0,0,1-3.25,3.86Zm-3.91-14.34v-.87l-.07-.47v-.22h3.84a9.4,9.4,0,0,0-.14,1.56v2.38h7a10.628,10.628,0,0,0,1.58-.12v1.43H99.57a10.451,10.451,0,0,0-1.57.11V86.64a11.1,11.1,0,0,0,1.57.12h6.92Zm-.23,5.55-.82.85a19.28,19.28,0,0,1-5.73,4.33l-.82.59-.8-1,.89-.61a18,18,0,0,0,3.72-5l.43-1Zm6.12-1.13a40.718,40.718,0,0,1,5.2,3l1.11.57-2.54,2.92-.59-1a43.729,43.729,0,0,0-4-4.38l-.8-.61.9-1Z" fill="#49240d"/>
      <path id="パス_637" data-name="パス 637" d="M122,89.37a30.678,30.678,0,0,1,3.48,1.32l.92.35-2,2.92-.49-.71c-.78-.91-1.65-1.83-2.55-2.73l-.61-.4.68-1Zm5.55,5.27-.33.71a49,49,0,0,1-2.82,8l-.33,1-3.18-2,.75-.75a35.259,35.259,0,0,0,4.48-6.71l.28-.75Zm-4.66-11a28.311,28.311,0,0,1,2.76,1.16l.75.33.85.35L125.1,88.3l-.42-.7a26.14,26.14,0,0,0-2.49-2.88l-.57-.42.78-1Zm3.39,19.78c1.77-1.74,2.43-3.56,2.43-6.69V96a7.78,7.78,0,0,0-.12-1.46h3.11a9.05,9.05,0,0,0-.12,1.46v.8a7.75,7.75,0,0,1-4.5,7.61l-.73.56-.8-1Zm2.54-16a9.471,9.471,0,0,0-1.57.12V86.12a11.21,11.21,0,0,0,1.57.12h4V84.38a7.58,7.58,0,0,0-.16-1.56h3.51a9.4,9.4,0,0,0-.14,1.56v1.86h4.73a10.63,10.63,0,0,0,1.58-.12v1.44h-.59a8.758,8.758,0,0,0-1,0H135.3l-.1.12a25.479,25.479,0,0,1-2.85,3.22c1.18,0,2.59,0,4-.09l1.72-.07c-.3-.5-.56-.94-.87-1.41l-.54-.62,1-.82.57.56c1.13.92,2.35,2,3.62,3.18l1,.78-3,2.26-.28-1c-.52-1.11-.59-1.25-.85-1.75a77.924,77.924,0,0,1-9,2l-1.22.36-1-3.54,1.37.12h1.88a21.851,21.851,0,0,0,.89-3.34Zm3.72,16v-.47a5.459,5.459,0,0,0,.07-1V96a7.581,7.581,0,0,0-.12-1.3h3.07a7.339,7.339,0,0,0-.12,1.3v6a9.151,9.151,0,0,0,.14,1.55h-3.11Zm10.25-4c0,.82.09,2.17.09,2.85,0,1.6-.66,2.05-3,2.05-2.59,0-3.13-.4-3.13-2.29V96a10.5,10.5,0,0,0-.12-1.51h3.06a10.8,10.8,0,0,0-.11,1.51v5.41c0,.4.14.52.66.52.8,0,1.1-.1,1.17-.4a11.86,11.86,0,0,0,.22-2.29V98.3l1.34.38Z" fill="#49240d"/>
      <g id="レイヤー_2-2" data-name="レイヤー 2">
        <g id="Rect_最後透明に_" data-name="Rect 最後透明に ">
          <rect id="長方形_214" data-name="長方形 214" width="87.06" height="87.06" transform="translate(2.1 73.79)" fill="none"/>
        </g>
        <g id="icon">
          <circle id="楕円形_33" data-name="楕円形 33" cx="10.88" cy="10.88" r="10.88" transform="translate(34.99 88.54)" stroke-width="5" stroke="#49240d" stroke-linecap="round" stroke-linejoin="round" fill="none"/>
          <path id="パス_638" data-name="パス 638" d="M18.3,147.52v-5.44c0-10.5,7.67-19,17.14-19H56.28c9.47,0,17.14,8.54,17.14,19v5.44" fill="none" stroke="#49240d" stroke-linecap="round" stroke-linejoin="round" stroke-width="5"/>
        </g>
      </g>
      <g id="レイヤー_2-3" data-name="レイヤー 2">
        <g id="Rectangle-2" data-name="Rectangle">
          <rect id="rect-2" data-name="rect" width="54.5" height="54.5" transform="translate(245.85 103.32)" fill="none"/>
        </g>
        <g id="icon_data-2" data-name="icon data">
          <path id="パス_639" data-name="パス 639" d="M285.59,114.67l6.81,6.81-6.81,6.82" fill="none" stroke="#49240d" stroke-linecap="round" stroke-linejoin="round" stroke-width="4"/>
          <line id="線_192" data-name="線 192" x2="38.6" transform="translate(253.8 121.48)" fill="none" stroke="#49240d" stroke-linecap="round" stroke-linejoin="round" stroke-width="4"/>
          <path id="パス_640" data-name="パス 640" d="M260.61,146.46l-6.81-6.81,6.81-6.81" fill="none" stroke="#49240d" stroke-linecap="round" stroke-linejoin="round" stroke-width="4"/>
          <line id="線_193" data-name="線 193" x1="38.6" transform="translate(253.8 139.65)" fill="none" stroke="#49240d" stroke-linecap="round" stroke-linejoin="round" stroke-width="4"/>
        </g>
      </g>
      <path id="パス_641" data-name="パス 641" d="M261.64,98.72a21.42,21.42,0,0,0,7.21,2.59l1.31.19L268,104.72l-1-.42a22.81,22.81,0,0,1-7.37-4,27.75,27.75,0,0,1-9,4l-1,.35L249,103.5l1.08-.29a24.2,24.2,0,0,0,7.59-4.85,2.436,2.436,0,0,1-.22-.23,18.34,18.34,0,0,1-2.3-3.89l-.52-.87,1.15-.59.47.9a13.52,13.52,0,0,0,2.9,3.29,14.47,14.47,0,0,0,2.61-3.79l.59-1.27,3.16,1.77-.8,1.11a20.869,20.869,0,0,1-3.25,3.86Zm-3.91-14.34v-.87l-.07-.47v-.22h3.84a9.4,9.4,0,0,0-.14,1.56v2.38h7a10.631,10.631,0,0,0,1.58-.12v1.43H250.81a10.66,10.66,0,0,0-1.58.11V86.64a11.232,11.232,0,0,0,1.58.12h6.92Zm-.23,5.55-.83.85A19.1,19.1,0,0,1,251,95.11l-.82.59-.8-1,.89-.61a18.23,18.23,0,0,0,3.72-5l.43-1Zm6.12-1.13a41.429,41.429,0,0,1,5.2,3l1.11.57-2.54,2.92-.59-1a43.729,43.729,0,0,0-4-4.38l-.8-.61.9-1Z" fill="#49240d"/>
      <path id="パス_642" data-name="パス 642" d="M273.19,89.37a30.676,30.676,0,0,1,3.48,1.32l.92.35-2,2.92-.5-.71c-.77-.91-1.64-1.83-2.54-2.73l-.61-.4.68-1Zm5.55,5.27-.33.71a49,49,0,0,1-2.82,8l-.33,1-3.18-2,.75-.75a35.74,35.74,0,0,0,4.48-6.71l.28-.75Zm-4.66-11a27.514,27.514,0,0,1,2.75,1.16l.76.33.85.35-2.15,2.82-.42-.7a26.117,26.117,0,0,0-2.5-2.88l-.56-.42.77-1Zm3.39,19.78c1.77-1.74,2.43-3.56,2.43-6.69V96a7.778,7.778,0,0,0-.12-1.46h3.11a9.052,9.052,0,0,0-.12,1.46v.8a7.75,7.75,0,0,1-4.5,7.61l-.73.56-.8-1Zm2.54-16a9.4,9.4,0,0,0-1.57.12V86.12a11.21,11.21,0,0,0,1.57.12h4V84.38a7.579,7.579,0,0,0-.16-1.56h3.5a10.673,10.673,0,0,0-.14,1.56v1.86h4.74a10.421,10.421,0,0,0,1.57-.12v1.44h-.58a8.759,8.759,0,0,0-1,0h-5.39l-.1.12a25.48,25.48,0,0,1-2.85,3.22c1.18,0,2.59,0,4-.09l1.72-.07c-.31-.5-.57-.94-.87-1.41l-.54-.62,1-.82.56.56c1.13.92,2.36,2,3.63,3.18l1,.78-3,2.26-.28-1c-.52-1.11-.59-1.25-.85-1.75a77.925,77.925,0,0,1-9,2l-1.22.36-1-3.54,1.36.12H282a24.431,24.431,0,0,0,.89-3.34Zm3.72,16v-.47a5.456,5.456,0,0,0,.07-1V96a7.584,7.584,0,0,0-.12-1.3h3.06a8.192,8.192,0,0,0-.11,1.3v6a9.15,9.15,0,0,0,.14,1.55h-3.11Zm10.24-4c0,.82.1,2.17.1,2.85,0,1.6-.66,2.05-3,2.05-2.59,0-3.13-.4-3.13-2.29V96a10.5,10.5,0,0,0-.12-1.51h3.06a10.8,10.8,0,0,0-.11,1.51v5.41c0,.4.14.52.65.52.81,0,1.11-.1,1.18-.4a11.136,11.136,0,0,0,.21-2.29V98.3l1.34.38Z" fill="#49240d"/>
      <g id="レイヤー_2-4" data-name="レイヤー 2">
        <g id="Rectangle-3" data-name="Rectangle">
          <rect id="rect-3" data-name="rect" width="54.5" height="54.5" transform="translate(169.55 210.96)" fill="none"/>
        </g>
        <g id="icon_data-3" data-name="icon data">
          <path id="パス_643" data-name="パス 643" d="M209.29,222.31l6.81,6.81-6.81,6.81" fill="none" stroke="#49240d" stroke-linecap="round" stroke-linejoin="round" stroke-width="4"/>
          <line id="線_194" data-name="線 194" x2="38.6" transform="translate(177.5 229.12)" fill="none" stroke="#49240d" stroke-linecap="round" stroke-linejoin="round" stroke-width="4"/>
          <path id="パス_644" data-name="パス 644" d="M184.31,254.1l-6.81-6.81,6.81-6.81" fill="none" stroke="#49240d" stroke-linecap="round" stroke-linejoin="round" stroke-width="4"/>
          <line id="線_195" data-name="線 195" x1="38.6" transform="translate(177.5 247.29)" fill="none" stroke="#49240d" stroke-linecap="round" stroke-linejoin="round" stroke-width="4"/>
        </g>
      </g>
      <path id="パス_648" data-name="パス 648" d="M185.34,206.36a21.42,21.42,0,0,0,7.21,2.59l1.31.18-2.16,3.23-1-.42a22.81,22.81,0,0,1-7.37-4,27.75,27.75,0,0,1-9,4l-1,.35-.59-1.22,1.08-.29a24.38,24.38,0,0,0,7.59-4.85,1.608,1.608,0,0,1-.22-.23,17.93,17.93,0,0,1-2.3-3.89l-.52-.87,1.15-.59.47.9a13.52,13.52,0,0,0,2.9,3.29,14.47,14.47,0,0,0,2.61-3.79l.59-1.27,3.16,1.77-.81,1.1a20.18,20.18,0,0,1-3.24,3.87ZM181.43,192v-.87l-.08-.47v-.22h3.84A9.4,9.4,0,0,0,185,192v2.38h7a10.418,10.418,0,0,0,1.57-.12v1.43h-.25l-.33-.05H174.51a10.659,10.659,0,0,0-1.58.11v-1.43a11.23,11.23,0,0,0,1.58.12h6.92Zm-.23,5.55-.83.85a19.1,19.1,0,0,1-5.72,4.33l-.82.59-.8-1,.89-.61a18.23,18.23,0,0,0,3.72-4.95l.43-1Zm6.12-1.13a41.43,41.43,0,0,1,5.2,3l1.11.57L191.09,203l-.59-1a42.651,42.651,0,0,0-4-4.38l-.8-.61.9-1Z" fill="#49240d"/>
      <path id="パス_649" data-name="パス 649" d="M196.88,197a30.193,30.193,0,0,1,3.49,1.32l.92.35-2,2.92-.5-.71c-.77-.91-1.64-1.83-2.54-2.73l-.61-.4.68-1Zm5.56,5.27-.33.71a49.3,49.3,0,0,1-2.82,8l-.33,1-3.18-2,.75-.75a35.24,35.24,0,0,0,4.47-6.71l.29-.76Zm-4.66-11a29,29,0,0,1,2.75,1.15l.76.33.84.36L200,196l-.42-.7a26.121,26.121,0,0,0-2.5-2.88l-.56-.42.77-1Zm3.39,19.78c1.77-1.74,2.42-3.56,2.42-6.69v-.8a8.48,8.48,0,0,0-.11-1.46h3.1a10,10,0,0,0-.11,1.46v.8A7.75,7.75,0,0,1,202,212l-.73.56-.8-1Zm2.54-16a9.588,9.588,0,0,0-1.58.12v-1.44a11.228,11.228,0,0,0,1.58.12h4V192a7.58,7.58,0,0,0-.16-1.56H211a10.668,10.668,0,0,0-.14,1.56v1.86h4.74a10.42,10.42,0,0,0,1.57-.12v1.44h-6.99l-.09.12a25.481,25.481,0,0,1-2.85,3.22c1.18,0,2.59,0,4-.09l1.72-.07-.87-1.42-.54-.61,1-.82.56.56c1.13.92,2.36,2,3.63,3.18l1,.78-3,2.26-.28-1c-.52-1.11-.59-1.25-.85-1.75a80.069,80.069,0,0,1-9,2l-1.22.36-1-3.54,1.36.12h1.89a24.829,24.829,0,0,0,.89-3.34Zm3.72,16v-.47a5.459,5.459,0,0,0,.07-1v-6a7.58,7.58,0,0,0-.12-1.3h3.06a8.192,8.192,0,0,0-.11,1.3v6a9.229,9.229,0,0,0,.14,1.55h-3.11Zm10.24-4c.05.82.1,2.17.1,2.85,0,1.6-.66,2-3,2-2.59,0-3.13-.4-3.13-2.29v-6.1a10.494,10.494,0,0,0-.12-1.5h3.06a11,11,0,0,0-.12,1.5V209c0,.4.15.52.66.52.8,0,1.11-.1,1.18-.4a11.14,11.14,0,0,0,.21-2.29v-.94l1.34.38Z" fill="#49240d"/>
      <g id="レイヤー_2-5" data-name="レイヤー 2">
        <g id="Rect_最後透明に_2" data-name="Rect 最後透明に ">
          <rect id="長方形_215" data-name="長方形 215" width="87.06" height="87.06" transform="translate(153.34 73.79)" fill="none"/>
        </g>
        <g id="icon-2" data-name="icon">
          <circle id="楕円形_34" data-name="楕円形 34" cx="10.88" cy="10.88" r="10.88" transform="translate(186.22 88.54)" stroke-width="5" stroke="#49240d" stroke-linecap="round" stroke-linejoin="round" fill="none"/>
          <path id="パス_650" data-name="パス 650" d="M169.54,147.52v-5.44c0-10.5,7.67-19,17.14-19h20.84c9.46,0,17.14,8.54,17.14,19v5.44" fill="none" stroke="#49240d" stroke-linecap="round" stroke-linejoin="round" stroke-width="5"/>
        </g>
      </g>
      <g id="レイヤー_2-6" data-name="レイヤー 2">
        <g id="Rect_最後透明に_3" data-name="Rect 最後透明に ">
          <rect id="長方形_216" data-name="長方形 216" width="87.06" height="87.06" transform="translate(74.31 178.7)" fill="none"/>
        </g>
        <g id="icon-3" data-name="icon">
          <circle id="楕円形_35" data-name="楕円形 35" cx="10.88" cy="10.88" r="10.88" transform="translate(107.2 193.45)" stroke-width="5" stroke="#49240d" stroke-linecap="round" stroke-linejoin="round" fill="none"/>
          <path id="パス_651" data-name="パス 651" d="M90.51,252.43V247c0-10.5,7.67-19,17.14-19h20.84c9.47,0,17.14,8.54,17.14,19v5.44" fill="none" stroke="#49240d" stroke-linecap="round" stroke-linejoin="round" stroke-width="5"/>
        </g>
      </g>
      <g id="レイヤー_2-7" data-name="レイヤー 2">
        <g id="Rect_最後透明に_4" data-name="Rect 最後透明に ">
          <rect id="長方形_217" data-name="長方形 217" width="87.06" height="87.06" transform="translate(235.09 178.7)" fill="none"/>
        </g>
        <g id="icon-4" data-name="icon">
          <circle id="楕円形_36" data-name="楕円形 36" cx="10.88" cy="10.88" r="10.88" transform="translate(267.97 193.45)" stroke-width="5" stroke="#49240d" stroke-linecap="round" stroke-linejoin="round" fill="none"/>
          <path id="パス_652" data-name="パス 652" d="M251.29,252.43V247c0-10.5,7.67-19,17.14-19h20.84c9.46,0,17.14,8.54,17.14,19v5.44" fill="none" stroke="#49240d" stroke-linecap="round" stroke-linejoin="round" stroke-width="5"/>
        </g>
      </g>
      <g id="レイヤー_2-8" data-name="レイヤー 2">
        <g id="Rect_最後透明に_5" data-name="Rect 最後透明に ">
          <rect id="長方形_218" data-name="長方形 218" width="87.06" height="87.06" transform="translate(305.94 73.79)" fill="none"/>
        </g>
        <g id="icon-5" data-name="icon">
          <circle id="楕円形_37" data-name="楕円形 37" cx="10.88" cy="10.88" r="10.88" transform="translate(338.82 88.54)" stroke-width="5" stroke="#49240d" stroke-linecap="round" stroke-linejoin="round" fill="none"/>
          <path id="パス_653" data-name="パス 653" d="M322.13,147.52v-5.44c0-10.5,7.68-19,17.15-19h20.84c9.46,0,17.14,8.54,17.14,19v5.44" fill="none" stroke="#49240d" stroke-linecap="round" stroke-linejoin="round" stroke-width="5"/>
        </g>
      </g>
      <path id="パス_654" data-name="パス 654" d="M587,116c1.87,0,5.49-1.68,7.93-3.58a18.67,18.67,0,0,0,4.64-4.85l2.22,1.91a10.066,10.066,0,0,0-1.07,1,24,24,0,0,1-3.69,3v8.79a5,5,0,0,0,.11,1H594.5a4.327,4.327,0,0,0,.13-1v-7.51a24.558,24.558,0,0,1-6.39,2,4,4,0,0,0-.88.26Z" fill="#49240d"/>
      <path id="パス_655" data-name="パス 655" d="M610.74,114.23c-.84-1.59-4-4.55-5-4.76l.77-1.14a2.89,2.89,0,0,0,1,.6,23.582,23.582,0,0,1,4.23,2.49c.23.19.53.4.87.66Zm-4.27,5.93c6.2-.21,11.28-3.57,12.74-8.4a3.559,3.559,0,0,0,.17-.94l1,.43a3.489,3.489,0,0,0-.36,1.13c-1.18,5.53-4.89,8.75-11.59,10.08a6.191,6.191,0,0,0-1.15.36Z" fill="#49240d"/>
      <path id="パス_656" data-name="パス 656" d="M624.61,110.36a5.59,5.59,0,0,0-1.05.11v-1.2a6.361,6.361,0,0,0,1.05.11h13.27c-.23,7.74-3.62,12-10.61,13.38l-.39.11-.32.13h-.09l-.38-1c1.37.13,4.28-1.48,5.7-3.13,1.91-2.14,2.88-4.76,3.13-8.52Z" fill="#49240d"/>
      <path id="パス_657" data-name="パス 657" d="M638.94,122c2.3-1,3.61-4,3.52-8.09V110a6.149,6.149,0,0,0-.11-1H645a6,6,0,0,0-.11,1v3.84c0,4.38-1.31,6.74-4.57,8.39a2.321,2.321,0,0,0-.75.55Zm8.34-12.78a5.352,5.352,0,0,0-.12-1h2.63a5.2,5.2,0,0,0-.12,1v10.25c2.65-.54,5.74-3.74,6.3-6.55v-.08l1,.47a4.233,4.233,0,0,0-.52,1.2c-1.58,4.63-4.5,7.16-9.2,8Z" fill="#49240d"/>
      <path id="パス_658" data-name="パス 658" d="M660,110.9a6.149,6.149,0,0,0-1,.11v-1.22a4.83,4.83,0,0,0,1,.13h11.5a4,4,0,0,0,1-.13V111a6,6,0,0,0-1-.11h-4.44v9.57h5.57a3.22,3.22,0,0,0,1-.15v1.28a5.209,5.209,0,0,0-1-.11H658.89a5.351,5.351,0,0,0-1,.11v-1.28a3.221,3.221,0,0,0,1,.15h5.62V110.9Z" fill="#49240d"/>
      <path id="パス_659" data-name="パス 659" d="M681.7,114.23c-.85-1.59-4-4.55-5-4.76l.77-1.14a2.811,2.811,0,0,0,1.05.6,24.3,24.3,0,0,1,4.23,2.49c.22.19.52.4.86.66Zm-4.27,5.93c6.2-.21,11.28-3.57,12.74-8.4a4,4,0,0,0,.17-.94l1,.43a3.261,3.261,0,0,0-.36,1.13c-1.18,5.53-4.89,8.75-11.6,10.08a5.922,5.922,0,0,0-1.14.36Z" fill="#49240d"/>
      <path id="パス_660" data-name="パス 660" d="M697.73,108.8a5.359,5.359,0,0,0-.13-1h2.6a6.362,6.362,0,0,0-.11,1v3h5.19v-3a4.122,4.122,0,0,0-.13-1h2.7a4.669,4.669,0,0,0-.13,1v3h2.42a6.36,6.36,0,0,0,1-.11v1.21h-.09a3.909,3.909,0,0,0-1-.12h-2.42v2.14c0,4.59-2.1,7.06-7.05,8.13a4,4,0,0,0-.93.32l-.42-1.07a6.8,6.8,0,0,0,4.48-2.34,7.061,7.061,0,0,0,1.48-5V112.8H700v3.53a6,6,0,0,0,.11,1h-2.6a4.634,4.634,0,0,0,.13-1V112.8h-2.57a4.729,4.729,0,0,0-1,.13v-1.21a6,6,0,0,0,1,.11h2.57Z" fill="#49240d"/>
      <path id="パス_661" data-name="パス 661" d="M728.69,115.9a4.571,4.571,0,0,0-1-.11H714.41a2.84,2.84,0,0,0-1,.13v-1.7a4.231,4.231,0,0,0,1,.11h13.31a6.2,6.2,0,0,0,1-.11Z" fill="#49240d"/>
      <g id="レイヤー_2-9" data-name="レイヤー 2">
        <g id="icon-6" data-name="icon">
          <circle id="楕円形_38" data-name="楕円形 38" cx="11.52" cy="11.52" r="11.52" transform="translate(646.49 30)" stroke-width="5" stroke="#49240d" stroke-linecap="round" stroke-linejoin="round" fill="none"/>
          <path id="パス_662" data-name="パス 662" d="M628.82,92.44V86.68c0-11.12,8.13-20.16,18.15-20.16H669c10,0,18.15,9,18.15,20.16v5.76" fill="none" stroke="#49240d" stroke-linecap="round" stroke-linejoin="round" stroke-width="5"/>
        </g>
      </g>
      <path id="パス_663" data-name="パス 663" d="M583.89,238.92a4.57,4.57,0,0,0-3.91-2.38c-1.78,0-3.1,1-3.1,2.4s.77,2.1,3.34,2.75c4,1,5.71,2.5,5.71,5,0,2.79-2.19,4.38-6,4.38a11.53,11.53,0,0,1-5.9-1.34l1.21-2.24A6.24,6.24,0,0,0,580,250.1c2,0,3.26-1,3.26-2.55s-1.08-2.42-3.74-3.07c-3.56-.88-5-2.19-5-4.57,0-2.57,2.14-4.28,5.36-4.28a10.4,10.4,0,0,1,5.21,1.17Z" fill="#49240d"/>
      <path id="パス_664" data-name="パス 664" d="M599.92,250.86l-9.95-13v13h-1.09V235.79h2.91l8,10.27V235.79h1.08v15.07Z" fill="#49240d"/>
      <path id="パス_665" data-name="パス 665" d="M613.58,238.92a4.57,4.57,0,0,0-3.91-2.38c-1.78,0-3.09,1-3.09,2.4s.76,2.1,3.33,2.75c4,1,5.72,2.5,5.72,5,0,2.79-2.2,4.38-6,4.38a11.53,11.53,0,0,1-5.9-1.34l1.22-2.24a6.21,6.21,0,0,0,4.76,2.61c2,0,3.25-1,3.25-2.55s-1.08-2.42-3.74-3.07c-3.56-.88-5-2.19-5-4.57,0-2.57,2.14-4.28,5.36-4.28a10.4,10.4,0,0,1,5.21,1.17Z" fill="#49240d"/>
      <path id="パス_666" data-name="パス 666" d="M625.05,238.34a8.824,8.824,0,0,0-1,.11v-1.2a5.53,5.53,0,0,0,1,.12h10.38a18.439,18.439,0,0,1-2.72,7,34.627,34.627,0,0,1,5.14,3.86c.26.25.54.47.82.72l.06.05-2.06,2.23a25.743,25.743,0,0,0-4.67-5.88c-.21.26-.3.35-.43.52a15.59,15.59,0,0,1-8,4.78,4,4,0,0,0-1,.43l-.45-1a11.74,11.74,0,0,0,5-2.64,15.49,15.49,0,0,0,5.21-9.11Z" fill="#49240d"/>
      <path id="パス_667" data-name="パス 667" d="M638.75,243.46a5.188,5.188,0,0,0,.81-.66l5.53-5.75c3.16,3,7.19,7.08,9.89,10.15a5.133,5.133,0,0,0,.83.79l-2.14,2.47c-.22-.43-.36-.62-2.62-3.89q-3.85-5.52-5.87-7.86l-3.78,6-.12.19c-.22.32-.33.52-.45.69Zm15.69-5.68a2.23,2.23,0,1,1-2.21-2.23,2.23,2.23,0,0,1,2.21,2.23Zm-3.67,0a1.44,1.44,0,1,0,1.44-1.45,1.46,1.46,0,0,0-1.44,1.45Z" fill="#49240d"/>
      <path id="パス_668" data-name="パス 668" d="M663.54,244.35a13.28,13.28,0,0,0-5.94-2.94l.56-1.14a3.2,3.2,0,0,0,1.11.26,23.611,23.611,0,0,1,5.6,1.65Zm-4.35,4.09a17.44,17.44,0,0,0,6.11-1.31,11.94,11.94,0,0,0,6.6-6.84v-.06a4.321,4.321,0,0,0,.25-.92l1,.42a4.768,4.768,0,0,0-.53,1.38c-1.74,5.77-5,8.43-11.58,9.63a5.83,5.83,0,0,0-1.1.3Zm6.2-8.17a14.17,14.17,0,0,0-5.82-3.3l.63-1.05a3.52,3.52,0,0,0,.73.23,23.86,23.86,0,0,1,5.78,1.93Z" fill="#49240d"/>
      <path id="パス_669" data-name="パス 669" d="M679.47,240.25a4.5,4.5,0,0,0-.2-.88l2.27-.26a1.155,1.155,0,0,0,0,.24,3.462,3.462,0,0,0,.05.6l.3,2.23L689,241a6.68,6.68,0,0,1-3.8,5.72,3.338,3.338,0,0,0-.77.52l-.56-.9a1.6,1.6,0,0,0,1-.52,6.17,6.17,0,0,0,1.58-3.64L682,243l.93,7.1a4.637,4.637,0,0,0,.21.88l-2.27.3a3.138,3.138,0,0,0,0-.39q0-.225,0-.51l-.93-7-2.59.47a4,4,0,0,0-.94.28l-.15-1.12h.36a3.586,3.586,0,0,0,.62-.06l2.58-.43Z" fill="#49240d"/>
      <path id="パス_670" data-name="パス 670" d="M693.94,245.52a5.619,5.619,0,0,0,.12-1.05V237.1a5.7,5.7,0,0,0-.12-1h2.63a5.618,5.618,0,0,0-.12,1v7.37a5.624,5.624,0,0,0,.12,1.05Zm2.4,5.24a7.66,7.66,0,0,0,5.06-2.86c.86-1.09,1.18-2.4,1.18-4.71V237a6.566,6.566,0,0,0-.11-1h2.75a6.458,6.458,0,0,0-.11,1v6.26c.06,4.71-2,7-7.36,8.25a2.93,2.93,0,0,0-.92.33h-.06Z" fill="#49240d"/>
      <path id="パス_671" data-name="パス 671" d="M711,238.34a9,9,0,0,0-1,.11v-1.2a5.62,5.62,0,0,0,1,.12h10.38a18.272,18.272,0,0,1-2.71,7,34.532,34.532,0,0,1,5.13,3.86c.26.25.54.47.82.72l.06.05-2.06,2.23a25.4,25.4,0,0,0-4.66-5.88c-.21.26-.3.35-.44.52a15.6,15.6,0,0,1-7.94,4.78,3.691,3.691,0,0,0-1,.43l-.45-1a11.721,11.721,0,0,0,4.94-2.64,15.44,15.44,0,0,0,5.21-9.11Z" fill="#49240d"/>
      <path id="パス_672" data-name="パス 672" d="M729.08,251.38a6,6,0,0,0,.11-1V236.8a6.563,6.563,0,0,0-.11-1.05h2.69a6.472,6.472,0,0,0-.11,1.05V241a22.54,22.54,0,0,1,7.44,2.72c.75.49.9.6,1.07.69l-1.69,2.4a20.809,20.809,0,0,0-6.82-4.78v8.32a5.764,5.764,0,0,0,.11,1Z" fill="#49240d"/>
      <g id="レイヤー_2-10" data-name="レイヤー 2">
        <g id="Rect_最後透明に_6" data-name="Rect 最後透明に ">
          <rect id="長方形_219" data-name="長方形 219" width="92.16" height="92.16" transform="translate(611.92 142.56)" fill="none"/>
        </g>
        <g id="icon-7" data-name="icon">
          <circle id="楕円形_39" data-name="楕円形 39" cx="11.52" cy="11.52" r="11.52" transform="translate(646.73 158.17)" stroke-width="5" stroke="#49240d" stroke-linecap="round" stroke-linejoin="round" fill="none"/>
          <path id="パス_673" data-name="パス 673" d="M629.06,220.61v-5.76c0-11.11,8.13-20.16,18.15-20.16h22.06c10,0,18.15,9.05,18.15,20.16v5.76" fill="none" stroke="#49240d" stroke-linecap="round" stroke-linejoin="round" stroke-width="5"/>
        </g>
      </g>
      <path id="パス_645" data-name="パス 645" d="M465.054,123.424c.783-.178,1.187-.273,2.279-.582l.831-.356.38,1.187-.712.332-1.389.76-1.187.653a.368.368,0,0,1-.154.071V133.9a1.531,1.531,0,0,1-1.662,1.745,10.9,10.9,0,0,1-3.157-.807l-1.187-.249-.131-1.187c.807.059,1.816.107,2.374.107s.451-.107.451-.534V127.2c-.32.178-.546.273-1.187.582l-1.056.653-1.187-3.786,1.329-.131c1.341-.2,1.472-.225,2.148-.356v-5.424H460.5a11.214,11.214,0,0,0-1.662.119v-1.531a11.325,11.325,0,0,0,1.662.119h1.341v-4.5l-.071-.5v-.226h3.56a9.986,9.986,0,0,0-.154,1.662v3.561h1.187a10.955,10.955,0,0,0,1.673-.119v1.531h-2.86Zm7.251-4.3c0,.51,0,.688.285.783a7.951,7.951,0,0,0,2.552.226,28.057,28.057,0,0,0,4.391-.3.854.854,0,0,0,.7-.783,7.334,7.334,0,0,0,.178-1.341v-1.187l1.424.4-.107.89c0,.724.071,1.97.071,2.492,0,2.208-.807,2.48-6.943,2.48-3.133,0-4.213-.131-4.925-.629a2.528,2.528,0,0,1-.937-2.374v-6.421l-.071-.487v-.249h3.632v.4a5.474,5.474,0,0,0-.131,1.294V116.2a25.636,25.636,0,0,0,5.329-2.374l1.009-.783,2.5,2.908-1.389.32a51.1,51.1,0,0,1-7.453,1.187ZM479,124.563a12.569,12.569,0,0,0,2.077-.131,10.181,10.181,0,0,0-.154,2.1v6.848a9.349,9.349,0,0,0,.154,1.638,16.067,16.067,0,0,0-1.673-.095h-8.533a16.18,16.18,0,0,0-1.65.095,10.588,10.588,0,0,0,.154-2.1V126.2a9.01,9.01,0,0,0-.154-1.816,11.76,11.76,0,0,0,2.018.131Zm-6.492,1.282v3.133h5.186v-3.133Zm0,4.427v3.359h5.186v-3.359Z" transform="translate(1 39.78)" fill="#fff"/>
      <path id="パス_646" data-name="パス 646" d="M495.241,128.553c-6.243-.059-8.094-.641-9.886-3.133a26.226,26.226,0,0,1-2.931,3l-.783.831L479.8,126.3l1.056-.32a21.254,21.254,0,0,0,2.374-.961v-4.747H481.7a11.356,11.356,0,0,0-1.673.119v-1.543a10.087,10.087,0,0,0,1.673.131h2.825a19.445,19.445,0,0,0,2.1-.071,10.33,10.33,0,0,0-.154,2.089v3.561c.807.866,1.662,1.187,3.762,1.5,1.092.095,2.255.131,4.047.131a52.722,52.722,0,0,0,9.495-.558l-.629,2.73a33.377,33.377,0,0,1-3.644.142h-.831v.926h3.157a10.955,10.955,0,0,0,1.673-.119v1.531h-.261a9.208,9.208,0,0,0-1.412-.095h-3.157v3.157c0,1.187-.582,1.863-1.745,1.863a19.3,19.3,0,0,1-3.988-.653l-1.187-.249-.225-1.448a18.416,18.416,0,0,0,2.777.309c.831,0,.89,0,.89-.51v-2.469h-8.9a28.4,28.4,0,0,1,3.715,1.187l1.187.332-2.623,3.157-.629-.831c-.914-1.021-1.816-1.946-2.706-2.813l-.51-.38.582-.676h-3.632a11.582,11.582,0,0,0-1.673.119V129.3a11.794,11.794,0,0,0,1.673.119h13.494ZM481.9,112.982a27.981,27.981,0,0,1,3.56,1.923l1.009.463L483.6,117.99l-.38-.76a25.089,25.089,0,0,0-2.172-3.264l-.581-.522.866-.914Zm19.879,10.207a10.351,10.351,0,0,0,.154,2.077c-.712,0-1.044-.071-1.673-.071H489.829a15.4,15.4,0,0,0-1.745.071,9.875,9.875,0,0,0,.154-2.077v-4.344a9.3,9.3,0,0,0-.154-1.816,18.335,18.335,0,0,0,2.1.107h2.647v-.178a6.609,6.609,0,0,1,.083-.736v-.178h-4.569a10.266,10.266,0,0,0-1.673.131v-1.543a11.8,11.8,0,0,0,1.673.119h2.469a10.206,10.206,0,0,0-1.033-1.97l-.249-.273.985-.807.273.225c.427.2,1.187.605,1.946,1.033l.451.261.641.273-1.851,1.258h4.3a11.411,11.411,0,0,0,.914-2.113l.2-.783,3.679,1.08-1.056.76a13.13,13.13,0,0,1-1.59,1.056h3.311a10.684,10.684,0,0,0,1.662-.119v1.543h-.249a7.916,7.916,0,0,0-1.412-.107h-5.507a17.816,17.816,0,0,1-1.448,1.092h5.032a13.233,13.233,0,0,0,2.077-.107,10.055,10.055,0,0,0-.154,2.1Zm-3.24-3.833v-.938h-7.121v.938Zm-7.121,2.172h7.121v-.938h-7.121Zm0,1.187V123.9h7.121v-1.187Z" transform="translate(8.006 40.3)" fill="#fff"/>
    </g>
  </g>
</svg>
