<svg id="レイヤー_1" data-name="レイヤー 1" xmlns="http://www.w3.org/2000/svg" viewBox="0 0 120 137"><defs><style>.cls-1{fill:#f76a6f;}.cls-2,.cls-3{fill:#fff;}.cls-2{stroke:#fff;stroke-miterlimit:10;stroke-width:0.25px;}.cls-3{font-size:16px;font-family:UDTypos58Std-Regular-83pv-RKSJ-H, UDTypos58 Std;}.cls-4{letter-spacing:-0.09em;}.cls-5{letter-spacing:-0.01em;}.cls-6{letter-spacing:0em;}.cls-7{letter-spacing:-0.02em;}.cls-8{letter-spacing:0.04em;}.cls-9{font-size:14px;letter-spacing:0.05em;}</style></defs><rect class="cls-1" width="120" height="137"/><path class="cls-2" d="M38.79,27a6,6,0,0,0-6,6V58.12a6,6,0,0,0,6,6H81.21a6,6,0,0,0,6-6V32.93a6,6,0,0,0-6-6Zm0,1.32H81.21a4.62,4.62,0,0,1,3.13,1.21L61.53,50.91a2.36,2.36,0,0,1-3.06,0L35.66,29.5A4.62,4.62,0,0,1,38.79,28.29Zm-4,2.24L57.56,51.89a3.62,3.62,0,0,0,4.88,0L85.19,30.53a4.65,4.65,0,0,1,.66,2.4V58.12a4.62,4.62,0,0,1-4.64,4.64H38.79a4.62,4.62,0,0,1-4.64-4.64V32.93A4.65,4.65,0,0,1,34.81,30.53Z"/><text class="cls-3" transform="translate(4.12 88.86)"><tspan class="cls-4">メ</tspan><tspan x="14.56" y="0">ール</tspan><tspan class="cls-5" x="46.56" y="0">マ</tspan><tspan class="cls-6" x="62.4" y="0">ガ</tspan><tspan class="cls-7" x="78.4" y="0">ジ</tspan><tspan class="cls-8" x="94.08" y="0">ン</tspan><tspan class="cls-9"><tspan x="40.53" y="19.84">登録</tspan></tspan></text></svg>