<svg xmlns="http://www.w3.org/2000/svg" width="440" height="414.7" viewBox="0 0 440 414.7">
  <g id="グループ_272" data-name="グループ 272" transform="translate(-164 -1139)">
    <g id="グループ_203" data-name="グループ 203" transform="translate(164 1312.8)">
      <path id="パス_332" data-name="パス 332" d="M120.45,0A120.45,120.45,0,1,1,0,120.45,120.45,120.45,0,0,1,120.45,0Z" transform="translate(0 0)" fill="#ffbb87" opacity="0.9"/>
      <path id="パス_687" data-name="パス 687" d="M-25.865-14.735v.77c0,.77.42,1.155,1.505,1.155,1.4,0,2.03-.455,2.03-1.435,0-.945-.175-3.745-.175-7.91V-23.73c.805-.315,1.12-.595,1.12-.98,0-.63-.77-.84-4.69-1.225a27.375,27.375,0,0,1,.21,3.78v6.615H-33.46v-11.2c.91-.315,1.365-.665,1.365-1.12,0-.42-.455-.84-4.97-1.26a44.565,44.565,0,0,1,.21,4.97v8.61h-7.35v-8.19c.91-.35,1.26-.665,1.26-1.085,0-.56-.525-.7-4.795-1.155a42.162,42.162,0,0,1,.21,5.145c0,4.27-.21,6.2-.21,7,0,.735.385,1.12,1.435,1.12,1.47,0,2.1-.385,2.1-1.3v-.735h7.35V-.665h-8.82V-8.54c.84-.385,1.19-.665,1.19-1.085,0-.525-.98-.805-4.76-1.12a33.681,33.681,0,0,1,.175,4.41c0,4.8-.175,7.175-.175,7.945,0,.945.455,1.295,1.54,1.295,1.435,0,2.03-.455,2.03-1.5V.14H-24.36V1.68c0,.84.42,1.155,1.47,1.155,1.4,0,2.065-.455,2.065-1.435S-21-2.555-21-6.895V-8.54c.91-.315,1.33-.63,1.33-1.085,0-.63-.735-.805-4.935-1.19a20.979,20.979,0,0,1,.245,3.64v6.51h-9.1v-14.07ZM14.35-9.275c.35,0,.455-.105.455-.35s-.28-.56-1.05-1.19c-1.68-1.365-2.065-1.645-2.38-1.645-.245,0-.665.28-2.345,2.38H-11.69a14.85,14.85,0,0,1-2.835-.28l.385,1.3a16.918,16.918,0,0,1,2.45-.21h6.125A40.429,40.429,0,0,1-7.875-1.5h-1.3a41.4,41.4,0,0,1-4.515-.175c1.3,4.865,1.3,4.865,1.855,4.865.42,0,.6-.28.84-1.33A122.713,122.713,0,0,0,7.035-1.085c.14.315.245.63.385.98C8.3,2.17,8.5,2.415,9.52,2.415A2.164,2.164,0,0,0,11.445.035c0-2.415-2.975-5.005-8.015-6.86-.175-.07-.35.245-.21.35A14.461,14.461,0,0,1,6.65-1.96c-4.375.245-8.75.42-13.125.455a40.41,40.41,0,0,0,5.53-7.77ZM.21-26.25a29.925,29.925,0,0,0,7.07,9.38,31.22,31.22,0,0,0,4.97,3.5,5.151,5.151,0,0,0,1.645.7c.28,0,.455-.175.595-.665.525-1.89,1.3-2.765,2.415-2.87.175,0,.175-.42,0-.455A25.661,25.661,0,0,1,8.68-19.495a25.363,25.363,0,0,1-8.015-7.42c1.26-.35,1.54-.525,1.54-.84,0-.42-.035-.455-4.97-1.785a26.957,26.957,0,0,1-2.45,5.32,36.1,36.1,0,0,1-11.2,11.375c-.14.105.07.455.245.385C-8.505-15.575-3.15-20.055.21-26.25ZM-5.67-16.03a11.758,11.758,0,0,1-2.52-.28l.385,1.3a12.11,12.11,0,0,1,2.065-.21H6.335c.35,0,.455-.1.455-.35s-.28-.56-.945-1.12c-1.5-1.26-1.855-1.54-2.17-1.54-.245,0-.665.28-2.205,2.2Zm45.815-3.08c-.175,0-.315.07-.315.245,0,.21.21.315.455.49a11.817,11.817,0,0,1,3.64,3.57A9.833,9.833,0,0,1,45.6-10.36a.806.806,0,0,1-.56.84,24.1,24.1,0,0,1-2.45.84c-.35.105-.665.175-.665.385s.1.315.525.35c2.24.175,3.045.77,3.675,1.75a1.272,1.272,0,0,0,1.3.665,1.347,1.347,0,0,0,1.225-.735,4.037,4.037,0,0,0,.525-2.52,10.813,10.813,0,0,0-1.26-4.585,12.073,12.073,0,0,0-4.69-4.69A7.758,7.758,0,0,0,40.145-19.11Zm-6.86,6.23a1.467,1.467,0,0,0,.14-.56c0-.175-.175-.245-.35-.245s-.42.28-.7.7c-1.925,3.01-2.835,4.62-3.92,6.125a1.294,1.294,0,0,1-.84.63c-.595,0-1.155-.7-1.54-1.715a13.637,13.637,0,0,1-.77-4.9,17.221,17.221,0,0,1,.595-5.04,2.446,2.446,0,0,0,.315-1.365c0-.98-.735-2.03-1.995-3.08a4.4,4.4,0,0,0-2.52-1.26c-.6,0-.735.07-.735.35,0,.21.07.21.245.385a3.8,3.8,0,0,1,1.435,2.625c.07,1.715,0,3.36,0,4.865a32.627,32.627,0,0,0,.455,5.74,11.671,11.671,0,0,0,3.64,6.86A4.924,4.924,0,0,0,30.1-1.26a1.348,1.348,0,0,0,1.33-1.435,3.221,3.221,0,0,0-.56-1.5,2.106,2.106,0,0,1-.245-.945A12.269,12.269,0,0,1,31.08-7,48.869,48.869,0,0,1,33.285-12.88Z" transform="translate(117.6 131.1)" fill="#fff"/>
    </g>
    <g id="グループ_204" data-name="グループ 204" transform="translate(264.1 1139)">
      <path id="パス_330" data-name="パス 330" d="M119.9,0c66.219,0,119.9,53.927,119.9,120.45S186.119,240.9,119.9,240.9,0,186.973,0,120.45,53.681,0,119.9,0Z" transform="translate(0)" fill="#ff878a" opacity="0.903"/>
      <path id="パス_686" data-name="パス 686" d="M-20.088-9.648h-11.52a11.489,11.489,0,0,1-2.52-.288l.4,1.332a14.024,14.024,0,0,1,2.268-.216h11.376V-1.4c0,.4-.18.54-.612.54-1.3,0-3.168-.108-5.148-.252-.18,0-.216.468-.036.5C-23,.108-21.96.72-21.78,2.016c.144.792.216.936.9.936,1.8,0,2.988-.432,3.636-1.332A3.838,3.838,0,0,0-16.6-.72c0-1.368-.072-2.3-.108-4.284V-8.82H-2.088c.36,0,.468-.108.468-.36s-.288-.54-1.152-1.26C-4.68-11.916-5.076-12.2-5.4-12.2c-.252,0-.684.288-2.52,2.556H-16.7v-1.116c.936-.432,1.26-.684,1.26-1.044,0-.252,0-.4-.684-.576A34.941,34.941,0,0,0-10.4-15.876c1.368-.036,1.764-.216,1.764-.72,0-.288-.216-.54-.828-1.08-1.4-1.26-1.692-1.476-2.052-1.476-.288,0-.576.216-2.052,1.548H-25.524a9.834,9.834,0,0,1-2.34-.288l.4,1.4a7.758,7.758,0,0,1,2.052-.288h11.772a22.976,22.976,0,0,1-3.672,4.14c-.684-.108-1.62-.252-2.88-.468a22.276,22.276,0,0,1,.108,2.7ZM-29.556-22.32a12.579,12.579,0,0,0-.4-1.8c-.036-.18-.324-.144-.36.036-.324,2.268-.792,2.988-2.7,3.924a1.747,1.747,0,0,0-1.116,1.728,1.8,1.8,0,0,0,1.872,1.908c1.944,0,3.06-1.908,2.808-4.968h22.9a20.294,20.294,0,0,1-1.152,3.6c-.072.18.18.36.324.288A19.012,19.012,0,0,0-4-19.836c.252-.252.288-.252.864-.288,1.368-.108,1.548-.216,1.548-.792,0-.288-.216-.576-.936-1.332C-4.176-23.9-4.428-24.12-4.788-24.12c-.288,0-.576.216-2.052,1.8h-5.58a34.558,34.558,0,0,0,4.968-4.212c1.224,0,1.656-.252,1.656-.684,0-.468-1.044-1.08-4.284-2.556a29.1,29.1,0,0,1-1.3,3.276,44.406,44.406,0,0,1-2.3,4.176Zm13.86-3.024c0-1.98-1.656-3.384-5.436-4.644-.18-.072-.288.18-.18.324a8.335,8.335,0,0,1,1.944,4c.36,1.944.612,2.3,1.656,2.3A1.919,1.919,0,0,0-15.7-25.344Zm-7.632.5c0-1.908-1.584-3.24-5.4-4.32a.237.237,0,0,0-.216.36A8.24,8.24,0,0,1-27-25.02c.4,1.8.756,2.268,1.728,2.268A1.972,1.972,0,0,0-23.328-24.84Zm50.76-1.836a1.546,1.546,0,0,0-.576,0c-.108.036-.18.072-.18.216s.252.324.4.468a13.474,13.474,0,0,1,2.268,3.168A1.29,1.29,0,0,0,30.564-22a1.209,1.209,0,0,0,1.188-1.26,2.7,2.7,0,0,0-1.332-2.16A7.028,7.028,0,0,0,27.432-26.676Zm2.88-2.268a.944.944,0,0,0-.576.036.218.218,0,0,0-.108.216c0,.144.288.324.432.432a9.136,9.136,0,0,1,2.52,2.808,1.377,1.377,0,0,0,1.332.792,1.207,1.207,0,0,0,1.116-1.332,2.313,2.313,0,0,0-1.3-1.836A7.394,7.394,0,0,0,30.312-28.944Zm-5.22,11.556A21.937,21.937,0,0,0,28.4-11.16c1.368,1.8,2.3,2.412,2.988,2.412A1.25,1.25,0,0,0,32.4-9.18a1.775,1.775,0,0,0,.576-1.332,3.43,3.43,0,0,0-1.188-2.412,18.61,18.61,0,0,1-3.276-3.492,14.853,14.853,0,0,1-2.52-4.608,9.95,9.95,0,0,1-.432-3.492,1.36,1.36,0,0,0-1.4-1.368c-1.08,0-1.836.5-1.836,1.224a3.5,3.5,0,0,0,.324,1.512,10.449,10.449,0,0,1,.972,4.284,28.417,28.417,0,0,1-.252,5.8C22.644-7.668,20.556-2.2,14.22-2.2a6.153,6.153,0,0,1-5-1.836C8.244-5,7.6-6.552,7.6-8.964a15.966,15.966,0,0,1,2.52-7.668,23.759,23.759,0,0,1,3.924-4.824,7.12,7.12,0,0,1,2.3-1.512c.54-.18.828-.5.828-.9a.95.95,0,0,0-.18-.54,3.214,3.214,0,0,0-2.34-1.584,1.73,1.73,0,0,0-1.116.36,4.367,4.367,0,0,1-1.044.684A15.677,15.677,0,0,1,7.56-23.9c-1.44,0-1.98-.252-2.484-1.152-.108-.18-.216-.36-.468-.36-.216,0-.288.288-.288.468a4.308,4.308,0,0,0,.756,2.232,3.5,3.5,0,0,0,3.06,1.368c.54,0,1.62-.036,2.268-.108C7.2-16.848,5.616-12.816,5.616-8.28a10.518,10.518,0,0,0,2.2,6.732A7.953,7.953,0,0,0,14.4,1.26c5.148,0,8.64-3.456,9.936-8.6a26.221,26.221,0,0,0,.612-6.876c0-.9,0-1.908-.072-3.168Z" transform="translate(115.2 130.7)" fill="#fff"/>
    </g>
    <g id="グループ_205" data-name="グループ 205" transform="translate(362 1312.8)">
      <path id="パス_331" data-name="パス 331" d="M121,0c66.826,0,121,53.927,121,120.45S187.826,240.9,121,240.9,0,186.973,0,120.45,54.174,0,121,0Z" transform="translate(0 0)" fill="#87a5ff" opacity="0.9"/>
      <path id="パス_688" data-name="パス 688" d="M-16.92-13.068a27.086,27.086,0,0,0,5,7.956A25.221,25.221,0,0,0-5.544-.288a4.586,4.586,0,0,0,1.3.54c.288,0,.432-.144.648-.648.792-1.728,1.3-2.232,2.7-2.592.18-.036.216-.288.036-.324a28.034,28.034,0,0,1-9.864-4.32,20.641,20.641,0,0,1-6.048-6.588h14.04c.36,0,.468-.108.468-.36s-.288-.54-1.152-1.188c-1.836-1.332-2.268-1.62-2.592-1.62-.252,0-.684.288-2.34,2.34H-16.92V-22.1H-5.4c.36,0,.468-.108.468-.36S-5.22-23-6.012-23.58C-7.7-24.768-8.136-25.056-8.46-25.056c-.252,0-.684.288-2.2,2.124H-16.92V-27.9c.828-.432,1.116-.684,1.116-1.044,0-.54-.648-.684-4.716-1.116a29.078,29.078,0,0,1,.18,3.42v3.708h-7.524a20.8,20.8,0,0,1-3.42-.288l.4,1.332a25.864,25.864,0,0,1,3.1-.216h7.452v7.056H-30.456a21.2,21.2,0,0,1-3.456-.288l.4,1.332a26.921,26.921,0,0,1,3.132-.216h8.5A37.042,37.042,0,0,1-34.956-.144c-.144.108.072.468.252.4A32.278,32.278,0,0,0-20.268-10.44C-20.376-5.364-20.52.4-20.52,1.8c0,.936.5,1.332,1.62,1.332,1.368,0,2.052-.468,2.052-1.476,0-1.368-.072-5.328-.072-7.992Zm36.072,1.836a25.972,25.972,0,0,0,5.4,7.956A26.375,26.375,0,0,0,30.492.9a4.5,4.5,0,0,0,1.152.468c.324,0,.432-.144.648-.612.756-1.728,1.3-2.268,2.7-2.628.18-.036.216-.288.036-.324A30.215,30.215,0,0,1,25.956-5.76a22.383,22.383,0,0,1-6.624-6.516H33.66c.36,0,.468-.108.468-.36s-.288-.54-1.152-1.188c-1.872-1.332-2.3-1.62-2.628-1.62-.252,0-.684.288-2.34,2.34h-6.3a29.271,29.271,0,0,0,5.508-5.9c1.3,0,1.62-.144,1.62-.72,0-.468-.612-.792-4.356-2.484a22.344,22.344,0,0,1-1.188,3.672,34.752,34.752,0,0,1-2.7,5.436h-1.44V-23.148H31.68c.36,0,.468-.108.468-.36s-.288-.54-1.08-1.188c-1.8-1.4-2.2-1.692-2.52-1.692-.252,0-.684.288-2.52,2.412H19.152v-4.1c.828-.432,1.116-.684,1.116-1.008,0-.54-.684-.72-4.644-1.152a30.886,30.886,0,0,1,.18,3.456v2.808H6.444a14.931,14.931,0,0,1-2.88-.288l.4,1.332a18.315,18.315,0,0,1,2.592-.216H15.8V-13.1H5.148a21.2,21.2,0,0,1-3.456-.288l.4,1.332a26.921,26.921,0,0,1,3.132-.216H14A34.838,34.838,0,0,1,.972,1.044c-.144.108.072.432.252.36A32.665,32.665,0,0,0,15.876-8.676c-.108,4.5-.288,9.36-.288,10.548,0,.9.54,1.3,1.656,1.3,1.3,0,1.98-.468,1.98-1.44,0-1.764-.072-5.364-.072-8.028ZM12.492-16.7c0-1.98-1.26-3.168-5.076-4.932-.18-.072-.4.252-.288.4a10.441,10.441,0,0,1,1.764,4.968q.27,1.728,1.728,1.728A1.983,1.983,0,0,0,12.492-16.7Z" transform="translate(117.4 132.1)" fill="#fff"/>
    </g>
  </g>
</svg>
