<svg xmlns="http://www.w3.org/2000/svg" width="809.878" height="105.831" viewBox="0 0 809.878 105.831">
  <g id="e0812_1" transform="matrix(1, -0.017, 0.017, 1, -20.121, 31.896)" opacity="0.796">
    <path id="パス_80" data-name="パス 80" d="M38.72,37.389c11.062,4.681,27.443,7.408,43.4,9.509,20.21,2.654,41.27,4.718,62.225,6.56,44.142,3.907,89.242,6.45,134.448,8.293q33.825,1.382,67.862,2.285c19.891.553,39.888.921,59.672,1.917,18.4.921,36.7,2.4,52.971,5.6a157.331,157.331,0,0,1,18.827,4.718c-7.446,2.248-13.615,4.9-18.082,8.035-4.68,3.354-14.253,10.467-.532,12.789a81.032,81.032,0,0,0,19.04,1,34.369,34.369,0,0,0,12.977-3.575c7.02-3.723,9.679-9.177,4.255-13.305-2.021-1.548-5.318-2.875-9.041-4.091,2.553-.774,5.318-1.511,8.19-2.175,16.274-3.8,35.952-6.008,54.566-7.961,35.739-3.8,72.648-5.2,109.77-6.229,20-.553,40.1-1.106,59.991-1.88,9.573-.369,19.146-.7,28.4-1.622a227.651,227.651,0,0,0,22.869-3.465c27.443-5.565,49.461-15.369,56.055-26.242a10.9,10.9,0,0,0,1.7-7.519c-.106-.627-8.722-.848-8.722-.848,2.021,11.352-16.912,22.519-41.164,29.67a222.077,222.077,0,0,1-46.376,8.072c-20.422,1.437-41.8,1.806-62.544,2.4-37.867,1.069-75.839,1.953-112.749,5.2-19.891,1.769-40.207,4.017-58.608,7.187-6.063,1.032-11.807,2.285-17.019,3.723-.319-.074-.532-.147-.851-.221a198.474,198.474,0,0,0-20.848-4.46C425.257,65.1,386.539,64.4,349.524,63.409c-47.652-1.29-95.411-2.949-142.531-5.786-23.613-1.437-47.014-3.133-70.2-5.27-21.167-1.953-43.185-3.944-62.969-7.3C56.8,42.143,44.145,37.941,36.912,31.823c-6.276-5.344-10.1-11.5-7.339-17.249,1.276-2.617,4.148-5.049,9.254-7.04-.213.074-7.446-1.4-8.722-.848-10.637,4.2-11.381,10.246-8.935,15.517C23.509,27.474,28.828,33.224,38.72,37.389Zm444.4,40.948c3.3,1.548,5.637,3.28,6.276,5.2,1.489,4.239-2.34,9.435-11.913,12.31a37.83,37.83,0,0,1-7.765,1.4,35.138,35.138,0,0,1-4.042.147c-.319-.074-.745-.147-.957-.221-.532-.295-1.383-.516-1.915-.811-3.4-1.99-1.064-4.791.851-6.855C467.7,85.228,474.185,81.432,483.12,78.336Z" transform="translate(0.419 -23.996)" fill="#f4627e"/>
  </g>
</svg>
