<svg xmlns="http://www.w3.org/2000/svg" width="100" height="40" viewBox="0 0 100 40">
  <g id="グループ_95" data-name="グループ 95" transform="translate(-4.91)">
    <path id="パス_335" data-name="パス 335" d="M0,0H100V40H0Z" transform="translate(4.911)" fill="#ffbb87"/>
    <path id="パス_14" data-name="パス 14" d="M5454,1175v12l6.611-6.612L5466,1175Z" transform="translate(-5449.089 -1175)" fill="#fff"/>
    <path id="パス_684" data-name="パス 684" d="M18.264,10.9v.528c0,.528.288.792,1.032.792.96,0,1.392-.312,1.392-.984,0-.648-.12-2.568-.12-5.424V4.728c.552-.216.768-.408.768-.672,0-.432-.528-.576-3.216-.84a18.771,18.771,0,0,1,.144,2.592v4.536H13.056V2.664c.624-.216.936-.456.936-.768,0-.288-.312-.576-3.408-.864a30.559,30.559,0,0,1,.144,3.408v5.9H5.688V4.728c.624-.24.864-.456.864-.744,0-.384-.36-.48-3.288-.792A28.911,28.911,0,0,1,3.408,6.72c0,2.928-.144,4.248-.144,4.8,0,.5.264.768.984.768,1.008,0,1.44-.264,1.44-.888v-.5h5.04v9.648H4.68v-5.4c.576-.264.816-.456.816-.744,0-.36-.672-.552-3.264-.768a23.1,23.1,0,0,1,.12,3.024c0,3.288-.12,4.92-.12,5.448,0,.648.312.888,1.056.888.984,0,1.392-.312,1.392-1.032V21.1H19.3v1.056c0,.576.288.792,1.008.792.96,0,1.416-.312,1.416-.984s-.12-2.712-.12-5.688V15.144c.624-.216.912-.432.912-.744,0-.432-.5-.552-3.384-.816a14.385,14.385,0,0,1,.168,2.5v4.464h-6.24V10.9ZM45.84,14.64c.24,0,.312-.072.312-.24s-.192-.384-.72-.816c-1.152-.936-1.416-1.128-1.632-1.128-.168,0-.456.192-1.608,1.632H27.984A10.183,10.183,0,0,1,26.04,13.9l.264.888a11.6,11.6,0,0,1,1.68-.144h4.2A27.723,27.723,0,0,1,30.6,19.968h-.888a28.387,28.387,0,0,1-3.1-.12c.888,3.336.888,3.336,1.272,3.336.288,0,.408-.192.576-.912a84.146,84.146,0,0,0,12.36-2.016c.1.216.168.432.264.672.6,1.56.744,1.728,1.44,1.728a1.484,1.484,0,0,0,1.32-1.632c0-1.656-2.04-3.432-5.5-4.7-.12-.048-.24.168-.144.24a9.916,9.916,0,0,1,2.352,3.1c-3,.168-6,.288-9,.312a27.71,27.71,0,0,0,3.792-5.328ZM36.144,3a20.52,20.52,0,0,0,4.848,6.432,21.408,21.408,0,0,0,3.408,2.4,3.532,3.532,0,0,0,1.128.48c.192,0,.312-.12.408-.456.36-1.3.888-1.9,1.656-1.968.12,0,.12-.288,0-.312a17.6,17.6,0,0,1-5.64-1.944,17.392,17.392,0,0,1-5.5-5.088c.864-.24,1.056-.36,1.056-.576,0-.288-.024-.312-3.408-1.224a18.485,18.485,0,0,1-1.68,3.648,24.758,24.758,0,0,1-7.68,7.8c-.1.072.048.312.168.264C30.168,10.32,33.84,7.248,36.144,3Zm-4.032,7.008a8.062,8.062,0,0,1-1.728-.192l.264.888a8.3,8.3,0,0,1,1.416-.144h8.28c.24,0,.312-.072.312-.24s-.192-.384-.648-.768C38.976,8.688,38.736,8.5,38.52,8.5c-.168,0-.456.192-1.512,1.512ZM63.528,7.9c-.12,0-.216.048-.216.168,0,.144.144.216.312.336a8.1,8.1,0,0,1,2.5,2.448A6.743,6.743,0,0,1,67.272,13.9a.553.553,0,0,1-.384.576,16.525,16.525,0,0,1-1.68.576c-.24.072-.456.12-.456.264s.072.216.36.24c1.536.12,2.088.528,2.52,1.2a.872.872,0,0,0,.888.456.924.924,0,0,0,.84-.5,2.768,2.768,0,0,0,.36-1.728,7.414,7.414,0,0,0-.864-3.144A8.279,8.279,0,0,0,65.64,8.616,5.32,5.32,0,0,0,63.528,7.9Zm-4.7,4.272a1.006,1.006,0,0,0,.1-.384c0-.12-.12-.168-.24-.168s-.288.192-.48.48c-1.32,2.064-1.944,3.168-2.688,4.2a.887.887,0,0,1-.576.432c-.408,0-.792-.48-1.056-1.176a9.351,9.351,0,0,1-.528-3.36,11.809,11.809,0,0,1,.408-3.456,1.677,1.677,0,0,0,.216-.936,3.086,3.086,0,0,0-1.368-2.112,3.015,3.015,0,0,0-1.728-.864c-.408,0-.5.048-.5.24,0,.144.048.144.168.264a2.606,2.606,0,0,1,.984,1.8c.048,1.176,0,2.3,0,3.336A22.373,22.373,0,0,0,51.84,14.4a8,8,0,0,0,2.5,4.7,3.377,3.377,0,0,0,2.3,1.032.924.924,0,0,0,.912-.984,2.209,2.209,0,0,0-.384-1.032A1.444,1.444,0,0,1,57,17.472a8.413,8.413,0,0,1,.312-1.272A33.51,33.51,0,0,1,58.824,12.168Z" transform="translate(18.392 8)" fill="#fff"/>
  </g>
</svg>
