<svg id="グループ_274" data-name="グループ 274" xmlns="http://www.w3.org/2000/svg" width="100" height="40" viewBox="0 0 100 40">
  <g id="グループ_95" data-name="グループ 95">
    <path id="パス_334" data-name="パス 334" d="M0,0H99.445V40H0Z" transform="translate(0.555)" fill="#87a5ff"/>
    <path id="パス_14" data-name="パス 14" d="M5454,1175v12l6.611-6.612L5466,1175Z" transform="translate(-5454 -1175)" fill="#fff"/>
  </g>
  <g id="グループ_273" data-name="グループ 273" transform="translate(24.555 8)">
    <path id="パス_683" data-name="パス 683" d="M12.72-8.712a18.057,18.057,0,0,0,3.336,5.3A16.814,16.814,0,0,0,20.3-.192a3.057,3.057,0,0,0,.864.36c.192,0,.288-.1.432-.432.528-1.152.864-1.488,1.8-1.728.12-.024.144-.192.024-.216a18.69,18.69,0,0,1-6.576-2.88A13.761,13.761,0,0,1,12.816-9.48h9.36c.24,0,.312-.072.312-.24s-.192-.36-.768-.792c-1.224-.888-1.512-1.08-1.728-1.08-.168,0-.456.192-1.56,1.56H12.72v-4.7H20.4c.24,0,.312-.072.312-.24s-.192-.36-.72-.744c-1.128-.792-1.416-.984-1.632-.984-.168,0-.456.192-1.464,1.416H12.72V-18.6c.552-.288.744-.456.744-.7,0-.36-.432-.456-3.144-.744a19.386,19.386,0,0,1,.12,2.28v2.472H5.424a13.866,13.866,0,0,1-2.28-.192l.264.888a17.242,17.242,0,0,1,2.064-.144H10.44v4.7H3.7a14.137,14.137,0,0,1-2.3-.192l.264.888A17.948,17.948,0,0,1,3.744-9.48H9.408A24.694,24.694,0,0,1,.7-.1C.6-.024.744.216.864.168A21.519,21.519,0,0,0,10.488-6.96C10.416-3.576,10.32.264,10.32,1.2c0,.624.336.888,1.08.888.912,0,1.368-.312,1.368-.984,0-.912-.048-3.552-.048-5.328ZM36.768-7.488a17.314,17.314,0,0,0,3.6,5.3A17.583,17.583,0,0,0,44.328.6,3,3,0,0,0,45.1.912c.216,0,.288-.1.432-.408.5-1.152.864-1.512,1.8-1.752.12-.024.144-.192.024-.216A20.143,20.143,0,0,1,41.3-3.84a14.922,14.922,0,0,1-4.416-4.344H46.44c.24,0,.312-.072.312-.24s-.192-.36-.768-.792c-1.248-.888-1.536-1.08-1.752-1.08-.168,0-.456.192-1.56,1.56h-4.2a19.514,19.514,0,0,0,3.672-3.936c.864,0,1.08-.1,1.08-.48,0-.312-.408-.528-2.9-1.656a14.9,14.9,0,0,1-.792,2.448,23.167,23.167,0,0,1-1.8,3.624h-.96v-6.7H45.12c.24,0,.312-.072.312-.24s-.192-.36-.72-.792c-1.2-.936-1.464-1.128-1.68-1.128-.168,0-.456.192-1.68,1.608H36.768V-18.72c.552-.288.744-.456.744-.672,0-.36-.456-.48-3.1-.768a20.591,20.591,0,0,1,.12,2.3v1.872H28.3a9.954,9.954,0,0,1-1.92-.192l.264.888a12.21,12.21,0,0,1,1.728-.144h6.168v6.7h-7.1a14.137,14.137,0,0,1-2.3-.192l.264.888a17.948,17.948,0,0,1,2.088-.144h5.856A23.226,23.226,0,0,1,24.648.7c-.1.072.048.288.168.24a21.777,21.777,0,0,0,9.768-6.72c-.072,3-.192,6.24-.192,7.032,0,.6.36.864,1.1.864.864,0,1.32-.312,1.32-.96,0-1.176-.048-3.576-.048-5.352Zm-4.44-3.648c0-1.32-.84-2.112-3.384-3.288-.12-.048-.264.168-.192.264a6.96,6.96,0,0,1,1.176,3.312Q30.108-9.7,31.08-9.7A1.322,1.322,0,0,0,32.328-11.136Z" transform="translate(0 21)" fill="#fff"/>
  </g>
</svg>
