<svg id="グループ_276" data-name="グループ 276" xmlns="http://www.w3.org/2000/svg" width="100" height="40" viewBox="0 0 100 40">
  <g id="グループ_95" data-name="グループ 95">
    <g id="パス_333" data-name="パス 333" transform="translate(0.555)" fill="#ff878a">
      <path d="M 98.94532012939453 39.5 L 0.5000062584877014 39.5 L 0.5000062584877014 0.5 L 98.94532012939453 0.5 L 98.94532012939453 39.5 Z" stroke="none"/>
      <path d="M 1 1 L 1 39 L 98.4453125 39 L 98.4453125 1 L 1 1 M 0 0 L 99.4453125 0 L 99.4453125 40 L 0 40 L 0 0 Z" stroke="none" fill="#ff9ea0"/>
    </g>
    <path id="パス_14" data-name="パス 14" d="M5454,1175v12l6.611-6.612L5466,1175Z" transform="translate(-5454 -1175)" fill="#fff"/>
  </g>
  <g id="グループ_275" data-name="グループ 275" transform="translate(26.297 8)">
    <path id="パス_685" data-name="パス 685" d="M10.608-6.432H2.928a7.659,7.659,0,0,1-1.68-.192l.264.888A9.35,9.35,0,0,1,3.024-5.88h7.584V-.936c0,.264-.12.36-.408.36-.864,0-2.112-.072-3.432-.168-.12,0-.144.312-.024.336C8.664.072,9.36.48,9.48,1.344c.1.528.144.624.6.624A2.786,2.786,0,0,0,12.5,1.08a2.559,2.559,0,0,0,.432-1.56c0-.912-.048-1.536-.072-2.856V-5.88h9.744c.24,0,.312-.072.312-.24s-.192-.36-.768-.84C20.88-7.944,20.616-8.136,20.4-8.136c-.168,0-.456.192-1.68,1.7H12.864v-.744c.624-.288.84-.456.84-.7,0-.168,0-.264-.456-.384a23.294,23.294,0,0,0,3.816-2.328c.912-.024,1.176-.144,1.176-.48,0-.192-.144-.36-.552-.72-.936-.84-1.128-.984-1.368-.984-.192,0-.384.144-1.368,1.032H6.984a6.556,6.556,0,0,1-1.56-.192l.264.936a5.172,5.172,0,0,1,1.368-.192H14.9a15.317,15.317,0,0,1-2.448,2.76c-.456-.072-1.08-.168-1.92-.312a14.851,14.851,0,0,1,.072,1.8ZM4.3-14.88a8.386,8.386,0,0,0-.264-1.2c-.024-.12-.216-.1-.24.024a2.7,2.7,0,0,1-1.8,2.616,1.164,1.164,0,0,0-.744,1.152A1.2,1.2,0,0,0,2.5-11.016c1.3,0,2.04-1.272,1.872-3.312H19.632a13.529,13.529,0,0,1-.768,2.4c-.048.12.12.24.216.192a12.675,12.675,0,0,0,2.256-1.488c.168-.168.192-.168.576-.192.912-.072,1.032-.144,1.032-.528,0-.192-.144-.384-.624-.888-1.1-1.1-1.272-1.248-1.512-1.248-.192,0-.384.144-1.368,1.2H15.72a23.039,23.039,0,0,0,3.312-2.808c.816,0,1.1-.168,1.1-.456,0-.312-.7-.72-2.856-1.7a19.4,19.4,0,0,1-.864,2.184A29.6,29.6,0,0,1,14.88-14.88Zm9.24-2.016c0-1.32-1.1-2.256-3.624-3.1-.12-.048-.192.12-.12.216a5.557,5.557,0,0,1,1.3,2.664c.24,1.3.408,1.536,1.1,1.536A1.279,1.279,0,0,0,13.536-16.9Zm-5.088.336c0-1.272-1.056-2.16-3.6-2.88a.158.158,0,0,0-.144.24A5.493,5.493,0,0,1,6-16.68c.264,1.2.5,1.512,1.152,1.512A1.315,1.315,0,0,0,8.448-16.56Zm33.84-1.224a1.031,1.031,0,0,0-.384,0c-.072.024-.12.048-.12.144s.168.216.264.312a8.982,8.982,0,0,1,1.512,2.112.86.86,0,0,0,.816.552.806.806,0,0,0,.792-.84,1.8,1.8,0,0,0-.888-1.44A4.685,4.685,0,0,0,42.288-17.784Zm1.92-1.512a.629.629,0,0,0-.384.024.145.145,0,0,0-.072.144c0,.1.192.216.288.288a6.091,6.091,0,0,1,1.68,1.872.918.918,0,0,0,.888.528.8.8,0,0,0,.744-.888,1.542,1.542,0,0,0-.864-1.224A4.93,4.93,0,0,0,44.208-19.3Zm-3.48,7.7A14.625,14.625,0,0,0,42.936-7.44c.912,1.2,1.536,1.608,1.992,1.608A.834.834,0,0,0,45.6-6.12a1.183,1.183,0,0,0,.384-.888,2.286,2.286,0,0,0-.792-1.608,12.407,12.407,0,0,1-2.184-2.328,9.9,9.9,0,0,1-1.68-3.072,6.633,6.633,0,0,1-.288-2.328.907.907,0,0,0-.936-.912c-.72,0-1.224.336-1.224.816a2.333,2.333,0,0,0,.216,1.008,6.966,6.966,0,0,1,.648,2.856,18.944,18.944,0,0,1-.168,3.864c-.48,3.6-1.872,7.248-6.1,7.248a4.1,4.1,0,0,1-3.336-1.224,4.439,4.439,0,0,1-1.08-3.288,10.644,10.644,0,0,1,1.68-5.112A15.839,15.839,0,0,1,33.36-14.3,4.746,4.746,0,0,1,34.9-15.312c.36-.12.552-.336.552-.6a.633.633,0,0,0-.12-.36,2.143,2.143,0,0,0-1.56-1.056,1.153,1.153,0,0,0-.744.24,2.911,2.911,0,0,1-.7.456,10.451,10.451,0,0,1-3.288.7c-.96,0-1.32-.168-1.656-.768-.072-.12-.144-.24-.312-.24-.144,0-.192.192-.192.312a2.872,2.872,0,0,0,.5,1.488,2.335,2.335,0,0,0,2.04.912c.36,0,1.08-.024,1.512-.072-2.136,3.072-3.192,5.76-3.192,8.784a7.012,7.012,0,0,0,1.464,4.488A5.3,5.3,0,0,0,33.6.84c3.432,0,5.76-2.3,6.624-5.736a17.48,17.48,0,0,0,.408-4.584c0-.6,0-1.272-.048-2.112Z" transform="translate(0 21)" fill="#fff"/>
  </g>
</svg>
